<svg width="41" height="39" viewBox="0 0 41 39" fill="none" xmlns="http://www.w3.org/2000/svg">
<path fill-rule="evenodd" clip-rule="evenodd" d="M10.3632 38.1407C11.118 38.1326 11.8725 38.1248 12.6261 38.1248C12.6251 38.1181 12.6241 38.1114 12.6229 38.105L12.6237 38.1094L12.6261 38.1248C12.7979 38.1248 12.9698 38.1328 13.1416 38.15H25.5563C26.5873 38.15 27.6181 38.152 28.6491 38.1539C30.7112 38.1577 32.773 38.1615 34.8351 38.15H34.878C37.7476 38.1244 40.05 35.7875 40.0329 32.9179V27.8919C40.0329 27.8607 40.035 27.822 40.0373 27.7814C40.0446 27.6552 40.0528 27.5109 39.9985 27.514C39.8439 27.5224 39.6001 27.5778 39.5141 27.6636C38.8552 28.103 38.2162 28.5826 37.5773 29.0624C36.2994 30.0219 35.0215 30.9813 33.5838 31.617C27.9893 33.5044 23.0412 33.5938 17.7896 32.3251C17.5021 32.2206 17.3653 32.2322 17.1225 32.2531C16.966 32.2665 16.7655 32.2838 16.4522 32.2761L16.3333 32.2799C15.8152 32.296 15.0631 32.3194 14.164 32.8664C12.0591 33.5107 9.20424 33.5938 7.72898 33.3732C7.73522 33.3874 7.7392 33.3996 7.74231 33.4109L7.72896 33.3822C7.70844 33.359 7.68257 33.3387 7.6575 33.319C7.57747 33.2558 7.50567 33.1993 7.64303 33.0815C7.68312 33.0556 7.72323 33.029 7.76332 33.0022C7.84349 32.9488 7.92369 32.8953 8.00388 32.8495C9.12935 32.1192 10.1861 31.3203 10.882 30.1432C11.8281 28.9961 11.3895 28.5489 10.5536 27.6961L10.5221 27.664C6.44925 23.5081 5.2508 19.0982 5.67559 13.1665C6.1825 9.91033 7.6774 7.10952 9.83385 4.66953C11.1397 3.1918 12.6948 1.99759 14.3959 1.00098C14.4205 0.985352 14.4491 0.972634 14.4783 0.959648C14.5615 0.922624 14.6495 0.883475 14.6623 0.769015C14.6723 0.678592 14.5271 0.648732 14.4755 0.648732C13.506 0.648732 12.549 0.640074 11.5965 0.631436C9.70436 0.614294 7.8298 0.597324 5.90972 0.648751C3.15187 0.726073 0.638431 2.62545 0.683959 6.00981C0.695412 11.9898 0.691601 17.9659 0.687789 23.9408C0.685874 26.9277 0.683959 29.9145 0.683959 32.9011C0.683959 35.6762 2.80605 38.0045 5.58108 38.1161C7.17295 38.1744 8.76879 38.1575 10.3632 38.1407ZM7.83802 33.5699L7.85782 33.5969C8.00183 33.7247 8.14476 33.8538 8.28684 33.9836C8.14901 33.8518 8.00664 33.7201 7.85786 33.5881L7.83802 33.5699ZM12.2359 37.6969C12.1881 37.6655 12.1421 37.6317 12.102 37.5917L12.0907 37.5892L12.102 37.6005C12.1421 37.6369 12.1881 37.6676 12.2359 37.6969ZM15.2579 18.896C16.087 18.894 16.8934 18.8921 17.6952 18.8979C18.3738 18.9065 18.7432 19.19 18.812 19.7312C18.8894 20.4098 18.4941 20.8653 17.7553 20.8739C16.7116 20.8868 15.6729 20.8852 14.6317 20.8835C14.2843 20.8829 13.9366 20.8825 13.5884 20.8825C13.4727 20.8825 13.3578 20.8839 13.2431 20.8852C12.9575 20.8889 12.6737 20.8923 12.3856 20.8739C11.8873 20.8481 11.3976 20.745 11.157 20.2294C10.9165 19.714 11.0883 19.2501 11.4148 18.8291C12.7378 17.1452 14.0695 15.4528 15.4012 13.7687C15.4785 13.6657 15.5558 13.5625 15.6332 13.4681C15.5699 13.3605 15.4879 13.3694 15.4079 13.3782C15.3794 13.3813 15.351 13.3844 15.3238 13.3821C14.8599 13.3778 14.3938 13.3778 13.9277 13.3778C13.4617 13.3778 12.9956 13.3778 12.5316 13.3735C12.3169 13.3735 12.1021 13.3478 11.8959 13.3048C11.4062 13.1931 11.1055 12.7034 11.2172 12.2223C11.2945 11.8958 11.5522 11.6295 11.8787 11.5522C12.0849 11.5006 12.2997 11.4748 12.5145 11.4748C14.0437 11.4662 15.5816 11.4662 17.1108 11.4748C17.3858 11.4662 17.6521 11.5006 17.9185 11.5694C18.5027 11.767 18.7519 12.3082 18.5199 12.8752C18.3136 13.365 17.9873 13.7859 17.6607 14.2069C16.5353 15.6416 15.4098 17.0678 14.2843 18.4855C14.1898 18.5972 14.1039 18.7088 13.9664 18.8979C14.4049 18.8979 14.8345 18.8969 15.2579 18.896ZM23.9324 14.3782C24.1387 14.1119 24.3534 13.8627 24.7059 13.794C25.3845 13.6565 26.0204 14.0947 26.0288 14.782C26.0546 16.5003 26.046 18.2185 26.0288 19.9369C26.0288 20.3836 25.7367 20.7789 25.3157 20.9078C24.8863 21.071 24.3965 20.9421 24.1129 20.5726C23.9669 20.3922 23.9068 20.3579 23.7005 20.5211C22.9187 21.1568 22.0338 21.2687 21.0801 20.9593C19.5509 20.461 18.9237 19.2668 18.7519 17.8148C18.5714 16.2425 19.0955 14.9023 20.5046 14.0775C21.6729 13.3816 22.8585 13.4417 23.9324 14.3782ZM22.4806 15.6238C22.6099 15.6294 22.7367 15.6533 22.857 15.6945C23.1159 15.7782 23.3462 15.9435 23.5117 16.1739C23.9926 16.8268 23.9926 17.9008 23.5117 18.5537C23.4257 18.6654 23.3312 18.7598 23.228 18.8372C22.9646 19.0321 22.6557 19.1224 22.3515 19.1156C22.0642 19.1116 21.7754 19.0208 21.527 18.837C21.4237 18.7596 21.3293 18.6652 21.2433 18.5535C21.0286 18.2528 20.9083 17.8919 20.8911 17.5139C20.8825 16.3026 21.544 15.5723 22.4806 15.6238ZM29.8865 17.5656C29.8177 15.3576 31.2697 13.708 33.3316 13.6479C35.5225 13.5792 37.1205 15.0483 37.1892 17.1963C37.258 19.3698 35.9263 20.9078 33.8728 21.1139C31.6306 21.3372 29.852 19.7136 29.8865 17.5656ZM32.0429 17.3593C32.0429 17.3321 32.0433 17.3053 32.0441 17.2787C32.074 16.3225 32.6321 15.6778 33.4375 15.6324C33.4982 15.629 33.5603 15.629 33.6236 15.6324C34.0276 15.641 34.4055 15.8471 34.6461 16.1737C34.6796 16.2183 34.7108 16.2651 34.7397 16.3137C34.9232 16.6219 35.0144 17.0028 35.0123 17.3832C35.0105 17.8142 34.8901 18.2438 34.6495 18.5635L34.6374 18.5794L34.6361 18.5809C34.4689 18.7923 34.2521 18.9427 34.0148 19.0287C33.7049 19.1438 33.3674 19.143 33.0625 19.0358C32.9179 18.9856 32.7794 18.9109 32.653 18.8113C32.5595 18.7433 32.4829 18.6586 32.4149 18.5656L32.4124 18.5623C32.1548 18.2103 32.0259 17.7887 32.0429 17.3593ZM29.1305 15.8559C29.1305 16.2999 29.1314 16.7437 29.1322 17.1877C29.1341 18.0754 29.136 18.9632 29.1305 19.8509C29.1389 20.461 28.6578 20.968 28.0479 20.985C27.9447 20.985 27.833 20.9764 27.73 20.9507C27.3004 20.8391 26.974 20.3836 26.974 19.8423V13.0121C26.974 12.8772 26.973 12.7433 26.9721 12.6096C26.9702 12.3433 26.9683 12.0782 26.974 11.8093C26.9824 11.1478 27.4034 10.7182 28.0393 10.7182C28.6922 10.7096 29.1305 11.1392 29.1305 11.8265C29.136 12.7202 29.1341 13.6178 29.1322 14.5141C29.1312 14.9618 29.1305 15.4095 29.1305 15.8559Z" fill="white"/>
</svg>
