<svg xmlns="http://www.w3.org/2000/svg" width="77.512" height="77.886" viewBox="0 0 77.512 77.886"><path d="M96.3,165.426V119.7a5.19,5.19,0,0,0-5.139-5.239H31.607a5.19,5.19,0,0,0-5.139,5.239v45.7Z" transform="translate(-22.629 -97.047)" fill="#8232b7"/><path d="M46.837,447.076H1.991a.761.761,0,0,0-.761.761v1.714a7.4,7.4,0,0,0,7.4,7.4h62.71a7.4,7.4,0,0,0,7.4-7.4v-1.714a.761.761,0,0,0-.761-.761Z" transform="translate(-1.23 -379.066)" fill="#454545"/><path d="M4,479.538a7.4,7.4,0,0,0,6.98,4.938H73.689a7.4,7.4,0,0,0,6.98-4.938H4Z" transform="translate(-3.579 -406.59)" fill="#313131"/><rect width="58.717" height="39.18" transform="translate(9.677 23.17)" fill="#fff"/><circle cx="11.241" cy="11.241" r="11.241" transform="translate(16.081 0.318)" fill="#f9b44d"/><path d="M154.071,303.382l-1.667-.39H125.856l-1.667.39a9.383,9.383,0,0,0-7.245,9.136v6.733h44.372v-6.733A9.383,9.383,0,0,0,154.071,303.382Z" transform="translate(-99.342 -256.901)" fill="#e6559e"/><path d="M188.8,245.944a14.889,14.889,0,0,0,13.274-8.142l-3.511-.821a5.141,5.141,0,0,1-3.969-5.005v-5.869H183.01v5.869a5.14,5.14,0,0,1-3.969,5.005l-3.511.821A14.89,14.89,0,0,0,188.8,245.944Z" transform="translate(-149.015 -191.711)" fill="#fad7a5"/><rect width="2.744" height="4.852" transform="translate(24.259 15.504)" fill="#cd905a"/><path d="M148.533,114.58h2.656v11.375h-2.656a2.288,2.288,0,0,1-2.288-2.288v-6.8A2.288,2.288,0,0,1,148.533,114.58Z" transform="translate(-124.185 -97.15)" fill="#a74ae5"/><rect width="2.278" height="11.376" transform="translate(25.044 17.43)" fill="#474756"/><path d="M236.134,231.974v-5.869H224.547v5.869a5.215,5.215,0,0,1-.028.529,12.488,12.488,0,0,0,5.582,1.31h0a12.487,12.487,0,0,0,6.042-1.55C236.138,232.167,236.134,232.071,236.134,231.974Z" transform="translate(-190.552 -191.71)" fill="#f0c891"/><path d="M346.341,125.955h-2.657V114.58h2.657a2.288,2.288,0,0,1,2.288,2.288v6.8A2.288,2.288,0,0,1,346.341,125.955Z" transform="translate(-291.59 -97.15)" fill="#a74ae5"/><rect width="2.367" height="11.376" transform="translate(51.838 17.43)" fill="#474756"/><path d="M191.291,61.186h0a12.545,12.545,0,0,1-12.545-12.545V38.384a12.545,12.545,0,0,1,12.545-12.545h0a12.545,12.545,0,0,1,12.545,12.545V48.641A12.545,12.545,0,0,1,191.291,61.186Z" transform="translate(-151.742 -21.908)" fill="#ffe1b3"/><path d="M236.433,192.377a5.8,5.8,0,0,1-4.112-1.7,1.141,1.141,0,0,1,1.614-1.613,3.537,3.537,0,0,0,5,0,1.141,1.141,0,1,1,1.614,1.613A5.8,5.8,0,0,1,236.433,192.377Z" transform="translate(-196.884 -160.02)" fill="#b28362"/><path d="M223.949,26.994a12.531,12.531,0,0,1,5.485,10.37V47.62a12.545,12.545,0,0,1-12.545,12.545h0a12.613,12.613,0,0,1-2.085-.176,12.485,12.485,0,0,0,7.06,2.175h0A12.545,12.545,0,0,0,234.409,49.62V39.363A12.546,12.546,0,0,0,223.949,26.994Z" transform="translate(-182.314 -22.888)" fill="#fad7a5"/><path d="M162.946,52.559a14.753,14.753,0,0,0-2.155,9.435,15.125,15.125,0,0,0,3.543-1.36,16.9,16.9,0,0,0,3.615-2.683h0Z" transform="translate(-136.444 -44.564)" fill="#f9b44d"/><path d="M204.482,15.094a22.6,22.6,0,0,0-5.728-10.517A15.34,15.34,0,0,0,189.1,0a15.768,15.768,0,0,0-10.115,3.708A16.8,16.8,0,0,0,175.45,8c4.363,6.242,10.907,10.211,18.225,10.211,1.8,0,5.567-.55,7.367-1.73Z" transform="translate(-148.948 0)" fill="#f9b44d"/><path d="M256.96,4.579A15.34,15.34,0,0,0,247.308.006a13.617,13.617,0,0,0-3.21.34,16.153,16.153,0,0,1,7.318,4.234A22.6,22.6,0,0,1,257.144,15.1l-3.44,1.381a13.266,13.266,0,0,1-4.8,1.506,20.048,20.048,0,0,0,2.976.224c1.8,0,5.568-.55,7.367-1.73l3.44-1.381A22.6,22.6,0,0,0,256.96,4.579Z" transform="translate(-207.153 -0.002)" fill="#f9b44d"/><path d="M276.177,183.59a.6.6,0,0,0-.6.6V185.4c0,.009,0,.017,0,.026a3.069,3.069,0,0,1-3.066,3.066H263.1a1.227,1.227,0,0,0-1.238,1.12,1.2,1.2,0,0,0,1.2,1.28h9.454a5.471,5.471,0,0,0,5.465-5.465h0v-1.234a.6.6,0,0,0-.6-.6h-1.2Z" transform="translate(-222.212 -155.662)" fill="#a74ae5"/><g transform="translate(33.183 19.981)"><circle cx="1.391" cy="1.391" r="1.391" fill="#53515e"/><circle cx="1.391" cy="1.391" r="1.391" transform="translate(9.456)" fill="#53515e"/></g><g transform="translate(17.603 51.016)"><path d="M119.853,335.366h-1.7a9.358,9.358,0,0,0-1.207,4.6V346.7h8.421v-5.822A5.513,5.513,0,0,0,119.853,335.366Z" transform="translate(-116.945 -335.366)" fill="#e6559e"/><path d="M358.787,335.366a5.513,5.513,0,0,0-5.513,5.513V346.7H361.7v-6.734a9.358,9.358,0,0,0-1.207-4.6Z" transform="translate(-317.323 -335.366)" fill="#e6559e"/></g></svg>