<svg xmlns="http://www.w3.org/2000/svg" width="82.24" height="74.834" viewBox="0 0 82.24 74.834"><g transform="translate(-0.536 7.436) rotate(-7)"><path d="M74.305,30H60.871v3.253a1.134,1.134,0,0,1-1.134,1.13H22.854a5.881,5.881,0,0,1-2.334-.594l-5.944-3.24c-.246-.134-.387-.31-.387-.484A.365.365,0,0,1,14.2,30H.755A.757.757,0,0,0,0,30.755v62a.757.757,0,0,0,.755.755h73.55a.757.757,0,0,0,.755-.755v-62A.757.757,0,0,0,74.305,30Zm0,0" transform="translate(0 -25.602)" fill="#a74ae5"/><path d="M214.692,313.135a8.566,8.566,0,1,1-8.564-8.658A8.612,8.612,0,0,1,214.692,313.135Zm0,0" transform="translate(-168.599 -259.84)" fill="#ffc502"/><g transform="translate(32.782 50.019)"><path d="M224.712,344.282a1.1,1.1,0,0,1-1.1-1.1v-.892a1.1,1.1,0,1,1,2.2,0v.892A1.1,1.1,0,0,1,224.712,344.282Zm0,0" transform="translate(-223.613 -341.191)" fill="#775436"/><path d="M274.459,344.282a1.1,1.1,0,0,1-1.1-1.1v-.892a1.1,1.1,0,1,1,2.2,0v.892A1.1,1.1,0,0,1,274.459,344.282Zm0,0" transform="translate(-266.066 -341.191)" fill="#775436"/><path d="M237.48,377.414h-5.022a1.1,1.1,0,0,1,0-2.2h5.022a1.1,1.1,0,1,1,0,2.2Zm0,0" transform="translate(-230.224 -370.227)" fill="#775436"/></g><path d="M67.845,313.135a8.566,8.566,0,1,1-8.565-8.658A8.612,8.612,0,0,1,67.845,313.135Zm0,0" transform="translate(-43.279 -259.84)" fill="#89c947"/><path d="M77.869,344.282a1.1,1.1,0,0,1-1.1-1.1v-.892a1.1,1.1,0,1,1,2.2,0v.892A1.1,1.1,0,0,1,77.869,344.282Zm0,0" transform="translate(-65.515 -291.172)" fill="#368c0e"/><path d="M127.616,344.282a1.1,1.1,0,0,1-1.1-1.1v-.892a1.1,1.1,0,1,1,2.2,0v.892A1.1,1.1,0,0,1,127.616,344.282Zm0,0" transform="translate(-107.968 -291.172)" fill="#368c0e"/><path d="M86.867,374.811a3.7,3.7,0,0,1-3.827-3.556,1.1,1.1,0,0,1,2.2,0,1.655,1.655,0,0,0,3.256,0,1.1,1.1,0,0,1,2.2,0A3.7,3.7,0,0,1,86.867,374.811Zm0,0" transform="translate(-70.866 -315.891)" fill="#368c0e"/><path d="M361.563,313.135A8.566,8.566,0,1,1,353,304.476,8.612,8.612,0,0,1,361.563,313.135Zm0,0" transform="translate(-293.939 -259.84)" fill="#fb8276"/><path d="M371.584,344.282a1.1,1.1,0,0,1-1.1-1.1v-.892a1.1,1.1,0,1,1,2.2,0v.892A1.1,1.1,0,0,1,371.584,344.282Zm0,0" transform="translate(-316.17 -291.172)" fill="#c0272d"/><path d="M421.334,344.282a1.1,1.1,0,0,1-1.1-1.1v-.892a1.1,1.1,0,1,1,2.2,0v.892A1.1,1.1,0,0,1,421.334,344.282Zm0,0" transform="translate(-358.627 -291.172)" fill="#c0272d"/><path d="M383.312,371.51a1.1,1.1,0,0,1-1.1-1.1,1.655,1.655,0,0,0-3.256,0,1.1,1.1,0,1,1-2.2,0,3.837,3.837,0,0,1,7.654,0A1.1,1.1,0,0,1,383.312,371.51Zm0,0" transform="translate(-321.525 -313.074)" fill="#c0272d"/><path d="M56.293,108.708a1.4,1.4,0,0,1-1.992,0L52.9,107.3a.953.953,0,1,1,1.353-1.341L55.3,107l4.033-4.064a.451.451,0,0,0-.31-.125H51.168a.454.454,0,0,0-.453.453v7.889a.454.454,0,0,0,.453.453h7.853a.454.454,0,0,0,.453-.453V105.5Zm0,0" transform="translate(-43.28 -87.743)" fill="#fcdb67"/><path d="M65.572,106.078h0a1.535,1.535,0,0,1-1.1-.459l-1.4-1.411a1.1,1.1,0,0,1,1.562-1.548l.938.947,4.171-4.2a1.1,1.1,0,1,1,1.561,1.548l-4.633,4.669A1.538,1.538,0,0,1,65.572,106.078Zm0,0" transform="translate(-53.553 -84.553)" fill="#ef5050"/><path d="M149.564,114.855h-13.5a1.1,1.1,0,0,1,0-2.2h13.5a1.1,1.1,0,0,1,0,2.2Zm0,0" transform="translate(-115.182 -96.141)" fill="#fff"/><path d="M143.758,140.168h-7.685a1.1,1.1,0,0,1,0-2.2h7.685a1.1,1.1,0,1,1,0,2.2Zm0,0" transform="translate(-115.186 -117.743)" fill="#fff"/><path d="M59.474,209.335a.454.454,0,0,1-.453.454H51.168a.454.454,0,0,1-.453-.454v-7.888a.455.455,0,0,1,.453-.454h7.853a.455.455,0,0,1,.453.454Zm0,0" transform="translate(-43.28 -171.527)" fill="#fcdb67"/><path d="M149.564,213.035h-13.5a1.1,1.1,0,0,1,0-2.2h13.5a1.1,1.1,0,1,1,0,2.2Zm0,0" transform="translate(-115.182 -179.927)" fill="#fff"/><path d="M143.758,238.347h-7.685a1.1,1.1,0,0,1,0-2.2h7.685a1.1,1.1,0,0,1,0,2.2Zm0,0" transform="translate(-115.186 -201.528)" fill="#fff"/><path d="M286.228,111.159a.454.454,0,0,1-.453.453h-7.853a.454.454,0,0,1-.454-.453V103.27a.454.454,0,0,1,.454-.453h7.853a.454.454,0,0,1,.453.453Zm0,0" transform="translate(-236.791 -87.744)" fill="#fcdb67"/><path d="M376.321,114.855h-13.5a1.1,1.1,0,1,1,0-2.2h13.5a1.1,1.1,0,0,1,0,2.2Zm0,0" transform="translate(-308.697 -96.141)" fill="#fff"/><path d="M370.511,140.168h-7.685a1.1,1.1,0,0,1,0-2.2h7.685a1.1,1.1,0,1,1,0,2.2Zm0,0" transform="translate(-308.696 -117.743)" fill="#fff"/><path d="M141.479,0a1.282,1.282,0,0,1,1.28,1.277V7.651a1.283,1.283,0,0,1-1.28,1.277H104.6a5.969,5.969,0,0,1-2.4-.613L96.247,5.076c-.618-.337-.618-.888,0-1.225L102.191.613A5.969,5.969,0,0,1,104.6,0Zm0,0" transform="translate(-81.741 0)" fill="#ffc502"/><path d="M105.112,0H104.6a5.969,5.969,0,0,0-2.4.613L96.247,3.851c-.618.337-.618.888,0,1.225l5.944,3.239a5.969,5.969,0,0,0,2.4.613h.516Zm0,0" transform="translate(-81.742 0)" fill="#ffd5b3"/><path d="M100.242,11.422,96.247,13.6c-.618.337-.618.888,0,1.225L100.242,17Zm0,0" transform="translate(-81.742 -9.747)" fill="#775436"/></g></svg>