<svg xmlns="http://www.w3.org/2000/svg" width="88.261" height="89.783" viewBox="0 0 88.261 89.783"><g transform="translate(-4.339)"><path d="M351.294,0H331.511a6.087,6.087,0,0,0-6.087,6.087V21.3a6.087,6.087,0,0,0,6.087,6.087h4.565V35l7.609-7.609h7.609a6.087,6.087,0,0,0,6.087-6.087V6.087A6.088,6.088,0,0,0,351.294,0Z" transform="translate(-264.78)" fill="#a74ae5"/><path d="M364.294,5.016c-6.28,14.971-18.632,21.916-26.877,24.99a6.03,6.03,0,0,0,3.984,1.522h4.565v7.609l7.609-7.609h7.609a6.087,6.087,0,0,0,6.087-6.087V10.223A6.066,6.066,0,0,0,364.294,5.016Z" transform="translate(-274.67 -4.136)" fill="#a74ae5"/><path d="M66.731,290.157l15.217-28.913H69.774l-7.609,13.7V262.766a9.13,9.13,0,0,0-9.13-9.131H43.9a4.565,4.565,0,0,1-4.565-4.565v-6.087H27.165v6.087a4.565,4.565,0,0,1-4.565,4.565h-9.13a9.13,9.13,0,0,0-9.13,9.131v27.391Z" transform="translate(0 -200.374)" fill="#ffd4b4"/><g transform="translate(10.426 66.813)"><path d="M45.086,403.983H42.042v-4.046a15.168,15.168,0,0,1-.628-17.17l1.112-1.753,2.57,1.631L43.984,384.4a12.124,12.124,0,0,0,.768,14.07,1.521,1.521,0,0,1,.333.951v4.565Z" transform="translate(-39.052 -381.014)" fill="#f5b789"/><path d="M267.974,403.983h-3.043v-4.565a1.521,1.521,0,0,1,.333-.951,12.121,12.121,0,0,0,.768-14.069l-1.112-1.753,2.57-1.631,1.112,1.753a15.168,15.168,0,0,1-.628,17.17v4.046Z" transform="translate(-225.313 -381.014)" fill="#f5b789"/></g><path d="M90.338,36.522V21.3A21.3,21.3,0,0,0,69.033,0h0a21.3,21.3,0,0,0-21.3,21.3V36.522a9.13,9.13,0,0,0,9.13,9.13H81.207A9.13,9.13,0,0,0,90.338,36.522Z" transform="translate(-35.781)" fill="#f9b44d"/><path d="M391.187,304.181h-13.7a9.13,9.13,0,0,1,9.131-9.131h13.7A9.13,9.13,0,0,1,391.187,304.181Z" transform="translate(-307.717 -243.312)" fill="#ffd4b4"/><g transform="translate(66.73 6.087)"><rect width="10.652" height="3.043" fill="#fff"/><rect width="6.087" height="3.043" transform="translate(13.696)" fill="#fff"/><rect width="19.783" height="3.043" transform="translate(0 6.087)" fill="#fff"/><rect width="10.652" height="3.043" transform="translate(0 12.174)" fill="#fff"/></g><path d="M91.119,87.877V94.43a13.7,13.7,0,0,0,27.391,0V82.256a13.622,13.622,0,0,0-1.639-6.5Z" transform="translate(-71.563 -62.473)" fill="#ffd4b4"/><rect width="21.304" height="16.739" transform="translate(22.6 62.391)" fill="#e6559e"/><path d="M69.774,311.338l-7.609,13.7V312.86a9.13,9.13,0,0,0-9.13-9.131h-4.87L33.252,323.512,19.1,303.729h-5.63a9.13,9.13,0,0,0-9.13,9.131v27.391H66.731l15.217-28.913Z" transform="translate(0 -250.468)" fill="#a74ae5"/><path d="M189.713,311.61H177.539l-7.609,13.7V313.132a9.13,9.13,0,0,0-8.128-9.073c-2.739,21.257-15.508,31.53-26.783,36.464H174.5Z" transform="translate(-107.765 -250.74)" fill="#a74ae5"/><g transform="translate(10.426 66.813)"><path d="M45.086,403.983H42.042v-4.046a15.168,15.168,0,0,1-.628-17.17l1.112-1.753,2.57,1.631L43.984,384.4a12.124,12.124,0,0,0,.768,14.07,1.521,1.521,0,0,1,.333.951v4.565Z" transform="translate(-39.052 -381.014)" fill="#8e35c9"/><path d="M267.974,403.983h-3.043v-4.565a1.521,1.521,0,0,1,.333-.951,12.121,12.121,0,0,0,.768-14.069l-1.112-1.753,2.57-1.631,1.112,1.753a15.168,15.168,0,0,1-.628,17.17v4.046Z" transform="translate(-225.313 -381.014)" fill="#8e35c9"/></g></g></svg>