<svg xmlns="http://www.w3.org/2000/svg" width="109.669" height="71.079" viewBox="0 0 109.669 71.079"><g transform="translate(-16 -100.45)"><path d="M395.374,130.47l-6.836,3.761L381.7,130.47v-6.79l6.836,3.418,6.838-3.418v6.79Z" transform="translate(-282.146 -17.923)" fill="#8834bf"/><path d="M385.356,129.556v-4.049L381.7,123.68v6.79l6.838,3.761,2.658-1.462Z" transform="translate(-282.146 -17.923)" fill="#8834bf"/><path d="M236.467,108.387v.226l-8.218,4.519-8.218-4.519V100.45l8.218,4.11,8.218-4.11Z" transform="translate(-157.414 0)" fill="#a74ae5"/><path d="M223.686,107.7v-5.421l-3.656-1.828v8.163l8.218,4.519,2.659-1.462Z" transform="translate(-157.414 0)" fill="#a74ae5"/><path d="M182.132,185.892a2.315,2.315,0,0,0,2.628.455,2.283,2.283,0,0,0,1.081-1.069,1.8,1.8,0,0,1,1.394-1.1c3.228-.183,9.713-.51,15.057-6.854l.219.187c1.323,3.745,4.963,6.7,9.422,7.768h0l-.007,1.864a2.589,2.589,0,0,1,2.314,1.972,3.346,3.346,0,0,1,.1.82,3.444,3.444,0,0,1-2.845,3.388v.021a14.758,14.758,0,0,1-8.6,13.393,12.021,12.021,0,0,1-4.761.985H195.5a12.02,12.02,0,0,1-4.761-.985,13.6,13.6,0,0,1-4.718-3.407,15.039,15.039,0,0,1-3.884-9.987v-.021a3.444,3.444,0,0,1-2.746-4.209,2.594,2.594,0,0,1,2.317-1.972l-.039-1.714Z" transform="translate(-125.982 -59.307)" fill="#ffe3c7"/><path d="M376.084,152.025a12.583,12.583,0,0,1,5.531,10.512l-.016,4.113a10.79,10.79,0,0,1-7.837-6.461l-.183-.155c-4.448,5.278-9.843,5.55-12.525,5.7a1.5,1.5,0,0,0-1.161.921,1.884,1.884,0,0,1-.9.887,1.921,1.921,0,0,1-2.184-.377l-.388-.386-.011-4.318a12.594,12.594,0,0,1,5.778-10.6v.352l6.838,3.761,6.836-3.761v-.187Z" transform="translate(-262.634 -39.664)" fill="#f9b44d"/><path d="M359.443,166.869l-.043-4.318a12.574,12.574,0,0,1,4.253-9.533l-1.465-.806v-.352a12.594,12.594,0,0,0-5.778,10.6l.011,4.318.388.386a1.921,1.921,0,0,0,2.184.377,1.9,1.9,0,0,0,.634-.49Z" transform="translate(-262.634 -39.664)" fill="#f9b44d"/><path d="M350.175,194.761a1.921,1.921,0,0,0,2.184.377,1.884,1.884,0,0,0,.9-.886,1.5,1.5,0,0,1,1.161-.921c2.682-.151,8.077-.423,12.525-5.7l.183.155a10.79,10.79,0,0,0,7.837,6.461l0,1.551a2.154,2.154,0,0,1,1.928,1.64,2.929,2.929,0,0,1,.082.683,2.862,2.862,0,0,1-2.365,2.817v.018a12.281,12.281,0,0,1-7.158,11.143,10.02,10.02,0,0,1-3.96.818h-2.2a10.012,10.012,0,0,1-3.959-.818,11.346,11.346,0,0,1-3.928-2.835,12.516,12.516,0,0,1-3.231-8.307v-.018a2.863,2.863,0,0,1-2.365-2.817,2.928,2.928,0,0,1,.082-.683,2.154,2.154,0,0,1,1.926-1.64l-.032-1.423Z" transform="translate(-255.999 -67.261)" fill="#ffe3c7"/><path d="M338.422,316.63l6.08,15.045h-8.892v-2.3a7.242,7.242,0,0,0-4.918-6.859l-1.542-.523a6.02,6.02,0,0,1,3.656-3.461Z" transform="translate(-241.603 -166.788)" fill="#8834bf"/><path d="M334.119,322.518l-1.542-.523a6.02,6.02,0,0,1,3.656-3.461l2.6-.882-.413-1.022-5.616,1.9a6.02,6.02,0,0,0-3.656,3.461l1.542.523a7.241,7.241,0,0,1,4.917,6.859v2.3h3.427v-2.3a7.242,7.242,0,0,0-4.918-6.859Z" transform="translate(-241.603 -166.788)" fill="#8834bf"/><path d="M25.706,316.63l6.08,15.045H16v-7.437a6.024,6.024,0,0,1,4.089-5.7Z" transform="translate(0 -166.788)" fill="#8834bf"/><path d="M24.659,318.533l1.6-.541-.55-1.362-5.616,1.9A6.025,6.025,0,0,0,16,324.238v7.437h4.57v-7.437a6.024,6.024,0,0,1,4.089-5.7Z" transform="translate(0 -166.788)" fill="#8834bf"/><path d="M165.59,333.36l-6.094,2.065a7.241,7.241,0,0,0-4.917,6.859v8.94h18.973Z" transform="translate(-106.918 -179.696)" fill="#a74ae5"/><path d="M158.236,345.268v-2.3a7.242,7.242,0,0,1,4.918-6.859l1.542-.523,1.641-.556-.745-1.672-4.551,1.542-1.542.523a7.241,7.241,0,0,0-4.917,6.859v8.94h3.656Z" transform="translate(-106.918 -179.696)" fill="#a74ae5"/><path d="M84.124,130.47l-6.836,3.761L70.45,130.47v-6.79l6.836,3.418,6.838-3.418v6.79Z" transform="translate(-42.009 -17.923)" fill="#8834bf"/><path d="M73.42,128.871v-3.706l-2.97-1.485v6.79l6.838,3.761,2.939-1.617Z" transform="translate(-42.009 -17.923)" fill="#8834bf"/><path d="M55.878,187.785a10.79,10.79,0,0,0,7.837,6.461l0,1.551a2.154,2.154,0,0,1,1.928,1.64,2.928,2.928,0,0,1,.082.683,2.862,2.862,0,0,1-2.365,2.817v.018A12.282,12.282,0,0,1,56.2,212.1a10.013,10.013,0,0,1-3.959.818h-2.2a10.021,10.021,0,0,1-3.959-.818,11.317,11.317,0,0,1-3.925-2.835,12.5,12.5,0,0,1-3.233-8.307v-.018a2.863,2.863,0,0,1-2.365-2.817,2.928,2.928,0,0,1,.082-.683,2.154,2.154,0,0,1,1.926-1.64l-.032-1.423.388.386a1.921,1.921,0,0,0,2.184.377,1.884,1.884,0,0,0,.9-.886,1.5,1.5,0,0,1,1.161-.921c2.682-.151,8.077-.423,12.525-5.7Z" transform="translate(-15.863 -67.261)" fill="#ffe3c7"/><path d="M64.834,152.025a12.583,12.583,0,0,1,5.531,10.512l-.016,4.113a10.79,10.79,0,0,1-7.837-6.461l-.183-.155c-4.448,5.278-9.843,5.55-12.525,5.7a1.5,1.5,0,0,0-1.161.921,1.884,1.884,0,0,1-.9.886,1.921,1.921,0,0,1-2.184-.377l-.388-.386-.011-4.318a12.594,12.594,0,0,1,5.778-10.6v.352l6.838,3.761,6.836-3.761v-.187Z" transform="translate(-22.498 -39.664)" fill="#f9b44d"/><path d="M49.053,234.875a11.317,11.317,0,0,1-3.925-2.835,12.5,12.5,0,0,1-3.233-8.307v-.018A2.863,2.863,0,0,1,39.53,220.9a2.928,2.928,0,0,1,.082-.683,2.154,2.154,0,0,1,1.926-1.64l-.021-.928a1.9,1.9,0,0,1-2.593-.109l-.388-.386.032,1.423a2.154,2.154,0,0,0-1.926,1.64,2.928,2.928,0,0,0-.082.683,2.863,2.863,0,0,0,2.365,2.817v.018a12.5,12.5,0,0,0,3.233,8.307,11.317,11.317,0,0,0,3.925,2.835,10.022,10.022,0,0,0,3.959.818h2.2c.13,0,.259-.005.388-.01a10.038,10.038,0,0,1-3.573-.808Z" transform="translate(-15.863 -90.037)" fill="#ffe3c7"/><path d="M48.142,166.777l-.011-4.318a12.575,12.575,0,0,1,4.26-9.448l-1.452-.8v-.352a12.594,12.594,0,0,0-5.778,10.6l.011,4.318.388.386a1.913,1.913,0,0,0,2.836-.134Z" transform="translate(-22.498 -39.664)" fill="#f9b44d"/><path d="M438.613,318.533a6.024,6.024,0,0,1,4.09,5.705v7.437H426.92L433,316.63Z" transform="translate(-317.035 -166.788)" fill="#8834bf"/><path d="M379.3,321.051a12.548,12.548,0,0,0,9.571-4.421L382.8,331.675H375.81l-6.08-15.045A12.549,12.549,0,0,0,379.3,321.051Z" transform="translate(-272.911 -166.788)" fill="#e6559e"/><path d="M386.445,310.646l2.429.823a12.573,12.573,0,0,1-19.144,0l4.515-1.529a7.163,7.163,0,0,0,10.115,0Z" transform="translate(-272.911 -161.626)" fill="#fadf4a"/><path d="M389.49,294.73a10.013,10.013,0,0,0,3.959.818h2.2a10.021,10.021,0,0,0,3.959-.818v3.475a7.162,7.162,0,0,1-10.115,0Z" transform="translate(-288.156 -149.892)" fill="#f2d3bb"/><path d="M288.436,334.677l-6.751-2.287-7.3,18.086h18.973v-8.94a7.242,7.242,0,0,0-4.918-6.859Z" transform="translate(-199.346 -178.947)" fill="#a74ae5"/><path d="M217.154,331.491a15.073,15.073,0,0,1-11.5-5.312l5.424-1.839a8.609,8.609,0,0,0,12.16,0l2.509.85,2.915.989A15.073,15.073,0,0,1,217.154,331.491Z" transform="translate(-146.319 -172.736)" fill="#fadf4a"/><path d="M229.39,306.06a12.02,12.02,0,0,0,4.761.985h2.637a12.02,12.02,0,0,0,4.761-.985v4.177a8.609,8.609,0,0,1-12.16,0Z" transform="translate(-164.635 -158.633)" fill="#ffe3c7"/><path d="M196.576,134.33v.423l8.218,4.519,8.218-4.519v-.226h.267a15.125,15.125,0,0,1,6.649,12.635l-.016,4.947h0c-4.46-1.067-8.1-4.023-9.422-7.768l-.219-.187c-5.344,6.345-11.828,6.671-15.057,6.854a1.8,1.8,0,0,0-1.394,1.1,2.283,2.283,0,0,1-1.081,1.069,2.315,2.315,0,0,1-2.628-.455l-.466-.466-.014-5.191a15.141,15.141,0,0,1,6.946-12.738Z" transform="translate(-133.96 -26.139)" fill="#f9b44d"/><path d="M205.65,332.39a15.112,15.112,0,0,0,23.008,0l-7.3,18.086h-8.4l-6.934-17.168q-.024-.288-.075-.576l-.144.027Z" transform="translate(-146.319 -178.947)" fill="#e6559e"/><path d="M186.324,334.01l.219.548a7.3,7.3,0,0,1-6.03,7.869A7.3,7.3,0,0,1,186.324,334.01Z" transform="translate(-126.842 -180.197)" fill="#fadf4a"/><path d="M182.524,306.677c0,.094,0,.185,0,.279l-.6.2a7.3,7.3,0,0,1-6.155-7.759A7.305,7.305,0,0,1,182.524,306.677Z" transform="translate(-123.243 -153.495)" fill="#fadf4a"/><path d="M127.363,318.533a6.02,6.02,0,0,1,3.656,3.461l-1.542.523a7.241,7.241,0,0,0-4.917,6.859v2.3h-8.89l6.077-15.045Z" transform="translate(-76.898 -166.788)" fill="#8834bf"/><path d="M58.48,311.469l4.515-1.529a7.163,7.163,0,0,0,10.115,0l2.086.706,2.429.823a12.573,12.573,0,0,1-19.144,0Z" transform="translate(-32.774 -161.626)" fill="#fadf4a"/><path d="M58.48,316.63a12.573,12.573,0,0,0,19.144,0l-6.077,15.045H64.56Z" transform="translate(-32.774 -166.788)" fill="#e6559e"/><path d="M78.24,294.73a10.021,10.021,0,0,0,3.959.818h2.2a10.013,10.013,0,0,0,3.959-.818v3.475a7.162,7.162,0,0,1-10.115,0Z" transform="translate(-48.02 -149.892)" fill="#ffe3c7"/><path d="M193.3,152.259l-.014-5.191a15.114,15.114,0,0,1,5.088-11.326l-1.8-.989v-.423a15.141,15.141,0,0,0-6.946,12.738l.014,5.191.466.466a2.308,2.308,0,0,0,3.45-.206Z" transform="translate(-133.957 -26.139)" fill="#f9b44d"/></g></svg>