<svg xmlns="http://www.w3.org/2000/svg" width="85.706" height="84.549" viewBox="0 0 85.706 84.549"><g transform="translate(-36 -27.375)"><path d="M92.133,58H41.586A5.532,5.532,0,0,0,36,63.546v67.583a5.651,5.651,0,0,0,5.586,5.686H92.133a5.7,5.7,0,0,0,5.646-5.686V63.546A5.584,5.584,0,0,0,92.133,58ZM48.747,69a3.11,3.11,0,1,1,3.11-3.11A3.11,3.11,0,0,1,48.747,69Zm11.7,0a3.11,3.11,0,1,1,3.11-3.11A3.11,3.11,0,0,1,60.451,69Zm11.706,0a3.108,3.108,0,1,1,2.2-.91A3.11,3.11,0,0,1,72.158,69Zm11.7,0a3.11,3.11,0,1,1,3.11-3.11A3.11,3.11,0,0,1,83.862,69Z" transform="translate(0 -24.891)" fill="#a74ae5"/><path d="M79.98,162.9a6.5,6.5,0,1,1-6.5,6.5,6.5,6.5,0,0,1,6.5-6.5Z" transform="translate(-30.463 -110.153)" fill="#81c83d"/><path d="M79.98,262.9a6.5,6.5,0,1,1-6.5,6.5,6.5,6.5,0,0,1,6.5-6.5Z" transform="translate(-30.463 -191.432)" fill="#81c83d"/><path d="M79.98,362.9a6.5,6.5,0,1,1-6.5,6.5,6.5,6.5,0,0,1,6.5-6.5Z" transform="translate(-30.463 -272.711)" fill="#81c83d"/><path d="M41.616,131.129V63.546A5.532,5.532,0,0,1,47.2,58H41.586A5.532,5.532,0,0,0,36,63.546v67.583a5.651,5.651,0,0,0,5.586,5.686H47.2A5.651,5.651,0,0,1,41.616,131.129Z" transform="translate(0 -24.891)" fill="#a74ae5"/><g transform="translate(47.624 27.375)"><path d="M99.213,38.992a1.123,1.123,0,0,1-1.123-1.123V28.5a1.123,1.123,0,1,1,2.247,0v9.371A1.123,1.123,0,0,1,99.213,38.992Z" transform="translate(-98.09 -27.375)" fill="#6d7486"/><path d="M99.213,38.992a1.123,1.123,0,0,1-1.123-1.123V28.5a1.123,1.123,0,1,1,2.247,0v9.371A1.123,1.123,0,0,1,99.213,38.992Z" transform="translate(-98.09 -27.375)" fill="#6d7486"/><path d="M161.736,38.992a1.123,1.123,0,0,1-1.123-1.123V28.5a1.123,1.123,0,0,1,2.247,0v9.371A1.123,1.123,0,0,1,161.736,38.992Z" transform="translate(-148.908 -27.375)" fill="#6d7486"/><path d="M224.261,38.992a1.123,1.123,0,0,1-1.123-1.123V28.5a1.123,1.123,0,1,1,2.246,0v9.371A1.123,1.123,0,0,1,224.261,38.992Z" transform="translate(-199.728 -27.375)" fill="#6d7486"/><path d="M286.784,38.992a1.123,1.123,0,0,1-1.123-1.123V28.5a1.123,1.123,0,0,1,2.247,0v9.371A1.123,1.123,0,0,1,286.784,38.992Z" transform="translate(-250.546 -27.375)" fill="#6d7486"/></g><path d="M193.013,181.872H173c-.442,0-.8-.5-.8-1.123s.358-1.123.8-1.123h20.012c.442,0,.8.5.8,1.123S193.455,181.872,193.013,181.872Z" transform="translate(-110.702 -123.747)" fill="#8fb1b5"/><path d="M91.546,188.617a1.12,1.12,0,0,1-.794-.329L88.963,186.5a1.123,1.123,0,1,1,1.588-1.589l1.012,1.012,2.5-2.386a1.123,1.123,0,1,1,1.553,1.624l-3.289,3.145A1.12,1.12,0,0,1,91.546,188.617Z" transform="translate(-42.781 -126.674)" fill="#d8ff33"/><path d="M193.013,281.871H173c-.442,0-.8-.5-.8-1.123s.358-1.123.8-1.123h20.012c.442,0,.8.5.8,1.123S193.455,281.871,193.013,281.871Z" transform="translate(-110.702 -205.026)" fill="#8fb1b5"/><path d="M91.546,288.617a1.12,1.12,0,0,1-.794-.329L88.963,286.5a1.123,1.123,0,1,1,1.588-1.589l1.012,1.012,2.5-2.386a1.123,1.123,0,1,1,1.553,1.624l-3.289,3.145A1.12,1.12,0,0,1,91.546,288.617Z" transform="translate(-42.781 -207.953)" fill="#d8ff33"/><path d="M191.127,381.872h-17.8a1.123,1.123,0,0,1,0-2.247h17.8a1.123,1.123,0,1,1,0,2.247Z" transform="translate(-110.702 -286.305)" fill="#8fb1b5"/><path d="M91.546,388.617a1.12,1.12,0,0,1-.794-.329L88.963,386.5a1.123,1.123,0,1,1,1.588-1.589l1.012,1.012,2.5-2.386a1.123,1.123,0,0,1,1.553,1.624l-3.289,3.145A1.12,1.12,0,0,1,91.546,388.617Z" transform="translate(-42.781 -289.232)" fill="#d8ff33"/><path d="M188.3,201.872H173.323a1.123,1.123,0,1,1,0-2.247H188.3a1.123,1.123,0,1,1,0,2.247Z" transform="translate(-110.702 -140.003)" fill="#8fb1b5"/><path d="M188.3,301.872H173.323a1.123,1.123,0,1,1,0-2.247H188.3a1.123,1.123,0,1,1,0,2.247Z" transform="translate(-110.702 -221.282)" fill="#8fb1b5"/><path d="M188.3,401.872H173.323a1.123,1.123,0,1,1,0-2.247H188.3a1.123,1.123,0,1,1,0,2.247Z" transform="translate(-110.702 -302.561)" fill="#8fb1b5"/><path d="M317.826,299.66,287.65,319.476l2.593,3.945L320.417,303.6Z" transform="translate(-330.841 24.548) rotate(-39)" fill="#f9b44d"/><path d="M0,0H36.1V5.289H0Z" transform="matrix(0.309, -0.951, 0.951, 0.309, 89.192, 90.317)" fill="#f9b44d"/><path d="M255.1,384.43l-.12.225-4.188,7.915,9.493-.249Z" transform="translate(-350.918 -47.852) rotate(-39)" fill="#ffd5b3"/></g></svg>