<svg xmlns="http://www.w3.org/2000/svg" width="61.784" height="89.659" viewBox="0 0 61.784 89.659"><g transform="translate(-957 -1141.525)"><path d="M173.237,140.37h-35.1a2.633,2.633,0,0,1-2.633-2.633V100h40.37v37.737A2.633,2.633,0,0,1,173.237,140.37Z" transform="translate(832.101 1059.077)" fill="#f9b44d"/><path d="M221.881,140.37H194.5V100h30.014v37.737A2.633,2.633,0,0,1,221.881,140.37Z" transform="translate(783.457 1059.077)" fill="#f9b44d"/><path d="M156.526,296.346A16.7,16.7,0,0,0,167.668,282.6h10.7a16.7,16.7,0,0,0,11.142,13.742,43.149,43.149,0,0,1-32.989,0Z" transform="translate(814.766 908.524)" fill="#ffd4b4"/><path d="M175.345,96.262a42.846,42.846,0,0,1-17.754,3.824,43.308,43.308,0,0,1-7.244-.607A20.922,20.922,0,0,0,158.385,89.4a13.3,13.3,0,0,1-8.845-2.684c-6.987-5.308-11.727-15.613-11.727-25.305,0-13.083,8.636-20.461,19.777-21.981,11.141,1.519,19.777,8.9,19.777,21.981,0,9.693-4.74,20-11.727,25.305a13.311,13.311,0,0,1-1.119.764A17.324,17.324,0,0,0,175.345,96.262Z" transform="translate(830.195 1109.014)" fill="#ffd4b4"/><path d="M206.733,86.893l-.064.048a7.771,7.771,0,0,1-1.057.716,8.068,8.068,0,0,1-9.927-2.124,35.624,35.624,0,0,1-7.989-24.29c.5-10.541,4.526-17.774,11.251-21.6,11.013,1.6,19.513,8.964,19.513,21.944C218.46,71.28,213.72,81.585,206.733,86.893Z" transform="translate(789.101 1108.839)" fill="#ffd4b4"/><path d="M220.66,214.816a1.316,1.316,0,0,1,1.316-1.316h2.808a1.316,1.316,0,1,1,0,2.633h-2.808A1.316,1.316,0,0,1,220.66,214.816Zm7.875,5.917a1.317,1.317,0,0,0-1.8-.471,7.924,7.924,0,0,1-7.144,0,1.316,1.316,0,0,0-1.331,2.272,10.555,10.555,0,0,0,9.806,0A1.317,1.317,0,0,0,228.535,220.733Z" transform="translate(764.405 965.498)" fill="#eabe8d"/><path d="M192.016,172.633A2.633,2.633,0,1,1,189.383,170,2.633,2.633,0,0,1,192.016,172.633ZM206.057,170a2.633,2.633,0,1,0,2.633,2.633A2.633,2.633,0,0,0,206.057,170Z" transform="translate(789.847 1001.363)" fill="#7d402d"/><path d="M206.883,171.316A1.316,1.316,0,1,1,205.566,170,1.316,1.316,0,0,1,206.883,171.316ZM222.241,170a1.316,1.316,0,1,0,1.316,1.316A1.316,1.316,0,0,0,222.241,170Z" transform="translate(775.418 1001.363)" fill="#fff5f5"/><path d="M175.87,27.185v5.792a.351.351,0,0,1-.351.351h-.052c-.933,0-4.9-5.831-6.8-7.516l-.009-.008a1.536,1.536,0,0,0-1.785-.171c-2.565,1.477-6.621,2.43-11.187,2.43s-8.623-.953-11.187-2.43a1.539,1.539,0,0,0-1.789.171l-.009.008c-1.9,1.685-5.867,7.517-6.8,7.517h-.048a.351.351,0,0,1-.351-.351V27.185a20.185,20.185,0,1,1,40.37,0Z" transform="translate(832.101 1135.753)" fill="#f9b44d"/><path d="M217.549,26.287l-.009-.008a1.536,1.536,0,0,0-1.785-.171c-2.564,1.476-6.621,2.43-11.187,2.43a25.542,25.542,0,0,1-9.779-1.735c1.858-8.819,5.744-15.244,11.812-19.227A20.188,20.188,0,0,1,224.753,27.66v5.792a.351.351,0,0,1-.351.351h-.052c-.933,0-4.9-5.831-6.8-7.516Z" transform="translate(783.219 1135.278)" fill="#f9b44d"/><path d="M136.284,351.464v3a43,43,0,0,1-61.784,0v-3a7.684,7.684,0,0,1,7.987-7.4h.087a18.069,18.069,0,0,0,12.508-4.923l10.31,5.417,10.31-5.417a18.069,18.069,0,0,0,12.508,4.923h.087A7.684,7.684,0,0,1,136.284,351.464Z" transform="translate(882.5 861.914)" fill="#a74ae5"/><path d="M201.67,341.347l-7.728,10.819a.878.878,0,0,1-1.493-.105l-3.44-6.331a.527.527,0,0,0-.925,0l-3.44,6.331a.878.878,0,0,1-1.493.105l-7.728-10.819a.351.351,0,0,1,.1-.5l2.714-1.708,9.5,4.91a1.756,1.756,0,0,0,1.611,0l9.5-4.91,2.714,1.708A.351.351,0,0,1,201.67,341.347Z" transform="translate(799.239 861.913)" fill="#fff5f5"/><path d="M171,21.5V31.957a21.526,21.526,0,0,1-21.5,21.5h-.219V50.825h.219A18.89,18.89,0,0,0,168.37,31.957V21.5a18.869,18.869,0,1,0-37.737,0v5.792H128V21.5a21.5,21.5,0,0,1,43,0Z" transform="translate(838.285 1141.525)" fill="#a74ae5"/><path d="M108.641,166.646v3.487a1.744,1.744,0,0,1-1.744,1.744h-2.616a3.487,3.487,0,0,1,0-6.975H106.9A1.744,1.744,0,0,1,108.641,166.646Zm38.6,5.231h2.616a3.487,3.487,0,0,0,0-6.975h-2.616a1.744,1.744,0,0,0-1.744,1.744v3.487A1.744,1.744,0,0,0,147.244,171.877ZM127.071,185.1c-2.423,0-4.388,1.179-4.388,2.633s1.965,2.633,4.388,2.633,4.388-1.179,4.388-2.633S129.494,185.1,127.071,185.1Z" transform="translate(860.716 1005.566)" fill="#011b2c"/><path d="M116.832,151.745v8.719a1.744,1.744,0,0,1-1.744,1.744,4.359,4.359,0,0,1-4.359-4.359V154.36A4.359,4.359,0,0,1,115.088,150,1.743,1.743,0,0,1,116.832,151.745Zm38.6,10.462a4.359,4.359,0,0,0,4.359-4.359V154.36A4.359,4.359,0,0,0,155.435,150a1.744,1.744,0,0,0-1.744,1.744v8.719A1.744,1.744,0,0,0,155.435,162.207Z" transform="translate(852.524 1017.852)" fill="#a74ae5"/><path d="M143.219,175.018c.343-1.249,2.151-2.2,4.329-2.2s3.986.952,4.329,2.2a12.362,12.362,0,0,1-8.659,0Zm-14.1-14.557v-8.719A1.744,1.744,0,0,0,127.375,150a4.363,4.363,0,0,0-.947.1,4.339,4.339,0,0,0-.8,2.512v6.975a4.339,4.339,0,0,0,.8,2.512,4.377,4.377,0,0,0,.947.1A1.744,1.744,0,0,0,129.118,160.462ZM167.722,150a4.364,4.364,0,0,1,.947.1,4.339,4.339,0,0,1,.8,2.512v6.975a4.339,4.339,0,0,1-.8,2.512,4.375,4.375,0,0,1-.947.1,1.744,1.744,0,0,1-1.744-1.744v-8.719A1.744,1.744,0,0,1,167.722,150Z" transform="translate(840.238 1017.854)" fill="#011b2c"/><path d="M0,0,61.783,1.668V16.321L0,16.416Z" transform="translate(957 1214.767)" fill="#a74ae5"/></g></svg>