<svg xmlns="http://www.w3.org/2000/svg" width="609.258" height="217.46" viewBox="0 0 609.258 217.46"><g transform="translate(-2.908 -238.504)"><path d="M233.145,245.168c1.43,5.42.442,10.9-.133,16.244-.946,8.79-3.958,17.1-8.01,24.975-.674,1.31-1.75,2.442-2.264,3.8-1.088,2.875-2.781,5.478-1.92,9.016.811,3.33-.231,6.934.39,10.425a26.667,26.667,0,0,0,2.938,8.7c1.6,2.8,2.22,5.944,2.85,9.012,2.59,12.632,3.17,25.458,3.234,38.312q.086,17.274-.02,34.548c-.009,1.579.406,2.25,2.062,2.35,9.284.562,18.555,1.539,27.872,1.112,5.909-.27,11.808-.744,17.71-1.147,1.039-.071,1.768-.356,1.773-1.734.042-10.742.165-21.484.248-32.226,0-.193-.182-.387-.278-.581" fill="none" stroke="#000" stroke-linecap="round" stroke-linejoin="round" stroke-width="2"/><path d="M213.4,350.556c-.772,11.822.018,23.625.69,35.413.171,3,1.011,6.15.32,8.969a49.3,49.3,0,0,0-1.3,11.36c-.092,8.806-.176,17.586,2.542,26.151a17.882,17.882,0,0,1,.735,8.12,24.45,24.45,0,0,0,.036,8.093c.4,2.1,2.12,3.573,4.515,4.129a62.785,62.785,0,0,0,12.785,1.911c11.318.237,22.649.282,33.965,0,6.687-.164,13.431.02,20.047-1.612,3.622-.893,5.165-2.392,5.533-6.148a34.552,34.552,0,0,0-.184-8.442c-.307-2.125.412-4.5,1.071-6.643,1.433-4.656,2.535-9.35,2.248-14.239-.228-3.879.895-7.743.028-11.614" fill="none" stroke="#000" stroke-linecap="round" stroke-linejoin="round" stroke-width="2"/><path d="M287.435,429.814c-5.968,4.054-12.789,5.039-19.742,5.184-8.416.176-16.839.08-25.258.027a51.917,51.917,0,0,1-13.657-1.972c-2.459-.684-4.466-2.118-6.665-3.239" fill="none" stroke="#000" stroke-linecap="round" stroke-linejoin="round" stroke-width="2"/><path d="M278.726,289.878c.271-.821-.273-1.256-.877-1.432-7.409-2.159-14.993-4.344-22.635-4.174a75.643,75.643,0,0,0-29.632,6.735c-1.321.6-2.215,1.92-3.76,2.065" fill="none" stroke="#000" stroke-linecap="round" stroke-linejoin="round" stroke-width="2"/><path d="M296.145,304.685a3.04,3.04,0,0,0,.278-.871c-.006-12.778.769-25.538.674-38.324-.057-7.659-3.029-13.362-9.383-17.4-1.86-1.183-3.783-2.869-5.808-3.082-7.31-.772-13.7-4.647-21.162-5.285a60.01,60.01,0,0,0-29.334,4.88,11.659,11.659,0,0,0-1.749,1.146" fill="none" stroke="#000" stroke-linecap="round" stroke-linejoin="round" stroke-width="2"/><path d="M281.919,448.976a101.188,101.188,0,0,1-21.774,2.33c-8.726-.04-17.455.209-26.137-1.115-2.119-.323-4.146-1.4-6.379-.925" fill="none" stroke="#000" stroke-linecap="round" stroke-linejoin="round" stroke-width="2"/><path d="M218.338,269.846c.194-1.452.412-2.9.576-4.356.419-3.7,1.392-6.738,5.157-8.841,4.062-2.269,6.378-6.114,5.219-11.229-1.89-.956-3.381.381-4.833,1.236-4.838,2.849-9.582,6.05-10.975,11.886-1.4,5.878-1.016,11.97-.864,17.979.021.826.163,1.748.186,2.616.224,8.225.4,16.451.61,24.676a5.6,5.6,0,0,0,.279,1.162" fill="none" stroke="#000" stroke-linecap="round" stroke-linejoin="round" stroke-width="2"/><path d="M281.629,330.814c-3.972-1.775-8.267-2.167-12.489-2.556a145.244,145.244,0,0,0-28.442-.016,53.41,53.41,0,0,0-12.2,2.282" fill="none" stroke="#000" stroke-linecap="round" stroke-linejoin="round" stroke-width="2"/><path d="M279.306,367.395c.447-12.525.787-25.046,2.848-37.461,1-6.03,3.634-11.443,5.572-17.12a25.621,25.621,0,0,0,1.195-9,27.1,27.1,0,0,1,.424-5.538c.521-2.861-.869-5.757-2.3-8.041a70.536,70.536,0,0,1-10.215-27.955c-.83-5.9-1.618-11.982-.133-17.982" fill="none" stroke="#000" stroke-linecap="round" stroke-linejoin="round" stroke-width="2"/><path d="M295.565,397.008a25.527,25.527,0,0,1-.229-8.123c1.229-11.207,1.147-22.445,1.073-33.684-.025-3.775-.833-7.6-.461-11.313.921-9.193-.043-18.413.778-27.59" fill="none" stroke="#000" stroke-linecap="round" stroke-linejoin="round" stroke-width="2"/><path d="M222.984,393.814c-.9-1.183-2.412-.731-3.524-.993-1.961-.461-2.547-1.336-2.575-3.071q-.286-18.291-.567-36.581c0-.1.182-.194.278-.291" fill="none" stroke="#000" stroke-linecap="round" stroke-linejoin="round" stroke-width="2"/><path d="M216.306,352.3q0-17.274-.015-34.549c0-1.751.269-3.516-.511-5.25a3.054,3.054,0,0,1,.005-2.545c2.015-2.793.265-6.2,1.657-9.056.1-.2-.168-.568-.265-.858" fill="none" stroke="#000" stroke-linecap="round" stroke-linejoin="round" stroke-width="2"/><path d="M213.4,406.008c4.432.063,6.352-3.263,8.068-6.421,2.625-4.83,3.7-10.088,4.258-15.631.788-7.853.186-15.693.658-23.534a143.416,143.416,0,0,0-.837-25.828,94.536,94.536,0,0,0-2.373-12.465,7.064,7.064,0,0,1,.1-4.38" fill="none" stroke="#000" stroke-linecap="round" stroke-linejoin="round" stroke-width="2"/><path d="M291.79,402.524a1.3,1.3,0,0,0,.593-1.162c-.6-6.988.6-13.924.611-20.9.017-8.806.35-17.613.525-26.419a7.04,7.04,0,0,0-.277-1.452" fill="none" stroke="#000" stroke-linecap="round" stroke-linejoin="round" stroke-width="2"/><path d="M285.4,392.943c-1.3-3.763-1.492-7.738-1.659-11.616-.439-10.248-.7-20.515-.6-30.77.1-9.887.91-19.749,3.715-29.322a4.514,4.514,0,0,0-.3-3.776" fill="none" stroke="#000" stroke-linecap="round" stroke-linejoin="round" stroke-width="2"/><path d="M293.532,352.008V313.975" fill="none" stroke="#000" stroke-linecap="round" stroke-linejoin="round" stroke-width="2"/><path d="M213.693,349.975c.63-4.082-.047-8.127-.219-12.2-.269-6.376-.055-12.772-.092-19.159,0-.767.345-1.613-.269-2.322" fill="none" stroke="#000" stroke-linecap="round" stroke-linejoin="round" stroke-width="2"/><path d="M263.339,288.136a120.555,120.555,0,0,0-16.852,2.556c-4.778,1.049-9.665,1.606-14.5,2.38" fill="none" stroke="#000" stroke-linecap="round" stroke-linejoin="round" stroke-width="2"/><path d="M229.661,402.524c-3.272,2.11-4.006,5.467-4.684,8.992-1.683,8.761-3.493,17.489-4.056,26.425a11.615,11.615,0,0,0,3.8,9.293" fill="none" stroke="#000" stroke-linecap="round" stroke-linejoin="round" stroke-width="2"/><path d="M273.5,453.621c1.426-.944,3.158-.248,4.646-.87,1.731-.724,4.31-.4,4.119-3.488-.022-.362.654-.892,1.116-1.14,5.647-3.031,6.1-8.337,5.415-13.652-1-7.787-2.532-15.512-4.014-23.23-.635-3.307-1.468-6.661-4.605-8.717" fill="none" stroke="#000" stroke-linecap="round" stroke-linejoin="round" stroke-width="2"/><path d="M279.306,245.459c.484.58.861,1.49,1.469,1.689,4.438,1.452,6.53,5.535,9.479,8.555,3.382,3.462,2.755,8.254,2.657,12.69-.019.866-.932,1.351-1.992,2,0-1.3.028-2.376-.005-3.448-.134-4.378-1.08-8.228-5.471-10.527a9.636,9.636,0,0,1-4.128-4.268,6.828,6.828,0,0,1-.847-4.947" fill="none" stroke="#000" stroke-linecap="round" stroke-linejoin="round" stroke-width="2"/><path d="M229.08,246.62c-3.854,2.3-6.587,5.805-9.547,9.03-3.35,3.65-2.794,8.306-2.576,12.741.061,1.24,1.31,2.107,2.543,2.616" fill="none" stroke="#000" stroke-linecap="round" stroke-linejoin="round" stroke-width="2"/><path d="M279.016,388.3a143.889,143.889,0,0,1,0-20.323" fill="none" stroke="#000" stroke-linecap="round" stroke-linejoin="round" stroke-width="2"/><path d="M295.855,406.008c-5.03-.431-6.583-4.593-8.7-8.136a6.45,6.45,0,0,1-.855-2.031c-.253-1.345.1-2.649,1.71-2.54,1.286.086,2.261-.849,3.488-.648" fill="none" stroke="#000" stroke-linecap="round" stroke-linejoin="round" stroke-width="2"/><path d="M263.048,292.2a4.178,4.178,0,0,1-1.45.552,96.407,96.407,0,0,0-12.485.609" fill="none" stroke="#000" stroke-linecap="round" stroke-linejoin="round" stroke-width="2"/><path d="M294.694,313.975c2.039,2.279,5.092,2.8,7.7,4.592a7.084,7.084,0,0,0-.434-4.3c-.5-1.616-1.641-2.788-1.44-4.958.181-1.956-2.913-3.087-4.743-4.2a6.109,6.109,0,0,0-3.117-1.286" fill="none" stroke="#000" stroke-linecap="round" stroke-linejoin="round" stroke-width="2"/><path d="M288.306,298.878c-.5-4.747-4.221-5.356-7.838-6.1-.967-.2-1.936-.388-2.9-.581" fill="none" stroke="#000" stroke-linecap="round" stroke-linejoin="round" stroke-width="2"/><path d="M215.145,313.394c-1.45,3.276-5.207,3.024-7.565,5.126-2.044-3.684,2.9-6.084,1.593-9.867,1.931-1.729,4.072-3.713,7.133-4.259" fill="none" stroke="#000" stroke-linecap="round" stroke-linejoin="round" stroke-width="2"/><path d="M231.693,293.652c-2.966-1.785-8.357.017-9.59,3.19a4.881,4.881,0,0,1-.571.875" fill="none" stroke="#000" stroke-linecap="round" stroke-linejoin="round" stroke-width="2"/><path d="M235.758,453.621c-1.839-.387-3.688-.732-5.513-1.175-1.4-.34-2.717-.969-2.879-2.6-.188-1.884-1.615-2.221-2.933-2.272-3.917-.153-5.639-1.435-6.354-5.28a6.1,6.1,0,0,0-.612-2.316" fill="none" stroke="#000" stroke-linecap="round" stroke-linejoin="round" stroke-width="2"/><path d="M208.467,309.62c-1.842,2.3-3.38,4.7-3.21,7.84.063,1.161.4,1.549,1.468.87" fill="none" stroke="#000" stroke-linecap="round" stroke-linejoin="round" stroke-width="2"/><path d="M303.113,318.33c1.092.723,1.534.108,1.425-.868-.33-2.951-.9-5.832-3.748-7.551" fill="none" stroke="#000" stroke-linecap="round" stroke-linejoin="round" stroke-width="2"/><path d="M263.048,291.62c-2.036-1.219-4.265-.3-6.388-.575-1.169-.153-2.448.364-3.483-.586" fill="none" stroke="#000" stroke-linecap="round" stroke-linejoin="round" stroke-width="2"/><path d="M226.177,352.588a58.41,58.41,0,0,0-9.581-3.193" fill="none" stroke="#000" stroke-linecap="round" stroke-linejoin="round" stroke-width="2"/><path d="M226.177,354.33l-12.484-2.322" fill="none" stroke="#000" stroke-linecap="round" stroke-linejoin="round" stroke-width="2"/><path d="M292.952,349.395l-9.581,2.9" fill="none" stroke="#000" stroke-linecap="round" stroke-linejoin="round" stroke-width="2"/><path d="M218.048,402.814c-1.121-3.039-.446-6.19-.581-9.29" fill="none" stroke="#000" stroke-linecap="round" stroke-linejoin="round" stroke-width="2"/><path d="M292.952,355.491c-3.154-.071-6.2.69-9.291,1.162" fill="none" stroke="#000" stroke-linecap="round" stroke-linejoin="round" stroke-width="2"/><path d="M295.855,352.008l-12.194,2.322" fill="none" stroke="#000" stroke-linecap="round" stroke-linejoin="round" stroke-width="2"/><path d="M287.435,292.781c-1.875-.686-3.336-2.1-5.495-2.452a7.869,7.869,0,0,0-4.678.393c-2.208.944-4.7-.056-6.96.887a8.487,8.487,0,0,1-6.818.011" fill="none" stroke="#000" stroke-linecap="round" stroke-linejoin="round" stroke-width="2"/><path d="M225.887,356.653c-2.993-.442-5.934-1.289-9-1.162" fill="none" stroke="#000" stroke-linecap="round" stroke-linejoin="round" stroke-width="2"/><path d="M288.306,447.524c2.907-1.934,3.2-5.174,4.065-8.129" fill="none" stroke="#000" stroke-linecap="round" stroke-linejoin="round" stroke-width="2"/><path d="M231.113,293.943l-6.678,2.322" fill="none" stroke="#000" stroke-linecap="round" stroke-linejoin="round" stroke-width="2"/><path d="M275.242,293.943a10.5,10.5,0,0,1-5.226-1.162" fill="none" stroke="#000" stroke-linecap="round" stroke-linejoin="round" stroke-width="2"/><path d="M224.435,249.814c-1.431-.621-2.137.814-3.151,1.257-.88.384-1.4.751-2.075-.1" fill="none" stroke="#000" stroke-linecap="round" stroke-linejoin="round" stroke-width="2"/><path d="M220.371,305.846c-.889.119-1.229-.285-1.5-1.147-.317-1.015-.192-2.315-1.407-2.917" fill="none" stroke="#000" stroke-linecap="round" stroke-linejoin="round" stroke-width="2"/><path d="M220.951,311.072a2.255,2.255,0,0,1-2.292-1.18c-.606-1-1.479-.828-2.353-.852" fill="none" stroke="#000" stroke-linecap="round" stroke-linejoin="round" stroke-width="2"/><path d="M290.629,250.975c-.871,1.1-1.9.577-2.568-.048-.688-.647-1.362-.471-2.077-.533" fill="none" stroke="#000" stroke-linecap="round" stroke-linejoin="round" stroke-width="2"/><path d="M293.242,309.04c-1.81-.354-2.736,2.122-4.645,1.451" fill="none" stroke="#000" stroke-linecap="round" stroke-linejoin="round" stroke-width="2"/><path d="M294.113,313.1c.529-3.395-1.889-6.255-1.742-9.581" fill="none" stroke="#000" stroke-linecap="round" stroke-linejoin="round" stroke-width="2"/><path d="M292.952,447.234c-2.554,1.7-5.218.413-7.839.29" fill="none" stroke="#000" stroke-linecap="round" stroke-linejoin="round" stroke-width="2"/><path d="M220.661,447.814c-1.415.825-2.575-.007-3.774-.58" fill="none" stroke="#000" stroke-linecap="round" stroke-linejoin="round" stroke-width="2"/><path d="M292.661,300.04a5.136,5.136,0,0,0-.435,3.193" fill="none" stroke="#000" stroke-linecap="round" stroke-linejoin="round" stroke-width="2"/><path d="M69.994,397.486c1.034,7.65-1.07,11.735-6.375,12.375a30.964,30.964,0,0,1-15.375-3c-1.222,4.664,2.9,10.226,8.246,11.269a44.353,44.353,0,0,0,8.629.752q34.313-.055,68.625,0c6.564.013,11.815-2.2,14.177-8.668,1.528-4.182,1.209-8.785.619-13.071-.312-2.27-2.975-3.722-5.795-3.808a53.968,53.968,0,0,0-11.63,1.133c-1.6.3-3.238.353-4.885.521-.309,2.617-1.12,5.254-.427,8.142,1.146,4.771,3.182,6.614,7.94,6.76a30.368,30.368,0,0,0,14.251-3.026" fill="none" stroke="#000" stroke-linecap="round" stroke-linejoin="round" stroke-width="2"/><path d="M148.744,388.486c-2.471.117-2.061-2-2.627-3.374-1.99-4.81-3.662-9.711-6.263-14.313-3.359-5.943-8.6-8.069-14.738-8.915-11.712-1.614-23.5-.52-35.248-.738-7.527-.14-15.1-.487-22.5,1.467-5.269,1.391-9.293,4.055-11.74,9.32-1.963,4.225-4.01,8.377-5.555,12.788-1,2.857-3.06,5.287-4.714,7.714-1.112,1.632-4.857.918-7.206.392-1.958-.438-3.341-2.454-3.8-4.713a2.193,2.193,0,0,1,1.533-2.542,19.353,19.353,0,0,1,10.083.359c.394.111.52,1.18.77,1.8" fill="none" stroke="#000" stroke-linecap="round" stroke-linejoin="round" stroke-width="2"/><path d="M151.744,428.611h-108" fill="none" stroke="#000" stroke-linecap="round" stroke-linejoin="round" stroke-width="2"/><path d="M139.744,386.986c.25-.5.807-1.076.7-1.488-1.522-6.1-2.436-12.507-8.2-16.521-2.308-1.609-5.038-1.3-7.511-1.4-15.993-.618-32-.85-48-.093-2.875.136-5.742-.026-8.635.283a10.354,10.354,0,0,0-6.716,3.115c-3.771,3.956-4.675,9.154-5.587,14.238-.478,2.669.985,4.633,3.695,5.206,3.214.679,6.408,1.542,9.743,1.539,19-.014,38,.094,57-.08,4.531-.041,9.3-.055,13.108-3.322.258-.22.268-.73.393-1.105" fill="none" stroke="#000" stroke-linecap="round" stroke-linejoin="round" stroke-width="2"/><path d="M147.619,274.111c-1.368.066-1.974-.377-2.754-1.8a82.9,82.9,0,0,1-4.716-11.332,51.24,51.24,0,0,0-5.372-10.054c-1.868-2.879-4.856-4.359-8.53-4.608-14.243-.965-28.5-.717-42.753-.665-4.876.018-9.766.3-14.62.765-4,.387-6.661,2.642-8.729,6.267-3.1,5.441-5.233,11.269-7.756,16.94-.841,1.891-1.31,4-3.77,4.491" fill="none" stroke="#000" stroke-linecap="round" stroke-linejoin="round" stroke-width="2"/><path d="M141.619,274.486c.771-3.691-2.132-6.2-3.1-9.345-1.077-3.505-3.022-6.733-4.359-10.172-.793-2.041-1.766-2.943-4.165-3.06q-26.439-1.287-52.879-.3c-4,.155-8,.27-12,.37-1.24.031-2.6.306-3.375-1.116" fill="none" stroke="#000" stroke-linecap="round" stroke-linejoin="round" stroke-width="2"/><path d="M151.744,434.236c-2.768,4.183-6.318,6.926-11.622,7.2-2.952.149-5.739,1.075-6.839-3.047-.477-1.789-5.184-3.315-7.4-2.6a21.577,21.577,0,0,1-6.764.7q-20.25,0-40.5,0a45.215,45.215,0,0,1-8.641-.666c-2.9-.561-6.033.127-7.377,2.968-1.576,3.329-4.122,3.2-6.854,2.92-4.751-.494-8.387-3-11.253-6.721" fill="none" stroke="#000" stroke-linecap="round" stroke-linejoin="round" stroke-width="2"/><path d="M139.369,386.986c-7.488-.84-15.033.2-22.492-.464-9.121-.815-18.38-2.78-27.34-1.168-11.068,1.991-22.05.614-33.043,1.257" fill="none" stroke="#000" stroke-linecap="round" stroke-linejoin="round" stroke-width="2"/><path d="M150.619,283.486c-2.813-1.359-3.649-4.543-5.959-6.426-1.736-1.414-3.185-2.894-5.685-1.871-.492.2-1.233-.318-1.856-.31q-12,.147-24,.364c-3.154.058-6.2-1.365-9.372-.742-7.342,1.444-14.81,1.118-22.114.547-7.939-.62-15.765.941-23.638.178-1.144-.111-2.273-.368-4.032-.661,1.978-7.986,6.453-14.718,8.906-22.2" fill="none" stroke="#000" stroke-linecap="round" stroke-linejoin="round" stroke-width="2"/><path d="M60.619,275.986c.024,1.726,1.665,1.887,2.647,2.594,4.963,3.577,8.71,7.691,9.458,14.27.779,6.854,4.661,9.761,11.52,9.761q14.25,0,28.5,0c5.113,0,9.994-3.362,10.374-8.259.619-7.987,4.855-13.088,11.376-16.865.723-.419,1.476-.815,1.125-1.876" fill="none" stroke="#000" stroke-linecap="round" stroke-linejoin="round" stroke-width="2"/><path d="M68.119,436.861c1.364,1.347,3.051,1.523,4.875,1.519q24.75-.048,49.5-.006c2.034,0,3.984-.134,5.625-1.513" fill="none" stroke="#000" stroke-linecap="round" stroke-linejoin="round" stroke-width="2"/><path d="M45.244,320.611c6.631,4.2,13.808,3.6,20.979,2.15a4.808,4.808,0,0,1,3.013.5,31.687,31.687,0,0,0,11.633,1.891q17.623-.15,35.25,0c3.245.023,6.434-.187,9.352-1.582,2.364-1.13,4.509-.11,6.775-.042,6.076.183,12.283.874,18-2.16" fill="none" stroke="#000" stroke-linecap="round" stroke-linejoin="round" stroke-width="2"/><path d="M47.869,289.861a15.329,15.329,0,0,1,.364,1.876c.36,5.06,1.242,6.389,6.021,7.451a31.189,31.189,0,0,0,13.846.2c.773-6.229-1.868-9.762-7.474-10.692-4.356-.723-8.533.105-12.757.792" fill="none" stroke="#000" stroke-linecap="round" stroke-linejoin="round" stroke-width="2"/><path d="M122.494,291.361a155.537,155.537,0,0,0-42.762-.851c-2.245.262-4.453.923-6.738.851" fill="none" stroke="#000" stroke-linecap="round" stroke-linejoin="round" stroke-width="2"/><path d="M150.994,297.736c-6.372,9.266-14.933,13.118-30.3,13.126-.644,4.838-4.233,4.885-8.258,5.9-6.434,1.619-12.765,1.607-19.193,1.559-2.346-.017-5.036,1.015-6.849-1.767-.3-.458-1.9-.038-2.9-.07-1.775-.058-3.624.372-5.243-.784-1.645,2.115.387,2.634,1.511,3.388a8.443,8.443,0,0,0,4.857,1.156c8.75-.01,17.5.033,26.25-.02,4.606-.027,6.154-.995,7.125-4.11" fill="none" stroke="#000" stroke-linecap="round" stroke-linejoin="round" stroke-width="2"/><path d="M151.369,393.361c1.454-.675,3-.4,4.5-.34a5.658,5.658,0,0,0,4.852-2.3c1.829-2.274.67-5.3-2.231-5.541a34.879,34.879,0,0,0-7.114.351c-1.869.233-3.05,3.421-1.84,5.562,6.355,11.246,5.148,23.357,3.531,35.248-1.046,7.7-.133,15.278-.528,22.9-.24,4.619-1.037,5.616-5.668,5.622-1.125,0-2.251-.033-3.375.007-2.87.1-4.255-1.176-4.147-4.132.1-2.747.022-5.5.022-8.25" fill="none" stroke="#000" stroke-linecap="round" stroke-linejoin="round" stroke-width="2"/><path d="M145.744,309.361c-5.282-.337-9.826,2.252-14.588,3.861a2.716,2.716,0,0,0-1.683,3.684c.678,2.209,1.851,2.263,3.521,2.21.749-.025,1.5-.005,2.25-.005,8.6,0,9.333-.63,10.875-9.375" fill="none" stroke="#000" stroke-linecap="round" stroke-linejoin="round" stroke-width="2"/><path d="M44.494,393.736c-2.91,7.117-2.2,14.742-2.848,22.139-.377,4.326.57,8.771,1.628,13.134,1.672,6.893.109,13.978.428,20.979.222,4.859.049,4.834,4.917,4.881,8.312.079,7.993.508,7.878-7.883-.021-1.5,0-3,0-4.5" fill="none" stroke="#000" stroke-linecap="round" stroke-linejoin="round" stroke-width="2"/><path d="M109.369,316.486c-.185-3.505-.369-7.01-.563-10.687H87.431c-.193,3.677-.378,7.182-.562,10.687" fill="none" stroke="#000" stroke-linecap="round" stroke-linejoin="round" stroke-width="2"/><path d="M45.244,323.986c-.844,3.726-.148,7.5-.372,11.251a2.432,2.432,0,0,0,.018,1.114c.807,1.655,7.109,2.783,10.477,1.879,2.566-.688,2.72-2.686,2.644-4.869-.078-2.247-.017-4.5-.017-6.75" fill="none" stroke="#000" stroke-linecap="round" stroke-linejoin="round" stroke-width="2"/><path d="M149.869,278.236a11.284,11.284,0,0,1,6-1.161c.859.02,1.773.376,2.639-.319,1.733-1.391,3.822-2.958,3.211-5.23-.552-2.052-2.55-3.329-5.1-3.081-1.227.118-2.51-.392-3.743-.3-2.945.228-6.473,5.967-4.81,8.162,3.989,5.268,3.944,11.306,3.556,17.293-.19,2.923.154,5.758.145,8.634-.033,10.88-1.355,21.73-.772,32.625a2.361,2.361,0,0,1-.018,1.114c-2.263,4.232-6.211,1.645-9.367,2.184-1.854.317-3.473-.43-3.386-2.924.1-2.872.024-5.75.024-8.625" fill="none" stroke="#000" stroke-linecap="round" stroke-linejoin="round" stroke-width="2"/><path d="M45.244,298.486c3.3,6.316,9.475,6.6,15.38,7.054,4.186.325,7.861,1.945,11.612,3.466,3.026,1.227,4.5,3.861,5.633,6.73" fill="none" stroke="#000" stroke-linecap="round" stroke-linejoin="round" stroke-width="2"/><path d="M51.994,395.611c4.75.375,9.513.64,14.242,1.191,1.467.171,2.769.743,3.872-.567-.715-2.372-2.753-1.461-3.882-1.6-3.978-.494-7.914-1.445-11.983-1.306-5.028.173-7.686,2.995-7.122,7.909.2,1.745-.457,3.551.373,5.25" fill="none" stroke="#000" stroke-linecap="round" stroke-linejoin="round" stroke-width="2"/><path d="M69.244,323.611a3.647,3.647,0,0,1-3.75,2.207c-5.505-.04-11.043.658-16.505-.689-2.44-.6-4.1-1.311-4.227-4.513a183.321,183.321,0,0,1,.071-21.382,10.187,10.187,0,0,0-.251-2.639c-1.139-5.968-1.074-12.154,1.637-17.494,1.6-3.142,1.778-5.288.695-8.423a3.25,3.25,0,0,0-2.807-2.466,15.222,15.222,0,0,0-7.871,1.006c-2.515,1.078-2.312,3.247-1.384,4.83,1.178,2.011,3.11,3.573,5.894,3.078a8.705,8.705,0,0,1,5.248,1.11" fill="none" stroke="#000" stroke-linecap="round" stroke-linejoin="round" stroke-width="2"/><path d="M101.119,273.361a32.663,32.663,0,0,0-13.482-.977c-3,.365-6.184-.722-9.018.977" fill="none" stroke="#000" stroke-linecap="round" stroke-linejoin="round" stroke-width="2"/><path d="M81.056,397.861c-1.69,6.989,1.872,11.88,8.813,11.987,4.749.072,9.5-.019,14.25.021,8.62.072,9.9-1,11.437-10.508" fill="none" stroke="#000" stroke-linecap="round" stroke-linejoin="round" stroke-width="2"/><path d="M116.869,398.986c-2.922-2.334-6.391-1.855-9.75-1.866-7.75-.026-15.5,0-23.25-.024a3.21,3.21,0,0,0-2.25.765" fill="none" stroke="#000" stroke-linecap="round" stroke-linejoin="round" stroke-width="2"/><path d="M50.494,394.861c1.32,2.327,1.025,5.058,1.878,7.5.8,2.3,1.944,3.979,4.88,3.419,1.956-.373,4.029.311,5.992-.418" fill="none" stroke="#000" stroke-linecap="round" stroke-linejoin="round" stroke-width="2"/><path d="M128.119,273.361a45.3,45.3,0,0,0-18,0" fill="none" stroke="#000" stroke-linecap="round" stroke-linejoin="round" stroke-width="2"/><path d="M145.744,394.861a3.766,3.766,0,0,0-1.19,2.612c-1.975,9.675-1.941,8.649-11.56,7.888" fill="none" stroke="#000" stroke-linecap="round" stroke-linejoin="round" stroke-width="2"/><path d="M139.369,438.361c1.355-1.515,4.214-.856,4.987-3.321-3.441-1.63-7.051-1.7-7.552-.035-.515,1.7.7,2.723,2.19,3.356" fill="none" stroke="#000" stroke-linecap="round" stroke-linejoin="round" stroke-width="2"/><path d="M129.994,407.986a18.484,18.484,0,0,0,6.1-11.033c-3.226-1.605-6.351.722-9.476.158" fill="none" stroke="#000" stroke-linecap="round" stroke-linejoin="round" stroke-width="2"/><path d="M126.619,323.611c1.118,2.226,3.107,2.3,5.25,2.272,6.163-.083,12.375.508,18.375-1.522" fill="none" stroke="#000" stroke-linecap="round" stroke-linejoin="round" stroke-width="2"/><path d="M108.994,397.861c.219,3.747-.452,7.524.375,11.25" fill="none" stroke="#000" stroke-linecap="round" stroke-linejoin="round" stroke-width="2"/><path d="M87.244,397.861v11.25" fill="none" stroke="#000" stroke-linecap="round" stroke-linejoin="round" stroke-width="2"/><path d="M53.869,274.861c-3.5,2.554-5.726,6.273-8.625,9.375" fill="none" stroke="#000" stroke-linecap="round" stroke-linejoin="round" stroke-width="2"/><path d="M118.369,314.611c-.721-2.3-2.637-1.375-4.127-1.477s-3-.023-4.5-.023" fill="none" stroke="#000" stroke-linecap="round" stroke-linejoin="round" stroke-width="2"/><path d="M86.494,313.111c-2.865.363-5.865-.82-8.625.75" fill="none" stroke="#000" stroke-linecap="round" stroke-linejoin="round" stroke-width="2"/><path d="M59.494,435.736c-2.354-3.1-5.119-1.876-8.053-.95,3.4,3.828,5.624,4.161,7.678,1.325" fill="none" stroke="#000" stroke-linecap="round" stroke-linejoin="round" stroke-width="2"/><path d="M60.244,397.111c.276,4.67,2.76,8.162,6,11.25" fill="none" stroke="#000" stroke-linecap="round" stroke-linejoin="round" stroke-width="2"/><path d="M144.244,395.611c-2.641.087-5.331-.347-7.875.75" fill="none" stroke="#000" stroke-linecap="round" stroke-linejoin="round" stroke-width="2"/><path d="M137.494,288.361c-8.444,1.686-9.542,2.91-9.75,10.875,7.083,1.4,8.694.931,14.236-.432,5.422-1.334,6.392-3.244,5.6-9.6l-9.715-.845" fill="none" stroke="#000" stroke-linecap="round" stroke-linejoin="round" stroke-width="2"/><path d="M50.869,309.361c-1.507,2.9.5,8.106,3.368,9.022,3.213,1.027,6.495.712,9.757.708,3.277,0,1.907-2.888,2.793-4.46a36.607,36.607,0,0,0-15.543-5.27" fill="none" stroke="#000" stroke-linecap="round" stroke-linejoin="round" stroke-width="2"/><path d="M528.889,439.149h-5.25q-52.875,0-105.75.055c-2.9.007-4.011-.558-4.227-3.8-.977-14.677-9.768-21.378-18.638-23.3-13.381-2.907-25.817,3.876-28.881,18.8a31.124,31.124,0,0,0-.73,4.126,8.133,8.133,0,0,1-8.645,7.812c-6.141-.375-12.274-1.042-18.373-1.862-4.643-.624-5.566-2.055-5.267-6.7.072-1.12.011-2.249.011-3.374" fill="none" stroke="#000" stroke-linecap="round" stroke-linejoin="round" stroke-width="2"/><path d="M540.139,389.649a43.082,43.082,0,0,0-13.832-6.893c-3.842-1.153-7.271-3.651-10.923-5.473a153.451,153.451,0,0,0-22.46-9.5,66.6,66.6,0,0,0-13.92-2.4A398.311,398.311,0,0,0,435.89,364.2c-6.639.1-13.3.987-19.883,1.132-4.321.1-8.566.067-12.736,1.1a130.006,130.006,0,0,0-33.734,13.511c-3.357,1.93-6.868,3.551-9.91,6.176-1.743,1.5-4.837,1.767-7.369,1.951-3.92.285-7.766.89-11.641,1.421-1.536.21-3.749.11-5.127-1.49-3.535,5.283-3.64,8.448-.476,11.4" fill="none" stroke="#000" stroke-linecap="round" stroke-linejoin="round" stroke-width="2"/><path d="M580.264,268.149c-4.943-4.825-11.4-7.318-17.354-10.293a130.3,130.3,0,0,0-25.352-9.375c-4.566-1.192-9.027-.951-13.541-1.366a329.963,329.963,0,0,0-44.621-.932c-12.077.526-24.4.177-36.008,4.713-3.243,1.268-6.678,2.174-9.711,3.822-6.04,3.283-12.709,5.129-18.72,8.31-5.18,2.741-10.666,4.977-15.477,8.449-1.685,1.217-3.713,1.332-5.965,1.349-4.629.036-9.243,1.14-13.878,1.685a133.785,133.785,0,0,0-35.98,9.805c-4.1,1.71-7.963,3.981-10.492,7.85a8.07,8.07,0,0,0-1.534,4.483,4.922,4.922,0,0,1-1.019,3.452c-1.285,1.648-1.327,3.632-.619,5.967a21.206,21.206,0,0,1,.107,11.2c-.854,3.445.643,5.934,4.147,7.182,4.577,1.63,9.253.909,13.893,1.058,3.246.1,6.5.041,9.749.014,3.286-.028,4.373-1.116,4.491-4.494.053-1.5.092-3,0-4.5-.87-13.509,12.078-24.606,23.641-23.668a43.934,43.934,0,0,0,6.371-.349.681.681,0,0,0-.009-.353,2.148,2.148,0,0,0-.365-.381" fill="none" stroke="#000" stroke-linecap="round" stroke-linejoin="round" stroke-width="2"/><path d="M392.764,292.9c7.079,1.647,12.12,5.321,14.349,12.72a73.687,73.687,0,0,1,3.183,17.467H525.627c.594-7.262.958-14.424,5.508-20.44a22.737,22.737,0,0,1,20.993-9.248c14.63,1.245,20.224,9.76,22.488,23.879.664,4.138,3.812,7.562,7.9,7.431,7.022-.224,13.939-1.869,21-1.887a1.368,1.368,0,0,0,1.036-1.791c-3.63-.119-7.624.537-10.946-2.175a12.061,12.061,0,0,1,8.031-1.921c1.984.2,3.09,1.2,1.879,3.34" fill="none" stroke="#000" stroke-linecap="round" stroke-linejoin="round" stroke-width="2"/><path d="M533.389,421.149c.5,2.034-.879,3.527-1.477,5.258-1.635,4.727-1.7,9.755-2.657,14.662-.774.723-1.749.306-2.616.307q-54.937.041-109.875-.026c-1.043,0-3.444,1.17-2.625-1.826" fill="none" stroke="#000" stroke-linecap="round" stroke-linejoin="round" stroke-width="2"/><path d="M409.264,434.649c-.121-10.883-8.134-19.348-19.5-19.861A19.88,19.88,0,0,0,369.3,433.906c-.4,9.4,4.8,17.249,14.848,20.211,11.562,3.41,23.458-4.753,25.126-16.842.1-.751-.418-1.611.365-2.251" fill="none" stroke="#000" stroke-linecap="round" stroke-linejoin="round" stroke-width="2"/><path d="M410.764,320.649c3.524-.55,6.99.4,10.5.4q46.125-.053,92.25,0c3.875,0,7.75.234,11.625.359" fill="none" stroke="#000" stroke-linecap="round" stroke-linejoin="round" stroke-width="2"/><path d="M397.264,388.524c1.468,1.061,1.828-.213,2.237-1.131,2.168-4.858,5.883-8.8,9.607-12.124,3.278-2.931,8.182-4.272,12.893-5.187,12.314-2.393,24.74-1.671,37.138-1.79,8.793-.085,17.581-.072,26.256,1.83,6.688,1.466,12.591,4.75,18.808,7.376a98.514,98.514,0,0,1,21.725,12.475c7.434,5.678,8.01,7.146,5.663,16.2-.795,3.068-2.293,5.751-3.5,8.586-2.917,6.867-3.625,14.064-3.755,21.769h-60.7c-11,0-22.009-.258-33,.1-6.187.2-10.161-1.622-12.92-7.523a48.066,48.066,0,0,0-9.572-13.214c-7.12-7.189-15.841-8.093-25.129-6.329-9.774,1.857-15.418,8.514-19.132,17.215" fill="none" stroke="#000" stroke-linecap="round" stroke-linejoin="round" stroke-width="2"/><path d="M407.764,277.524a19.472,19.472,0,0,0,1.549,13.1,62.4,62.4,0,0,1,6.324,27.774h60.377c12.125,0,24.25-.047,36.375.03,3.378.022,5.661-.959,7.617-4.082,3.232-5.156,6-10.718,10.413-15.042a113.2,113.2,0,0,1,10.521-9.339,10.513,10.513,0,0,0,4.46-9.443c-.3-8.277-2.923-16-9.551-20.77a43.27,43.27,0,0,0-19.707-8.13c-17.606-2.231-35.223-1.607-52.882-.816-10.137.455-18.762,4.836-27.8,8.576-7.52,3.11-14.226,7.373-20.95,11.753a42.425,42.425,0,0,0-6.742,6.013" fill="none" stroke="#000" stroke-linecap="round" stroke-linejoin="round" stroke-width="2"/><path d="M486.139,250.9c-.625,5.125-1.107,10.273-1.939,15.364-.378,2.312-.137,4.511-.41,7.288,3.6-.193,6.725-.369,9.849-.525,7.625-.381,15.248-.8,22.876-1.114,7.5-.31,15-.489,22.5-.792a15.518,15.518,0,0,0,3-.721" fill="none" stroke="#000" stroke-linecap="round" stroke-linejoin="round" stroke-width="2"/><path d="M527.389,438.4a24.736,24.736,0,0,1,2.458-13.016c3.269-6.234,7.887-12.264,15.206-13.8,7.792-1.636,15.9-1.632,22.822,3.585,6.439,4.85,9.829,11.3,9.777,19.481-.057,9-.011,9.116,8.986,8.959,6-.1,12.04.722,18.007-.684,2.325-.548,4.328-1.258,5.309-3.749a3.182,3.182,0,0,0,.273-1.892,29.208,29.208,0,0,1,.014-14.265,4.407,4.407,0,0,0-.006-2.235c-2.22-6.97-3.684-14.026-11.9-17.422a164.138,164.138,0,0,0-32.691-9.968,143.6,143.6,0,0,0-16.878-2.219,13.086,13.086,0,0,0-2.623.35" fill="none" stroke="#000" stroke-linecap="round" stroke-linejoin="round" stroke-width="2"/><path d="M395.014,273.4c-5.86,4.528-12.787,6.3-19.88,7.468-9.748,1.6-19.611,2.625-28.868,6.413-.585.24-1.447.15-1.5,1.119" fill="none" stroke="#000" stroke-linecap="round" stroke-linejoin="round" stroke-width="2"/><path d="M528.514,390.4c4.22-1.131,8.482.5,12.773-.244,1.817-.315,3.6,1.22,5.277,2.424,4.994,3.576,10.895,4.9,16.822,6.085,9.933,1.99,20.159,2.429,29.683,6.609,4.711,2.068,6.818,5.633,8.985,9.957a17.65,17.65,0,0,1-10.175,1.094c-1.817-.376-3.74-.856-5.615-.05" fill="none" stroke="#000" stroke-linecap="round" stroke-linejoin="round" stroke-width="2"/><path d="M483.514,273.4c-8.5.75-17,1.553-25.5,2.234-7.244.579-14.547.672-21.728,1.669-3.327.462-6.518.182-9.771.222" fill="none" stroke="#000" stroke-linecap="round" stroke-linejoin="round" stroke-width="2"/><path d="M460.639,392.274c7.875.5,15.753.957,23.624,1.511,9.871.693,19.692,2.317,29.623,1.809a39.245,39.245,0,0,0,8.236-1.506c1.777-.484,2.12-1.759.781-3.326-2.746-3.217-8.192-4.159-13.514-.738" fill="none" stroke="#000" stroke-linecap="round" stroke-linejoin="round" stroke-width="2"/><path d="M399.514,388.524c4.8,1.355,9.735.919,14.624,1.138,13.127.587,26.251,1.234,39.376,1.865,2.126.1,4.25.247,6.375.372" fill="none" stroke="#000" stroke-linecap="round" stroke-linejoin="round" stroke-width="2"/><path d="M483.139,250.9c-2.371,11.633-4.507,23.311-4.073,35.248.187,5.136.8,10.273,1.49,15.371.738,5.425-.038,10.762-.417,16.131" fill="none" stroke="#000" stroke-linecap="round" stroke-linejoin="round" stroke-width="2"/><path d="M456.889,369.024a185.627,185.627,0,0,1,4.019,30,100.076,100.076,0,0,1-1.115,17.607,68.539,68.539,0,0,0,.1,19.139" fill="none" stroke="#000" stroke-linecap="round" stroke-linejoin="round" stroke-width="2"/><path d="M576.514,309.024c-3.062-5.183-5.651-10.535-11.184-13.981-7.609-4.738-15.338-5.54-23.706-2.944-.912.283-1.837,1.481-2.985.425" fill="none" stroke="#000" stroke-linecap="round" stroke-linejoin="round" stroke-width="2"/><path d="M605.014,321.774c2.284-3.043,2.349-3.471,1.441-10.185-10.8.922-21.207,3.079-30.691,8.685" fill="none" stroke="#000" stroke-linecap="round" stroke-linejoin="round" stroke-width="2"/><path d="M333.139,316.524a3.953,3.953,0,0,0,4.125,2.626c.375-.01.75,0,1.125,0,8.149.049,8.311-.088,9.818-8.636-4.546-1.173-8.867-.346-13.2,1.1-1.852.618-1.069,2.38-1.863,3.411" fill="none" stroke="#000" stroke-linecap="round" stroke-linejoin="round" stroke-width="2"/><path d="M527.764,248.649c11.919,2.17,22.172,8.235,32.647,13.833,4.584,2.45,9.086,5.132,14.207,6.5a5.071,5.071,0,0,0,2.625.232c3.349-1.086,6.532.082,9.77.445,4.253.476,8.5.994,12.751,1.494" fill="none" stroke="#000" stroke-linecap="round" stroke-linejoin="round" stroke-width="2"/><path d="M605.764,280.9c2.425-3.033,1.061-6.309.266-9.346-.511-1.952-2.754-1.41-3.982-.719-7.124,4.011-14.24,2.283-21.42.355-.69-.185-1.42-.087-1.864-.79" fill="none" stroke="#000" stroke-linecap="round" stroke-linejoin="round" stroke-width="2"/><path d="M413.764,366.4c-2.386,1.068-5.021.92-7.495,1.522-5.232,1.273-9.818,4.077-14.64,6.332-7.052,3.3-13.7,7.361-20.671,10.783-3.119,1.531-6.668,3.439-10.444,1.238" fill="none" stroke="#000" stroke-linecap="round" stroke-linejoin="round" stroke-width="2"/><path d="M609.139,426.774c-4.776-.1-9.058-1.9-13.1-4.171-3.863-2.173-7.581-5.012-11.415-6.776-7.82-3.6-16.034-6.785-24.983-7.137a36.2,36.2,0,0,0-12.378,1.209" fill="none" stroke="#000" stroke-linecap="round" stroke-linejoin="round" stroke-width="2"/><path d="M391.264,291.4a45.878,45.878,0,0,0-29.555,3.9c-7.038,3.41-14.2,2.778-21.445,2.813-1.971.01-2.256-1.234-1.52-2.966,2.173-5.114,3.632-6.1,9.02-6,3.019.058,6.063-.2,9,.768.8.264,1.555.651,2.207.928-.208,2.069-2.077,3.375-1.829,5.437" fill="none" stroke="#000" stroke-linecap="round" stroke-linejoin="round" stroke-width="2"/><path d="M402.139,396.774c1.638,4.5,1.638,4.5,6.75,4.5,4.536,0,4.536,0,6.751-1.127-.086-3.441-1.769-4.885-5.257-4.559-1.34.125-2.742-.623-4.12-.639-1.48-.017-3.4-.851-4.124,1.45" fill="none" stroke="#000" stroke-linecap="round" stroke-linejoin="round" stroke-width="2"/><path d="M537.889,278.274c-.717-.549-.995-1.691-2.252-1.511-2.87.41-5.742.817-8.625,1.118-2.144.223-2.365,2.01-2.544,3.4-.275,2.145,1.544,1.849,2.921,1.863a30.556,30.556,0,0,1,3.372.023c3.643.441,6.514-.234,7.128-4.521" fill="none" stroke="#000" stroke-linecap="round" stroke-linejoin="round" stroke-width="2"/><path d="M336.889,399.024c2.669-2.212,6.029-.861,9.044-1.721,4.774-1.364,9.165,1.814,14.192,2.154-1.2,3.99-2.045,7.683-3.419,11.169-1.819,4.616-6.354,6.183-10.487,7.365-4.162,1.19-8.511,2.395-13.1,1.366-2.588-.58-4.508,1.786-4.481,4.792.024,2.7,3.226,5.962,6,5.989,10.735.105,20.592,3.357,30,8.261" fill="none" stroke="#000" stroke-linecap="round" stroke-linejoin="round" stroke-width="2"/><path d="M608.764,439.9c-10.125,1.663-20.25,0-30.375,0" fill="none" stroke="#000" stroke-linecap="round" stroke-linejoin="round" stroke-width="2"/><path d="M361.639,321.774c-9.991.811-20,.168-30,.375" fill="none" stroke="#000" stroke-linecap="round" stroke-linejoin="round" stroke-width="2"/><path d="M473.014,403.149c.778.805,1.752.281,2.627.351,1.4.111,2.878.061,2.974-1.852.085-1.678-.535-3.651-2.224-3.628-3.526.049-6.966-1.39-10.491-.775-.22,5.722.331,6.212,6.739,6.279" fill="none" stroke="#000" stroke-linecap="round" stroke-linejoin="round" stroke-width="2"/><path d="M602.389,285.774c-4.416,9.962-11.953,7.437-19.685,4.523.707,4.861,4.223,6.486,7.677,8.242,4.848,2.464,10.171,2.645,15.386,3.338,1.733.23,3.9-1.094,4.87,1.523a6.373,6.373,0,0,1-2.25,7.5c-.363.265-.748.5-1.123.752" fill="none" stroke="#000" stroke-linecap="round" stroke-linejoin="round" stroke-width="2"/><path d="M408.139,375.4c-4.343.3-6.022,4.015-8.177,6.806a26.242,26.242,0,0,0-5.327,18.319,8.867,8.867,0,0,0,3.68,6.845c1.107.855,3.513.876,3.074,3.28" fill="none" stroke="#000" stroke-linecap="round" stroke-linejoin="round" stroke-width="2"/><path d="M479.764,250.524c-1,5-2.047,9.991-2.981,15-.485,2.6-.769,5.247-1.144,7.872" fill="none" stroke="#000" stroke-linecap="round" stroke-linejoin="round" stroke-width="2"/><path d="M353.014,298.9c-6.686,4.813-13.637,9.025-22.125,9.75" fill="none" stroke="#000" stroke-linecap="round" stroke-linejoin="round" stroke-width="2"/><path d="M459.889,369.024a160.266,160.266,0,0,1,4.5,22.5" fill="none" stroke="#000" stroke-linecap="round" stroke-linejoin="round" stroke-width="2"/><path d="M453.139,369.024a95.461,95.461,0,0,1,3,22.125" fill="none" stroke="#000" stroke-linecap="round" stroke-linejoin="round" stroke-width="2"/><path d="M581.389,285.774l-1.821-4.1c3.993-1.045,7.773-2.074,11.578-3a1.842,1.842,0,0,1,2.164,1.11c.328,2.09,1.018,4.26.057,6.353-.445.971-1.966,1.233-1.872,2.636-3.413.22-5.975-2.667-9.356-2.626-1.426,1.125-.523,2.25,0,3.375" fill="none" stroke="#000" stroke-linecap="round" stroke-linejoin="round" stroke-width="2"/><path d="M345.514,436.524c-2.971-2.175-6.225-.816-9.426-1.19.537,4.61,4.569,5.094,9.426,1.565" fill="none" stroke="#000" stroke-linecap="round" stroke-linejoin="round" stroke-width="2"/><path d="M603.889,282.4c.245,2.875,1.1,5.687.766,8.627-.252,2.2,2.313,1.372,3.04,2.727-1.713,2.4-2.56,4.9-.056,7.4" fill="none" stroke="#000" stroke-linecap="round" stroke-linejoin="round" stroke-width="2"/><path d="M336.139,400.149c.114,3.03-1.068,5.924-.816,9.005.144,1.761-2.27,1.047-3.023,2.4.779,2.312,2.916,4.711.464,7.34" fill="none" stroke="#000" stroke-linecap="round" stroke-linejoin="round" stroke-width="2"/><path d="M362.014,388.149c-6.541,2.628-13.2,4.164-20.25,2.25" fill="none" stroke="#000" stroke-linecap="round" stroke-linejoin="round" stroke-width="2"/><path d="M380.389,402.4c-1.937-6.009-1.937-6.009-8.625-6-5.411.007-6.581,1.621-4.865,6.747.176.524.36,1.256.761,1.463,3.114,1.6,6.488.432,9.728.795,1.99.223,2.315-1.4,3-2.63" fill="none" stroke="#000" stroke-linecap="round" stroke-linejoin="round" stroke-width="2"/><path d="M407.014,303.024c2.387.553,2.7,3.013,3.211,4.554a38.419,38.419,0,0,1,2.414,12.321" fill="none" stroke="#000" stroke-linecap="round" stroke-linejoin="round" stroke-width="2"/><path d="M408.139,277.149a56.034,56.034,0,0,0,16.5,1.469c.384-.015.751-.469,1.126-.719" fill="none" stroke="#000" stroke-linecap="round" stroke-linejoin="round" stroke-width="2"/><path d="M357.889,404.274a21.8,21.8,0,0,0-6.013,1.85c-3.774,1.986-7.7,1.495-11.341-.014-1.243,1.866-.314,2.435.845,3.055,4.208,2.252,8.437,2.117,12.772.392.827-.328,1.423-1.63,2.612-.783" fill="none" stroke="#000" stroke-linecap="round" stroke-linejoin="round" stroke-width="2"/><path d="M430.264,271.9c-3.821-2.757-9.843-2.58-12.75.375-1.928,1.96-1.694,3,1.136,3.707,2.322.585,4.739.793,7.114,1.168" fill="none" stroke="#000" stroke-linecap="round" stroke-linejoin="round" stroke-width="2"/><path d="M421.264,261.024c-2.372,3.468-6.579,4.13-9.749,6.376-1.755,1.243-3.5,2.5-5.251,3.749" fill="none" stroke="#000" stroke-linecap="round" stroke-linejoin="round" stroke-width="2"/><path d="M531.514,395.274c-4.976.7-9.85,2.749-15,1.125" fill="none" stroke="#000" stroke-linecap="round" stroke-linejoin="round" stroke-width="2"/><path d="M596.014,407.274c-3.227.738-6.509-.615-9.762.335a39.812,39.812,0,0,1-5.2.843c-.311,2.495,1.932,3.831,1.834,5.947" fill="none" stroke="#000" stroke-linecap="round" stroke-linejoin="round" stroke-width="2"/><path d="M528.139,256.149c-1.219,1.728.091,3.284.412,4.867a44.182,44.182,0,0,1,.713,9.383" fill="none" stroke="#000" stroke-linecap="round" stroke-linejoin="round" stroke-width="2"/><path d="M411.514,374.649c1.135,2.876-.622,5.488-.756,8.25-.1,2-.244,4-.369,6" fill="none" stroke="#000" stroke-linecap="round" stroke-linejoin="round" stroke-width="2"/><path d="M533.764,259.524l7.125,10.125" fill="none" stroke="#000" stroke-linecap="round" stroke-linejoin="round" stroke-width="2"/><path d="M526.264,383.274c1.062,3.015,4.482,2.928,6.42,4.829.508.5,1.263.738,1.455,1.546" fill="none" stroke="#000" stroke-linecap="round" stroke-linejoin="round" stroke-width="2"/><path d="M346.639,397.9c-.916,3.31-1.277,6.474,2.25,8.625" fill="none" stroke="#000" stroke-linecap="round" stroke-linejoin="round" stroke-width="2"/><path d="M422.014,269.649c4.236-3.077,7.937-3.19,12.511-.289a16.159,16.159,0,0,0-5.761,7.789" fill="none" stroke="#000" stroke-linecap="round" stroke-linejoin="round" stroke-width="2"/><path d="M517.264,387.4c-3.875-2.924-7.75-2.338-12.093.044,3,2.109,5.226,4.486,6.093,7.831" fill="none" stroke="#000" stroke-linecap="round" stroke-linejoin="round" stroke-width="2"/><path d="M341.389,398.649l-.375,7.125" fill="none" stroke="#000" stroke-linecap="round" stroke-linejoin="round" stroke-width="2"/><path d="M603.139,281.274c-.683-1.917-2.486-1.853-3.708-1.389-1.372.522-1.525,2.387-1.08,3.607.5,1.375-.347,3.057,1.038,4.157" fill="none" stroke="#000" stroke-linecap="round" stroke-linejoin="round" stroke-width="2"/><path d="M598.639,408.4c2.427-.3,4.4,1.453,6.75,1.5" fill="none" stroke="#000" stroke-linecap="round" stroke-linejoin="round" stroke-width="2"/><path d="M600.139,288.774c-.6-1.024-1.263-.891-2.271-.421a8.808,8.808,0,0,1-5.6.8" fill="none" stroke="#000" stroke-linecap="round" stroke-linejoin="round" stroke-width="2"/><path d="M411.889,272.274c-3.839-1.25-7.76.062-11.625-.375" fill="none" stroke="#000" stroke-linecap="round" stroke-linejoin="round" stroke-width="2"/><path d="M431.764,261.774c-.362,2.482-3.91,2.268-4.125,4.875" fill="none" stroke="#000" stroke-linecap="round" stroke-linejoin="round" stroke-width="2"/><path d="M340.639,290.649c-1.936-.8-3.656,1.665-5.625.375" fill="none" stroke="#000" stroke-linecap="round" stroke-linejoin="round" stroke-width="2"/><path d="M509.014,380.274c.429,2.425,3.429,2.675,4.125,4.875" fill="none" stroke="#000" stroke-linecap="round" stroke-linejoin="round" stroke-width="2"/><path d="M598.639,280.149a4.988,4.988,0,0,0-4.875-.375" fill="none" stroke="#000" stroke-linecap="round" stroke-linejoin="round" stroke-width="2"/><path d="M337.639,404.274l1.875,3" fill="none" stroke="#000" stroke-linecap="round" stroke-linejoin="round" stroke-width="2"/><path d="M561.889,278.649c-2.644,1.29-1.947,3.99-2.087,6.011-.111,1.6,1.524,2.965,3.585,2.6,3.259-.575,7.588,1.855,9.608-1.94,2.31-4.341.332-6.673-4.731-6.673h-6" fill="none" stroke="#000" stroke-linecap="round" stroke-linejoin="round" stroke-width="2"/><path d="M593.014,427.9c-2.577,2.284-.512,4.262.348,6.386.851,2.1,1.873,3.776,4.527,3.364a35.368,35.368,0,0,1,4.876-.7c2.171-.028,3.79-.2,3.8-3.045.012-2.59-.448-4.417-3.423-4.911-3.239-.538-6.433-1.345-9.756-1.089" fill="none" stroke="#000" stroke-linecap="round" stroke-linejoin="round" stroke-width="2"/><path d="M550.264,304.524c-4.766.509-8.43,2.566-10.519,7.116-2.647,5.767-.5,12.865,4.894,15.759A12.1,12.1,0,0,0,560.4,323.66c5.974-8.234-.637-18.559-8.265-18.776a7.322,7.322,0,0,1-1.5-.36" fill="none" stroke="#000" stroke-linecap="round" stroke-linejoin="round" stroke-width="2"/><path d="M383.389,304.9c-5.636,2.023-8.971,5.785-8.995,12a12.3,12.3,0,0,0,10.495,12c5.411.885,11.3-3.115,13.114-9,1.794-5.835-1.964-12.063-6.314-13.985-2.692-1.19-5.276-.8-7.925-1.011" fill="none" stroke="#000" stroke-linecap="round" stroke-linejoin="round" stroke-width="2"/><path d="M384.139,296.649c-6.081,1.244-11.245,3.923-14.624,9.376a18.968,18.968,0,0,0-1.476,18.363c3.027,7.054,8.276,11.144,16.1,12.055,11.654,1.358,21.846-6.529,22.3-19.551.331-9.6-5.455-16.579-14.792-19.489a20.257,20.257,0,0,0-7.124-.754" fill="none" stroke="#000" stroke-linecap="round" stroke-linejoin="round" stroke-width="2"/><path d="M552.514,414.774c-6.689.708-12.008,3.586-15.777,9.357-7.592,11.629-1.052,26.443,11.645,30.042,10.862,3.079,21.975-4.279,24.413-14.267,2.558-10.478-2.508-20.762-14.3-24.7-1.725-.575-3.729-.312-5.6-.437" fill="none" stroke="#000" stroke-linecap="round" stroke-linejoin="round" stroke-width="2"/><path d="M472.264,279.024c-2.375.25-4.77.38-7.12.778-3.546.6-3.877,1.215-3.334,5.6,3.069,0,6.2.012,9.329,0,2.848-.014,2.264-2.532,3.023-4.11.851-1.767-.065-2.15-1.523-2.261" fill="none" stroke="#000" stroke-linecap="round" stroke-linejoin="round" stroke-width="2"/><path d="M548.389,296.649c-7.518,1.434-13.511,5.255-16.416,12.409a20.015,20.015,0,1,0,37.058-.041c-3.018-7.731-10.478-12.368-20.267-12.368" fill="none" stroke="#000" stroke-linecap="round" stroke-linejoin="round" stroke-width="2"/><path d="M387.889,422.649c-7.8,2.515-10.542,5.844-10.5,12.75.035,5.739,5,11.061,10.5,11.25,7.589.261,12.8-3.973,13.554-10.494a12.4,12.4,0,0,0-13.179-13.506" fill="none" stroke="#000" stroke-linecap="round" stroke-linejoin="round" stroke-width="2"/><path d="M552.139,422.649c-7.61,2.453-10.5,5.859-10.5,12.375,0,5.365,4.218,11.011,9.005,11.584,7,.84,11.61-1.252,14.164-7.492,3.334-8.147-3.215-16.958-12.294-16.467" fill="none" stroke="#000" stroke-linecap="round" stroke-linejoin="round" stroke-width="2"/><text transform="translate(3.908 293.362)" font-size="12" font-family="MyriadPro-Regular, Myriad Pro"><tspan x="0" y="0">Trước</tspan></text><text transform="translate(3.908 410.649)" font-size="12" font-family="MyriadPro-Regular, Myriad Pro"><tspan x="0" y="0">Sau</tspan></text><text transform="translate(181.327 356.653)" font-size="12" font-family="MyriadPro-Regular, Myriad Pro"><tspan x="0" y="0">Mui</tspan></text><text transform="translate(353.014 258.813)" font-size="12" font-family="MyriadPro-Regular, Myriad Pro"><tspan x="0" y="0">Trái</tspan></text><text transform="translate(568.85 379.45)" font-size="12" font-family="MyriadPro-Regular, Myriad Pro"><tspan x="0" y="0">Phải</tspan></text></g></svg>