<svg xmlns="http://www.w3.org/2000/svg" width="691.171" height="257.625" viewBox="0 0 691.171 257.625"><g transform="translate(327.378 -147.989)"><g transform="translate(-92.049 148.98)"><path d="M216.664,166.118c.455,3.142.168,6.3.186,9.451.1,16.952-4.83,32.526-13.325,47.015a26.187,26.187,0,0,0-3.3,10.68c-.339,2.9.129,5.671.268,8.458a40.21,40.21,0,0,0,1.948,9.841c2.05,6.558,4.33,13.062,5.885,19.746a67.3,67.3,0,0,1,1.754,12.645c.142,3.7.809,7.37,1.13,11.064.18,2.073.279,4.176.322,6.234.077,3.761.514,7.5.511,11.259q-.018,28.153-.005,56.305c0,1.407-.063,2.819.013,4.222.137,2.51,2.158,3.446,4.028,4.172a41.909,41.909,0,0,0,9.827,2.113c9.3,1.217,18.644.837,27.956.653,5.888-.116,11.869-.523,17.492-2.726a8.014,8.014,0,0,0,2.39-1.227,4.913,4.913,0,0,0,1.752-3.988c.192-8.315.024-16.626.068-24.938.063-11.73-.067-23.461.052-35.19.057-5.566.332-11.142.821-16.686.4-4.491.716-8.991,1.178-13.475a92.744,92.744,0,0,1,3.232-16.481c1.955-6.7,4.533-13.222,5.771-20.124a25.489,25.489,0,0,0,.642-5.023c-.059-2.948-.032-5.9-.011-8.847.014-1.916-.477-3.558-2.215-4.628a14.943,14.943,0,0,1-2.791-1.833c-2.31-2.29-5.122-1.48-7.643-1.042-1.328.231-2.847-.311-4.046.666" transform="translate(-181.033 -157.869)" fill="none" stroke="#000" stroke-linecap="round" stroke-linejoin="round" stroke-width="2"/><path d="M181.736,414.287c1.645.618,1.386,2.194,1.569,3.425.409,2.75-.448,5.481-.351,8.238a.937.937,0,0,1-.414.8c-1.545,1.324-1.2,3.13-1.2,4.827-.017,6.5-.284,13.019.066,19.5.4,7.44.827,14.89.815,22.325a126.866,126.866,0,0,1-.389,14.49,47.6,47.6,0,0,0,.085,10.246c.357,3.5.261,7.073,1.441,10.45,1.122,3.211.854,6.57,1.295,9.845.38,2.824-.059,5.672.643,8.474a8.5,8.5,0,0,1-.116,3.609c-.812,4.1,3.23,7.954,6.407,8.457q7.519,1.191,15.077,2.06c13.322,1.531,26.679,1.2,40.023,1.046a142.84,142.84,0,0,0,14.489-1.026c3.617-.413,7.24-.807,10.846-1.313a58.506,58.506,0,0,0,6.23-1.214c1.647-.417,5.109-4.627,4.75-6.187-.664-2.883-.027-5.647.057-8.466.093-3.1.718-6.2.708-9.249-.013-4.029,1.9-7.589,2.087-11.465.269-5.622.894-11.255.2-16.883a17.053,17.053,0,0,1-.14-2.017c-.024-6.368-.205-12.743.054-19.1.167-4.091.071-8.2.387-12.265.589-7.583.3-15.149.216-22.728-.014-1.268.125-2.278-1.046-3.057a1.535,1.535,0,0,1-.4-.763c0-3.553-1.086-7.106-.03-10.658.192-.646.323-1.35,1.206-1.408" transform="translate(-171.241 -286.592)" fill="none" stroke="#000" stroke-linecap="round" stroke-linejoin="round" stroke-width="2"/><path d="M346.478,288.949c2.212.4,4.433.761,6.633,1.221a38.675,38.675,0,0,1,4.621,1.213c2.435.836,3.474,2.674,3.866,5.2,1.326,8.55-1.135,16.466-3.878,24.331a114.622,114.622,0,0,0-4.5,17.119c-.637,3.485-1.086,7.057-1.378,10.633-.453,5.562-.89,11.119-1.25,16.688-.221,3.43-.089,6.848-.305,10.262-.9,14.137-.349,28.289-.289,42.43.023,5.419.22,10.858.292,16.288,0,.274.135.6-.2.8" transform="translate(-256.955 -221.58)" fill="none" stroke="#000" stroke-linecap="round" stroke-linejoin="round" stroke-width="2"/><path d="M214.112,434.426a.632.632,0,0,0,.778-.41,5.009,5.009,0,0,0,.028-1.2c.523-18.3.5-36.6.306-54.9-.041-3.875-.03-7.791-.357-11.66-.351-4.155-.317-8.339-.81-12.465-.6-5.034-1.184-10.075-1.854-15.1-1.211-9.1-4.485-17.595-6.971-26.32a55.354,55.354,0,0,1-1.665-8.444,44.094,44.094,0,0,1-.13-7.854c.227-4.261,2.882-6.123,6.656-6.819,4.448-.821,8.853-2.138,13.47-1.429a8.391,8.391,0,0,0,3.609-.431c2.461-.72,4.989-.146,7.45-.572,2.4-.415,20.088-.587,22.32-.193a1.623,1.623,0,0,1,.4.2" transform="translate(-182.704 -220.263)" fill="none" stroke="#000" stroke-linecap="round" stroke-linejoin="round" stroke-width="2"/><path d="M285.233,232.838a3.078,3.078,0,0,0,.191-.8c-.225-6.041.3-12.07.5-18.1.335-9.988.872-19.971.668-29.964a36.533,36.533,0,0,0-1.6-11.25c-1.5-4.35-4.554-7.567-8.2-10.275a63.846,63.846,0,0,0-16.058-8.329,93.116,93.116,0,0,0-17.74-4.473,66.929,66.929,0,0,0-15.869-.376,81.62,81.62,0,0,0-19.117,3.915c-7.615,2.5-14.758,5.885-20.883,11.108a19.493,19.493,0,0,0-6.679,12.034c-1.237,7.549-.9,15.156-.671,22.722.119,3.886.069,7.784.3,11.666.432,7.167.81,14.334.8,21.517a3.473,3.473,0,0,0,.193.8" transform="translate(-170.373 -148.98)" fill="none" stroke="#000" stroke-linecap="round" stroke-linejoin="round" stroke-width="2"/><path d="M287.556,650.341a26.524,26.524,0,0,1-9.049,3.618c-2.144.342-4.279.78-6.437.989-12.31,1.193-24.663.9-37,.748a111.41,111.41,0,0,1-14.692-1.056,58.045,58.045,0,0,1-9.452-2.049c-1.622-.521-2.661-2.066-4.412-2.25" transform="translate(-184.359 -409.031)" fill="none" stroke="#000" stroke-linecap="round" stroke-linejoin="round" stroke-width="2"/><path d="M288.225,663.075c0,2.34-.577,3.324-2.825,3.99a53.519,53.519,0,0,1-6.619,1.284c-4.673.76-9.41.492-14.09,1.116a47.553,47.553,0,0,1-6.228.046c-4.558,0-9.127.2-13.671-.052-5.165-.284-10.348-.321-15.5-1.087a45.227,45.227,0,0,1-7.225-1.286c-2.822-.9-3.02-1.239-3.02-4.211" transform="translate(-190.86 -415.531)" fill="none" stroke="#000" stroke-linecap="round" stroke-linejoin="round" stroke-width="2"/><path d="M274.747,274.443a70.492,70.492,0,0,0-13.276-3.6,86.44,86.44,0,0,0-11.464-1.933,49.268,49.268,0,0,0-10.464.215c-2.874.429-5.772.776-8.63,1.315a94.494,94.494,0,0,0-22.732,6.806c-1.964.917-3.536,2.416-5.423,3.431" transform="translate(-182.408 -211.096)" fill="none" stroke="#000" stroke-linecap="round" stroke-linejoin="round" stroke-width="2"/><path d="M287.1,618.588c-1.143,2.137-1.292,4.5-1.636,6.833-.44,2.993-.7,6.019-1.941,8.871-.711,1.635-2.351,2.417-3.143,3.96-.154.3-1.392.077-2.127.037-2.73-.148-5.083,1.258-7.635,1.845-3.061.7-6.143,1.178-9.252,1.617-10.76,1.52-21.577,1.22-32.38,1.119a114.751,114.751,0,0,1-14.085-1.095c-3.309-.441-6.594-.927-9.847-1.664-.191-.043-.456.076-.593-.018-2.451-1.662-5.305-1.432-8.041-1.864-1.708-.27-2.494-2.005-3.432-3.35-1.434-2.058-1.529-4.5-2.019-6.837-.661-3.152-.449-6.49-2-9.453" transform="translate(-175.257 -392.561)" fill="none" stroke="#000" stroke-linecap="round" stroke-linejoin="round" stroke-width="2"/><path d="M288.117,386.3c-2.626-1.461-5.585-1.725-8.452-2.171-5.119-.8-10.3-1.015-15.47-1.359a145.611,145.611,0,0,0-16.493-.2c-7.818.366-15.686.711-23.327,2.736-.96.254-1.88.659-2.819.994" transform="translate(-192.16 -270.062)" fill="none" stroke="#000" stroke-linecap="round" stroke-linejoin="round" stroke-width="2"/><path d="M362.39,227.032c.458-.6.094-1.135-.211-1.6A93.244,93.244,0,0,1,350.5,199.893a99.159,99.159,0,0,1-2.855-13.471c-.893-6.368-.661-12.737-.726-19.113a12.144,12.144,0,0,1,.191-1.609" transform="translate(-257.182 -157.652)" fill="none" stroke="#000" stroke-linecap="round" stroke-linejoin="round" stroke-width="2"/><path d="M289.558,592.151c-1.655-.839-3.5-.4-5.246-.706-2.817-.5-5.75-.318-8.628-.51-8.976-.6-17.964-.448-26.946-.354-5.566.058-11.132.431-16.688.811-1.412.1-2.793.629-4.226.155" transform="translate(-195.41 -377.988)" fill="none" stroke="#000" stroke-linecap="round" stroke-linejoin="round" stroke-width="2"/><path d="M191.612,453.92c-.2-2.547-.581-5.1-.567-7.641.033-6.106-.34-12.2-.525-18.3-.336-11.127-.724-22.25-.72-33.383q.012-28.957.011-57.914c0-.872.126-1.743.193-2.614" transform="translate(-175.688 -244.985)" fill="none" stroke="#000" stroke-linecap="round" stroke-linejoin="round" stroke-width="2"/><path d="M388.257,512.662a35.449,35.449,0,0,0,.488-6.838c.072-5.971.431-11.932.622-17.892.188-5.834-.08-11.688.372-17.492.59-7.585.07-15.156.328-22.728" transform="translate(-278.625 -303.929)" fill="none" stroke="#000" stroke-linecap="round" stroke-linejoin="round" stroke-width="2"/><path d="M284.074,191.524c3.784-2.177,3.2-5.872,2.919-9.242a29.37,29.37,0,0,0-.858-5.048c-1.055-3.984-3.85-6.651-6.715-9.2a63.6,63.6,0,0,0-13.866-9.445,58.922,58.922,0,0,0-16.661-5.125,64.517,64.517,0,0,0-13.281-.712,56.188,56.188,0,0,0-23.1,5.651,61.459,61.459,0,0,0-17.328,12.607,15.932,15.932,0,0,0-4.275,9.653c-.17,1.547-.214,3.091-.366,4.63a5.95,5.95,0,0,0,2.84,6.035" transform="translate(-176.051 -150.901)" fill="none" stroke="#000" stroke-linecap="round" stroke-linejoin="round" stroke-width="2"/><path d="M183.12,511.143c4.563-1.928,9.08-4.012,12.827-7.288,2.388-2.088,4.2-4.562,4.128-8.2-.187-9.783.01-19.572-.09-29.357-.068-6.7-.592-13.411-.459-20.107.046-2.289-.823-3.056-2.536-3.612-3.407-1.106-6.834-2.155-10.252-3.227" transform="translate(-172.223 -299.594)" fill="none" stroke="#000" stroke-linecap="round" stroke-linejoin="round" stroke-width="2"/><path d="M380.428,456.1a48.705,48.705,0,0,1-12.63-7.085c-2.6-2.154-4.4-4.8-4.326-8.6.191-9.716.105-19.438.05-29.157-.039-6.713.489-13.4.617-20.109.069-3.62-.076-7.259.256-10.854.4-4.29.615-8.593,1.069-12.883a148.076,148.076,0,0,1,4.919-24.32c.522-1.866.906-3.8,1.508-5.6a6.819,6.819,0,0,1,4.515-4.26" transform="translate(-265.769 -244.551)" fill="none" stroke="#000" stroke-linecap="round" stroke-linejoin="round" stroke-width="2"/><path d="M203.991,377.947c.217-3.29.554-6.579-.183-9.858a10.484,10.484,0,0,1-.022-1.805,133.913,133.913,0,0,0-1.558-15.089,163.478,163.478,0,0,0-5.223-21.927c-.9-2.98-.511-6.266-1.674-9.229-.845-2.155-1.066-4.565-2.6-6.44" transform="translate(-177.208 -234.366)" fill="none" stroke="#000" stroke-linecap="round" stroke-linejoin="round" stroke-width="2"/><path d="M391.351,381.213a24.424,24.424,0,0,1-.2-5.429q-.014-22.824-.023-45.647a8.983,8.983,0,0,0-.445-3.194c-.291-.746.4-.665.439-1.046,2.261,1.645,2.277,1.919,1.672,4.852a2.773,2.773,0,0,0,1.148,3.239,35.658,35.658,0,0,0,9.675,4.781c1.1.307,1.629-.266,1.608-1.392a14.265,14.265,0,0,0-1.987-6.65,21.167,21.167,0,0,0-12.9-10.443" transform="translate(-279.709 -237.833)" fill="none" stroke="#000" stroke-linecap="round" stroke-linejoin="round" stroke-width="2"/><path d="M267.683,280.841c.987-.917,2.366-.562,3.432-.663a55.659,55.659,0,0,1,6.221-.588c2.745.045,5.478-.586,8.243-.355.415.035.76-.342,1.007-.348.842-.022.8-.5.807-1.063.01-.8-.578-.619-1.009-.595-3.024.173-6.048.288-9.055.757-1.583.247-3.222.258-4.825.364a39.772,39.772,0,0,0-9.02,1.764c-.724.221-1.682-.046-2.236.727" transform="translate(-212.747 -215.483)" fill="none" stroke="#000" stroke-linecap="round" stroke-linejoin="round" stroke-width="2"/><path d="M370.581,200.707a24.2,24.2,0,0,1-.192-5.228c-.1-5.362-1.893-9.725-6.834-12.49-4.423-2.474-6.558-6.481-7.051-11.439" transform="translate(-262.156 -160.686)" fill="none" stroke="#000" stroke-linecap="round" stroke-linejoin="round" stroke-width="2"/><path d="M196.072,200.707a22.688,22.688,0,0,0,.188-5.228c.027-5.41,1.939-9.713,6.84-12.486,4.412-2.5,6.555-6.485,7.049-11.444" transform="translate(-178.941 -160.686)" fill="none" stroke="#000" stroke-linecap="round" stroke-linejoin="round" stroke-width="2"/><path d="M399.664,394.82c.456-4.284.084-8.58.2-12.87.025-.938,0-1.877,0-2.815.018-8.716-.7-17.421-.4-26.141a5.279,5.279,0,0,1,.2-2.212" transform="translate(-284.402 -253.652)" fill="none" stroke="#000" stroke-linecap="round" stroke-linejoin="round" stroke-width="2"/><path d="M181.615,395.037c-.456-4.284-.084-8.58-.2-12.87-.025-.938,0-1.877,0-2.815-.015-8.716.687-17.422.391-26.141-.023-.669.236-1.377-.19-2.011" transform="translate(-171.321 -253.869)" fill="none" stroke="#000" stroke-linecap="round" stroke-linejoin="round" stroke-width="2"/><path d="M197.412,599.7a75.6,75.6,0,0,0,8.165-12.71c1.388-2.672,1.122-5.812.686-8.807-.137-.938-.239-1.88-.378-2.989a88.678,88.678,0,0,1-10.1,6.582,1.816,1.816,0,0,0-.986,2.037c.248,2.214.507,4.443.882,6.622.414,2.413.694,4.847,1.056,7.263a10.559,10.559,0,0,1,.471,2.805" transform="translate(-178.27 -370.053)" fill="none" stroke="#000" stroke-linecap="round" stroke-linejoin="round" stroke-width="2"/><path d="M371.95,599.4c.888-1.217.422-2.7.708-4.042.748-3.5.977-7.111,1.665-10.645a2.48,2.48,0,0,0-1.33-3.078,54.814,54.814,0,0,1-9.462-6.24c-1.295,3.54-1.368,10.031.968,13.556,2.455,3.7,4.49,7.689,7.437,11.064.1.114.013.391.013.593" transform="translate(-265.335 -370.158)" fill="none" stroke="#000" stroke-linecap="round" stroke-linejoin="round" stroke-width="2"/><path d="M309.468,287.983c-2.414-.03-4.822.027-7.244-.107a26.588,26.588,0,0,0-6.425.932,30.9,30.9,0,0,1-4.829.417,112.21,112.21,0,0,0-12.069.75,17.965,17.965,0,0,1-2.612.018" transform="translate(-220.548 -221.016)" fill="none" stroke="#000" stroke-linecap="round" stroke-linejoin="round" stroke-width="2"/><path d="M361.485,628.976c-.185-.7.522-.8.824-.971,2.277-1.32,2.972-3.609,3.554-5.877.383-1.488-.254-3.007-.782-4.4a68.993,68.993,0,0,0-9.831-17.1" transform="translate(-261.506 -383.242)" fill="none" stroke="#000" stroke-linecap="round" stroke-linejoin="round" stroke-width="2"/><path d="M214.956,601.041c-3.965,5.52-7.8,11.13-9.825,17.7-1.32,4.284-.352,6.854,3.184,9.651.258.2.809.228.609.8" transform="translate(-183.347 -383.459)" fill="none" stroke="#000" stroke-linecap="round" stroke-linejoin="round" stroke-width="2"/><path d="M365.2,169.92c-.624,1.669-1.677,1.355-2.815.6-3.8-2.515-7.446-5.261-11.461-7.443-.95-.516-1.877-1.072-2.818-1.6-.475-.269-1.169-.422-.6-1.208" transform="translate(-257.376 -154.835)" fill="none" stroke="#000" stroke-linecap="round" stroke-linejoin="round" stroke-width="2"/><path d="M197.325,170.121c.745,1.491,1.764,1.067,2.815.4,2.987-1.887,5.72-4.15,8.839-5.848,1.794-.978,3.483-2.149,5.245-3.187.5-.3,1.391-.242.8-1.22" transform="translate(-179.591 -154.835)" fill="none" stroke="#000" stroke-linecap="round" stroke-linejoin="round" stroke-width="2"/><path d="M210.277,294.811a126.862,126.862,0,0,1,15.289-4.394c.462-.1.538-.421.8-.633" transform="translate(-186.309 -222.013)" fill="none" stroke="#000" stroke-linecap="round" stroke-linejoin="round" stroke-width="2"/><path d="M396.588,551.21c-1.529-.371-1.5-1.741-1.563-2.818-.114-2.081-.284-4.161-.367-6.234-.064-1.592-.2-3.494,1.527-4.622" transform="translate(-281.929 -350.52)" fill="none" stroke="#000" stroke-linecap="round" stroke-linejoin="round" stroke-width="2"/><path d="M198.774,449.828c-4.625-1.005-9.245-2.037-13.88-2.992a13.18,13.18,0,0,0-2.609-.025" transform="translate(-171.79 -303.431)" fill="none" stroke="#000" stroke-linecap="round" stroke-linejoin="round" stroke-width="2"/><path d="M381.768,446.858c-3.79-.171-7.368,1.111-11.055,1.644a51.191,51.191,0,0,0-5.435,1.372" transform="translate(-266.707 -303.478)" fill="none" stroke="#000" stroke-linecap="round" stroke-linejoin="round" stroke-width="2"/><path d="M203.108,456.8c-3.419-.536-6.834-1.092-10.258-1.593a15.375,15.375,0,0,0-2.21-.015" transform="translate(-176.124 -307.79)" fill="none" stroke="#000" stroke-linecap="round" stroke-linejoin="round" stroke-width="2"/><path d="M377.746,439.355l-12.467,4.022" transform="translate(-266.707 -299.594)" fill="none" stroke="#000" stroke-linecap="round" stroke-linejoin="round" stroke-width="2"/><path d="M377.746,455.231a70.478,70.478,0,0,0-11.064,1.593,5.663,5.663,0,0,1-1.4.016" transform="translate(-266.707 -307.829)" fill="none" stroke="#000" stroke-linecap="round" stroke-linejoin="round" stroke-width="2"/><path d="M175.2,320.283c-6.708,2.385-11.656,6.623-14.055,13.481a9.316,9.316,0,0,0-.643,3.815c.086,1.119.729,1.445,1.622,1.185a33.317,33.317,0,0,0,9.885-4.971,2.307,2.307,0,0,0,.917-2.829,4.112,4.112,0,0,1,1.007-4.79,7.7,7.7,0,0,1,5.49,3.763" transform="translate(-160.48 -237.833)" fill="none" stroke="#000" stroke-linecap="round" stroke-linejoin="round" stroke-width="2"/><path d="M385.322,310.256c-.872,2.48-1.842,4.931-2.584,7.45-.615,2.089-1.563,4.144-1.237,6.425" transform="translate(-275.087 -232.632)" fill="none" stroke="#000" stroke-linecap="round" stroke-linejoin="round" stroke-width="2"/><path d="M165.822,345.543c-.618-2.777.717-5.09,1.833-7.429a20.858,20.858,0,0,1,1.761-2.608c-.487-.573-.831-1.085-1.584-1.023" transform="translate(-163.169 -245.195)" fill="none" stroke="#000" stroke-linecap="round" stroke-linejoin="round" stroke-width="2"/><path d="M412.146,345.548c.586-2.769-.773-5.072-1.83-7.431a9.838,9.838,0,0,0-1.185-1.619c-.8-1.093-.358-1.7.8-2.01" transform="translate(-289.242 -245.201)" fill="none" stroke="#000" stroke-linecap="round" stroke-linejoin="round" stroke-width="2"/><path d="M345.931,282.838a4.9,4.9,0,0,0-5.088-.566,33.018,33.018,0,0,1-5.557,1.043c-1.156.2-2.782-.324-3.431,1.334" transform="translate(-249.37 -217.883)" fill="none" stroke="#000" stroke-linecap="round" stroke-linejoin="round" stroke-width="2"/><path d="M333.786,292.662a91.255,91.255,0,0,1-9.451-1.206" transform="translate(-245.47 -222.881)" fill="none" stroke="#000" stroke-linecap="round" stroke-linejoin="round" stroke-width="2"/><path d="M377.654,573.466a29.353,29.353,0,0,1-7.829-4.441,2.11,2.11,0,0,0-1.622-.587" transform="translate(-268.224 -366.542)" fill="none" stroke="#000" stroke-linecap="round" stroke-linejoin="round" stroke-width="2"/><path d="M203.233,568.44a1.821,1.821,0,0,0-1.416.593,32.952,32.952,0,0,1-7.834,4.434" transform="translate(-177.857 -366.543)" fill="none" stroke="#000" stroke-linecap="round" stroke-linejoin="round" stroke-width="2"/><path d="M183.522,537.536c2.133,1.421,1.535,3.8,1.453,5.624a38.768,38.768,0,0,1-.274,5.029c-.2,1.133.2,2.681-1.581,3.021" transform="translate(-172.223 -350.52)" fill="none" stroke="#000" stroke-linecap="round" stroke-linejoin="round" stroke-width="2"/><path d="M189.387,320.914c1.024-1.306,1.264-3.1,1.041-5.834-.086-1.055-.411-2.25.381-3.2.5-.6-.205-1.084-.014-1.621" transform="translate(-175.474 -232.632)" fill="none" stroke="#000" stroke-linecap="round" stroke-linejoin="round" stroke-width="2"/><path d="M195.853,658.433c-2.254,1.041-4.044.224-5.63-1.408" transform="translate(-175.907 -412.498)" fill="none" stroke="#000" stroke-linecap="round" stroke-linejoin="round" stroke-width="2"/><path d="M390.3,322.447c-1.093-1.759-.488-3.762-.741-5.639-.144-1.068.57-2.249-.466-3.209" transform="translate(-279.059 -234.366)" fill="none" stroke="#000" stroke-linecap="round" stroke-linejoin="round" stroke-width="2"/><path d="M385.331,657.443c-1.566,1.5-3.307,2.213-5.43,1.207" transform="translate(-274.291 -412.714)" fill="none" stroke="#000" stroke-linecap="round" stroke-linejoin="round" stroke-width="2"/></g><g transform="translate(59.626 161.22)"><path d="M703.191,482.2c-2.225-2.3-5.256-3.349-7.983-4.731C683.626,471.6,672.371,465.085,660.381,460a97.5,97.5,0,0,0-15.935-5.6,23.371,23.371,0,0,0-7.928-.458c-3.33.384-6.708-.539-10.091-.706-2.962-.147-5.971-.4-8.913-.508-10.9-.388-21.816-.43-32.724-.317-8.666.09-17.333.5-25.989.952-5.545.292-11.084.823-16.6,1.448-3.29.372-6.559.93-9.869,1.185-1.948.151-3.368,1.6-5.04,2.417-5.268,2.59-9.779,6.308-14.191,10.1a129.515,129.515,0,0,0-12.247,11.329c-1.7,1.891-3.416.488-4.838.273-2.233-.338-3.848-.455-5.622,1.3-1.854,1.839-3.6,3.776-5.483,5.625a2.4,2.4,0,0,1,.246.456c.4,1.356.083,3.308,1.715,3.756a10.9,10.9,0,0,0,5.015.033c3.333-.723,6.493-1.613,9.915-.015,2.221,1.038,4.78,1.353,7.186,1.992-.294,2.453-1.317,4.736-1.495,7.225a3.8,3.8,0,0,1-2.058,3.231c-2.46,1.475-5.047,2.817-7.764,2.9a10.142,10.142,0,0,1-9.141-4.447" transform="translate(-480.431 -318.578)" fill="none" stroke="#000" stroke-linecap="round" stroke-linejoin="round" stroke-width="2"/><path d="M741.916,179.927c-.658-1.4-2.3-1-3.136-1.043-2.719-.125-5.37-1.078-8.195-.5-1.492.306-3.182-.46-4.795-.611-4.975-.465-9.931-1.1-14.914-1.513-9.456-.792-18.925-1.081-28.4-1.5-7.95-.351-15.891-.416-23.829-.3-5.214.077-10.435-.035-15.642.2-5.7.259-11.4.66-17.079,1.252-1.34.14-2.569-.156-3.86-.12-6.377.177-12.258,2.241-18.041,4.628a350.744,350.744,0,0,0-32.742,16.1c-3.408,1.841-7.149,3.18-10.276,5.4-3.824,2.713-7.881,3.056-12.326,3.425-6.363.528-12.714,1.532-19.041,2.642a173.163,173.163,0,0,0-26.693,6.846,81.864,81.864,0,0,0-16.123,7.216c-2.621,1.6-5.287,3.12-6.532,6.239-.864,2.165-.2,4.35-.446,6.51-.095.833.241,1.67-.931,2.24-.8.388-1.005,1.561-1,2.573q.014,8.664-.005,17.327a2.061,2.061,0,0,0,.491,1.444" transform="translate(-476.801 -174.411)" fill="none" stroke="#000" stroke-linecap="round" stroke-linejoin="round" stroke-width="2"/><path d="M477.4,248.386c.886-.084,1.484.023,1.467,1.2-.059,4.171-.05,8.343,0,12.514a1.467,1.467,0,0,1-.76,1.422c-1.031.561-2.358,1.048-2.092,2.417a5.612,5.612,0,0,0,2.78,3.695,15.088,15.088,0,0,0,7.272,2.242c5.318.32,10.555,1.308,15.868,1.677a21.221,21.221,0,0,1,5.339.715,3.638,3.638,0,0,0,4.395-1.507A11.41,11.41,0,0,0,514,265.473c-.065-3.943-.57-8.026.768-11.769,3.6-10.078,10-17.379,21.115-19.252,8.717-1.469,16.891-.548,23.845,5.726,4.66,4.2,7.218,9.477,8.633,15.43a51.847,51.847,0,0,1,1.456,15.641c-.033.482,0,.968,0,1.72,5.245-.283,10.5,1.112,14.734-3.11.483-.481,1.711-.284,2.593-.285q45.965-.018,91.93-.015a4.131,4.131,0,0,1,3.436,1.388,7.927,7.927,0,0,0,6.919,2.533c3.023-.288,6.095-.065,9.537-.065-1.365-4.127-1.276-8.1-1.086-12.031.44-9.094,3.573-16.926,11.285-22.371a26.53,26.53,0,0,1,11.05-4.167,41.76,41.76,0,0,1,9.154-.376c12.059.551,21.543,6.807,24.843,19.92.951,3.775.893,7.528.909,11.314.482.81,1.278.517,1.924.471,3.794-.275,7.689-.341,11.282-1.515a20.536,20.536,0,0,0,10.387-8.084c.444-.634.207-1.3.214-1.932.037-3.449.017-6.9.017-10.339-3.587-.594-7.234.032-10.836-.7-7.172-1.457-12.134-3.208-14.634-11.114-1.118-3.535-1.816-7.2-2.672-10.82a7.093,7.093,0,0,1-.015-1.524,21.357,21.357,0,0,0,6.725-1.631c3.417-1.469,6.732-1.137,10.129,0,1.539.517,3.214.086,4.809.136,1.576.05,2.885-3.571,1.39-5.363-1.625-1.948-3.712-3.5-5.461-5.359-1.271-1.348-2.67-1.072-4.111-.686-2.658.713-4.857.6-7.037-1.645a152.383,152.383,0,0,0-20.194-17.334,61.077,61.077,0,0,0-7.187-3.9" transform="translate(-475.803 -179.578)" fill="none" stroke="#000" stroke-linecap="round" stroke-linejoin="round" stroke-width="2"/><path d="M772.994,633.372H645.928" transform="translate(-563.951 -412.469)" fill="none" stroke="#000" stroke-linecap="round" stroke-linejoin="round" stroke-width="2"/><path d="M482.928,299.722c8.548-.292,15.989-3.6,22.859-8.427,4.443-3.123,8.655-6.649,13.514-9.072,5.245-2.616,10.4-5.787,16.339-6.5,8.82-1.06,17.706-1.365,26.21,1.894,8.247,3.16,12.948,9.387,14.431,18.019a77.791,77.791,0,0,1,1.465,15.639,2.052,2.052,0,0,0,2.406,2.408c.4-.012.8,0,1.2,0q54.869,0,109.739-.006a5.861,5.861,0,0,0,2.647-.234" transform="translate(-479.405 -226.581)" fill="none" stroke="#000" stroke-linecap="round" stroke-linejoin="round" stroke-width="2"/><path d="M777.544,574.884c-1.12-.17-1.713.371-1.67,1.443a78.248,78.248,0,0,1,.011,12.036c-.1.895.64,1.238,1.374,1.746,2.035,1.41,1.881,2.614.316,4.534-2.288,2.808-5.563,3.309-8.705,3.753-5.257.745-10.582,1-15.872,1.53-2.415.24-4.811.66-7.223.93a2.19,2.19,0,0,1-2-.867,10.29,10.29,0,0,1-2.85-8.262c.2-4.381.186-8.818-1.427-12.984-3.638-9.4-10.065-15.761-20.193-17.8-8.566-1.728-16.564-.5-23.573,5.051-4.922,3.894-7.524,9.27-9.123,15.158a51.711,51.711,0,0,0-1.581,12.5c-.04,1.833.437,3.714-.079,5.817-5.036-.408-10.341,1.314-14.564-3.1-.539-.563-2.017-.3-3.06-.3q-45.965-.019-91.93-.071a4.83,4.83,0,0,0-3.567,1.791,7.761,7.761,0,0,1-6.3,2.16c-3.041-.164-6.1-.039-8.983-.039-1.318-1.984-.011-3.739.258-5.263a32.293,32.293,0,0,0-1.731-16.6c-3.429-9.661-10.356-15.41-20.821-16.691-6.167-.755-12.148-.647-18.062,1.47-8.336,2.984-13.118,9.03-15.4,17.347a41.179,41.179,0,0,0-1.424,12.539c-9.009-.323-17.458-1.121-22.886-9.407-.122-.186-.451-.319-.457-.485-.15-4.1-1.113-8.278.542-12.24a4.792,4.792,0,0,0,.616-2.676c-.924-5.034.9-8.252,5.576-9.635.665-.654-.386-2.005.948-2.4" transform="translate(-475.608 -372.271)" fill="none" stroke="#000" stroke-linecap="round" stroke-linejoin="round" stroke-width="2"/><path d="M839.726,539.9c.7-.694.473-1.582.475-2.407.013-5.054,0-10.108.008-15.161,0-1.6-.069-3.167-1.687-4.088-.9-.514-.83-1.394-.7-2.165,1.1-6.53-2.055-10.152-7.659-13.116a132.456,132.456,0,0,0-27.741-10.456A167.588,167.588,0,0,0,782.7,488.6c-6.079-.878-12.147-1.613-18.288-2.008-3.52-.227-7.068-.536-10.6-.794a47.555,47.555,0,0,0-8.651.048,4.7,4.7,0,0,1-3.633-1.035c-10.9-7.867-22.273-14.881-34.871-19.78a68.792,68.792,0,0,0-20.461-4.863,223.778,223.778,0,0,0-24.8-.735c-2.529.11-5.131-.044-7.7-.149-8.673-.355-17.321.526-25.991.538-4.733.006-9.476.485-14.194.953-2.08.206-3.487,1.716-4.851,3.294-3.122,3.61-5.146,7.874-7.1,12.1A79.1,79.1,0,0,0,596.1,490.3a18.219,18.219,0,0,0,1.285,12.777c.186.388.324.8.485,1.2" transform="translate(-537.791 -322.126)" fill="none" stroke="#000" stroke-linecap="round" stroke-linejoin="round" stroke-width="2"/><path d="M806.13,226.527c1.244-3.1,2.628-6.087,2.484-9.629a25.738,25.738,0,0,0-1.787-8.651,123.34,123.34,0,0,0-8.392-17.822,32.31,32.31,0,0,0-4.559-6.032,4.761,4.761,0,0,0-3.387-1.582c-2.53.09-4.966-.5-7.462-.591-12.591-.463-25.175-1.128-37.784-.948-5.133.073-10.282-.236-15.4.064-10.171.6-20.361.938-30.107,4.7-13.146,5.082-25.106,12.2-36.532,20.307a7.3,7.3,0,0,1-4.842,1.513c-4.079-.1-8.21-.763-12.281.34a6.3,6.3,0,0,1-2.156-.2" transform="translate(-562.914 -177.934)" fill="none" stroke="#000" stroke-linecap="round" stroke-linejoin="round" stroke-width="2"/><path d="M672.538,489.093c-.481-4.973-.777-9.975-1.512-14.91-.456-3.065-1.061-6.14-1.7-9.188-.44-2.107-1.283-2.166-2.807-2.138-5.053.094-10.112.331-15.16.2-5.4-.139-10.748.445-16.124.571a81.549,81.549,0,0,0-10.1.965c-2.16.323-3.408,2-4.63,3.768-1.456,2.1-2.022,4.533-3.078,6.773" transform="translate(-549.169 -324.023)" fill="none" stroke="#000" stroke-linecap="round" stroke-linejoin="round" stroke-width="2"/><path d="M909.37,208.218a36.273,36.273,0,0,0-3.763-10.5c-1.578-2.714-2.291-5.84-4.372-8.311a7.388,7.388,0,0,0-5.82-2.923c-5.225-.234-10.431-.9-15.647-1.36-.8-.071-1.6,0-2.406-.011-6.417-.078-12.835-.182-19.252-.232-4.817-.038-4.976-.033-5.727,4.573a99.023,99.023,0,0,0-1.53,11.782c-.139,3.3-.6,6.58-.926,9.868" transform="translate(-669.764 -179.839)" fill="none" stroke="#000" stroke-linecap="round" stroke-linejoin="round" stroke-width="2"/><path d="M965.386,592.245c-.14-7.214-.517-14.426-2.445-21.408-2.625-9.509-9.044-14.8-18.718-16.694a65.09,65.09,0,0,0-16.855-.786c-8.987.59-17.056,3.532-22.12,11.71-2.03,3.278-2.808,7.026-3.413,10.81-.765,4.789-.92,9.632-1.444,14.44-.028.255-.3.483-.464.724" transform="translate(-695.698 -370.861)" fill="none" stroke="#000" stroke-linecap="round" stroke-linejoin="round" stroke-width="2"/><path d="M579.111,464.871a45.931,45.931,0,0,0-10.591,1.434c-5.7,1.307-10.347,4.472-14.667,8.2-2.147,1.854-4.182,3.838-6.268,5.764-1.306,1.206-.855,2.017.464,2.913,2.28,1.55,4.924,2.052,7.491,2.551,3.152.614,6.405.7,9.612,1.038a2.108,2.108,0,0,0,2.413-1.206c3.4-7.073,7.486-13.758,11.546-20.459" transform="translate(-512.536 -325.069)" fill="none" stroke="#000" stroke-linecap="round" stroke-linejoin="round" stroke-width="2"/><path d="M966.391,186.853a195.193,195.193,0,0,1,11.265,19.756c1.083,2.246,2.885,2.154,4.608,1.843,3.2-.579,6.479-.508,9.643-1.362,2.611-.7,5.21-1.34,7.107-3.568-1.18-2.755-3.772-3.986-5.708-5.8-4.651-4.348-9.753-8.081-16.087-9.656a81.284,81.284,0,0,0-11.789-1.7" transform="translate(-729.673 -180.615)" fill="none" stroke="#000" stroke-linecap="round" stroke-linejoin="round" stroke-width="2"/><path d="M682.428,346.888l1.774-2.054c1.031.048,1.915.124,2.8.124q34.654.009,69.309,0c11.391,0,22.782-.024,34.173.025a6.037,6.037,0,0,0,4.629-1.65,9.289,9.289,0,0,1,4.035-2.466" transform="translate(-582.883 -260.753)" fill="none" stroke="#000" stroke-linecap="round" stroke-linejoin="round" stroke-width="2"/><path d="M656.928,618.872a30.387,30.387,0,0,1,4.055,2.688,6.214,6.214,0,0,0,4.609,1.42q51.621-.033,103.241-.046c1.894,0,3.5.246,4.572,1.955" transform="translate(-569.657 -404.948)" fill="none" stroke="#000" stroke-linecap="round" stroke-linejoin="round" stroke-width="2"/><path d="M556.846,238.872c-1.427,2-3.748,2.561-5.77,3.621-6.2,3.25-12.9,4.707-19.737,5.779-8.4,1.317-16.864,2.291-25.028,4.808a84.376,84.376,0,0,0-13.733,5.5,20.89,20.89,0,0,1-8.651,2.432" transform="translate(-479.923 -207.846)" fill="none" stroke="#000" stroke-linecap="round" stroke-linejoin="round" stroke-width="2"/><path d="M946.428,516.872c.348,1.706,2.021,1.733,3.145,2.379,6.929,3.983,14.511,5.9,22.362,7.025,13.5,1.941,26.97,3.975,39.25,10.533a17.683,17.683,0,0,0,7.921,2.2" transform="translate(-719.818 -352.042)" fill="none" stroke="#000" stroke-linecap="round" stroke-linejoin="round" stroke-width="2"/><path d="M803.036,481.767c-1.15-2.9-3.775-4.184-6.269-5.513-8.043-4.289-16.03-8.693-25.007-10.891a110.7,110.7,0,0,0-11.793-1.955c-5.138-.687-10.292-.041-15.416-.614a5.077,5.077,0,0,0-3.124.2" transform="translate(-613.486 -323.916)" fill="none" stroke="#000" stroke-linecap="round" stroke-linejoin="round" stroke-width="2"/><path d="M773.776,185.245c-1.017-.9-2.29-.513-3.361-.4a23.754,23.754,0,0,1-3.376.143,80.145,80.145,0,0,0-43.33,10.346c-3.362,1.9-6.979,3.331-9.882,6.007-.793.732-1.658,1.313-1.9,2.436" transform="translate(-598.185 -179.729)" fill="none" stroke="#000" stroke-linecap="round" stroke-linejoin="round" stroke-width="2"/><path d="M717.667,179.372a95.518,95.518,0,0,0-17.113,5.23,303.079,303.079,0,0,0-40.636,21.014c-.224.137-.329.468-.49.709" transform="translate(-570.954 -176.984)" fill="none" stroke="#000" stroke-linecap="round" stroke-linejoin="round" stroke-width="2"/><path d="M924.428,313.26c1.016-2.659.453-5.462.759-8.178.792-7.02,2.3-13.808,6.928-19.508,4.269-5.255,9.908-7.854,16.356-9.463,5.474-1.366,10.952-1.011,16.382-.783,13.86.58,24.564,9.865,27.139,23.263a41.38,41.38,0,0,1,1.021,11.059" transform="translate(-708.406 -226.643)" fill="none" stroke="#000" stroke-linecap="round" stroke-linejoin="round" stroke-width="2"/><path d="M801.428,457.372c2.973,1.09,6.138,1.33,9.176,2.311,10.055,3.246,19.437,7.979,28.809,12.687a213.864,213.864,0,0,1,20.007,11.484c.13.084.167.311.247.472" transform="translate(-644.607 -321.18)" fill="none" stroke="#000" stroke-linecap="round" stroke-linejoin="round" stroke-width="2"/><path d="M582.515,591.166c-.514-1.583-.152-3.209-.234-4.813-.39-7.6-1.609-14.969-6.033-21.411-4.085-5.949-9.948-9.118-16.824-10.882-5.677-1.456-11.446-1.248-17.088-.793-10.714.865-19.6,5.407-24.491,15.55a37.354,37.354,0,0,0-3.459,15.37c-.025.961.508,2.06-.457,2.888" transform="translate(-495.484 -370.744)" fill="none" stroke="#000" stroke-linecap="round" stroke-linejoin="round" stroke-width="2"/><path d="M1034.928,558.167c.8,2.006,1.547,4.037,2.437,6a2.417,2.417,0,0,0,1.878,1.289,58.031,58.031,0,0,0,15.178,1.373,10.044,10.044,0,0,0,5.133-1.282c-.867-1.774-1.159-3.568-2.452-5.006-2.747-3.054-5.839-4.732-10.147-4.375-4.062.337-8.216-.234-12.027,1.758" transform="translate(-765.722 -372.4)" fill="none" stroke="#000" stroke-linecap="round" stroke-linejoin="round" stroke-width="2"/><path d="M601.928,511.872c3.28.448,6.58.1,9.867.245,7.621.329,15.235.756,22.859,1.039,5.372.2,10.771.508,16.113,1.028,3.37.328,6.762.007,10.143.714,2.627.549,5.427.138,8.171.507,3.567.478,7.219.286,10.817.583,6.746.557,13.478,1.272,20.218,1.893,1.923.178,3.877.287,5.78.373,6.52.3,12.986,1.133,19.484,1.607,4.5.328,9.009.67,13.49,1.33a17.988,17.988,0,0,0,5.281-.436c3.061-.486,6.1-1.1,9.148-1.663" transform="translate(-541.129 -349.448)" fill="none" stroke="#000" stroke-linecap="round" stroke-linejoin="round" stroke-width="2"/><path d="M902.078,208.12c-3.208.08-6.419.121-9.626.249-7.7.306-15.4.743-23.1,1.035-5.694.216-11.4.585-17.084.967q-10.349.7-20.7,1.355c-.482.03-.968,0-1.728,0,.522-3.549.868-6.856,1.519-10.1,1-5,2.266-9.942,3.311-14.932.385-1.838,1.359-2.85,3.139-2.343,1.625.463,3.309-.575,4.829.423" transform="translate(-659.344 -179.5)" fill="none" stroke="#000" stroke-linecap="round" stroke-linejoin="round" stroke-width="2"/><path d="M744.622,241.372c-.241.161-.495.478-.719.458-3.556-.312-7.062.385-10.588.572-6.343.338-12.662,1.073-19.011,1.446-3.447.2-6.908.584-10.344.966-6.174.687-12.385.909-18.548,1.782a35.677,35.677,0,0,1-14.195-.631c-1.729-.456-3.524-.664-5.289-.985" transform="translate(-574.325 -209.143)" fill="none" stroke="#000" stroke-linecap="round" stroke-linejoin="round" stroke-width="2"/><path d="M731.928,460.372a149.632,149.632,0,0,1,3.744,19.509c.517,3.477.795,7.049,1.186,10.56.477,4.276.245,8.516.341,12.768.1,4.382-.708,8.682-1.316,13.01a42.047,42.047,0,0,0-.589,6c.026,6.02-.14,12.045.485,18.049" transform="translate(-608.559 -322.736)" fill="none" stroke="#000" stroke-linecap="round" stroke-linejoin="round" stroke-width="2"/><path d="M843.668,182.372c-.043,3.144-1.25,6.072-1.7,9.143-.513,3.537-1.141,7.056-1.667,10.591a118.71,118.71,0,0,0-1.518,17.567c0,4.111.143,8.181.453,12.281.263,3.463.9,6.87,1.171,10.332a59.437,59.437,0,0,1,.253,11.066c-.33,2.978-.032,5.976-.605,8.917" transform="translate(-663.986 -178.54)" fill="none" stroke="#000" stroke-linecap="round" stroke-linejoin="round" stroke-width="2"/><path d="M670.327,237.372c-.583,1.46-2.039,2.1-3.173,2.818-4.4,2.781-3.434,4.986-3.064,9.214.577,6.6,4.172,12.038,6.893,17.841a40.738,40.738,0,0,1,3.524,15.126c.161,2.807.362,5.613.392,8.428" transform="translate(-573.189 -207.068)" fill="none" stroke="#000" stroke-linecap="round" stroke-linejoin="round" stroke-width="2"/><path d="M899.241,515.372c1.081,1.692,2.861,2.618,4.37,3.8a4.869,4.869,0,0,1,2.147,4.381,37.315,37.315,0,0,1-5.072,17.327,44.837,44.837,0,0,0-5.667,17.793c-.382,3.469.176,6.95-.591,10.363" transform="translate(-692.846 -351.264)" fill="none" stroke="#000" stroke-linecap="round" stroke-linejoin="round" stroke-width="2"/><path d="M1016.928,565.372c2.37.073,3.96,1.766,5.751,2.926,5.284,3.422,10.314,7.252,15.709,10.48,4.595,2.748,9.532,4.956,15.119,4.886.969-.012,1.855,1,2.888.238" transform="translate(-756.385 -377.198)" fill="none" stroke="#000" stroke-linecap="round" stroke-linejoin="round" stroke-width="2"/><path d="M690.374,228.7c4.05-3.868,12.22-4.579,16.589-1.455a.8.8,0,0,1-.471.964,11.852,11.852,0,0,0-5.246,6.524,2.287,2.287,0,0,1-2.21,1.622c-3.907.106-7.841.2-11.549-1.4-2.04-.881-2.347-1.678-.929-3.338,1.2-1.41,2.5-2.581,4.78-2.544,2.461.04,4.835-1.37,7.48-.432,1.466.519,2.963.762,3.829,2.225" transform="translate(-584.573 -200.798)" fill="none" stroke="#000" stroke-linecap="round" stroke-linejoin="round" stroke-width="2"/><path d="M615.169,528.259c1.566,5.294,1.566,5.294,6.979,5.294,2.086,0,4.172.029,6.257-.008,2.18-.039,2.79-.881,2.166-2.88-.968-3.1-1.064-3.059-4.328-3.4-2.809-.3-5.594-.8-8.425-.954-1.427-.08-2.439.269-2.889,1.709" transform="translate(-547.872 -356.932)" fill="none" stroke="#000" stroke-linecap="round" stroke-linejoin="round" stroke-width="2"/><path d="M478.428,351.372c1.288,2.818,3.772,3.357,6.5,3.363,7.38.017,14.761.064,22.14-.026,2.565-.031,5.107-.732,7.7-.45" transform="translate(-477.071 -266.199)" fill="none" stroke="#000" stroke-linecap="round" stroke-linejoin="round" stroke-width="2"/><path d="M1064.026,629.872c-1.541,2.561-3.98,3.147-6.738,3.137-6.738-.025-13.477-.04-20.215.006-3.063.021-6.067-.9-9.145-.5" transform="translate(-762.091 -410.654)" fill="none" stroke="#000" stroke-linecap="round" stroke-linejoin="round" stroke-width="2"/><path d="M554.334,288.872c-1.877,2.948-4.429,5.475-5.536,8.9a55.186,55.186,0,0,0-1.981,9.619,89.527,89.527,0,0,0-.906,13.966" transform="translate(-512.065 -233.781)" fill="none" stroke="#000" stroke-linecap="round" stroke-linejoin="round" stroke-width="2"/><path d="M741.832,489.663a191.837,191.837,0,0,0-4.563-24.308c-.629-2.587-1.413-3.107-4.341-2.645" transform="translate(-609.077 -323.87)" fill="none" stroke="#000" stroke-linecap="round" stroke-linejoin="round" stroke-width="2"/><path d="M502.975,558.872a12.325,12.325,0,0,1-7.742,10.736,30.677,30.677,0,0,1-16.8,2.26" transform="translate(-477.071 -373.827)" fill="none" stroke="#000" stroke-linecap="round" stroke-linejoin="round" stroke-width="2"/><path d="M1023.928,189.372a131.842,131.842,0,0,1,24.788,19.974" transform="translate(-760.016 -182.171)" fill="none" stroke="#000" stroke-linecap="round" stroke-linejoin="round" stroke-width="2"/><path d="M530.975,467.372a126.631,126.631,0,0,0-24.547,19.974" transform="translate(-491.594 -326.367)" fill="none" stroke="#000" stroke-linecap="round" stroke-linejoin="round" stroke-width="2"/><path d="M855.307,509.055c2.425-2.47,5.193-3.533,8.677-2.448,1.28.4,2.733-.233,4.08.278a10.575,10.575,0,0,1,4.6,3.9c-.357,2.749-2.82,2.788-4.614,2.978a44.411,44.411,0,0,1-7.452.633c-1.847-.113-3.127-.525-3.892-2.434a14.957,14.957,0,0,0-5.687-6.541c3.222-2.6,6.636-2.552,10.319-1.727a28.611,28.611,0,0,1,4.577,1.463c.69.281,1.186.447,1.183,1.251" transform="translate(-670.33 -344.947)" fill="none" stroke="#000" stroke-linecap="round" stroke-linejoin="round" stroke-width="2"/><path d="M1069.755,278.372c-2.829,4.1-9.135,5.761-14.447,2.419-.907-.57-1.917-.975-2.88-1.456" transform="translate(-774.799 -228.334)" fill="none" stroke="#000" stroke-linecap="round" stroke-linejoin="round" stroke-width="2"/><path d="M644.928,638.872a94.8,94.8,0,0,0,14.922.013,2.112,2.112,0,0,1,.721.228" transform="translate(-563.433 -415.322)" fill="none" stroke="#000" stroke-linecap="round" stroke-linejoin="round" stroke-width="2"/><path d="M920.071,360.872a94.806,94.806,0,0,1-14.922.013,2.113,2.113,0,0,0-.721.228" transform="translate(-698.033 -271.126)" fill="none" stroke="#000" stroke-linecap="round" stroke-linejoin="round" stroke-width="2"/><path d="M1083.907,256.372c.077,2.583-.342,5.211.722,7.7.44,1.03.379,2.418,1.924,2.654.168.026.468.168.462.231-.308,2.886,2.73,2.577,3.9,4.072,1.877,2.4,3.711,4.776,1.858,7.939-.569.973.824,1.4.281,2.189" transform="translate(-791.117 -216.923)" fill="none" stroke="#000" stroke-linecap="round" stroke-linejoin="round" stroke-width="2"/><path d="M671.928,360.872c4.564.56,9.147.066,13.717.241" transform="translate(-577.437 -271.126)" fill="none" stroke="#000" stroke-linecap="round" stroke-linejoin="round" stroke-width="2"/><path d="M894.9,638.872c-4.483.583-8.986.053-13.477.241" transform="translate(-686.103 -415.322)" fill="none" stroke="#000" stroke-linecap="round" stroke-linejoin="round" stroke-width="2"/><path d="M963.2,209.372c-.576,2.19.171,4.375.411,6.478a14.732,14.732,0,0,1-.171,5.073" transform="translate(-728.406 -192.545)" fill="none" stroke="#000" stroke-linecap="round" stroke-linejoin="round" stroke-width="2"/><path d="M1086.14,329.546c-1.7,2.991-1.739,3.05-5.548,2.225a15.085,15.085,0,0,1-3.636-.941c-.7-.342-1.042-.941-1.755-1.325,2.643-2.1,5.708-2.283,8.765-2.028.714.059,2.083.477,2.174,1.828" transform="translate(-786.611 -253.759)" fill="none" stroke="#000" stroke-linecap="round" stroke-linejoin="round" stroke-width="2"/><path d="M1070.594,254.372c.321,1.2.733,2.391.945,3.613.53,3.055-.811,5.355-3.111,7.216" transform="translate(-783.098 -215.886)" fill="none" stroke="#000" stroke-linecap="round" stroke-linejoin="round" stroke-width="2"/><path d="M616.428,488.872a3.052,3.052,0,0,1,.678,3.116c-.7,2.566-.3,5.145-.437,7.713" transform="translate(-548.65 -337.519)" fill="none" stroke="#000" stroke-linecap="round" stroke-linejoin="round" stroke-width="2"/><path d="M507.761,532.372c-1.557,3.94-1.785,7.672,1.685,10.83" transform="translate(-491.723 -360.082)" fill="none" stroke="#000" stroke-linecap="round" stroke-linejoin="round" stroke-width="2"/><path d="M566.258,460.607c-3.733-.706-7.283.233-10.83,1.2" transform="translate(-517.01 -322.73)" fill="none" stroke="#000" stroke-linecap="round" stroke-linejoin="round" stroke-width="2"/><path d="M488.892,534.372a29.917,29.917,0,0,0,1.444,10.348" transform="translate(-482.481 -361.119)" fill="none" stroke="#000" stroke-linecap="round" stroke-linejoin="round" stroke-width="2"/><path d="M1090.891,256.372a27.791,27.791,0,0,1-.963,10.348" transform="translate(-794.25 -216.923)" fill="none" stroke="#000" stroke-linecap="round" stroke-linejoin="round" stroke-width="2"/><path d="M611.778,489.872a57.115,57.115,0,0,0-3.85,10.348" transform="translate(-544.241 -338.037)" fill="none" stroke="#000" stroke-linecap="round" stroke-linejoin="round" stroke-width="2"/><path d="M513.274,548.872c-2.6.015-4.749,1.331-6.977,2.41-3.385,1.64-6.683,1.792-9.869-.485" transform="translate(-486.407 -368.64)" fill="none" stroke="#000" stroke-linecap="round" stroke-linejoin="round" stroke-width="2"/><path d="M1067.015,272.779c-3.322,2.051-6.548,2.386-10.159.331-2.058-1.172-4.322-2.436-6.928-2.256" transform="translate(-773.502 -224.426)" fill="none" stroke="#000" stroke-linecap="round" stroke-linejoin="round" stroke-width="2"/><path d="M494.853,534.372a11.206,11.206,0,0,1-1.925,10.348" transform="translate(-484.592 -361.119)" fill="none" stroke="#000" stroke-linecap="round" stroke-linejoin="round" stroke-width="2"/><path d="M913.928,349.372a13.564,13.564,0,0,0,10.589,2.888" transform="translate(-702.96 -265.161)" fill="none" stroke="#000" stroke-linecap="round" stroke-linejoin="round" stroke-width="2"/><path d="M676.26,354.372c-1.374.786-2.88.389-4.332.481" transform="translate(-577.437 -267.755)" fill="none" stroke="#000" stroke-linecap="round" stroke-linejoin="round" stroke-width="2"/><path d="M663.519,627.372c-1.149,1.167-3.079,1.006-4.091,2.407" transform="translate(-570.954 -409.357)" fill="none" stroke="#000" stroke-linecap="round" stroke-linejoin="round" stroke-width="2"/><path d="M728.557,462.833c-1.037.156-2.122-.308-3.129.241" transform="translate(-605.187 -323.994)" fill="none" stroke="#000" stroke-linecap="round" stroke-linejoin="round" stroke-width="2"/><path d="M552.428,463.372l4.813,2.888" transform="translate(-515.454 -324.292)" fill="none" stroke="#000" stroke-linecap="round" stroke-linejoin="round" stroke-width="2"/><path d="M1024.241,185.872c-1.915.318-3.22,1.744-4.813,2.647" transform="translate(-757.682 -180.356)" fill="none" stroke="#000" stroke-linecap="round" stroke-linejoin="round" stroke-width="2"/><path d="M947.341,591.362c-3.429.792-6.691,1.884-9.4,4.315-3.682,3.306-5.974,7.252-5.992,12.29-.034,9.566,3.909,15.189,13.246,17.982A16.612,16.612,0,0,0,963.227,620c8.008-10.2,2.92-24.188-8.9-27.934a20.777,20.777,0,0,0-6.744-.706" transform="translate(-712.307 -390.674)" fill="none" stroke="#000" stroke-linecap="round" stroke-linejoin="round" stroke-width="2"/><path d="M1004.719,245.367c-3.127,1.69-2.315,4.875-2.509,7.471-.1,1.393,1.251,2.728,3.232,2.663,3.045-.1,6.1-.011,9.144-.042a2.557,2.557,0,0,0,1.461-.2c2.356-1.356,2.98-7.611.973-9.445-.658-.6-1.294-.433-1.953-.438-3.369-.028-6.738-.013-10.108-.013" transform="translate(-748.748 -211.213)" fill="none" stroke="#000" stroke-linecap="round" stroke-linejoin="round" stroke-width="2"/><path d="M562.425,591.372c-4.121,1.085-7.936,2.694-10.838,6.009a17.134,17.134,0,0,0-4.476,11.318c-.02,9.645,7.564,17.922,17.24,17.827,8.949-.088,14.61-4.4,17.379-12.756,3.246-9.793-3.929-19.887-12.8-21.944a28.817,28.817,0,0,0-6.263-.454" transform="translate(-512.696 -390.684)" fill="none" stroke="#000" stroke-linecap="round" stroke-linejoin="round" stroke-width="2"/><path d="M938.133,575.256c-1.572.876-3.393.817-5.081,1.357-9.847,3.152-15.279,10.175-17.483,19.833-2.152,9.433,3.785,21.037,12.165,26.064,5.943,3.566,12.268,3.382,18.569,2.878a17.311,17.311,0,0,0,8.885-3.967c5.517-4.375,9.292-9.722,10.478-17.031,2.115-13.032-6.581-25.631-19.844-28.6a22.9,22.9,0,0,0-7.448-.537" transform="translate(-703.581 -382.269)" fill="none" stroke="#000" stroke-linecap="round" stroke-linejoin="round" stroke-width="2"/><path d="M504.175,278.339c-3.586,1.816-6.9,3.849-7.979,8.173-.324,1.3-.176,1.738,1.235,1.971,6.5,1.074,12.879.259,19.27-.939,1.1-.206,1.1-1.042,1.367-1.54.958-1.759,1.647-3.664,2.568-5.819-5.158-2.729-10.781-1.6-16.22-1.847" transform="translate(-486.212 -228.301)" fill="none" stroke="#000" stroke-linecap="round" stroke-linejoin="round" stroke-width="2"/><path d="M485.774,605.367c-1.024.5-2.387.837-1.894,2.4.451,1.429,1.15,2.658,3.1,2.444,2.721-.3,5.345-.736,7.8-2.707-2.816-1.979-5.759-2.174-8.762-2.134" transform="translate(-479.845 -397.941)" fill="none" stroke="#000" stroke-linecap="round" stroke-linejoin="round" stroke-width="2"/><path d="M495.34,328.372c-1.925.481-3.877.877-5.769,1.465-2.612.811-4.1,5.981-2.413,8.162,1.052,1.362,2.69,1.127,4.1,1.4a13.592,13.592,0,0,0,3.361.028c1.364-.08,2.977.58,4.042-.289a10.875,10.875,0,0,0,3.39-5.722,8.146,8.146,0,0,0,.255-5.046h-6.723" transform="translate(-481.228 -254.269)" fill="none" stroke="#000" stroke-linecap="round" stroke-linejoin="round" stroke-width="2"/><path d="M1062.487,606.349c-1.572,1.222-.513,2.9-.649,4.339a5.871,5.871,0,0,0,.9,2.635c1.272,2.75,2.955,4.832,6.491,4.12,1.654-.333,3.336.122,5.073-.429,2.786-.884,3.772-2.4,3.4-5.137-.563-4.191-3.884-4.263-6.8-5.04-2.689-.717-5.446-.457-8.181-.488" transform="translate(-779.564 -398.441)" fill="none" stroke="#000" stroke-linecap="round" stroke-linejoin="round" stroke-width="2"/><path d="M944.364,248.358a35.472,35.472,0,0,1-6.982.93c-2.215.191-4.333,3.01-3.6,5.084a1.743,1.743,0,0,0,1.92,1.228q5.052-.089,10.107,0a1.77,1.77,0,0,0,1.924-1.226,28.087,28.087,0,0,0,1.4-3.859c.3-1.352-.309-2.243-1.885-2.164-.88.044-1.764.008-2.647.008" transform="translate(-713.181 -212.76)" fill="none" stroke="#000" stroke-linecap="round" stroke-linejoin="round" stroke-width="2"/><path d="M807,253.372a33.135,33.135,0,0,1-7.222.927c-2.874.171-4.62,1.551-4.772,4.37-.051.945.293,1.937,1.645,1.93,3.69-.02,7.38-.032,11.07.01a1.479,1.479,0,0,0,1.646-1.228,18.839,18.839,0,0,1,.594-1.9c1.158-3.78,1-4.114-2.721-4.114" transform="translate(-641.273 -215.367)" fill="none" stroke="#000" stroke-linecap="round" stroke-linejoin="round" stroke-width="2"/><path d="M554.246,575.32c-1.841.817-3.89.684-5.79,1.405-9.17,3.483-15.105,10.006-16.715,19.551-2.21,13.105,4.96,24.193,17.2,28.652,2.885,1.051,5.782.607,8.677.667,10.627.219,17.391-5.579,22.135-14.421a20.993,20.993,0,0,0,2.315-9.625,25.4,25.4,0,0,0-19.641-25.5,26.66,26.66,0,0,0-7.939-.733" transform="translate(-504.517 -382.334)" fill="none" stroke="#000" stroke-linecap="round" stroke-linejoin="round" stroke-width="2"/><path d="M592.222,313.365c-3.511.888-6.832,2.067-9.648,4.547a17.778,17.778,0,0,0-2.129,24.079c4.44,5.59,10.557,7.577,17.292,6.39,6.715-1.183,11.985-5.952,13.787-13.587,2.274-9.632-4.283-18.458-12.314-20.735a22.96,22.96,0,0,0-6.747-.695" transform="translate(-528.054 -246.481)" fill="none" stroke="#000" stroke-linecap="round" stroke-linejoin="round" stroke-width="2"/><path d="M583.952,297.244c-1.113,1-2.585.527-3.875.873-10.271,2.752-16.49,9.3-18.723,19.588a24.8,24.8,0,0,0,16.362,28.813,25.328,25.328,0,1,0,13.442-48.728,19.964,19.964,0,0,0-6.965-.545" transform="translate(-519.783 -238.062)" fill="none" stroke="#000" stroke-linecap="round" stroke-linejoin="round" stroke-width="2"/><path d="M755.084,531.372c-2.676,1.925-.258,3.866.031,5.771.248,1.638,1.6,1.478,2.858,1.462,3.128-.04,6.258-.06,9.385,0,1.816.038,2.281-.741,1.944-2.428-.633-3.161-1.39-3.716-4.588-3.882-3.137-.162-6.259-.607-9.388-.928" transform="translate(-619.922 -359.563)" fill="none" stroke="#000" stroke-linecap="round" stroke-linejoin="round" stroke-width="2"/><path d="M968.028,297.372c-2.714.847-5.563,1.075-8.2,2.36-7.907,3.846-12.714,9.918-14.44,18.572-2.7,13.533,6.793,26.545,19.279,29.108,14.076,2.888,26.76-4.8,30.214-18.781A25.059,25.059,0,0,0,974.053,297.8a47.72,47.72,0,0,0-5.784-.423" transform="translate(-719.036 -238.19)" fill="none" stroke="#000" stroke-linecap="round" stroke-linejoin="round" stroke-width="2"/><path d="M548.026,523.311c-2.424.839-2.387,2.878-2.085,4.8.111.7.351,1.427.407,2.178a3.191,3.191,0,0,0,3.362,3.12c2.968.034,5.937.041,8.9,0,2.452-.035,3.339-1.06,3.122-3.6-.657-7.683-.994-6.477-6.732-6.5-2.246-.008-4.492,0-6.738,0" transform="translate(-512.015 -355.352)" fill="none" stroke="#000" stroke-linecap="round" stroke-linejoin="round" stroke-width="2"/><path d="M976.27,313.335c-1.685.481-3.533.667-5.025,1.5-6.333,3.516-11.241,9.222-10.321,17.992.949,9.039,8.478,15.732,16.55,15.667,9.565-.077,15.2-3.933,17.977-13.275,1.952-6.568-.13-12.934-5.46-17.551a18.259,18.259,0,0,0-13.48-4.327" transform="translate(-727.279 -246.452)" fill="none" stroke="#000" stroke-linecap="round" stroke-linejoin="round" stroke-width="2"/></g><g transform="translate(-288.763 159.86)"><path d="M-207.5,484.314c2.527,3.172,6.24,3.982,9.86,5.076,8.536,2.582,17.274,1.981,26,1.922,11.551-.078,23.1-.019,34.654-.019,6.819,0,13.639.093,20.455-.029a45.933,45.933,0,0,0,16.62-3.787,9.387,9.387,0,0,0,4.55-3.687c-2.075-6.849-4.832-13.912-9.372-20.176-2.3-3.171-5.672-4.666-9.159-5.989-.254-.1-.633.137-.954.218" transform="translate(227.102 -319.938)" fill="none" stroke="#000" stroke-linecap="round" stroke-linejoin="round" stroke-width="2"/><path d="M-102.4,205.525c-3.37-3.235-4.352-7.712-5.963-11.813a106.764,106.764,0,0,0-6.793-14.177c-2.505-4.36-6.2-6.354-11.306-6.574-8.1-.35-16.208-.645-24.3-1.036a127.609,127.609,0,0,0-14.438-.2c-4.345.285-8.687.015-13,.392-5.291.462-10.619.4-15.877,1.005a11.366,11.366,0,0,0-8.717,5.906,118.931,118.931,0,0,0-9.041,19.781c-1.4,3.815-3.844,6.819-6.343,9.823-2.075,2.494-2.948,5.457-3.793,8.454a4.519,4.519,0,0,0,.209,1.676" transform="translate(234.633 -171.584)" fill="none" stroke="#000" stroke-linecap="round" stroke-linejoin="round" stroke-width="2"/><path d="M-214.533,546.6a37.334,37.334,0,0,0,18.291,3.637c4.439-.172,7.57-3.421,8.315-7.705.5-2.85-.319-5.474-.161-8.207.078-1.358-.679-2-2.139-1.944-4.992.176-9.821-1-14.679-1.91-3.311-.618-7.875,1.539-9.641,4.57-.185.317-.506.509-.479.971.3,5.072-.656,10.2,1.4,15.182,2.454,5.946,6.547,8.937,13.047,9.163,29.037,1.01,58.08.161,87.119.4a25.571,25.571,0,0,0,7.678-.989c5.884-1.825,8.124-6.825,9.62-12.209.828-2.978.5-6.081.507-9.137.008-4.036-2.988-6.967-6.969-7.521-4.676-.651-9.01.829-13.492,1.455a47.053,47.053,0,0,1-6.368.049c-.551,4.506-1.384,8.768.352,13a8.226,8.226,0,0,0,6.984,4.831,39.459,39.459,0,0,0,18.531-3.389" transform="translate(231.006 -357.683)" fill="none" stroke="#000" stroke-linecap="round" stroke-linejoin="round" stroke-width="2"/><path d="M21.261,529.6c3.166,4.382,4.4,9.238,4.732,14.67.27,4.407.083,8.842.664,13.264a33.537,33.537,0,0,1-.424,7.914,88.289,88.289,0,0,1-2.106,10.112c-.355,1.505.3,2.878.284,4.337-.053,6.1-.017,12.193-.025,18.29,0,3.03-.836,3.85-3.848,3.85q-3.971,0-7.942,0c-2.474,0-3.567-1.05-3.6-3.61-.044-3.529-.011-7.059-.011-10.588" transform="translate(114.818 -357.284)" fill="none" stroke="#000" stroke-linecap="round" stroke-linejoin="round" stroke-width="2"/><path d="M-180.5,478.6a12.5,12.5,0,0,0,4.813.967q38.264-.011,76.528,0a9.279,9.279,0,0,0,4.332-.97" transform="translate(213.097 -330.831)" fill="none" stroke="#000" stroke-linecap="round" stroke-linejoin="round" stroke-width="2"/><path d="M-184.507,213.143c.592.942,1.546.71,2.407.715,3.048.017,6.1.1,9.144-.011,8.194-.285,16.357.571,24.547.532,12.6-.06,25.183-.873,37.781-.474,1.2.038,1.905-.762,2.892-.994a14.283,14.283,0,0,1,7.246.128c1.448.4,3.179-.234,4.7-.395,1-2.045-.158-3.769-.9-5.511-2.6-6.117-5.218-12.227-7.978-18.273-.476-1.042-.7-2.128-1.179-3.3-2.619-.073-5.229-.532-7.909-.631-18.128-.667-36.264-.607-54.388-.292-6.077.106-12.227-.139-18.3.794-.734.113-1.225.3-1.436.994-1.874,6.193-5,11.861-7.463,17.808a44.707,44.707,0,0,1-2.223,5.261,2.674,2.674,0,0,0,.056,2.921" transform="translate(222.158 -178.24)" fill="none" stroke="#000" stroke-linecap="round" stroke-linejoin="round" stroke-width="2"/><path d="M-182.26,459.1c-2.143,3.009-4.064,6.21-6.341,9.078-3.665,4.617-4.246,10.337-6.326,15.5-.442,1.1.617,2.353,2.08,2.6a8.1,8.1,0,0,0,1.442.012c10.267-.148,20.536-.03,30.8-.132,8.013-.08,16.043.093,24.065.121,12.594.045,25.188.013,37.783.011,3.36,0,3.957-.836,2.884-4.089-1.514-4.59-2.32-9.455-5.287-13.481-2.043-2.773-5-3.882-8.188-4.565-4.3-.922-8.662-.382-12.995-.472-9.705-.2-19.43-.771-29.113-.365-8.674.363-17.338.037-25.993.413-2.539.11-5.226.2-7.5,1.815-.222.158-.928.74-1.409.049" transform="translate(220.633 -320.716)" fill="none" stroke="#000" stroke-linecap="round" stroke-linejoin="round" stroke-width="2"/><path d="M-94.677,188.515c-6.9-.082-13.816-.235-20.69-.6-12.2-.647-24.4-.36-36.584-.233-5.282.055-10.618-.055-15.874.466-2.894.286-5.816.012-8.675.608" transform="translate(211.023 -179.844)" fill="none" stroke="#000" stroke-linecap="round" stroke-linejoin="round" stroke-width="2"/><path d="M-99.6,577.732c-2.374,5.83-6.972,8.44-12.989,9.195a15.135,15.135,0,0,1-4.6.072,4.66,4.66,0,0,1-3.588-2.77c-2.467-4.467-4.529-5.364-8.43-4.108a29.206,29.206,0,0,1-9.139,1c-16.525-.045-33.051-.085-49.574.041-2.746.021-5.3-.7-7.934-1.077-3.405-.494-6.046.254-7.671,2.962-.843,1.406-1.07,3.334-2.937,3.778-1.335.317-2.659.85-4.32.41,0,3.968.006,7.58,0,11.191-.006,2.738-.882,3.607-3.608,3.609q-3.971,0-7.942,0c-2.5,0-3.772-1.017-3.815-3.611-.108-6.5-.462-13.033.127-19.478.343-3.753-.932-7.062-1.245-10.593-.169-1.9-.639-3.872-.784-5.791-.5-6.658.336-13.309.468-19.969a24.378,24.378,0,0,1,4.527-13" transform="translate(237.842 -357.284)" fill="none" stroke="#000" stroke-linecap="round" stroke-linejoin="round" stroke-width="2"/><path d="M-170,636.1c1.524.561,3.052,1.113,4.571,1.687a14.563,14.563,0,0,0,5.3.992q27.435-.081,54.869-.009a16.137,16.137,0,0,0,7.964-1.666,16.578,16.578,0,0,1,3.587-1" transform="translate(207.651 -412.524)" fill="none" stroke="#000" stroke-linecap="round" stroke-linejoin="round" stroke-width="2"/><path d="M-114.759,463.084c-.465-2.414-2.622-3.656-3.836-5.545-2.179-3.391-5.574-3.746-9.156-4.12-15.623-1.63-31.289-.819-46.932-.821-5.279,0-10.722.021-15.853,1.449-3.436.956-7.159,1.385-10.147,3.731-3.281,2.576-5.393,6.006-7.191,9.648a68.1,68.1,0,0,0-5.215,12.771c-.846,3.243-2.648,5.918-3.956,8.875-.186.421-.626.2-.955.245" transform="translate(232.548 -317.239)" fill="none" stroke="#000" stroke-linecap="round" stroke-linejoin="round" stroke-width="2"/><path d="M-213.084,278.111c-.314,1.965.417,3.838.548,5.771.187,2.779,2.52,3.974,4.762,4.775,5.534,1.977,11.337,1.5,17.071,1.458,1.231-.009,1.839-.8,1.7-2.139a16.662,16.662,0,0,0-3.37-8.912,5.931,5.931,0,0,0-4.11-1.864,45.316,45.316,0,0,0-16.6.67" transform="translate(230.039 -226.121)" fill="none" stroke="#000" stroke-linecap="round" stroke-linejoin="round" stroke-width="2"/><path d="M-93.8,280.94q-4.958-.549-9.877-1.38a38.512,38.512,0,0,0-6.487-.44c-5.311.024-10.576-.895-15.884-.585-5.375.314-10.757.543-16.121.995-3.625.3-7.223.929-10.832,1.41" transform="translate(198.833 -227.025)" fill="none" stroke="#000" stroke-linecap="round" stroke-linejoin="round" stroke-width="2"/><path d="M-113.581,273.073c-.437,2.526-3.841,5.087-6.737,5.313-11.383.888-22.784.369-34.174.4-2.957.008-6.176.3-8.862-.987-4.447-2.125-6.263-6.587-6.878-11a22.381,22.381,0,0,0-7.379-14.4A45.261,45.261,0,0,0-186.5,246.6" transform="translate(216.21 -210.495)" fill="none" stroke="#000" stroke-linecap="round" stroke-linejoin="round" stroke-width="2"/><path d="M-73.322,244.6c-.106.857-.7,1.119-1.427,1.479-5.035,2.48-9.441,5.79-12.5,10.575a16.842,16.842,0,0,0-2.535,7.912,11.274,11.274,0,0,1-11.457,10.808c-12.032.1-24.066-.023-36.1.07a11.567,11.567,0,0,1-6.966-1.985c-.538-.374-.992-.8-1.7-.7" transform="translate(195.203 -209.457)" fill="none" stroke="#000" stroke-linecap="round" stroke-linejoin="round" stroke-width="2"/><path d="M4.191,327.1a47.156,47.156,0,0,0-17.126,4.976c-1.786.906-2.443,1.972-2.094,3.681.518,2.537,1.366,3.152,3.818,3.13A94.066,94.066,0,0,0-.14,337.942c1.352-.173,1.923-.977,2.442-2.162a39.523,39.523,0,0,0,2.369-8.439" transform="translate(127.316 -252.249)" fill="none" stroke="#000" stroke-linecap="round" stroke-linejoin="round" stroke-width="2"/><path d="M-6.348,295.6c-4.159,9.785-12.32,13.914-22.13,15.933-4.156.856-8.362.834-12.532,1.328-1.173.139-1.527.658-1.658,1.513a15.554,15.554,0,0,1-4.832,8.661" transform="translate(144.112 -235.911)" fill="none" stroke="#000" stroke-linecap="round" stroke-linejoin="round" stroke-width="2"/><path d="M-154.548,241.6c-.694.7-1.582.474-2.407.475-8.985.01-17.983.3-26.947-.134a65.232,65.232,0,0,0-11.063.248c-3.7.454-7.613,1.04-11.042.392-6.568-1.241-8.97,3.489-12.254,7.018a21.643,21.643,0,0,0-4.066,6.476,13.629,13.629,0,0,0-.506,8.372,17.94,17.94,0,0,1,.222,5.07c-.276,8.753.516,17.486.644,26.231.1,6.735-.14,13.476-.2,20.215-.033,3.675,1.373,5.054,5.048,5.054,2.166,0,4.332.032,6.5-.009a3.626,3.626,0,0,0,3.851-3.842c.146-4.09-.3-8.191.24-12.273" transform="translate(235.276 -207.901)" fill="none" stroke="#000" stroke-linecap="round" stroke-linejoin="round" stroke-width="2"/><path d="M-220,297.1c4.379,9.272,12.322,13.3,21.887,15.224,4,.8,8.05.751,12.052,1.332,1.348.2,1.968.45,2.219,1.964a12.047,12.047,0,0,0,4.993,8.192" transform="translate(233.586 -236.689)" fill="none" stroke="#000" stroke-linecap="round" stroke-linejoin="round" stroke-width="2"/><path d="M-68.035,354.305c-.08,0-.184-.034-.237,0-4.637,3.334-9.982,3.634-15.405,3.606a17.571,17.571,0,0,0-2.4.015,10.021,10.021,0,0,1-8.893-2.917,5.292,5.292,0,0,0-4.1-1.447q-23.825.04-47.65.016c-4.572,0-9.145.029-13.717-.013-2.112-.02-3.9.51-5.054,2.42" transform="translate(205.317 -265.977)" fill="none" stroke="#000" stroke-linecap="round" stroke-linejoin="round" stroke-width="2"/><path d="M-92.25,326.913c-.547-2.624-.039-5.312-.309-8.062H-118v14.68h25.273c.783-2.158-.239-4.335.477-6.377" transform="translate(180.679 -247.97)" fill="none" stroke="#000" stroke-linecap="round" stroke-linejoin="round" stroke-width="2"/><path d="M19.234,232.6l-3.266,4.921a16.524,16.524,0,0,1,6.024,10.735,78.091,78.091,0,0,1,.508,12.268c-.2,3.747-.5,7.53-.375,11.3.258,7.717-.74,15.406-.639,23.1.075,5.7.056,11.393.145,17.088.05,3.166-1.14,4.317-4.322,4.33q-3.369.013-6.738,0c-2.756-.01-4.158-1.578-4.109-4.33.071-4.01.018-8.022.018-12.032" transform="translate(116.123 -203.233)" fill="none" stroke="#000" stroke-linecap="round" stroke-linejoin="round" stroke-width="2"/><path d="M-92.991,541.286a5.021,5.021,0,0,0-2.647-.226c-6.738-.027-13.477.039-20.215-.05-1.864-.024-2.47.535-2.457,2.442.026,3.928.336,7.87-.191,11.792" transform="translate(180.939 -363.194)" fill="none" stroke="#000" stroke-linecap="round" stroke-linejoin="round" stroke-width="2"/><path d="M-60.224,553.574c.937-3.468.678-7.1,1.415-10.6.124-.587.348-1.445-.692-1.682a10.75,10.75,0,0,0-4.816,0,.823.823,0,0,0-.725.97c.155,4.33-.295,8.672.245,13" transform="translate(153.225 -363.208)" fill="none" stroke="#000" stroke-linecap="round" stroke-linejoin="round" stroke-width="2"/><path d="M-92.7,510.879c-1.734-2.564-4.14-3.5-7.221-3.41-5.21.147-10.437.231-15.638-.028a9.108,9.108,0,0,0-7.945,3.438" transform="translate(183.532 -345.782)" fill="none" stroke="#000" stroke-linecap="round" stroke-linejoin="round" stroke-width="2"/><path d="M-114.955,238.385c-1.61-1.173-3.617-.656-5.308-.8a109.15,109.15,0,0,0-16.343-.052,62.529,62.529,0,0,0-7.469.844c-.652.124-1.44-.306-1.924.486" transform="translate(195.203 -205.648)" fill="none" stroke="#000" stroke-linecap="round" stroke-linejoin="round" stroke-width="2"/><path d="M-39.881,239.413c-2.137-1.082-4.537-.637-6.75-.818a134.158,134.158,0,0,0-16.35-.068c-2,.082-4.249-.264-6.019,1.248" transform="translate(155.264 -206.194)" fill="none" stroke="#000" stroke-linecap="round" stroke-linejoin="round" stroke-width="2"/><path d="M-208.5,327.342c.179,2.947,1.24,5.67,2.175,8.42.831,2.445,3.178,2.331,5.054,2.584,3.015.407,6.094.31,9.133.575,1.916.167,2.747-.86,3.108-2.439.351-1.531.776-3.116-1.173-4.1a59.017,59.017,0,0,0-12.983-4.639c-1.628-.391-3.279-.06-4.833-.639" transform="translate(227.621 -252.249)" fill="none" stroke="#000" stroke-linecap="round" stroke-linejoin="round" stroke-width="2"/><path d="M-79.5,241.1a127.369,127.369,0,0,0,13.477.747c5.453-.106,10.909-.028,16.364-.022.923,0,1.9-.183,2.647.6" transform="translate(160.71 -207.642)" fill="none" stroke="#000" stroke-linecap="round" stroke-linejoin="round" stroke-width="2"/><path d="M-220,355.1c2.121.619,3.786,2.2,6.009,2.68a49.268,49.268,0,0,0,12.28.905c2.415-.084,4.879.585,7.1-1.532.856-.815,3,.147,4.2,1.323a4.733,4.733,0,0,1,.784,1.166c1.521,2.8,3.824,4.03,7.167,3.942a211.923,211.923,0,0,1,21.416.192c1.026.077,1.892-.54,2.835-.211a3.407,3.407,0,0,0,.054-2.69" transform="translate(233.586 -266.773)" fill="none" stroke="#000" stroke-linecap="round" stroke-linejoin="round" stroke-width="2"/><path d="M-92.4,513.023c-.589-1.228-1.613-1.473-2.888-1.464-5.7.045-11.391.026-17.087.014-1.283,0-2.5.06-3.129,1.45" transform="translate(179.383 -347.926)" fill="none" stroke="#000" stroke-linecap="round" stroke-linejoin="round" stroke-width="2"/><path d="M6.958,538.6a18.168,18.168,0,0,1-1.872,8.687c-.769,1.756-1.68,2.6-3.666,2.415-2.794-.26-5.625.247-8.42-.272" transform="translate(123.105 -361.952)" fill="none" stroke="#000" stroke-linecap="round" stroke-linejoin="round" stroke-width="2"/><path d="M-208,534.6c2.34,1.147,1.195,3.566,1.811,5.334.311.892.4,2.114.674,3.066,1.217,4.185,1.947,4.636,6.42,4.578,2.165-.028,4.348.285,6.5-.223" transform="translate(227.361 -359.877)" fill="none" stroke="#000" stroke-linecap="round" stroke-linejoin="round" stroke-width="2"/><path d="M-204.5,621.718a17.633,17.633,0,0,0,5.292,2.657c2.021.62,3.014.253,3.613-1.454a2.388,2.388,0,0,0-2.174-3.3c-2.4-.283-4.877-.158-6.73,1.858" transform="translate(225.546 -403.917)" fill="none" stroke="#000" stroke-linecap="round" stroke-linejoin="round" stroke-width="2"/><path d="M-231.272,235.58a8.068,8.068,0,0,1-1.686-7.471c-3.252-1.537-6.515-.831-9.646-1.3a4.688,4.688,0,0,0-5.246,2.521c-.438,1.019-.785,2.223.694,2.876" transform="translate(248.226 -200.196)" fill="none" stroke="#000" stroke-linecap="round" stroke-linejoin="round" stroke-width="2"/><path d="M31.907,238.912a9.539,9.539,0,0,1,6.017-1.209c5,.29,7.28-2.726,8.6-6.513a2.493,2.493,0,0,0-1.156-3.322c-1.742-.747-3.431-1.52-5.537-1.053-2.668.592-5.521.027-8.419,1.225,1.167,2.962.141,5.609-1.916,7.983" transform="translate(104.173 -200.159)" fill="none" stroke="#000" stroke-linecap="round" stroke-linejoin="round" stroke-width="2"/><path d="M-222.5,628.6a5.5,5.5,0,0,1,.711.967c2.554,5.743,7.2,8.259,13.245,8.678.171.012.322.3.483.463" transform="translate(234.882 -408.634)" fill="none" stroke="#000" stroke-linecap="round" stroke-linejoin="round" stroke-width="2"/><path d="M-240.4,228.6c-1.9,1-4.06,1.6-5.084,3.837a2.407,2.407,0,0,0,.024,2.665,7.7,7.7,0,0,0,6.745,3.6c2.333-.032,4.654-.094,6.738,1.213" transform="translate(247.008 -201.158)" fill="none" stroke="#000" stroke-linecap="round" stroke-linejoin="round" stroke-width="2"/><path d="M-190.381,362.6c-.562.561-1.332,1.025-1.648,1.7-1.4,3-3.875,3.2-6.775,3.168a58.527,58.527,0,0,1-16.383-2.4c-1.638-.5-2.779-1.687-4.313-2.229" transform="translate(233.326 -270.663)" fill="none" stroke="#000" stroke-linecap="round" stroke-linejoin="round" stroke-width="2"/><path d="M-55.124,359.1a7.16,7.16,0,0,0-4.917,3.552,6,6,0,0,1-5.915,3c-6.729-.35-13.474.131-20.216-.21-1.392-.071-2.849.695-4.327.159" transform="translate(166.415 -268.847)" fill="none" stroke="#000" stroke-linecap="round" stroke-linejoin="round" stroke-width="2"/><path d="M5.879,363.1c-5.273,3.428-11.3,4.006-17.328,4.564-.636.059-1.3-.093-1.921.024-4.341.819-7.491-.81-9.629-4.588" transform="translate(131.404 -270.922)" fill="none" stroke="#000" stroke-linecap="round" stroke-linejoin="round" stroke-width="2"/><path d="M15.5,243.6c4.148,3.357,7.832,7.1,10.128,12.023.154.329.261.971.942.732" transform="translate(111.434 -208.939)" fill="none" stroke="#000" stroke-linecap="round" stroke-linejoin="round" stroke-width="2"/><path d="M-129.666,335.6h-9.846c-.288,3.24.611,4.332,3.348,4.332h6.5" transform="translate(191.864 -256.658)" fill="none" stroke="#000" stroke-linecap="round" stroke-linejoin="round" stroke-width="2"/><path d="M-64,335.6h10.123c-.265,4.117-.492,4.332-4.347,4.332H-64" transform="translate(152.67 -256.658)" fill="none" stroke="#000" stroke-linecap="round" stroke-linejoin="round" stroke-width="2"/><path d="M36.957,521.409c1.481-1.059,3.182-.7,4.813-.713a7.933,7.933,0,0,0,7.46-6.507c.266-1.892-1.285-3.563-3.11-4.15-2.72-.876-5.314-.091-7.96.066-.485.028-2.149,2.607-2.159,3.363-.023,1.684-.007,3.369-.007,5.054" transform="translate(100.807 -346.926)" fill="none" stroke="#000" stroke-linecap="round" stroke-linejoin="round" stroke-width="2"/><path d="M-130.058,542.6c-.272,3.9.553,7.708.963,11.551" transform="translate(186.962 -364.027)" fill="none" stroke="#000" stroke-linecap="round" stroke-linejoin="round" stroke-width="2"/><path d="M-182.822,538.976a69.843,69.843,0,0,1-9.872-.924,63.418,63.418,0,0,0-11.305-.52" transform="translate(225.287 -361.365)" fill="none" stroke="#000" stroke-linecap="round" stroke-linejoin="round" stroke-width="2"/><path d="M.1,535.1a3.551,3.551,0,0,1-3.129,1.227c-5.433-.255-10.767.7-16.128,1.383a8.041,8.041,0,0,1-3.846-.2" transform="translate(131.404 -360.137)" fill="none" stroke="#000" stroke-linecap="round" stroke-linejoin="round" stroke-width="2"/><path d="M-227.82,514.666c-.824-.128-1.057-.88-1.167-1.451-.4-2.069-1.668-2.7-3.64-2.929-3.325-.382-6.623-1.419-9.873.289" transform="translate(245.256 -346.922)" fill="none" stroke="#000" stroke-linecap="round" stroke-linejoin="round" stroke-width="2"/><path d="M-243.5,513.594c3.048,0,6.1-.018,9.145.005,2.5.019,2.817.4,2.9,2.882.051,1.524-.275,3.071.227,4.573" transform="translate(245.775 -348.978)" fill="none" stroke="#000" stroke-linecap="round" stroke-linejoin="round" stroke-width="2"/><path d="M-96.433,541.345c3-.316,3.954.665,3.107,3.362-.479,1.525-.908,3.087-1.48,4.557-1.455,3.742-3.946,6.136-8.363,6.332-8.266.366-16.53.2-24.789.125-4.569-.04-7.325-2.9-8.66-7.158-.349-1.114-.545-2.287-.994-3.357-.493-1.173-.877-2.3.04-3.369.937-1.093,2.182-.688,3.356-.492" transform="translate(191.12 -363.252)" fill="none" stroke="#000" stroke-linecap="round" stroke-linejoin="round" stroke-width="2"/><path d="M39.5,513.6H49.848" transform="translate(98.986 -348.985)" fill="none" stroke="#000" stroke-linecap="round" stroke-linejoin="round" stroke-width="2"/><path d="M-184,539.6a21.852,21.852,0,0,0,7.7,13.958" transform="translate(214.913 -362.471)" fill="none" stroke="#000" stroke-linecap="round" stroke-linejoin="round" stroke-width="2"/><path d="M-6.78,539.6c-.35,5.654-3.294,9.944-7.22,13.717" transform="translate(126.736 -362.471)" fill="none" stroke="#000" stroke-linecap="round" stroke-linejoin="round" stroke-width="2"/><path d="M-239.5,528.6h9.867" transform="translate(243.7 -356.765)" fill="none" stroke="#000" stroke-linecap="round" stroke-linejoin="round" stroke-width="2"/><path d="M26,514.1c1.418,2.375,2.163,5.133,3.843,6.979H40.921" transform="translate(105.988 -349.244)" fill="none" stroke="#000" stroke-linecap="round" stroke-linejoin="round" stroke-width="2"/><path d="M-244.491,512.1a6.537,6.537,0,0,0,5.776,9.879c1.785.015,3.65-.414,5.294.709" transform="translate(246.766 -348.207)" fill="none" stroke="#000" stroke-linecap="round" stroke-linejoin="round" stroke-width="2"/><path d="M51.5,228.6c2.269.9,4.533,1.81,5.535,4.332" transform="translate(92.761 -201.158)" fill="none" stroke="#000" stroke-linecap="round" stroke-linejoin="round" stroke-width="2"/><path d="M33.35,511.583a1.815,1.815,0,0,0-2.2,1.432,5.325,5.325,0,0,1-1.646,2.659" transform="translate(104.173 -347.929)" fill="none" stroke="#000" stroke-linecap="round" stroke-linejoin="round" stroke-width="2"/><path d="M-216,232.1c1.492,1.252,1.711,3.442,3.369,4.572" transform="translate(231.511 -202.974)" fill="none" stroke="#000" stroke-linecap="round" stroke-linejoin="round" stroke-width="2"/><path d="M-100.761,367.1c-.576.8.063,1.6,0,2.407" transform="translate(171.863 -272.997)" fill="none" stroke="#000" stroke-linecap="round" stroke-linejoin="round" stroke-width="2"/><path d="M-54.5,367.1v2.407" transform="translate(147.743 -272.997)" fill="none" stroke="#000" stroke-linecap="round" stroke-linejoin="round" stroke-width="2"/><path d="M5.363,619.585c-.982.622-2.6.518-2.435,2.409a2.953,2.953,0,0,0,1.7,2.678,1.358,1.358,0,0,0,.974.188,19.677,19.677,0,0,0,6.921-3.471,10.729,10.729,0,0,0-6.915-1.8" transform="translate(117.962 -403.95)" fill="none" stroke="#000" stroke-linecap="round" stroke-linejoin="round" stroke-width="2"/><path d="M-8.35,276.6c-1.448.882-3.1.133-4.562.519-4.244,1.12-5.713,4.625-6.462,8.394-.993,5-.542,4.49,4.045,4.562,4.71.075,9.432.221,13.954-1.455a25.373,25.373,0,0,0,3.128-1.442c2.462-1.318,1.847-3.919,2.373-6.016.252-1.006-.185-2.16,1.289-3.328A81.051,81.051,0,0,0-8.11,276.6" transform="translate(129.75 -226.053)" fill="none" stroke="#000" stroke-linecap="round" stroke-linejoin="round" stroke-width="2"/></g><text transform="translate(-326.378 213.8)" font-size="11" font-family="MyriadPro-Regular, Myriad Pro"><tspan x="0" y="0">Trc</tspan></text><text transform="translate(-127.316 294.231)" font-size="11" font-family="MyriadPro-Regular, Myriad Pro"><tspan x="0" y="0">Mui</tspan></text><text transform="translate(81.758 173.276)" font-size="11" font-family="MyriadPro-Regular, Myriad Pro"><tspan x="0" y="0">Tri</tspan></text><text transform="translate(314.424 317.084)" font-size="11" font-family="MyriadPro-Regular, Myriad Pro"><tspan x="0" y="0">Phi</tspan></text></g></svg>