<svg xmlns="http://www.w3.org/2000/svg" width="125.138" height="92.329" viewBox="0 0 125.138 92.329"><path d="M728.394,401.254a27.542,27.542,0,0,0-24.523,21.166,31.744,31.744,0,0,1-37.065,24.5c-16.372-3.183-27.763-19.352-25.054-35.86a31.544,31.544,0,0,1,61.4-4.084c.306,1.079.556,2.174.876,3.437a29.605,29.605,0,0,1,6.566-7.011,1.325,1.325,0,0,0,.519-1.875q-8.244-20.275-29.484-25.483c-1.53-.372-3.09-.623-4.636-.93h-8.16a17.523,17.523,0,0,1-3.7.7,40.787,40.787,0,0,0-32.154,48.558c4.643,21.74,24.816,35.272,46.763,31.91,14.915-2.284,29.959-14.924,33.07-31.082a18.522,18.522,0,0,1,36.455,6.491c-1.243,8.988-9.388,16.086-18.42,15.832-7.365-.206-12.809-3.726-16.382-10.161-.159-.287-.152-.714-.623-.832-.288.528-.565,1.053-.858,1.569a33.9,33.9,0,0,1-9.1,11,1.708,1.708,0,0,0-.785,1.576c.03,5.28.014,10.559.022,15.839,0,.3-.1.638.142.929h9.191V449.974a28.524,28.524,0,0,0,16.453,6.761l.047-.107H731.8A25.393,25.393,0,0,0,757.2,431.235v-5.377a25.269,25.269,0,0,0-3.7-13.2C747.169,404.4,738.826,400.516,728.394,401.254Z" transform="translate(-632.058 -375.119)" fill="#fff"/></svg>