<svg xmlns="http://www.w3.org/2000/svg" width="302.344" height="92.421" viewBox="0 0 302.344 92.421"><g transform="translate(-123 153)"><g transform="translate(123 -153)"><path d="M241.81,73h7.1c4.758,0,9.516.031,14.273-.024,1.031-.012,1.281.318,1.25,1.289-.068,2.077-.052,4.158-.006,6.236.018.792-.245,1.023-1.027,1.022-11.155-.021-22.31-.007-33.465-.021a4.24,4.24,0,0,1-2.719-7.628q12.164-10.125,24.363-20.206a10.981,10.981,0,0,0,3.742-12.03A11.211,11.211,0,0,0,245.1,33.879a11.048,11.048,0,0,0-10.568,7.23,1.343,1.343,0,0,1-1.549,1.053c-2.118-.053-4.239-.069-6.356.005-1.015.035-1.179-.278-1-1.218a19.679,19.679,0,0,1,15.711-15.264,19.467,19.467,0,0,1,22.825,16.7,18.754,18.754,0,0,1-6.893,17.613c-4.854,4.1-9.753,8.145-14.63,12.217C242.433,72.388,242.243,72.588,241.81,73Z" fill="#f39b1c"/><path d="M176.328,60.32c0,6.634-.018,13.268.02,19.9,0,.953-.184,1.335-1.233,1.3-2.4-.08-4.795-.043-7.193-.014-.654.008-.924-.165-.9-.87.046-1.6.018-3.2.012-4.8a1.162,1.162,0,0,1,.416-1.043c4.068-3.344,6.272-7.876,8.025-12.689.225-.617.431-1.241.645-1.862Z" fill="#009fee"/><path d="M219.57,54.124c-.105-10.409-4.515-18.594-13.348-24.161a26.389,26.389,0,0,0-35.034,5.9c-3.74,4.636-5.848,10.037-7.24,15.759-1.337,5.5-3.346,10.69-7.3,14.885-3.391,3.6-7.464,5.972-12.577,5.683a18.019,18.019,0,0,1-13.689-7.379c-.713-.92-.666-1.312.358-1.915q14.771-8.685,29.49-17.458a2.071,2.071,0,0,0,1.107-1.167,58.765,58.765,0,0,1,3.666-8.579,1.443,1.443,0,0,0-.345-2.031,27.955,27.955,0,0,0-32.947-4.292,28.26,28.26,0,0,0-9.6,8.823c-.412-.1-.519-.438-.709-.684-6.585-8.546-15.268-12.383-25.986-11.286A27.468,27.468,0,0,0,71.784,47.364,31.569,31.569,0,0,1,9.717,35.9,31.122,31.122,0,0,1,37.154,9.578C48.57,8.249,58.032,12.252,65.415,21.046A30.217,30.217,0,0,1,71.86,35.131c.454-.143.561-.527.763-.8a28.945,28.945,0,0,1,5.928-6.071,1.243,1.243,0,0,0,.5-1.755Q70.844,6.13,49.526.9C48.075.547,46.548.591,45.15,0H36.51a6.57,6.57,0,0,1-2.5.521A40.918,40.918,0,1,0,49.653,80.828c14.111-3.058,28.142-15.252,31.1-30.838a18.5,18.5,0,0,1,36.4,6.562c-1.184,7.773-5.79,12.962-13.291,15.1-7.539,2.146-14.014-.1-19.2-5.992a25.3,25.3,0,0,1-2.8-4.353c-.158.247-.249.369-.32.5-2.566,4.8-5.6,9.221-10.1,12.448a1.077,1.077,0,0,0-.407,1.039c0,5.4.017,10.8-.016,16.2,0,.761.233.935.953.923,2.439-.042,4.88-.053,7.319,0,.855.02,1.064-.25,1.059-1.076-.036-5.039-.022-10.079-.011-15.118a2.063,2.063,0,0,1,.18-1.334c6.441,5.305,13.773,7.667,22.06,6.545s14.716-5.328,19.554-12.192a28.936,28.936,0,0,0,6.067,6.448c10.958,8.345,25.561,8.1,35.357-2.991a41.453,41.453,0,0,0,9.023-17.249,47.25,47.25,0,0,1,3.112-9.292c2.12-4.258,4.926-7.9,9.471-9.745,11.6-4.719,25.008,4.291,25.065,16.826.042,9.08.02,18.159-.011,27.238,0,.867.167,1.174,1.1,1.144,2.358-.074,4.72-.063,7.078,0,.866.021,1.158-.166,1.157-1.1C219.534,71.719,219.659,62.921,219.57,54.124Zm-91.9-.242c-.253.15-.533.515-.832.265-.152-.126-.112-.517-.109-.787.143-13.755,15.268-22.6,27.31-15.973.2.109.376.254.664.451l-8.818,5.238Q136.778,48.483,127.668,53.882Z" fill="#009eee"/><path d="M301.464,57.929c-1.04.025-2.083-.045-3.119.022-.866.055-1.072-.287-1.066-1.1.034-4.359.016-8.719.016-13.078,0-4.28.008-8.56,0-12.839-.006-2.319-1-3.879-2.848-4.528-1.8-.635-3.471-.066-4.956,1.7Q281.7,37.39,273.924,46.676q-5.2,6.208-10.371,12.432a4.26,4.26,0,0,0-.643,5.113,4.356,4.356,0,0,0,4.241,2.168c6.8-.011,13.6.021,20.4-.03,1.078-.009,1.336.3,1.321,1.345-.059,4.158-.005,8.319-.04,12.478-.007.822.215,1.125,1.074,1.1,2-.056,4-.073,6,.005,1.066.042,1.442-.221,1.422-1.37-.074-4.119,0-8.24-.051-12.359-.013-.969.3-1.257,1.225-1.19.994.073,2-.007,3,.025.613.019.855-.2.848-.83q-.037-3.419,0-6.839C302.352,58.059,302.042,57.914,301.464,57.929Zm-13.834.031c-3.91-.061-7.82-.025-11.877-.025.531-1,11.96-14.718,12.944-15.588.248.318.143.683.143,1.014.008,4.433-.02,8.866.026,13.3C288.876,57.615,288.671,57.976,287.63,57.96Z" fill="#f39b1c"/></g></g></svg>