<svg width="41" height="40" viewBox="0 0 41 40" fill="none" xmlns="http://www.w3.org/2000/svg">
<path fill-rule="evenodd" clip-rule="evenodd" d="M8.63238 0.571424C8.86029 0.648976 9.21185 0.829956 9.4137 0.959279C10.6506 1.77385 14.0948 6.15037 15.2212 8.33548C15.8657 9.58312 16.0805 10.5076 15.8788 11.1928C15.6704 11.9298 15.3253 12.3177 13.7823 13.5525C13.1638 14.0502 12.5843 14.5609 12.4932 14.6967C12.2588 15.0329 12.07 15.6922 12.07 16.1578C12.0766 17.2374 12.7797 19.1962 13.7042 20.7024C14.4203 21.8725 15.7028 23.3722 16.9725 24.5231C18.4634 25.8807 19.7785 26.805 21.263 27.5355C23.1705 28.4794 24.336 28.7186 25.1889 28.3243C25.4038 28.2273 25.6317 28.0981 25.7032 28.0398C25.7683 27.9816 26.2697 27.3739 26.8166 26.7016C27.8711 25.3827 28.1121 25.1695 28.8347 24.924C29.753 24.6135 30.6905 24.6976 31.6344 25.176C32.3505 25.5445 33.9131 26.5078 34.9222 27.2059C36.2503 28.1302 39.0891 30.4317 39.4733 30.8908C40.1503 31.7182 40.2676 32.7784 39.8117 33.9486C39.33 35.1833 37.4549 37.4975 36.1463 38.4868C34.9613 39.3788 34.1214 39.7212 33.0148 39.7732C32.1033 39.8184 31.7257 39.7408 30.5601 39.2625C21.4193 35.5194 14.1208 29.9341 8.32635 22.2603C5.29897 18.2523 2.99416 14.0955 1.41855 9.78358C0.500604 7.26885 0.455057 6.1763 1.2102 4.88983C1.5358 4.34683 2.92256 3.00215 3.93169 2.25228C5.61148 1.01103 6.38619 0.552022 7.00473 0.422756C7.42789 0.332238 8.16357 0.403335 8.63238 0.571424Z" fill="white"/>
</svg>
