<svg xmlns="http://www.w3.org/2000/svg" width="71.777" height="85.075" viewBox="0 0 71.777 85.075"><g transform="translate(15.198 85.104) rotate(-101)"><g transform="translate(0 0)"><g transform="translate(4.604 9.212)"><rect width="69.609" height="49.321" rx="1.565" fill="#e63417"/></g><g transform="translate(8.158 12.701)"><rect width="59.989" height="42.343" fill="#fff"/></g><g transform="translate(68.15 22.464)"><g transform="translate(0 0)"><g transform="translate(0)"><path d="M2.79,19.654V14.881H6.277a3.487,3.487,0,0,0,0-6.975H2.79V3.067A3.44,3.44,0,0,0,.908,0L0,.011v22.7l.908.011A3.44,3.44,0,0,0,2.79,19.654Zm6.24-8.246a.885.885,0,1,1-.884-.884A.885.885,0,0,1,9.03,11.408Z" fill="#d5d5d5"/></g></g></g><g transform="translate(68.15 22.475)"><rect width="0.908" height="22.711" fill="#b8b9ba"/></g><g transform="translate(76.616 0.121)"><g transform="translate(0 0)"><path d="M1.628,4.509H0V0H1.628A2.025,2.025,0,0,1,3.653,2.025v.457A2.026,2.026,0,0,1,1.628,4.509Z" fill="#d84a4e"/></g></g><g transform="translate(6.143 0.15)"><rect width="64.296" height="1.461" fill="#feb358"/></g><g transform="translate(6.143 1.611)"><rect width="64.296" height="1.461" fill="#ec9e35"/></g><g transform="translate(6.143 3.072)"><rect width="64.296" height="1.461" fill="#cc7e22"/></g><g transform="translate(67.782 0)"><rect width="9.1" height="4.749" rx="0.195" fill="#b8b8b8"/></g><g transform="translate(68.638 0)"><rect width="0.722" height="4.749" fill="#999"/></g><g transform="translate(69.958 0)"><rect width="0.722" height="4.749" fill="#999"/></g><g transform="translate(71.278 0)"><rect width="0.722" height="4.749" fill="#999"/></g><g transform="translate(72.598 0)"><rect width="0.722" height="4.749" fill="#999"/></g><g transform="translate(0 0.15)"><g transform="translate(0 0)"><path d="M6.143,0,0,2.192,6.143,4.384Z" fill="#fcc075"/></g></g><g transform="translate(0 1.417)"><g transform="translate(0 0)"><path d="M2.591,0,0,.924l2.591.924V0Z" fill="#414141"/></g></g><g transform="translate(67.783 0)" opacity="0.33"><g transform="translate(0 0)"><path d="M0,1.611H9.1V.218A.218.218,0,0,0,8.882,0H.214A.214.214,0,0,0,0,.216Z" fill="#fff"/></g></g><g transform="translate(17.589 16.708)"><g transform="translate(36.239 10.697)"><rect width="1.528" height="22.488" fill="#767676"/></g><g transform="translate(25.28 10.697)"><rect width="1.528" height="22.488" fill="#767676"/></g><g transform="translate(14.32 10.697)"><rect width="1.528" height="22.488" fill="#767676"/></g><g transform="translate(3.361 10.697)"><rect width="1.528" height="22.488" fill="#767676"/></g><g transform="translate(32.879 0)"><g transform="translate(0 0)"><path d="M0,8.25V0H8.248V8.25ZM1.469,1.47V6.779h5.31V1.47Z" fill="#767676"/></g></g><g transform="translate(21.92 0)"><g transform="translate(0 0)"><path d="M0,8.25V0H8.248V8.25ZM1.469,1.47V6.779h5.31V1.47Z" fill="#767676"/></g></g><g transform="translate(10.959 0)"><g transform="translate(0 0)"><path d="M0,8.25V0H8.25V8.25ZM1.47,1.47V6.779h5.31V1.47Z" fill="#767676"/></g></g><g transform="translate(0 0)"><path d="M0,8.25V0H8.25V8.25ZM1.47,1.47V6.779H6.779V1.47Z" fill="#767676"/></g></g></g><g transform="translate(71.219 27.475)"><g transform="translate(0 9.871)"><g transform="translate(0 0)"><path d="M2.668,1.148V0H0V1.148a.286.286,0,0,0,.286.285h2.1A.285.285,0,0,0,2.668,1.148Z" fill="#d5d5d5"/></g><g transform="translate(0.001 0)"><rect width="2.667" height="0.237" fill="#acacac"/></g><g transform="translate(0.303 1.434)"><g transform="translate(0 0)"><path d="M2.062.427V0H0V.427a1.031,1.031,0,0,0,2.062,0ZM.655.468a.376.376,0,1,1,.377.376A.376.376,0,0,1,.655.468Z" fill="#d5d5d5"/></g></g></g><g transform="translate(0 0)"><g transform="translate(0 1.458)"><g transform="translate(0 0)"><path d="M2.668.285V1.434H0V.285A.286.286,0,0,1,.286,0h2.1A.285.285,0,0,1,2.668.285Z" fill="#d5d5d5"/></g></g><g transform="translate(0.001 2.655)"><rect width="2.667" height="0.237" fill="#acacac"/></g><g transform="translate(0.303 0)"><g transform="translate(0)"><g transform="translate(0)"><path d="M1.031,0A1.031,1.031,0,0,0,0,1.031v.427H2.062V1.031A1.031,1.031,0,0,0,1.031,0Zm0,.614A.376.376,0,1,1,.655.991.376.376,0,0,1,1.031.614Z" fill="#d5d5d5"/></g></g></g></g></g></g></svg>