<svg xmlns="http://www.w3.org/2000/svg" width="86.141" height="89.721" viewBox="0 0 86.141 89.721"><g transform="translate(0)"><rect width="6.825" height="5.93" transform="translate(48.141 0)" fill="#393f3f"/><path d="M-520.927,256.146c0,10.548-9.112,19.1-20.351,19.1s-20.352-8.552-20.352-19.1,9.112-19.1,20.352-19.1S-520.927,245.6-520.927,256.146Z" transform="translate(592.832 -234.81)" fill="#353535"/><path d="M0,0H20.212V30.038H0Z" transform="matrix(0.707, -0.707, 0.707, 0.707, 16.965, 14.292)" fill="#e63417"/><g transform="translate(50.14 0)"><rect width="30.702" height="20.211" transform="translate(0 21.71) rotate(-45.001)" fill="#e63417"/></g><path d="M-541.712,255.923v21.755a21.361,21.361,0,0,0-1.733-1.964,20.851,20.851,0,0,0-22.526-4.6V259.624a3.7,3.7,0,0,1,3.7-3.7Z" transform="translate(592.992 -235.503)" fill="#e63417"/><path d="M-516.528,259.624V288.61a3.7,3.7,0,0,1-3.7,3.7H-536.5q.084-.925.084-1.856a20.764,20.764,0,0,0-4.369-12.775V255.923h20.558A3.7,3.7,0,0,1-516.528,259.624Z" transform="translate(592.066 -235.503)" fill="#e63417"/><path d="M-544.657,241.023v19.835c0,5.024,8,4.861,8,0V241.023Z" transform="translate(592.209 -234.956)" fill="#353535"/><rect width="5.196" height="6.19" transform="translate(11.776 73.606) rotate(-45.006)" fill="#222324"/><path d="M-556.549,265.755c-3.255,1.426-15.025,7.272-17.691,8.724v15.254a4.871,4.871,0,0,0,4.87,4.871h27.063V275.343A27.369,27.369,0,0,0-556.549,265.755Z" transform="translate(593.296 -235.865)" fill="#e63417"/><path d="M-535.446,294.97h-5.642V275.709A27.37,27.37,0,0,1-535.446,294.97Z" transform="translate(592.077 -236.231)" fill="#e63417"/><g transform="translate(0 72.618)"><path d="M-580.058,313.288l-12.493,12.493a4.156,4.156,0,0,1-.195-6.155l9.514-9.513Z" transform="translate(594.023 -310.113)" fill="#272727"/><path d="M-576.827,316.584l-9.513,9.513a4.235,4.235,0,0,1-6.155-.195L-580,313.409Z" transform="translate(593.967 -310.234)" fill="#272727"/></g><g transform="translate(23.983 38.519)"><path d="M-566.375,280.9a13.031,13.031,0,0,1,16.151,0,1.688,1.688,0,0,0,2.088-2.654,16.4,16.4,0,0,0-20.327,0A1.688,1.688,0,0,0-566.375,280.9Z" transform="translate(569.125 -274.713)" fill="#fdfdfd"/></g><path d="M-540.745,272.674a25.625,25.625,0,0,0-36.239,0,25.624,25.624,0,0,0,0,36.238,25.623,25.623,0,0,0,36.239,0A25.624,25.624,0,0,0-540.745,272.674Zm-3.382,32.857a20.843,20.843,0,0,1-29.474,0,20.782,20.782,0,0,1-6.106-14.739,20.779,20.779,0,0,1,6.1-14.737,20.844,20.844,0,0,1,29.478,0,20.762,20.762,0,0,1,6.1,14.737A20.774,20.774,0,0,1-544.127,305.531Z" transform="translate(593.673 -235.843)" fill="#353535"/><path d="M-549.029,295.754l2.242-1.23c-.4-1.229-.246-.749-.633-1.952l-2.539.32a9.655,9.655,0,0,0-1.792-2.468l1.088-2.312-1.661-1.208-1.864,1.753a9.56,9.56,0,0,0-2.9-.946l-.48-2.511h-2.054l-.48,2.511a9.662,9.662,0,0,0-2.9.942l-1.863-1.749c-1.047.762-.638.464-1.666,1.208l1.09,2.312a9.653,9.653,0,0,0-1.791,2.468l-2.536-.323c-.383,1.174-.2.6-.637,1.955l2.24,1.23a9.751,9.751,0,0,0,0,3.049l-2.24,1.232c.378,1.167.221.686.637,1.954l2.534-.321a9.766,9.766,0,0,0,1.793,2.466l-1.09,2.315c1.031.745.619.446,1.662,1.207L-563,305.9a9.633,9.633,0,0,0,2.9.945l.48,2.509h2.054l.48-2.509a9.629,9.629,0,0,0,2.9-.945l1.864,1.751c1.047-.759.637-.461,1.661-1.207l-1.088-2.315a9.663,9.663,0,0,0,1.792-2.466l2.539.321c.4-1.229.238-.746.633-1.953l-2.242-1.234A9.414,9.414,0,0,0-549.029,295.754Zm-9.565,7.288a5.761,5.761,0,0,1-5.762-5.763,5.763,5.763,0,0,1,5.762-5.763,5.764,5.764,0,0,1,5.764,5.763A5.762,5.762,0,0,1-558.595,303.042Z" transform="translate(593.155 -236.58)" fill="#353535"/></g></svg>