<svg xmlns="http://www.w3.org/2000/svg" width="83.966" height="99.761" viewBox="0 0 83.966 99.761"><g transform="translate(1.714 12.251) rotate(-14)"><g transform="translate(0 0)"><path d="M8.851,0H0V81.624H59.939V0H51.088" transform="translate(0 5.442)" fill="#fff" stroke="#e63417" stroke-linecap="round" stroke-miterlimit="10" stroke-width="5"/><path d="M36.169,5.442a5.441,5.441,0,0,1-5.441,5.442H5.442A5.442,5.442,0,0,1,0,5.442H0A5.442,5.442,0,0,1,5.442,0H30.727a5.442,5.442,0,0,1,5.441,5.442Z" transform="translate(11.885 0)" fill="#e63417"/><line x1="19.725" transform="translate(25.871 25.623)" fill="none" stroke="#333" stroke-miterlimit="10" stroke-width="2"/><line x1="19.725" transform="translate(25.871 47.533)" fill="none" stroke="#333" stroke-miterlimit="10" stroke-width="2"/><line x1="19.725" transform="translate(25.871 68.212)" fill="none" stroke="#333" stroke-miterlimit="10" stroke-width="2"/><g transform="translate(6.873 18.854)"><g transform="translate(0 6.198)"><path d="M8.1,4.051A4.051,4.051,0,1,1,4.051,0,4.051,4.051,0,0,1,8.1,4.051Z" transform="translate(0 0)" fill="#333"/><path d="M4.226,2.113A2.113,2.113,0,1,1,2.113,0,2.113,2.113,0,0,1,4.226,2.113Z" transform="translate(1.938 1.938)" fill="#fff"/><path d="M7.967,3.984A3.984,3.984,0,1,1,3.983,0,3.983,3.983,0,0,1,7.967,3.984Z" transform="translate(0.067 0.067)" fill="none" stroke="#333" stroke-miterlimit="10" stroke-width="3.458" stroke-dasharray="3.121 3.121"/></g><g transform="translate(5.925 0)"><path d="M6.572,2.872A3.3,3.3,0,1,1,2.872.028,3.3,3.3,0,0,1,6.572,2.872Z" transform="translate(0)" fill="#333"/><path d="M3.427,1.5A1.721,1.721,0,1,1,1.5.015,1.721,1.721,0,0,1,3.427,1.5Z" transform="translate(1.579 1.579)" fill="#fff"/><path d="M6.462,2.825A3.244,3.244,0,1,1,2.824.028,3.244,3.244,0,0,1,6.462,2.825Z" transform="translate(0.055 0.055)" fill="none" stroke="#333" stroke-miterlimit="10" stroke-width="2.816" stroke-dasharray="2.541 2.541"/></g><g transform="translate(9.466 7.168)"><path d="M6.571,3.731A3.3,3.3,0,1,1,3.731.029,3.3,3.3,0,0,1,6.571,3.731Z" transform="translate(0 0)" fill="#333"/><path d="M3.427,1.946A1.721,1.721,0,1,1,1.946.015,1.721,1.721,0,0,1,3.427,1.946Z" transform="translate(1.579 1.579)" fill="#fff"/><path d="M6.462,3.669A3.245,3.245,0,1,1,3.669.028,3.245,3.245,0,0,1,6.462,3.669Z" transform="translate(0.055 0.055)" fill="none" stroke="#333" stroke-miterlimit="10" stroke-width="2.816" stroke-dasharray="2.541 2.541"/></g></g><g transform="translate(6.866 39.448)"><path d="M16.17,8.085A8.085,8.085,0,1,1,8.085,0,8.086,8.086,0,0,1,16.17,8.085Z" transform="translate(0 0)" fill="#333"/><path d="M9.318,4.659A4.659,4.659,0,1,1,4.66,0,4.658,4.658,0,0,1,9.318,4.659Z" transform="translate(3.426 3.426)" fill="#fff"/><path d="M8,4A4,4,0,1,1,4,0,4,4,0,0,1,8,4Z" transform="translate(4.086 4.085)" fill="none" stroke="#333" stroke-miterlimit="10" stroke-width="0.736"/><line y1="7.998" transform="translate(8.085 4.085)" fill="none" stroke="#333" stroke-miterlimit="10" stroke-width="0.736"/><line x2="7.998" transform="translate(4.086 8.085)" fill="none" stroke="#333" stroke-miterlimit="10" stroke-width="0.736"/><line y1="5.655" x2="5.655" transform="translate(5.257 5.257)" fill="none" stroke="#333" stroke-miterlimit="10" stroke-width="0.736"/><line x2="5.656" y2="5.655" transform="translate(5.257 5.257)" fill="none" stroke="#333" stroke-miterlimit="10" stroke-width="0.736"/></g><g transform="translate(6.288 59.278)"><path d="M5.8,3.716A2.95,2.95,0,1,1,3.715.1,2.951,2.951,0,0,1,5.8,3.716Z" transform="translate(10.307 0)" fill="#333"/><path d="M3.51,2.249A1.785,1.785,0,1,1,2.249.061,1.785,1.785,0,0,1,3.51,2.249Z" transform="translate(11.472 1.164)" fill="#fff"/><path d="M10.149,6.5A5.162,5.162,0,1,1,6.5.178,5.163,5.163,0,0,1,10.149,6.5Z" transform="translate(0 8.023)" fill="#333"/><path d="M6.144,3.937A3.125,3.125,0,1,1,3.936.108,3.125,3.125,0,0,1,6.144,3.937Z" transform="translate(2.038 10.061)" fill="#fff"/><line y1="9.006" x2="10.125" transform="translate(1.628 0.698)" fill="none" stroke="#333" stroke-miterlimit="10" stroke-width="0.74"/><line y1="11.412" x2="6.429" transform="translate(9.21 4.382)" fill="none" stroke="#333" stroke-miterlimit="10" stroke-width="0.74"/></g></g></g></svg>