<svg xmlns="http://www.w3.org/2000/svg" width="79.842" height="102.09" viewBox="0 0 79.842 102.09"><path d="M235.5,458.876v10.038c1.3.108,2.481-.173,3.808-.173,6.656,0,7.349.172,18.856,0v-9.865Z" transform="translate(-193.029 -366.848)" fill="#971803"/><path d="M239.31,458.883H235.5v10.038c1.2.077,2.563-.212,3.846-.209Z" transform="translate(-193.029 -366.854)" fill="#e63417"/><path d="M207.281,242.065V217.947a2.889,2.889,0,0,0-2.881-2.881h-1.152a2.887,2.887,0,0,0-2.593,1.637,2.887,2.887,0,0,0-2.593-1.637H196.91a2.887,2.887,0,0,0-2.593,1.637,2.887,2.887,0,0,0-2.593-1.637h-1.152a2.878,2.878,0,0,0-2.305,1.164V205.014a2.889,2.889,0,0,0-2.881-2.881h-1.152a2.889,2.889,0,0,0-2.881,2.881v23.617l-3.2-3.2a2.889,2.889,0,0,0-4.074,0l-1.2,1.2a2.89,2.89,0,0,0,0,4.074l11.366,11.366Z" transform="translate(-141.753 -159.418)" fill="#fcb160"/><path d="M188.053,336.519l-11.366-11.366a2.89,2.89,0,0,1,0-4.074l1.2-1.2c.042-.042.087-.08.132-.119a2.888,2.888,0,0,0-3.943.119l-1.2,1.2a2.89,2.89,0,0,0,0,4.074l11.366,11.366Z" transform="translate(-141.754 -253.871)" fill="#ffc987"/><g transform="translate(40.166 82.456)"><path d="M250.773,417.843a.963.963,0,0,1-.96.96H224.459a.963.963,0,0,1-.96-.96V410a.963.963,0,0,1,.96-.96h25.353a.963.963,0,0,1,.96.96Z" transform="translate(-223.499 -409.039)" fill="#e63417"/><path d="M227.31,417.843V410a.963.963,0,0,1,.96-.96h-3.811a.963.963,0,0,0-.96.96v7.844a.963.963,0,0,0,.96.96h3.811A.963.963,0,0,1,227.31,417.843Z" transform="translate(-223.499 -409.039)" fill="#e63417"/></g><g transform="translate(31.811 34.335)"><circle cx="2.113" cy="2.113" r="2.113" transform="translate(28.522 50.89)" fill="#fff"/><path d="M231.44,164.262a1.44,1.44,0,0,1-1.441-1.44v-2.881a1.441,1.441,0,1,1,2.881,0v2.881A1.44,1.44,0,0,1,231.44,164.262Z" transform="translate(-220.396 -158.5)" fill="#fcb160"/><path d="M256.188,178.063a1.441,1.441,0,0,1-1.019-2.459l2.037-2.037a1.441,1.441,0,0,1,2.037,2.037l-2.037,2.037A1.436,1.436,0,0,1,256.188,178.063Z" transform="translate(-240.391 -170.332)" fill="#fcb160"/><path d="M269.321,211.381h-2.881a1.441,1.441,0,1,1,0-2.881h2.881a1.441,1.441,0,0,1,0,2.881Z" transform="translate(-248.674 -198.897)" fill="#fcb160"/><path d="M184.32,211.381h-2.881a1.441,1.441,0,1,1,0-2.881h2.881a1.441,1.441,0,1,1,0,2.881Z" transform="translate(-179.999 -198.897)" fill="#fcb160"/><path d="M198.121,178.062a1.437,1.437,0,0,1-1.019-.422l-2.037-2.037a1.441,1.441,0,0,1,2.037-2.037l2.037,2.037a1.441,1.441,0,0,1-1.019,2.459Z" transform="translate(-191.831 -170.332)" fill="#fcb160"/></g><path d="M17.882,0A17.882,17.882,0,1,1,0,17.882,17.882,17.882,0,0,1,17.882,0Z" transform="translate(44.079)" fill="#e63417"/><path d="M389.791,54.159h-4.514V52.174h5.474a1.441,1.441,0,0,0,0-2.881h-2.017V48.045a1.44,1.44,0,1,0-2.881,0v1.248H384.8a2.4,2.4,0,0,0-2.4,2.4v2.945a2.4,2.4,0,0,0,2.4,2.4h4.514v1.985h-5.474a1.441,1.441,0,1,0,0,2.881h2.017v1.12a1.44,1.44,0,1,0,2.881,0v-1.12h1.056a2.4,2.4,0,0,0,2.4-2.4V56.559A2.4,2.4,0,0,0,389.791,54.159Z" transform="translate(-325.334 -37.653)" fill="#fff"/><path d="M15.577,0A15.577,15.577,0,1,1,0,15.577,15.577,15.577,0,0,1,15.577,0Z" transform="translate(0 33.05)" fill="#e63417"/><path d="M75.552,387.145H71.806v-1.357h4.583a1.441,1.441,0,0,0,0-2.881H74.817V382a1.441,1.441,0,1,0-2.881,0v.9H71.2a2.28,2.28,0,0,0-2.277,2.277v2.565a2.28,2.28,0,0,0,2.277,2.277h3.746v1.357H70.366a1.441,1.441,0,1,0,0,2.881h1.571v.79a1.441,1.441,0,1,0,2.881,0v-.79h.734a2.28,2.28,0,0,0,2.277-2.277v-2.565A2.28,2.28,0,0,0,75.552,387.145Z" transform="translate(-57.799 -339.904)" fill="#fff"/></svg>