<svg xmlns="http://www.w3.org/2000/svg" width="91.366" height="63.974" viewBox="0 0 91.366 63.974"><g transform="translate(0)"><g transform="translate(13.825 25.85)"><rect width="4.041" height="10.687" fill="#2d2c2c"/><rect width="5.869" height="3.749" transform="translate(4.041 4.386)" fill="#2d2c2c"/><rect width="4.041" height="10.687" transform="translate(59.676)" fill="#2d2c2c"/><rect width="6.159" height="3.749" transform="translate(53.517 4.386)" fill="#2d2c2c"/></g><g transform="translate(0)"><rect width="8.933" height="63.974" transform="translate(4.892)" fill="#e63417"/><path d="M-275.039,303.145h8.721v8.933h-13.825Z" transform="translate(280.143 -248.103)" fill="#e63417"/><path d="M-268.3,309.849a1.17,1.17,0,0,1-2.34,0V306.02a1.17,1.17,0,0,1,2.34,0Z" transform="translate(278.936 -248.321)" fill="#e63417"/></g><g transform="translate(77.541)"><rect width="8.933" height="63.974" fill="#e63417"/><path d="M-182.6,303.145h-8.72v8.933H-177.5Z" transform="translate(191.32 -248.103)" fill="#e63417"/><path d="M-187.666,309.849a1.123,1.123,0,0,0,.365.874,1.186,1.186,0,0,0,1.975-.874V306.02a1.17,1.17,0,0,0-2.34,0Z" transform="translate(190.856 -248.321)" fill="#e63417"/></g><g transform="translate(20.697 9.383)"><g transform="translate(2.308 22.203)"><rect width="8.577" height="6.83" fill="#2d2d2d"/><rect width="8.577" height="6.83" transform="translate(36.777)" fill="#2d2d2d"/></g><path d="M-230.255,252.17c-11.438-.02-12.111.643-16.018,6.587h32.036C-218.144,252.813-218.816,252.15-230.255,252.17Z" transform="translate(255.144 -251.012)" fill="#2d2d2d"/><path d="M-227.6,251.3l-5.261,7.349h-5.535l5.257-7.349Z" transform="translate(254.143 -250.901)" fill="#7c7b7c"/><path d="M-220.644,251.3l-5.26,7.349h-2.768l5.258-7.349Z" transform="translate(252.908 -250.901)" fill="#7c7b7c"/><path d="M-216.648,252.372l-4.585,6.409H-224l4.584-6.409Z" transform="translate(252.315 -251.038)" fill="#7c7b7c"/><path d="M-231.259,250.844c-14.2,0-12.873.394-18.19,7.744l-2.375,2.54-2.351,2.516v9.4l2.35,3.368h20.564l20.564-.1,2.352-3.367v-9.4l-4.725-4.952C-218.386,251.238-217.06,250.844-231.259,250.844Zm0,1.158c11.439-.02,12.111.643,16.018,6.587h-32.035C-243.37,252.644-242.7,251.982-231.259,252Z" transform="translate(256.147 -250.844)" fill="#e63417"/><g transform="translate(0 3.731)"><path d="M-250.32,255.118h-5.55a.564.564,0,0,0-.565.564v1.976a.564.564,0,0,0,.565.565h4.075l1.958,1.152H-248S-250.254,255.118-250.32,255.118Z" transform="translate(256.434 -255.118)" fill="#c12107"/><path d="M-206.536,255.118h5.55a.564.564,0,0,1,.565.564v1.976a.565.565,0,0,1-.565.565h-4.075l-1.958,1.152h-1.839S-206.6,255.118-206.536,255.118Z" transform="translate(250.392 -255.118)" fill="#c12107"/></g><g transform="translate(5.59 22.203)"><rect width="7.443" height="1.425" fill="#2d2d2d"/><rect width="7.442" height="1.425" transform="translate(31.348)" fill="#2d2d2d"/></g><path d="M-215.007,268.225h-32.5c-5.284,0-6.451-1.249-6.663-2.026v6.233h45.831V266.2C-208.556,266.976-209.722,268.225-215.007,268.225Z" transform="translate(256.147 -252.794)" fill="#c12107"/><path d="M-219.759,277.721v-4.613a.923.923,0,0,0-.923-.923h-17.006a.922.922,0,0,0-.922.923v4.613Z" transform="translate(254.17 -253.554)" fill="#d6d8d7"/><g transform="translate(6.008 14.441)"><path d="M-243.78,269.819a2.688,2.688,0,0,1-2.886,2.434,2.689,2.689,0,0,1-2.886-2.434,2.689,2.689,0,0,1,2.886-2.433A2.688,2.688,0,0,1-243.78,269.819Z" transform="translate(249.552 -267.386)" fill="#d6d8d7"/><path d="M-206.915,269.819a2.69,2.69,0,0,1-2.888,2.434,2.689,2.689,0,0,1-2.886-2.434,2.689,2.689,0,0,1,2.886-2.433A2.69,2.69,0,0,1-206.915,269.819Z" transform="translate(244.87 -267.386)" fill="#d6d8d7"/></g></g></g></svg>