<svg xmlns="http://www.w3.org/2000/svg" width="108.25" height="49.236" viewBox="0 0 108.25 49.236"><path d="M-332.463,157.811a2.113,2.113,0,0,1,.829,2.18v1.047h-7.848a1.317,1.317,0,0,1,1-2.006l2.79-1.221Z" transform="translate(439.07 -112.24)" fill="#17161a"/><path d="M-345.4,132.969a3.382,3.382,0,0,0-1.737.756l.692,1.675a6.4,6.4,0,0,0,2.863-1.132Z" transform="translate(440.488 -107.52)" fill="#f79a3e"/><path d="M-347.138,118.215v1.778l-.886.439-.885-.439v-1.778a1.822,1.822,0,0,0,.364,3.507l-.283,6.731h1.609l-.284-6.732A1.822,1.822,0,0,0-347.138,118.215Z" transform="translate(441.049 -104.717)" fill="#555456"/><path d="M-381.824,122.621h-34.961l-2.709-12.287C-405.47,109.628-392.922,113.822-381.824,122.621Z" transform="translate(454.237 -103.205)" fill="#555456"/><path d="M-408.685,127.451c0,5.041,7.544,4.952,7.544,0v-9.514c0-5-7.544-4.983-7.544,0Z" transform="translate(452.183 -103.952)" fill="#474646"/><path d="M-441.6,113.741c1.573,5.284,4.205,8.956,9.9,8.956h7.424l-2.65-12.038A74.888,74.888,0,0,0-441.6,113.741Z" transform="translate(458.436 -103.281)" fill="#555456"/><path d="M-460.46,134.227h-1.926v2.741a4.749,4.749,0,0,0,4.748,4.748H-371l3.638-4.494v-5.975c0-4.943-5.123-6.8-19.535-11.3-18.568-15.952-60.783-24.474-73.561,1.655Zm32.816-24.912a54,54,0,0,1,32.347,8.491,61.888,61.888,0,0,1,5.323,3.8h-34.961Zm-17.9,3.331a74.566,74.566,0,0,1,14.669-3.082l2.654,12.038h-7.426C-441.339,121.6-443.973,117.928-445.545,112.645Z" transform="translate(462.386 -102.185)" fill="#e63417"/><path d="M-456.524,149.3v2.568h78.083c10.566,0,11.372-.872,12.19-7.062-5.228,3.531-8.512,4.493-12.6,4.493Z" transform="translate(461.272 -109.769)" fill="#17161a"/><path d="M-350.087,137.36c.088-1.388,1.669-5.917-9.532-6.387C-359.619,130.973-358.165,134.411-350.087,137.36Z" transform="translate(442.86 -107.141)" fill="#fff"/><path d="M-383.484,123.2h4.36c2.964,0,2.743-4.28,0-4.28h-4.36C-386.229,118.915-386.446,123.2-383.484,123.2Z" transform="translate(447.801 -104.85)" fill="#353535"/><path d="M-435.27,112.546l7.65,10.379h3.634l-8.161-11.069Q-433.7,112.163-435.27,112.546Z" transform="translate(457.234 -103.508)" fill="#7c7b7c"/><path d="M-403.456,133.27h6.18a1.149,1.149,0,0,0,0-2.3h-6.18A1.149,1.149,0,0,0-403.456,133.27Z" transform="translate(451.408 -107.141)" fill="#c12107"/><path d="M-431.823,133.27h6.179a1.149,1.149,0,0,0,0-2.3h-6.179A1.149,1.149,0,0,0-431.823,133.27Z" transform="translate(456.797 -107.141)" fill="#c12107"/><path d="M-385.9,150.042c0,.28.012.56.034.834h20.842c.023-.275.035-.554.035-.834a10.455,10.455,0,0,0-10.453-10.456A10.456,10.456,0,0,0-385.9,150.042Z" transform="translate(447.853 -108.777)" fill="#17161a"/><path d="M-450.843,150.042c0,.28.011.56.034.834h20.842c.022-.275.034-.554.034-.834a10.455,10.455,0,0,0-10.453-10.456A10.455,10.455,0,0,0-450.843,150.042Z" transform="translate(460.193 -108.777)" fill="#17161a"/><g transform="translate(63.899 32.21)"><path d="M-383.5,149.83a8.511,8.511,0,0,0,8.513,8.512,8.511,8.511,0,0,0,8.513-8.512,8.513,8.513,0,0,0-8.513-8.514A8.513,8.513,0,0,0-383.5,149.83Z" transform="translate(383.498 -141.316)" fill="#474747"/><path d="M-379.285,150.631a5.1,5.1,0,0,0,5.1,5.1,5.1,5.1,0,0,0,5.1-5.1,5.1,5.1,0,0,0-5.1-5.1A5.1,5.1,0,0,0-379.285,150.631Z" transform="translate(382.698 -142.117)" fill="#c12107"/><path d="M-376.265,151.174a2.655,2.655,0,0,0,2.625,2.683,2.654,2.654,0,0,0,2.682-2.624,2.653,2.653,0,0,0-2.623-2.684A2.654,2.654,0,0,0-376.265,151.174Z" transform="translate(382.124 -142.69)" fill="#17161a"/></g><g transform="translate(11.291 32.21)"><path d="M-448.446,149.83a8.511,8.511,0,0,0,8.513,8.512,8.512,8.512,0,0,0,8.514-8.512,8.514,8.514,0,0,0-8.514-8.514A8.513,8.513,0,0,0-448.446,149.83Z" transform="translate(448.446 -141.316)" fill="#474747"/><path d="M-444.233,150.631a5.1,5.1,0,0,0,5.1,5.1,5.1,5.1,0,0,0,5.1-5.1,5.1,5.1,0,0,0-5.1-5.1A5.1,5.1,0,0,0-444.233,150.631Z" transform="translate(447.646 -142.117)" fill="#c12107"/><path d="M-441.213,151.174a2.655,2.655,0,0,0,2.625,2.683,2.653,2.653,0,0,0,2.682-2.624,2.653,2.653,0,0,0-2.624-2.684A2.654,2.654,0,0,0-441.213,151.174Z" transform="translate(447.072 -142.69)" fill="#17161a"/></g><path d="M-460.008,135.656h3.722c2.831,0,3.058,4.416,0,4.416h-3.722Z" transform="translate(461.934 -108.03)" fill="#353535"/><path d="M-369.192,121.528s14.975-8.763,16.506-8.294a11.335,11.335,0,0,1,3.028,1.618s-2.645-.382-3.793.191l-14.736,8.14Z" transform="translate(444.679 -103.767)" fill="#e63417"/><path d="M-344.517,132.393a9.687,9.687,0,0,1-2.592-.339c-.356.26-.125.987,1.2,1.315.153.978,2.163.491,1.971.07Z" transform="translate(440.512 -107.346)" fill="#f79a3e"/><path d="M-338.957,126.681l.406-5.835a2.112,2.112,0,0,1,2.112-2.112,2.111,2.111,0,0,1,2.112,2.112v6a2.112,2.112,0,0,1-2.112,2.112l-7.106,2.961-.81-2.033Z" transform="translate(439.96 -104.815)" fill="#f79a3e"/><path d="M-332.319,138.364a61.811,61.811,0,0,1,.329,15.9l-3.413-.143c-.982-13.749-2.341-12.186-2.76-12.852Z" transform="translate(438.784 -108.545)" fill="#971803"/><path d="M-343.835,127.462h-1.9s.369-1.29-.8-1.474h-.4s-.826.723-.335.723l-.255.7-.214,1.932h3.908Z" transform="translate(440.604 -106.193)" fill="#ffb564"/><path d="M-348.553,127.528h.78a.474.474,0,1,0,0-.948h-.78A.474.474,0,1,0-348.553,127.528Z" transform="translate(440.848 -106.306)" fill="#ffb564"/><path d="M-348.553,128.323h.78a.474.474,0,1,0,0-.949h-.78A.474.474,0,1,0-348.553,128.323Z" transform="translate(440.848 -106.457)" fill="#ffb564"/><path d="M-348.553,129.118h.78a.474.474,0,1,0,0-.949h-.78A.474.474,0,1,0-348.553,129.118Z" transform="translate(440.848 -106.608)" fill="#ffb564"/><path d="M-348.553,129.913h.78a.474.474,0,1,0,0-.949h-.78A.474.474,0,1,0-348.553,129.913Z" transform="translate(440.848 -106.759)" fill="#ffb564"/><rect width="2.828" height="3.577" transform="translate(101.391 10.79) rotate(-15.649)" fill="#ffb564"/><path d="M-330.82,122.445l-.237,4.084-.288,4.988h-7.5s-.987-7.5-.8-9.52c-.023-1.747.527-4.244,2.6-4.608C-337.052,117.389-330.82,115.471-330.82,122.445Z" transform="translate(439.07 -104.514)" fill="#fff"/><path d="M-332.009,134.886s.918,4.385-3.48,5.107c0,0-1.127.24-3.2,13.462h-4.484s.087-14.817,3.661-18.569Z" transform="translate(439.735 -107.884)" fill="#c12107"/><path d="M-334.6,113.46c-.036.383-3.659,3.818-6.621,1.6.479-.215.971-.581.772-1.268a11.426,11.426,0,0,1-1.438.55c-.884-1.256-1.341-3.745-.07-4.529a1.868,1.868,0,0,1,.926-.257,20.9,20.9,0,0,1,5.267.053c1.03.233,1.195,1.983,1.195,1.983C-334.517,112.208-334.62,112.852-334.6,113.46Z" transform="translate(439.655 -103.044)" fill="#ffb564"/><path d="M-342.982,113.545a.524.524,0,0,0,.523.523.523.523,0,0,0,.522-.523.523.523,0,0,0-.522-.522A.523.523,0,0,0-342.982,113.545Z" transform="translate(439.699 -103.73)" fill="#ffb564"/><path d="M-341.107,111.9h0a.492.492,0,0,1,.381-.582.492.492,0,0,1,.582.38h0Z" transform="translate(439.345 -103.404)" fill="#2a293a"/><path d="M-340.878,157.811a2.114,2.114,0,0,1,.829,2.18v1.047H-347.9a1.318,1.318,0,0,1,1-2.006l2.79-1.221Z" transform="translate(440.669 -112.24)" fill="#474747"/><path d="M-344.685,159.3a.392.392,0,0,0,.785,0V158.2a.392.392,0,0,0-.785,0Z" transform="translate(440.023 -112.24)" fill="#bfab86"/><path d="M-346.084,159.646a.392.392,0,0,0,.785,0v-1.094a.392.392,0,0,0-.785,0Z" transform="translate(440.289 -112.307)" fill="#bfab86"/><path d="M-336.234,159.125a.392.392,0,0,0,.784,0v-1.1a.392.392,0,0,0-.784,0Z" transform="translate(438.417 -112.207)" fill="#bfab86"/><path d="M-337.634,159.472a.392.392,0,0,0,.785,0v-1.094a.392.392,0,0,0-.785,0Z" transform="translate(438.683 -112.274)" fill="#bfab86"/><path d="M-332.225,106.547s.6,6.527-3.291,7.39c1.171-3.707-2.078-5.821-2.522-3.7-.178.855-.441,1.57-1.458,1.777.425-.663-.292-2.056-1-2.253-.64-.177-1.308.22-1.943.391-.908.245-.594-3.022,2.159-3.609Z" transform="translate(439.684 -102.5)" fill="#ba5720"/><path d="M-331.056,126.614l-.288,4.988h-7.5c-.228-1.737-.993-7.93-.784-9.68a1.834,1.834,0,0,0,1.238-1.7c.323-3.165,6.391-4.409,6.422,1.7C-331.967,121.922-332.048,125.175-331.056,126.614Z" transform="translate(439.068 -104.598)" fill="#c12107"/><path d="M-332.964,120.844v2.588h-4.227v-2.588a2.112,2.112,0,0,1,2.114-2.108A2.111,2.111,0,0,1-332.964,120.844Z" transform="translate(438.599 -104.816)" fill="#fff"/><path d="M-334.591,124.534v3.41a2.112,2.112,0,0,1-2.112,2.113l-9.052-.987v-2.236l7.714.2v-2.5Z" transform="translate(440.226 -105.917)" fill="#ffb564"/><path d="M-344.213,105.584l-3.484,1.8s.788,3.242,8.963,1.685C-338.734,109.069-341.727,105.89-344.213,105.584Z" transform="translate(440.595 -102.317)" fill="#555456"/><path d="M-332.618,109.747c2.844-7.982-7.767-11.118-10.778-4.93C-342.015,107.319-334.518,109.653-332.618,109.747Z" transform="translate(439.778 -101.55)" fill="#c12107"/><path d="M-336.631,110.747a1.051,1.051,0,0,0,1.013,1.085,1.05,1.05,0,0,0,1.012-1.085,1.05,1.05,0,0,0-1.012-1.085A1.051,1.051,0,0,0-336.631,110.747Z" transform="translate(438.493 -103.092)" fill="#ffb564"/></svg>