<svg xmlns="http://www.w3.org/2000/svg" width="72.37" height="91.049" viewBox="0 0 72.37 91.049"><g transform="translate(0 0)"><g transform="translate(62.969 53.431)"><path d="M-519.122-6.462h-3.358a1.161,1.161,0,0,0,0,2.322h3.358Z" transform="translate(524.17 9.561)" fill="#c6580c"/><path d="M-524.208-3.252l2.522.184,2.8.893.163-2.407-5.045-.275Z" transform="translate(524.208 9.457)" fill="#543309"/><path d="M-524.208-7.333l2.522-.184,2.8-.893L-518.724-6l-5.045.275Z" transform="translate(524.208 9.688)" fill="#543309"/><rect width="1.233" height="8.52" transform="translate(8.168 0)" fill="#543309"/><path d="M-515.743-1.258V-9.777C-520.94-9.777-520.962-1.258-515.743-1.258Z" transform="translate(523.911 9.777)" fill="#353535"/><g transform="translate(0.704 2.981)"><g transform="translate(0 1.944)"><path d="M-523.147-4.51a.307.307,0,0,1,.308.307.307.307,0,0,1-.308.308.307.307,0,0,1-.308-.308A.307.307,0,0,1-523.147-4.51Z" transform="translate(523.455 4.51)" fill="#262220"/><path d="M-522.144-4.51a.308.308,0,0,1,.308.307.308.308,0,0,1-.308.308.307.307,0,0,1-.308-.308A.307.307,0,0,1-522.144-4.51Z" transform="translate(523.39 4.51)" fill="#262220"/><path d="M-521.136-4.51a.308.308,0,0,1,.308.307.308.308,0,0,1-.308.308.308.308,0,0,1-.308-.308A.308.308,0,0,1-521.136-4.51Z" transform="translate(523.324 4.51)" fill="#262220"/><path d="M-520.134-4.51a.308.308,0,0,1,.307.307.308.308,0,0,1-.307.308.307.307,0,0,1-.308-.308A.307.307,0,0,1-520.134-4.51Z" transform="translate(523.259 4.51)" fill="#262220"/></g><path d="M-523.147-6.589a.308.308,0,0,1,.308.308.308.308,0,0,1-.308.309.308.308,0,0,1-.308-.309A.308.308,0,0,1-523.147-6.589Z" transform="translate(523.455 6.589)" fill="#262220"/><path d="M-522.144-6.589a.308.308,0,0,1,.308.308.309.309,0,0,1-.308.309.308.308,0,0,1-.308-.309A.308.308,0,0,1-522.144-6.589Z" transform="translate(523.39 6.589)" fill="#262220"/><path d="M-521.136-6.589a.308.308,0,0,1,.308.308.309.309,0,0,1-.308.309.309.309,0,0,1-.308-.309A.308.308,0,0,1-521.136-6.589Z" transform="translate(523.324 6.589)" fill="#262220"/><path d="M-520.134-6.583a.308.308,0,0,1,.307.308.308.308,0,0,1-.307.308.308.308,0,0,1-.308-.308A.307.307,0,0,1-520.134-6.583Z" transform="translate(523.259 6.589)" fill="#262220"/></g><g transform="translate(0.83 3.243)"><path d="M-522.957-6.127V-4.5a.181.181,0,1,1-.363,0V-6.127A.181.181,0,1,1-522.957-6.127Z" transform="translate(523.32 6.309)" fill="#dddcdb"/><path d="M-521.952-6.127V-4.5a.182.182,0,0,1-.365,0V-6.127A.182.182,0,0,1-521.952-6.127Z" transform="translate(523.255 6.309)" fill="#dddcdb"/><path d="M-520.948-6.127V-4.5a.182.182,0,1,1-.364,0V-6.127A.182.182,0,1,1-520.948-6.127Z" transform="translate(523.189 6.309)" fill="#dddcdb"/><path d="M-519.944-6.127V-4.5a.182.182,0,1,1-.364,0V-6.127A.182.182,0,1,1-519.944-6.127Z" transform="translate(523.124 6.309)" fill="#dddcdb"/></g></g><g transform="translate(62.969 43.66)"><path d="M-519.122-16.913h-3.358a1.161,1.161,0,0,0,0,2.322h3.358Z" transform="translate(524.17 20.012)" fill="#c6580c"/><path d="M-524.208-13.7l2.522.184,2.8.893.163-2.406-5.045-.276Z" transform="translate(524.208 19.908)" fill="#543309"/><path d="M-524.208-17.784l2.522-.184,2.8-.893.163,2.407-5.045.275Z" transform="translate(524.208 20.139)" fill="#543309"/><rect width="1.233" height="8.52" transform="translate(8.168 0)" fill="#543309"/><path d="M-515.743-11.708v-8.52C-520.94-20.228-520.962-11.708-515.743-11.708Z" transform="translate(523.911 20.228)" fill="#353535"/><g transform="translate(0.704 2.981)"><g transform="translate(0 1.943)"><path d="M-523.147-14.961a.307.307,0,0,1,.308.307.308.308,0,0,1-.308.309.308.308,0,0,1-.308-.309A.307.307,0,0,1-523.147-14.961Z" transform="translate(523.455 14.961)" fill="#262220"/><path d="M-522.144-14.961a.308.308,0,0,1,.308.307.309.309,0,0,1-.308.309.308.308,0,0,1-.308-.309A.307.307,0,0,1-522.144-14.961Z" transform="translate(523.39 14.961)" fill="#262220"/><path d="M-521.136-14.961a.308.308,0,0,1,.308.307.309.309,0,0,1-.308.309.309.309,0,0,1-.308-.309A.308.308,0,0,1-521.136-14.961Z" transform="translate(523.324 14.961)" fill="#262220"/><path d="M-520.134-14.961a.308.308,0,0,1,.307.307.309.309,0,0,1-.307.309.308.308,0,0,1-.308-.309A.307.307,0,0,1-520.134-14.961Z" transform="translate(523.259 14.961)" fill="#262220"/></g><g transform="translate(0)"><circle cx="0.307" cy="0.307" r="0.307" fill="#262220"/><path d="M-522.144-17.039a.308.308,0,0,1,.308.308.307.307,0,0,1-.308.307.306.306,0,0,1-.308-.307A.307.307,0,0,1-522.144-17.039Z" transform="translate(523.39 17.039)" fill="#262220"/><path d="M-521.136-17.039a.308.308,0,0,1,.308.308.307.307,0,0,1-.308.307.307.307,0,0,1-.308-.307A.308.308,0,0,1-521.136-17.039Z" transform="translate(523.324 17.039)" fill="#262220"/><path d="M-520.134-17.034a.308.308,0,0,1,.307.308.308.308,0,0,1-.307.308.307.307,0,0,1-.308-.308A.307.307,0,0,1-520.134-17.034Z" transform="translate(523.259 17.039)" fill="#262220"/></g></g><g transform="translate(0.83 3.243)"><path d="M-522.957-16.578v1.624a.181.181,0,1,1-.363,0v-1.624A.181.181,0,1,1-522.957-16.578Z" transform="translate(523.32 16.759)" fill="#dddcdb"/><path d="M-521.952-16.578v1.624a.182.182,0,0,1-.365,0v-1.624A.182.182,0,0,1-521.952-16.578Z" transform="translate(523.255 16.759)" fill="#dddcdb"/><path d="M-520.948-16.578v1.624a.182.182,0,0,1-.364,0v-1.624A.182.182,0,0,1-520.948-16.578Z" transform="translate(523.189 16.759)" fill="#dddcdb"/><path d="M-519.944-16.578v1.624a.182.182,0,0,1-.364,0v-1.624A.182.182,0,0,1-519.944-16.578Z" transform="translate(523.124 16.759)" fill="#dddcdb"/></g></g><rect width="21.318" height="8.52" transform="translate(42.405 53.431)" fill="#e63417"/><rect width="21.318" height="8.52" transform="translate(42.405 43.66)" fill="#e63417"/><path d="M-535.762-14.606a1.366,1.366,0,0,1-1.366,1.366h0a1.367,1.367,0,0,1-1.366-1.366V-16.2a1.366,1.366,0,0,1,1.366-1.366h0a1.366,1.366,0,0,1,1.366,1.366Z" transform="translate(588.106 63.715)" fill="#c12107"/><path d="M-535.762-4.574a1.366,1.366,0,0,1-1.366,1.365h0a1.366,1.366,0,0,1-1.366-1.365V-6.167a1.366,1.366,0,0,1,1.366-1.366h0a1.366,1.366,0,0,1,1.366,1.366Z" transform="translate(588.106 63.062)" fill="#c12107"/><g transform="translate(3.452 0)"><path d="M-565.556-66.925V24.124c-5.815,0-11.629-.611-15.515-1.835a5.557,5.557,0,0,1-3.818-4.469L-587.551.251a4.583,4.583,0,0,1,1.052-3.67l.228-28.226-1.594-5.463V-51.331a15.588,15.588,0,0,1,3.286-9.576,15.593,15.593,0,0,1,12.308-6.018Z" transform="translate(587.865 66.925)" fill="#e63417"/><g transform="translate(22.309)"><path d="M-564-66.925V24.124c5.815,0,11.629-.611,15.515-1.835a5.554,5.554,0,0,0,3.817-4.469L-542.009.251a4.586,4.586,0,0,0-1.052-3.67l-.228-28.226,1.594-5.463V-51.331a15.6,15.6,0,0,0-3.286-9.576,15.593,15.593,0,0,0-12.309-6.018Z" transform="translate(564.004 66.925)" fill="#c12107"/></g></g><g transform="translate(0 28.25)"><path d="M-580.659-34.471a2.155,2.155,0,0,1-.507,2.939l-6.985,3.563a2.155,2.155,0,0,1-2.677-1.315l-.395-.774A2.153,2.153,0,0,1-590.716-33l6.985-3.563a2.155,2.155,0,0,1,2.677,1.315Z" transform="translate(591.557 36.709)" fill="#971803"/><path d="M-548.13-34.471a2.155,2.155,0,0,0,.506,2.939l6.986,3.563a2.155,2.155,0,0,0,2.677-1.315l.395-.774A2.153,2.153,0,0,0-538.074-33l-6.985-3.563a2.155,2.155,0,0,0-2.677,1.315Z" transform="translate(588.754 36.709)" fill="#971803"/></g><g transform="translate(10.283 23.128)"><path d="M-580.559-41.277l3.186,16.666a50.572,50.572,0,0,1,12.292-1.611V-42.188S-576.007-42.188-580.559-41.277Z" transform="translate(580.559 42.188)" fill="#474646"/><path d="M-548.526-41.277l-3.186,16.666A50.579,50.579,0,0,0-564-26.223V-42.188S-553.078-42.188-548.526-41.277Z" transform="translate(579.482 42.188)" fill="#353535"/></g><g transform="translate(7.628 4.483)"><path d="M-575.627-61.656c1.026,1.05.217,3.5-1.806,5.48s-4.5,2.727-5.521,1.677-.217-3.5,1.806-5.481S-576.652-62.706-575.627-61.656Z" transform="translate(583.399 62.131)" fill="#fff"/><path d="M-552.953-61.656c-1.026,1.05-.217,3.5,1.806,5.48s4.5,2.727,5.521,1.677.217-3.5-1.806-5.481S-551.927-62.706-552.953-61.656Z" transform="translate(581.447 62.131)" fill="#fff"/></g><g transform="translate(7.052 30.615)"><path d="M-584.014-34.18l1.121,33.688s3.157-1.593,2.987-9.1V-21.226l-2.9-12.954Z" transform="translate(584.014 34.18)" fill="#474646"/><path d="M-544.28-34.18-545.4-.492s-3.157-1.593-2.987-9.1V-21.226l2.9-12.954Z" transform="translate(581.698 34.18)" fill="#353535"/></g><g transform="translate(12.11 59.978)"><path d="M-576.79-2.774-578.6,8.248h13.651V-2.774Z" transform="translate(578.605 2.774)" fill="#474646"/><path d="M-552.168-2.774l1.815,11.022H-564V-2.774Z" transform="translate(577.655 2.774)" fill="#353535"/></g><g transform="translate(53.084 22.015)"><rect width="14.505" height="18.097" fill="#353535"/><rect width="14.505" height="2.591" fill="#445164"/><rect width="14.505" height="2.59" transform="translate(0 15.506)" fill="#445164"/><rect width="2.59" height="16.783" transform="translate(11.915)" fill="#445164"/><rect width="2.59" height="16.783" fill="#445164"/></g><g transform="translate(56.895 25.988)"><g transform="translate(0 0.71)"><path d="M-529.084-33.329h-1.346l-.275-5.04h1.9Z" transform="translate(530.704 38.37)" fill="#445164"/><rect width="0.857" height="5.133" transform="translate(0.519 4.308)" fill="#445164"/></g><g transform="translate(2.832)"><path d="M-526.518-39.129a1.809,1.809,0,0,0,.869,3.485v-1.311l-.869-.431Z" transform="translate(527.675 39.129)" fill="#445164"/><path d="M-524.64-39.129a1.809,1.809,0,0,1-.868,3.485v-1.311l.868-.431Z" transform="translate(527.534 39.129)" fill="#445164"/><path d="M-524.774-28.855h-1.578l.278-6.6h1.021Z" transform="translate(527.589 38.89)" fill="#445164"/></g></g></g></svg>