<svg xmlns="http://www.w3.org/2000/svg" width="74.508" height="74.868" viewBox="0 0 74.508 74.868"><path d="M93.6,163.451V119.5a4.989,4.989,0,0,0-4.94-5.036H31.408a4.989,4.989,0,0,0-4.94,5.036v43.926Z" transform="translate(-22.778 -97.722)" fill="#971803"/><path d="M45.07,447.076H1.961a.731.731,0,0,0-.731.731v1.648a7.114,7.114,0,0,0,7.114,7.114h60.28a7.114,7.114,0,0,0,7.114-7.114v-1.648a.731.731,0,0,0-.731-.731Z" transform="translate(-1.23 -381.702)" fill="#454545"/><path d="M4,479.538a7.116,7.116,0,0,0,6.709,4.747H70.989a7.116,7.116,0,0,0,6.709-4.747H4Z" transform="translate(-3.595 -409.417)" fill="#313131"/><rect width="56.442" height="37.662" transform="translate(9.302 22.272)" fill="#fff"/><circle cx="10.805" cy="10.805" r="10.805" transform="translate(15.458 0.306)" fill="#deaf73"/><path d="M152.632,303.367l-1.6-.375H125.511l-1.6.375a9.019,9.019,0,0,0-6.965,8.782v6.472H159.6v-6.473A9.019,9.019,0,0,0,152.632,303.367Z" transform="translate(-100.024 -258.687)" fill="#e63417"/><path d="M188.29,245.175a14.312,14.312,0,0,0,12.76-7.826l-3.375-.79a4.941,4.941,0,0,1-3.816-4.811v-5.642H182.72v5.642a4.941,4.941,0,0,1-3.816,4.811l-3.375.79A14.313,14.313,0,0,0,188.29,245.175Z" transform="translate(-150.043 -193.043)" fill="#fad7a5"/><rect width="2.638" height="4.664" transform="translate(23.319 14.903)" fill="#cd905a"/><path d="M148.444,114.58H151v10.934h-2.553a2.2,2.2,0,0,1-2.2-2.2v-6.537A2.2,2.2,0,0,1,148.444,114.58Z" transform="translate(-125.04 -97.825)" fill="#e63417"/><rect width="2.189" height="10.935" transform="translate(24.073 16.755)" fill="#474756"/><path d="M235.684,231.747v-5.642H224.546v5.642a5.013,5.013,0,0,1-.027.508,12,12,0,0,0,5.366,1.26h0a12,12,0,0,0,5.808-1.49C235.688,231.932,235.684,231.84,235.684,231.747Z" transform="translate(-191.868 -193.043)" fill="#f0c891"/><path d="M346.238,125.515h-2.554V114.58h2.554a2.2,2.2,0,0,1,2.2,2.2v6.537A2.2,2.2,0,0,1,346.238,125.515Z" transform="translate(-293.608 -97.825)" fill="#e63417"/><rect width="2.276" height="10.935" transform="translate(49.83 16.755)" fill="#474756"/><path d="M190.805,59.816h0a12.059,12.059,0,0,1-12.059-12.059V37.9a12.059,12.059,0,0,1,12.059-12.059h0A12.059,12.059,0,0,1,202.864,37.9v9.859A12.059,12.059,0,0,1,190.805,59.816Z" transform="translate(-152.789 -22.061)" fill="#ffe1b3"/><path d="M236.261,192.236a5.572,5.572,0,0,1-3.953-1.635,1.1,1.1,0,0,1,1.551-1.551,3.4,3.4,0,0,0,4.8,0,1.1,1.1,0,0,1,1.551,1.551A5.572,5.572,0,0,1,236.261,192.236Z" transform="translate(-198.245 -161.132)" fill="#b28362"/><path d="M223.594,26.994a12.045,12.045,0,0,1,5.273,9.968v9.859A12.059,12.059,0,0,1,216.808,58.88h0a12.125,12.125,0,0,1-2-.169A12,12,0,0,0,221.59,60.8h0a12.059,12.059,0,0,0,12.059-12.059V38.884A12.06,12.06,0,0,0,223.594,26.994Z" transform="translate(-183.573 -23.047)" fill="#fad7a5"/><path d="M162.859,52.559a14.181,14.181,0,0,0-2.072,9.069,14.539,14.539,0,0,0,3.405-1.307,16.245,16.245,0,0,0,3.475-2.579h0Z" transform="translate(-137.384 -44.874)" fill="#cd905a"/><path d="M203.357,14.51A21.723,21.723,0,0,0,197.852,4.4,14.745,14.745,0,0,0,188.574,0a15.157,15.157,0,0,0-9.723,3.564,16.152,16.152,0,0,0-3.4,4.117c4.193,6,10.485,9.815,17.519,9.815,1.732,0,5.352-.528,7.081-1.663Z" transform="translate(-149.975 0)" fill="#d59f63"/><path d="M256.462,4.4a14.746,14.746,0,0,0-9.278-4.4A13.09,13.09,0,0,0,244.1.332,15.527,15.527,0,0,1,251.132,4.4a21.722,21.722,0,0,1,5.506,10.109l-3.307,1.328a12.752,12.752,0,0,1-4.613,1.448,19.271,19.271,0,0,0,2.86.215c1.732,0,5.352-.528,7.081-1.663l3.307-1.328A21.724,21.724,0,0,0,256.462,4.4Z" transform="translate(-208.584 -0.002)" fill="#cd905a"/><path d="M275.623,183.59a.574.574,0,0,0-.574.574v1.161c0,.008,0,.017,0,.025A2.95,2.95,0,0,1,272.1,188.3h-9.048a1.18,1.18,0,0,0-1.19,1.076,1.153,1.153,0,0,0,1.151,1.23H272.1a5.259,5.259,0,0,0,5.253-5.253h0v-1.186a.574.574,0,0,0-.574-.574h-1.157Z" transform="translate(-223.748 -156.744)" fill="#e63417"/><g transform="translate(31.898 19.207)"><circle cx="1.337" cy="1.337" r="1.337" fill="#53515e"/><circle cx="1.337" cy="1.337" r="1.337" transform="translate(9.09)" fill="#53515e"/></g><g transform="translate(16.921 49.039)"><path d="M119.741,335.366H118.1a9,9,0,0,0-1.16,4.423v6.472h8.1v-5.6A5.3,5.3,0,0,0,119.741,335.366Z" transform="translate(-116.945 -335.366)" fill="#e63417"/><path d="M358.574,335.366a5.3,5.3,0,0,0-5.3,5.3v5.6h8.1v-6.473a9,9,0,0,0-1.16-4.423Z" transform="translate(-318.717 -335.366)" fill="#e63417"/></g></svg>