<svg xmlns="http://www.w3.org/2000/svg" width="51.701" height="96.885" viewBox="0 0 51.701 96.885"><g transform="translate(0 0)"><g transform="translate(6.989 85.836)"><g transform="translate(11.087)"><path d="M-561.292,168.283v-3.947a1.365,1.365,0,0,1,2.73,0v3.947Z" transform="translate(564.934 -162.349)" fill="#c6580c"/><path d="M-557.565,162.322l.216,2.964,1.05,3.29-2.829.191-.324-5.929Z" transform="translate(564.858 -162.322)" fill="#543309"/><path d="M-562.258,162.322l-.215,2.964-1.05,3.29,2.829.191.323-5.929Z" transform="translate(565.026 -162.322)" fill="#543309"/><rect width="10.014" height="1.45" transform="translate(0 9.6)" fill="#543309"/><path d="M-555.076,172.137H-565.09C-565.09,166.028-555.076,166-555.076,172.137Z" transform="translate(565.09 -162.537)" fill="#75440e"/><g transform="translate(3.504 0.826)"><g transform="translate(2.283)"><path d="M-559.055,163.546a.361.361,0,0,0,.361.361.36.36,0,0,0,.361-.361.361.361,0,0,0-.361-.362A.362.362,0,0,0-559.055,163.546Z" transform="translate(559.055 -163.184)" fill="#262220"/><path d="M-559.055,164.7a.361.361,0,0,0,.361.361.36.36,0,0,0,.361-.361.361.361,0,0,0-.361-.361A.362.362,0,0,0-559.055,164.7Z" transform="translate(559.055 -163.231)" fill="#262220"/><path d="M-559.055,165.851a.362.362,0,0,0,.361.361.361.361,0,0,0,.361-.361.361.361,0,0,0-.361-.362A.362.362,0,0,0-559.055,165.851Z" transform="translate(559.055 -163.279)" fill="#262220"/><path d="M-559.055,167a.362.362,0,0,0,.361.362.361.361,0,0,0,.361-.362.361.361,0,0,0-.361-.361A.362.362,0,0,0-559.055,167Z" transform="translate(559.055 -163.326)" fill="#262220"/></g><path d="M-561.436,163.546a.36.36,0,0,0,.361.361.36.36,0,0,0,.361-.361.361.361,0,0,0-.361-.362A.361.361,0,0,0-561.436,163.546Z" transform="translate(561.436 -163.184)" fill="#262220"/><path d="M-561.436,164.7a.36.36,0,0,0,.361.361.36.36,0,0,0,.361-.361.361.361,0,0,0-.361-.361A.361.361,0,0,0-561.436,164.7Z" transform="translate(561.436 -163.231)" fill="#262220"/><path d="M-561.436,165.851a.361.361,0,0,0,.361.361.361.361,0,0,0,.361-.361.361.361,0,0,0-.361-.362A.361.361,0,0,0-561.436,165.851Z" transform="translate(561.436 -163.279)" fill="#262220"/><path d="M-561.43,167a.361.361,0,0,0,.362.362.362.362,0,0,0,.361-.362.361.361,0,0,0-.361-.361A.361.361,0,0,0-561.43,167Z" transform="translate(561.436 -163.326)" fill="#262220"/></g><g transform="translate(3.811 0.975)"><path d="M-560.9,163.766h1.909a.213.213,0,1,0,0-.427H-560.9A.213.213,0,0,0-560.9,163.766Z" transform="translate(561.115 -163.339)" fill="#dddcdb"/><path d="M-560.9,164.918h1.909a.214.214,0,0,0,0-.429H-560.9A.214.214,0,0,0-560.9,164.918Z" transform="translate(561.115 -163.386)" fill="#dddcdb"/><path d="M-560.9,166.068h1.909a.214.214,0,1,0,0-.428H-560.9A.214.214,0,0,0-560.9,166.068Z" transform="translate(561.115 -163.434)" fill="#dddcdb"/><path d="M-560.9,167.219h1.909a.213.213,0,1,0,0-.427H-560.9A.213.213,0,0,0-560.9,167.219Z" transform="translate(561.115 -163.481)" fill="#dddcdb"/></g></g><path d="M-570.124,168.283v-3.947a1.365,1.365,0,0,0-2.73,0v3.947Z" transform="translate(576.497 -162.349)" fill="#c6580c"/><path d="M-573.87,162.322l-.216,2.964-1.05,3.29,2.829.191.323-5.929Z" transform="translate(576.591 -162.322)" fill="#543309"/><path d="M-569.176,162.322l.216,2.964,1.05,3.29-2.83.191-.323-5.929Z" transform="translate(576.423 -162.322)" fill="#543309"/><rect width="10.014" height="1.45" transform="translate(0 9.6)" fill="#543309"/><path d="M-576.653,172.137h10.014C-566.639,166.028-576.653,166-576.653,172.137Z" transform="translate(576.653 -162.537)" fill="#75440e"/><g transform="translate(3.504 0.826)"><path d="M-572.276,163.546a.36.36,0,0,1-.362.361.361.361,0,0,1-.361-.361.362.362,0,0,1,.361-.362A.361.361,0,0,1-572.276,163.546Z" transform="translate(572.999 -163.184)" fill="#262220"/><path d="M-572.276,164.7a.361.361,0,0,1-.362.361A.361.361,0,0,1-573,164.7a.362.362,0,0,1,.361-.361A.361.361,0,0,1-572.276,164.7Z" transform="translate(572.999 -163.231)" fill="#262220"/><path d="M-572.276,165.851a.361.361,0,0,1-.362.361.362.362,0,0,1-.361-.361.362.362,0,0,1,.361-.362A.361.361,0,0,1-572.276,165.851Z" transform="translate(572.999 -163.279)" fill="#262220"/><path d="M-572.276,167a.361.361,0,0,1-.362.362A.362.362,0,0,1-573,167a.362.362,0,0,1,.361-.361A.361.361,0,0,1-572.276,167Z" transform="translate(572.999 -163.326)" fill="#262220"/><g transform="translate(2.278)"><path d="M-569.894,163.546a.361.361,0,0,1-.361.361.361.361,0,0,1-.361-.361.362.362,0,0,1,.361-.362A.362.362,0,0,1-569.894,163.546Z" transform="translate(570.623 -163.184)" fill="#262220"/><path d="M-569.894,164.7a.361.361,0,0,1-.361.361.361.361,0,0,1-.361-.361.362.362,0,0,1,.361-.361A.362.362,0,0,1-569.894,164.7Z" transform="translate(570.623 -163.231)" fill="#262220"/><path d="M-569.894,165.851a.362.362,0,0,1-.361.361.362.362,0,0,1-.361-.361.362.362,0,0,1,.361-.362A.362.362,0,0,1-569.894,165.851Z" transform="translate(570.623 -163.279)" fill="#262220"/><path d="M-569.9,167a.361.361,0,0,1-.361.362.361.361,0,0,1-.362-.362.361.361,0,0,1,.362-.361A.361.361,0,0,1-569.9,167Z" transform="translate(570.623 -163.326)" fill="#262220"/></g></g><g transform="translate(3.867 0.975)"><path d="M-570.5,163.766h-1.909a.213.213,0,0,1,0-.427h1.909A.213.213,0,1,1-570.5,163.766Z" transform="translate(572.62 -163.339)" fill="#dddcdb"/><path d="M-570.5,164.918h-1.909a.214.214,0,0,1,0-.429h1.909A.214.214,0,0,1-570.5,164.918Z" transform="translate(572.62 -163.386)" fill="#dddcdb"/><path d="M-570.5,166.068h-1.909a.214.214,0,0,1,0-.428h1.909A.214.214,0,0,1-570.5,166.068Z" transform="translate(572.62 -163.434)" fill="#dddcdb"/><path d="M-570.5,167.219h-1.909a.213.213,0,0,1,0-.427h1.909A.213.213,0,1,1-570.5,167.219Z" transform="translate(572.62 -163.481)" fill="#dddcdb"/></g></g><path d="M-566.09,113.179l-10.273,2.236.691,17.886h19.164l.691-17.886Z" transform="translate(583.63 -74.464)" fill="#ff7208"/><path d="M-558.158,97.339a8.354,8.354,0,0,1-3.2-1.022c0,5.79-10.083,5.79-10.083,0a8.344,8.344,0,0,1-3.2,1.022c-9.712-.485-9.293,5.425-9.293,10.154l7.429,1.311-.165,5.916h20.546l-.165-5.916,7.428-1.311C-548.866,102.764-548.447,96.854-558.158,97.339Z" transform="translate(583.942 -73.77)" fill="#fff"/><g transform="translate(9.643 5.57)"><path d="M-557.753,84.2a50.7,50.7,0,0,1-1.156,6.383l-1.535,1.076h-5.206V78.612l6.166,2.249Z" transform="translate(573.546 -78.612)" fill="#313c3b"/><path d="M-573.885,84.2a50.518,50.518,0,0,0,1.156,6.383l1.534,1.076h5.206V78.612l-6.165,2.249Z" transform="translate(573.885 -78.612)" fill="#313c3b"/></g><path d="M-562.184,92.239h-7.366c-.118.827-.573,3.245-1.359,3.91.059,7.888,10.2,7.854,10.083,0C-561.611,95.484-562.065,93.066-562.184,92.239Z" transform="translate(583.406 -73.603)" fill="#f49d56"/><path d="M-565.968,79.286l-7.407,2.557,1.574,10.03s2.425,3.39,5.834,3.39,5.835-3.39,5.835-3.39l1.573-10.03Z" transform="translate(583.507 -73.07)" fill="#fcb87a"/><path d="M-557.366,118.309l-.177-12.4h-17.185l-.177,12.4L-577.44,133l1.723,30.182h7.666l1.916-24.752,1.916,24.752h7.665L-554.829,133Z" transform="translate(583.674 -74.165)" fill="#e63417"/><g transform="translate(9.577 12.281)"><path d="M-572.4,86.016c-1.334-1.143-2.312.257-.753,2.653,0,0-.119.789,1,.789Z" transform="translate(573.954 -85.611)" fill="#fcb87a"/><path d="M-558.975,86.016c1.334-1.143,2.312.257.753,2.653,0,0,.118.789-1,.789Z" transform="translate(573.347 -85.611)" fill="#fcb87a"/></g><path d="M-573.379,84.346s11.574-.021,14.015-3.031l-8.843-.908-5.172,1.482A8.47,8.47,0,0,0-573.379,84.346Z" transform="translate(583.511 -73.116)" fill="#313c3b"/><path d="M-564.67,89.623a1.577,1.577,0,0,1-2.083,0h-.381l.49.451a1.057,1.057,0,0,0,1.865,0l.489-.451Z" transform="translate(583.25 -73.495)" fill="#f49d56"/><g transform="translate(15.655 18.403)"><path d="M-564.016,92.557a1.922,1.922,0,0,1-1.708.968,1.923,1.923,0,0,1-1.708-.968Z" transform="translate(567.608 -92.019)" fill="#c41902"/><path d="M-563.847,92a1.567,1.567,0,0,1-.176.538h-3.416a1.607,1.607,0,0,1-.176-.538Z" transform="translate(567.615 -91.996)" fill="#fff"/></g><path d="M-562.705,81.407a9.055,9.055,0,0,0,4.409,3.3l.175-3.3Z" transform="translate(583.068 -73.157)" fill="#313c3b"/><path d="M-557.9,82.68A8.92,8.92,0,0,0-566,81.122v0a8.918,8.918,0,0,0-8.092,1.558C-574.055,87.393-557.522,87.507-557.9,82.68Z" transform="translate(583.536 -73.13)" fill="#313c3b"/><path d="M-566.012,72.8v8.782c-3.082,0-6.163.793-7.9,2.378C-575.765,75.849-573.076,72.8-566.012,72.8Z" transform="translate(583.553 -72.803)" fill="#e63417"/><path d="M-565.649,72.8v8.782c3.082,0,6.162.793,7.9,2.378C-555.9,75.849-558.585,72.8-565.649,72.8Z" transform="translate(583.189 -72.803)" fill="#e63417"/><path d="M-571.5,122.173a5.784,5.784,0,0,0-.144,1.277A5.749,5.749,0,0,0-565.9,129.2a5.749,5.749,0,0,0,5.749-5.749,5.788,5.788,0,0,0-.144-1.277Z" transform="translate(583.436 -74.834)" fill="#971803"/><path d="M-562.386,78.82h-6.919a1.118,1.118,0,0,1,0-2.235h6.919A1.118,1.118,0,0,1-562.386,78.82Z" transform="translate(583.386 -72.959)" fill="#d6d8d7"/><g transform="translate(13.159 13.573)"><path d="M-568.531,87.8a.844.844,0,0,1-.844.843.844.844,0,0,1-.844-.843.844.844,0,0,1,.844-.844A.844.844,0,0,1-568.531,87.8Z" transform="translate(570.218 -86.958)" fill="#313c3b"/><path d="M-568.742,87.731a.323.323,0,0,1-.321.322.321.321,0,0,1-.321-.322.321.321,0,0,1,.321-.321A.322.322,0,0,1-568.742,87.731Z" transform="translate(570.184 -86.977)" fill="#fff"/></g><g transform="translate(20.144 13.573)"><path d="M-561.246,87.8a.844.844,0,0,1-.844.843.844.844,0,0,1-.844-.843.844.844,0,0,1,.844-.844A.844.844,0,0,1-561.246,87.8Z" transform="translate(562.933 -86.958)" fill="#313c3b"/><path d="M-561.458,87.731a.321.321,0,0,1-.32.322.323.323,0,0,1-.322-.322.322.322,0,0,1,.322-.321A.32.32,0,0,1-561.458,87.731Z" transform="translate(562.899 -86.977)" fill="#fff"/></g><path d="M-576.426,109.3l-5.478-.967,1.532,15.787h3.946Z" transform="translate(583.858 -74.265)" fill="#fcb87a"/><path d="M-580.826,120.039a28.861,28.861,0,0,0,1.013,13.544h2.82s1.786-7.187.6-13.056Z" transform="translate(583.829 -74.746)" fill="#fcb87a"/><path d="M-577.169,137c.21.748.4,1.52.4,1.52h.681l.161-1.919c.151-2.078-1-2.435-1-2.435h-2.82V137.6s.483,2.755,4.448,2.515v-.838C-576.444,139.32-577.53,138.995-577.169,137Z" transform="translate(583.77 -75.328)" fill="#fcb87a"/><path d="M-555.108,109.3l5.478-.967-1.532,15.787h-3.946Z" transform="translate(582.756 -74.265)" fill="#fcb87a"/><path d="M-550.7,120.039a32.783,32.783,0,0,1-.876,14.682l-3.374.409s-1.37-8.734-.179-14.6Z" transform="translate(582.777 -74.746)" fill="#fcb87a"/><g transform="translate(8.616 23.086)"><g transform="translate(12.587)"><path d="M-561.829,109.477l2.7.565,2.655-12.7c-.221,0-.448.011-.68.022a8.571,8.571,0,0,1-2.042-.482Z" transform="translate(561.829 -96.88)" fill="#971803"/><path d="M-560.744,108.495a.654.654,0,0,0,.507.775.656.656,0,0,0,.775-.507.655.655,0,0,0-.507-.775A.654.654,0,0,0-560.744,108.495Z" transform="translate(561.785 -97.336)" fill="#971803"/></g><path d="M-569.6,109.477l-2.7.565-2.655-12.7c.221,0,.448.011.68.022a8.55,8.55,0,0,0,2.042-.482Z" transform="translate(574.956 -96.88)" fill="#971803"/><path d="M-570.511,108.495a.656.656,0,0,1-.507.775.657.657,0,0,1-.776-.507.657.657,0,0,1,.507-.775A.655.655,0,0,1-570.511,108.495Z" transform="translate(574.827 -97.336)" fill="#971803"/></g><path d="M-532.4,150.2h-18.1v7.257h2.63v-4.627h12.843v4.627h2.63Z" transform="translate(582.566 -75.987)" fill="#4b4d4c"/><g transform="translate(41.475 69.066)"><path d="M-538.482,162.628l-2.2-.641,3.615-10.979,1.426.415Z" transform="translate(540.687 -145.087)" fill="#353535"/><path d="M-533.373,145.539l-.851,2.928-1.424.372-1-1.077.851-2.929c-2.572.316-4.08,5.166-.489,6.21S-531.373,147.185-533.373,145.539Z" transform="translate(540.593 -144.833)" fill="#353535"/></g><g transform="translate(36.168 69.574)"><rect width="1.248" height="8.986" transform="translate(0.755 7.541)" fill="#445164"/><path d="M-543.864,154.186h-1.957l-.4-8.824h2.758Z" transform="translate(546.222 -145.362)" fill="#971803"/></g><rect width="21.165" height="15.42" transform="translate(30.536 81.465)" fill="#6c6d6f"/><g transform="translate(32.724 82.703)"><path d="M-547.184,160.37a1.315,1.315,0,0,1-1.315,1.315,1.315,1.315,0,0,1-1.316-1.315,1.315,1.315,0,0,1,1.316-1.315A1.315,1.315,0,0,1-547.184,160.37Z" transform="translate(549.814 -159.055)" fill="#4b4d4c"/><path d="M-547.184,171.128a1.315,1.315,0,0,1-1.315,1.315,1.315,1.315,0,0,1-1.316-1.315,1.315,1.315,0,0,1,1.316-1.315A1.315,1.315,0,0,1-547.184,171.128Z" transform="translate(549.814 -159.498)" fill="#4b4d4c"/><path d="M-532.419,160.37a1.314,1.314,0,0,1-1.314,1.315,1.314,1.314,0,0,1-1.315-1.315,1.314,1.314,0,0,1,1.315-1.315A1.314,1.314,0,0,1-532.419,160.37Z" transform="translate(549.206 -159.055)" fill="#4b4d4c"/><path d="M-532.419,171.128a1.314,1.314,0,0,1-1.314,1.315,1.314,1.314,0,0,1-1.315-1.315,1.314,1.314,0,0,1,1.315-1.315A1.314,1.314,0,0,1-532.419,171.128Z" transform="translate(549.206 -159.498)" fill="#4b4d4c"/></g><g transform="translate(18.944 58.987)"><rect width="10.42" height="1.557" transform="matrix(0.997, -0.073, 0.073, 0.997, 4.648, 3.047)" fill="#353535"/><path d="M-558.01,138.078c-.27-3.729-5.327-3.267-6.175-.818l3.043-.221.844,1.205-.661,1.316-3.043.221C-562.81,142.08-557.74,141.808-558.01,138.078Z" transform="translate(564.185 -134.364)" fill="#353535"/><path d="M-546.841,138.534l-.844-1.206.662-1.314,3.042-.222c-1.192-2.3-6.262-2.028-5.992,1.7s5.327,3.267,6.175.818Z" transform="translate(563.601 -134.321)" fill="#353535"/></g><g transform="translate(26.478 57.102)"><path d="M-554.248,132.355v2.671c-2.294-.6-2.074,1.64-2.074,2.049,0,0,1.021.793,1.021.105l.987.357,2.71.041v-5.224Z" transform="translate(556.328 -132.355)" fill="#fcb87a"/><g transform="translate(0.684 4.516)"><path d="M-554.285,138.826v-1.1a.665.665,0,1,0-1.33,0v1.1A.665.665,0,1,0-554.285,138.826Z" transform="translate(555.615 -137.065)" fill="#fcb87a"/><path d="M-553.343,138.826v-1.1a.665.665,0,1,0-1.33,0v1.1A.665.665,0,1,0-553.343,138.826Z" transform="translate(555.576 -137.065)" fill="#fcb87a"/><path d="M-552.4,138.826v-1.1a.665.665,0,1,0-1.331,0v1.1A.665.665,0,1,0-552.4,138.826Z" transform="translate(555.538 -137.065)" fill="#fcb87a"/><path d="M-551.459,138.826v-1.1a.665.665,0,1,0-1.331,0v1.1A.665.665,0,1,0-551.459,138.826Z" transform="translate(555.499 -137.065)" fill="#fcb87a"/></g></g></g></svg>