<svg xmlns="http://www.w3.org/2000/svg" width="105.871" height="71.982" viewBox="0 0 105.871 71.982"><g transform="translate(8.317 0)"><path d="M1.8,0H15.3a1.8,1.8,0,0,1,1.8,1.8V45.595a1.8,1.8,0,0,1-1.8,1.8H1.8a1.8,1.8,0,0,1-1.8-1.8V1.8A1.8,1.8,0,0,1,1.8,0Z" fill="#474747"/><path d="M1.8,0H15.3a1.8,1.8,0,0,1,1.8,1.8V45.594a1.8,1.8,0,0,1-1.8,1.8H1.8A1.8,1.8,0,0,1,0,45.6V1.8A1.8,1.8,0,0,1,1.8,0Z" transform="translate(61.666)" fill="#2d2d2d"/><rect width="61.666" height="39.31" transform="translate(8.553 4.043)" fill="#cc985d"/><g transform="translate(16.467 9.034)"><g transform="translate(24.406 0)"><rect width="7.22" height="3.662" fill="#e63417"/><rect width="7.221" height="3.662" transform="translate(10.6)" fill="#e63417"/><rect width="7.22" height="3.662" transform="translate(0 6.491)" fill="#e63417"/></g><path d="M0,0H3.61V13.982H0Z" transform="translate(35.006 12.318)" fill="#e63417"/><rect width="3.61" height="6.991" transform="translate(42.227 19.309)" fill="#e63417"/><rect width="22.638" height="3.496" transform="translate(0 22.803)" fill="#e63417"/><path d="M-225.992.459a8.324,8.324,0,0,1-8.322,8.323A8.323,8.323,0,0,1-242.635.459a8.324,8.324,0,0,1,8.321-8.323A8.324,8.324,0,0,1-225.992.459Z" transform="translate(242.635 7.864)" fill="#c12107"/><path d="M-234.9-1.322A1.192,1.192,0,0,1-236.1-.132a1.19,1.19,0,0,1-1.189-1.19A1.19,1.19,0,0,1-236.1-2.514,1.192,1.192,0,0,1-234.9-1.322Z" transform="translate(244.417 9.646)" fill="#474747"/><g transform="translate(7.654)"><path d="M-235.561-7.837v2.345h-1.332V-7.837c.22-.017.443-.027.667-.027S-235.781-7.855-235.561-7.837Z" transform="translate(236.893 7.864)" fill="#474747"/><path d="M-235.561,2.845V5.19c-.22.017-.441.027-.665.027s-.447-.009-.667-.027V2.845Z" transform="translate(236.893 11.43)" fill="#474747"/></g><g transform="translate(0 7.657)"><path d="M-229.559-1.453c0,.224-.008.447-.025.665h-2.342V-2.12h2.342C-229.567-1.9-229.559-1.679-229.559-1.453Z" transform="translate(246.201 2.12)" fill="#474747"/><path d="M-240.266-2.12V-.788h-2.342c-.017-.219-.027-.441-.027-.665s.009-.447.027-.667Z" transform="translate(242.635 2.12)" fill="#474747"/></g><rect width="1.142" height="5.199" transform="translate(7.751 3.468)" fill="#474747"/></g></g><g transform="translate(60.364 30.887)"><path d="M-184.9,14.646a.339.339,0,0,0,.039-.08l6.405,9.046c2.783,3.534,2.27,5.564,1.784,9.236l6.235,9.424-11.9,7.352L-190.2,39.616c-4.558,3.117-13.95-1.485-19.746-4.73l-4.139-1.293a1.376,1.376,0,0,1-.78-1.984c1.729-2.973,6.008-1.838,9.3-.832l4.475,1.165-5.288-7.561-8.993-11.877a2.421,2.421,0,0,1,3.76-3.05l7.48,9.764c-.933-2.494,2.665-4.8,4.484-2.315l.223.305c-.749-2.438,2.737-4.607,4.523-2.187.047-1.85,2.767-4,4.959-.994C-189.3,12.692-187.352,11.3-184.9,14.646Z" transform="translate(215.944 -8.53)" fill="#fcb160"/><g transform="translate(0.823 0.765)"><path d="M-214.544,9.357c.986-.758,2.287.228,3.4,2.363l-2.355,1.83C-215.521,11.71-215.857,10.368-214.544,9.357Z" transform="translate(215.326 -9.104)" fill="#f5802e"/></g><path d="M-214.2,25.985l2.565.957a2.246,2.246,0,0,1,1.461,2.179l-4.139-1.293a1.376,1.376,0,0,1-.78-1.984A2.239,2.239,0,0,1-214.2,25.985Z" transform="translate(216.169 -2.764)" fill="#f5802e"/></g><path d="M-260.182,43.014l.408-6.76c-2.971-15.978-1.718-23.694,6.864-34.784v17.5s2.386,2.658,5.221-6.614c.934-3.063,1.69-6.176,2.538-9.263a2.612,2.612,0,0,1,2.745-1.99,2.6,2.6,0,0,1,2.379,2.873l-1.525,13.941c2.307,5.6.605,16.169-4.8,19.449l-.435,7.714Z" transform="translate(261.227 19.881)" fill="#fcb160"/><g transform="translate(16.563 22.03)"><path d="M-248.8,5.809l3.165.535c.888-2.43.722-4.18-.6-4.414-1.754-.305-2.574.938-2.567,3.879Z" transform="translate(248.802 -1.885)" fill="#f5802e"/></g></svg>