<svg xmlns="http://www.w3.org/2000/svg" width="632.735" height="666.368" viewBox="0 0 632.735 666.368"><g transform="translate(-382.808 -1243.199)"><g transform="translate(715 1475.757) rotate(-90)"><g transform="translate(0 0)"><circle cx="18.265" cy="18.265" r="18.265" transform="matrix(0.155, -0.988, 0.988, 0.155, 0, 36.087)" fill="#353535"/></g><g transform="translate(10.897 14.537)"><g transform="translate(0)"><path d="M19.325,9.207a4.558,4.558,0,0,1-1.859,2.072A4.643,4.643,0,0,1,15.337,12a5.82,5.82,0,0,1-2.54-.242,6.952,6.952,0,0,1-2.5-1.333Q2.923,4.341,2.88,4.27v8.413H0V0H2.1l9.534,7.9a4.983,4.983,0,0,0,2.653,1.22,2.556,2.556,0,0,0,2.158-.683,2.92,2.92,0,0,0,.823-2.226,2.791,2.791,0,0,0-2.738-3.15V.155a6.513,6.513,0,0,1,1.844.312,4.839,4.839,0,0,1,2.61,2.085,6.717,6.717,0,0,1,.98,3.732A6.382,6.382,0,0,1,19.325,9.207Z" fill="#fff"/></g></g></g><g transform="translate(383.641 1243.199)"><g transform="translate(0 38.889)"><path d="M512.5,256.039H476.045l-37.237-.027-3.88-.212-1.964-.078-1.944-.311-3.93-.582c-1.3-.277-2.577-.675-3.881-.987l-1.957-.483c-.655-.155-1.266-.459-1.9-.677L415.53,251.3c-1.242-.546-2.443-1.192-3.678-1.763L410,248.67l-1.745-1.07-3.5-2.118-3.265-2.464c-.538-.419-1.123-.776-1.626-1.234l-1.495-1.384c-.981-.934-2.051-1.772-2.978-2.747a64.345,64.345,0,0,1-5.181-6.09c-.759-1.076-1.644-2.059-2.319-3.169s-1.339-2.217-2-3.313a22.919,22.919,0,0,1-1.771-3.36l-1.63-3.354q-.622-1.735-1.233-3.432a21.63,21.63,0,0,1-1.106-3.377,51.432,51.432,0,0,1-1.492-6.651,41.948,41.948,0,0,1-.736-6.345c-.309-3.544-.216-9.275-.229-13.58V163.448l-20.609,23.515L336.47,163.448v21.534c.044,4.58-.154,8.882.315,16.256a80.329,80.329,0,0,0,1.234,10.583,92.118,92.118,0,0,0,2.517,11.142,48.7,48.7,0,0,0,1.839,5.668l2.123,5.734c.852,1.873,1.763,3.745,2.676,5.639a50.959,50.959,0,0,0,2.976,5.615q1.669,2.74,3.365,5.522c1.155,1.836,2.545,3.532,3.837,5.31a105.746,105.746,0,0,0,8.661,10.116c1.554,1.612,3.278,3.072,4.931,4.606l2.522,2.267c.849.748,1.789,1.39,2.683,2.086l5.473,4.072c1.92,1.222,3.877,2.4,5.825,3.581.98.582,1.949,1.185,2.942,1.743l3.074,1.5c2.057.98,4.094,2.008,6.18,2.907l6.389,2.354c1.071.366,2.115.809,3.206,1.1l3.267.861c2.179.547,4.34,1.152,6.517,1.6l6.563,1.019,3.256.465,3.255.186,6.444.309,37.5.027H512.5l23.515-20.609Z" transform="translate(-336.465 -163.448)" fill="#d4e9ff"/></g><g transform="translate(0.006)"><path d="M481.589,161.441V137.926L460.98,161.441l-20.609-23.515v23.515l20.609,23.515Z" transform="translate(-440.371 -137.926)" fill="#bbdaf9"/></g></g><g transform="translate(583.194 1374.679)"><g transform="translate(38.889)"><path d="M375.718,224.212H142.381L165.9,244.82l-23.515,20.609H375.718l23.515-20.609Z" transform="translate(-142.381 -224.212)" fill="#d4e9ff"/></g><g transform="translate(0)"><path d="M329.116,224.212H305.6l23.515,20.609L305.6,265.429h23.515l23.515-20.609Z" transform="translate(-305.601 -224.212)" fill="#bbdaf9"/></g></g><g transform="translate(878.935 1374.679)"><g transform="translate(32.472 4.546)"><path d="M130.907,463.053s.709-.894,1.914-2.657l4.808-7.918a106.99,106.99,0,0,0,10.855-31.119q.386-2.537.788-5.178c.12-.881.28-1.768.363-2.668q.078-1.353.157-2.731c.19-3.595.427-7.809.357-10.607V326.7l0-1.374-.072-1.694-.158-3.384c-.165-2.249-.13-4.5-.5-6.723a100.559,100.559,0,0,0-2.437-13.115c-.574-2.127-1.041-4.274-1.731-6.333q-1.115-3.067-2.214-6.086c-.385-1-.715-2.014-1.152-2.98q-.681-1.438-1.358-2.862-1.378-2.834-2.728-5.615c-1.032-1.78-2.1-3.515-3.139-5.236a51.756,51.756,0,0,0-3.259-4.978,94.185,94.185,0,0,0-7.09-8.928q-1.863-2.039-3.662-4.009c-1.207-1.3-2.558-2.415-3.8-3.587l-3.724-3.36c-1.253-1.048-2.56-1.973-3.8-2.92a69.977,69.977,0,0,0-7.268-5.038c-2.391-1.416-4.558-2.868-6.715-3.934l-5.956-2.877a42.708,42.708,0,0,0-4.925-2.036l-3.7-1.355-2.3-.826a6.722,6.722,0,0,0-.8-.258s.352.428.928,1.245c.561.8,1.364,1.946,2.325,3.32.931,1.368,1.978,2.955,3.032,4.635,1.067,1.655,2.027,3.671,2.981,5.519.94,1.88,1.812,3.735,2.575,5.448.716,1.8,1.3,3.5,1.786,4.917.96,2.845,1.48,4.667,1.48,4.667s-1.992.3-4.8.852c-1.406.285-3,.608-4.667,1.036-1.719.517-3.5,1.1-5.2,1.7a50.954,50.954,0,0,0-4.861,1.922c-1.533.734-2.9,1.437-4.041,2.046s-2.049,1.128-2.677,1.49-.984.594-.984.594a2.474,2.474,0,0,1,.475.157l1.364.517,2.206.809a18.227,18.227,0,0,1,2.941,1.207l3.563,1.71c1.3.613,2.565,1.55,4.009,2.37a34.422,34.422,0,0,1,4.353,3.022c.739.57,1.545,1.1,2.3,1.726l2.216,2.04c.741.71,1.591,1.338,2.3,2.136L93.44,284.7a53.684,53.684,0,0,1,4.262,5.35,23.322,23.322,0,0,1,1.941,2.988q.944,1.541,1.909,3.116.791,1.669,1.6,3.369l.838,1.7c.27.574.436,1.192.664,1.787q.663,1.8,1.338,3.622c.424,1.225.648,2.52,1.006,3.784a59.374,59.374,0,0,1,1.475,7.832,37.866,37.866,0,0,1,.276,4.046l.114,2.037.066,1.021,0,1.349v73.474c.067,3.471-.174,5.341-.248,7.636-.021.553-.043,1.1-.064,1.647-.046.541-.168,1.068-.242,1.6q-.242,1.577-.474,3.1a65.888,65.888,0,0,1-6.45,18.579c-1.274,2.024-2.232,3.636-2.883,4.739-.728,1.053-1.167,1.58-1.167,1.58s.395,1.6.882,4.2c.116.658.242,1.37.375,2.124.105.745.163,1.506.239,2.325.142,1.63.256,3.421.325,5.269a42.022,42.022,0,0,1-.1,5.4c-.113,1.731-.262,3.392-.418,4.84a30.171,30.171,0,0,1-.5,3.463c-.162.824-.254,1.3-.254,1.3s.5.032,1.364.085a31.114,31.114,0,0,0,3.579.046c1.477-.037,3.23-.105,5.156-.227a50.386,50.386,0,0,0,6.051-.643c2.045-.328,4.136-.713,6.13-1.122.992-.209,1.984-.4,2.888-.634l2.505-.728C128.751,463.8,130.907,463.053,130.907,463.053Z" transform="translate(-65.534 -227.195)" fill="#d4e9ff"/></g><g transform="translate(0)"><path d="M137.839,224.876a12.142,12.142,0,0,0-1.253-.154l-3.319-.187-4.695-.232c-.817-.029-1.842-.094-2.552-.091H112.07l11.757,10.3c1.515,1.318,3.031,2.636,4.451,3.873,1.46,1.278,2.76,2.473,3.838,3.5,1.048,1.021,1.921,1.871,2.534,2.465.591.61.914,1.01.914,1.01s-.4.239-1.088.753l-2.787,2.2c-1.121.911-2.391,1.976-3.685,3.116-1.333,1.181-2.755,2.44-4.178,3.7l-11.757,10.3h13.95c.738,0,1.132.061,1.693.084l2.827.149,2,.079a4.435,4.435,0,0,1,.75.1s1.2-1.1,3.215-2.75c1.007-.824,2.225-1.784,3.6-2.807,1.344-.9,2.839-1.83,4.407-2.76,1.562-.908,3.22-1.885,4.788-2.639,1.554-.71,3.066-1.358,4.395-1.9,2.659-1.085,4.565-1.758,4.565-1.758s-.856-1.684-2.336-4.283c-.742-1.3-1.646-2.831-2.68-4.489-1.045-1.614-2.273-3.2-3.547-4.876-1.278-1.658-2.629-3.336-3.957-4.9-1.352-1.437-2.677-2.785-3.849-3.944C139.542,226.42,137.839,224.876,137.839,224.876Z" transform="translate(-112.07 -224.212)" fill="#bbdaf9"/></g></g><g transform="translate(652.022 1603.766)"><g transform="translate(0 11.96)"><path d="M143.769,424.762h211.8l6.295-.014c2.4-.114,4.6-.219,6.587-.312a71.247,71.247,0,0,0,9.19-1.041l3.24-.507s-2.083-.968-5.006-2.481c-1.461-.766-3.122-1.623-4.841-2.644-1.728-1.109-3.508-2.306-5.217-3.509-1.693-1.216-3.384-2.392-4.788-3.579-1.378-1.208-2.664-2.334-3.767-3.3-2.2-1.932-3.674-3.22-3.674-3.22l3.674-3.221c1.1-.965,2.389-2.092,3.767-3.3,1.352-1.228,2.593-2.624,3.835-3.966,1.227-1.352,2.382-2.7,3.407-3.944,1.015-1.336,1.889-2.654,2.61-3.732,1.435-2.177,2.258-3.588,2.258-3.588l-1.941.284a35.642,35.642,0,0,1-5.51.625l-3.968.219-6.152.015h-211.8l-23.515,20.609Z" transform="translate(-120.254 -382.402)" fill="#d4e9ff"/></g><g transform="translate(248.702)"><path d="M121.842,421.6l1.187-.442a29.952,29.952,0,0,0,3.048-1.347c1.245-.6,2.7-1.3,4.25-2.043l2.389-1.17c.8-.418,1.573-.92,2.366-1.384a91.911,91.911,0,0,0,8.5-5.458l3.678-2.75s-2.28.11-5.548.128a84.072,84.072,0,0,1-11.762-.856c-1.035-.14-2.031-.25-3.04-.44l-2.947-.638c-1.885-.43-3.589-.861-5.016-1.246a33.98,33.98,0,0,1-3.416-1.038l-1.286-.471s.224-.425.613-1.167a33.867,33.867,0,0,0,1.449-3.2c.558-1.341,1.17-2.889,1.768-4.515.285-.8.581-1.637.881-2.482.276-.855.5-1.79.733-2.674a61.38,61.38,0,0,0,1.829-9.585c.262-2.621.337-4.271.337-4.271s-.884.66-2.206,1.65a51.256,51.256,0,0,1-5.089,3.27c-.474.279-.923.6-1.406.849l-1.438.674-2.536,1.225a12.054,12.054,0,0,1-1.815.815l-.712.251s-.536,1.554-1.528,3.985a57.641,57.641,0,0,1-4.463,8.661,62.633,62.633,0,0,1-5.988,8.3L92.38,406.95l-.919.939,1.1.823,2.974,1.909a73.593,73.593,0,0,0,9.889,5.364,78.778,78.778,0,0,0,11.047,4.16C119.619,421.059,121.842,421.6,121.842,421.6Z" transform="translate(-91.461 -374.553)" fill="#bbdaf9"/></g></g><g transform="translate(386.934 1616.869)"><g transform="translate(0)"><path d="M356.4,468.729a10.963,10.963,0,0,1,.559-1.874c.443-1.2,1.1-2.952,1.925-5.187a65.181,65.181,0,0,1,10.639-16.589,62.363,62.363,0,0,1,22.6-16.1c2.427-.788,4.785-1.934,7.38-2.427,1.277-.3,2.542-.705,3.843-.974q1.975-.295,3.969-.59c.664-.094,1.323-.241,2-.3l2.033-.081,4.081-.23H543.016L519.5,403.761l23.515-20.609H426.348q-5.472,0-10.929,0-3.394.158-6.775.318l-3.372.19c-1.118.108-2.229.306-3.34.46L395.3,385.15c-2.179.445-4.318,1.05-6.455,1.583-4.314.954-8.337,2.665-12.365,4.111a103.628,103.628,0,0,0-37.753,26.835,106.37,106.37,0,0,0-17.723,27.736c-1.49,3.7-2.505,6.682-3.243,8.69a18.623,18.623,0,0,0-.733,2.328l-.215.811s.759,2.164,1.976,5.214c.648,1.531,1.248,3.244,2.219,5.076.933,1.824,1.946,3.709,2.974,5.521a70.508,70.508,0,0,0,6.273,9.333l2.2,2.784c.524.654.85,1.018.85,1.018s.317-.372.92-1l2.467-2.537a60.531,60.531,0,0,1,7.7-6.75c1.472-1.093,2.929-2.114,4.277-3.013a43.865,43.865,0,0,1,3.922-2.255C354.911,469.412,356.4,468.729,356.4,468.729Z" transform="translate(-316.817 -383.152)" fill="#d4e9ff"/></g><g transform="translate(218.059)"><path d="M314.81,424.369h23.515L314.81,403.761l23.515-20.609H314.81L291.3,403.761Z" transform="translate(-291.295 -383.152)" fill="#bbdaf9"/></g></g><g transform="translate(382.808 1719.906)"><g transform="translate(0 38.89)"><path d="M507.219,585.846H453.1l-2.327-.008-1.8-.111-3.666-.174a36.007,36.007,0,0,1-3.7-.5c-1.233-.227-2.516-.286-3.75-.62-9.915-2.278-20.14-7-28.153-14.526A61.647,61.647,0,0,1,392.4,543.334a37.145,37.145,0,0,1-1-3.66c-.271-1.222-.724-2.394-.875-3.619q-.272-1.826-.539-3.613-.146-.891-.293-1.771-.036-.894-.072-1.778c-.347-4.038-.235-10.863-.253-16.141V476.294l-20.608,23.513-20.609-23.513v36.458c.059,5.658-.192,10.691.363,19.163q.087,1.463.175,2.945.215,1.474.431,2.968.461,2.981.933,6.034c.308,2.036.945,4.03,1.428,6.077.567,2.023.969,4.119,1.72,6.126a102.968,102.968,0,0,0,28.865,44.41c13.388,12.425,30.431,20.541,47.118,24.247,2.077.515,4.195.727,6.264,1.08,2.08.273,4.129.715,6.18.8l6.081.32,2.988.129,2.4.009h54.119l23.515-20.609Z" transform="translate(-348.142 -476.294)" fill="#d4e9ff"/></g><g transform="translate(0.007)"><path d="M482.134,474.286V450.772l-20.609,23.515-20.609-23.515v23.515L461.525,497.8Z" transform="translate(-440.917 -450.772)" fill="#d4e9ff"/></g></g><g transform="translate(604.29 1868.349)"><path d="M465.508,548.189H154.058L185.445,568.8l-31.387,20.609H465.508L496.894,568.8Z" transform="translate(-154.058 -548.189)" fill="#d4e9ff"/></g><g transform="translate(565.4 1868.349)"><path d="M377.225,548.189H277.879L272.588,568.8l5.291,20.609H380.748L408.581,568.8Z" transform="translate(-317.279 -548.189)" fill="#d4e9ff"/></g><g transform="translate(458 1478.681) rotate(-90)"><g transform="translate(0 0)"><g transform="translate(0)"><circle cx="18.265" cy="18.265" r="18.265" transform="matrix(0.925, -0.38, 0.38, 0.925, 0, 13.898)" fill="#353535"/></g></g><g transform="translate(14.037 19.869)"><path d="M19.608,7.943H0V4.652H15.267a4.269,4.269,0,0,1-2.144-1.787A6.92,6.92,0,0,1,12.5,0h2.738a4.582,4.582,0,0,0,1.32,3.206,6.818,6.818,0,0,0,3.051,2.043Z" fill="#fff"/></g></g><g transform="translate(762 1713.53) rotate(-90)"><g transform="translate(0)"><circle cx="18.265" cy="18.265" r="18.265" fill="#353535"/></g><g transform="translate(8.462 11.157)"><path d="M19.608,11.661H7.179v2.554H4.526V11.661H0V8.512H4.526V0H6.554L19.608,9.15ZM7.179,3.617V8.512H13.9Z" fill="#fff"/></g></g><g transform="translate(484 1713.53) rotate(-90)"><g transform="translate(0 0)"><circle cx="18.265" cy="18.265" r="18.265" fill="#353535"/></g><g transform="translate(8.284 11.404)"><g transform="translate(0)"><path d="M19.962,12.428H17.2V4.78L11.875,3.773A4.893,4.893,0,0,1,13.72,7.945a5.652,5.652,0,0,1-2.328,4.369,6.772,6.772,0,0,1-5.263,1.335,6.9,6.9,0,0,1-4.5-2.3A6.723,6.723,0,0,1,0,6.753,6.832,6.832,0,0,1,1.8,2.014,7.034,7.034,0,0,1,3.305.738,5.263,5.263,0,0,1,5.263,0V3.092A3.849,3.849,0,0,0,3.631,4.526a4.156,4.156,0,0,0-.6,2.2A3.723,3.723,0,0,0,4.213,9.463a3.847,3.847,0,0,0,2.767,1.106A4.022,4.022,0,0,0,9.888,9.42a3.453,3.453,0,0,0,1.135-2.836,3.363,3.363,0,0,0-.6-1.888A7.27,7.27,0,0,0,8.8,3.121q.171-.51.468-1.4a9.87,9.87,0,0,0,.469-1.4q8.329,1.534,10.229,1.915Z" fill="#fff"/></g></g></g><g transform="translate(628 1867.692) rotate(-90)"><g transform="translate(0 0)"><g transform="translate(0)"><circle cx="18.265" cy="18.265" r="18.265" transform="translate(0 15.066) rotate(-24.358)" fill="#353535"/></g></g><g transform="translate(14.019 17.125)"><g transform="translate(0 0)"><path d="M20.064,9.037a5.813,5.813,0,0,1-.823,1.789,5.354,5.354,0,0,1-1.7,1.716,8.207,8.207,0,0,1-2.667,1.219v-2.95a3.59,3.59,0,0,0,2.609-3.633,3.179,3.179,0,0,0-1.062-2.27,5.813,5.813,0,0,0-2.286-1.3,10.492,10.492,0,0,0-2.595-.44A3.9,3.9,0,0,1,13,4.824a5.41,5.41,0,0,1,.654,2.95,6.1,6.1,0,0,1-2.113,4.71,6.6,6.6,0,0,1-5.181,1.577A7.359,7.359,0,0,1,4,13.45,7.823,7.823,0,0,1,1.89,12.032,6.229,6.229,0,0,1,.4,9.648,8.189,8.189,0,0,1,.031,6.327,6.148,6.148,0,0,1,1.548,2.781,7.4,7.4,0,0,1,4.756.681,16.582,16.582,0,0,1,11.084.058a13.916,13.916,0,0,1,5.943,1.588,6.075,6.075,0,0,1,3.279,5.618A5.894,5.894,0,0,1,20.064,9.037ZM9.992,4.369A4.619,4.619,0,0,0,6.926,3.262,4.788,4.788,0,0,0,3.819,4.369,3.668,3.668,0,0,0,2.627,7.095,3.491,3.491,0,0,0,3.848,9.8,4.44,4.44,0,0,0,6.926,10.91,4.429,4.429,0,0,0,10.019,9.8a3.331,3.331,0,0,0,1.205-2.709A3.607,3.607,0,0,0,9.992,4.369Z" fill="#fff"/></g></g></g><text transform="translate(482 1497)" fill="#272727" font-size="13" font-family="Montserrat-Bold, Montserrat" font-weight="700" letter-spacing="-0.01em"><tspan x="-55.432" y="0">Tiếp nhận thông</tspan><tspan x="-50.83" y="17">tin khách hàng</tspan></text><text transform="translate(736 1497)" fill="#272727" font-size="13" font-family="Montserrat-Bold, Montserrat" font-weight="700" letter-spacing="-0.01em"><tspan x="-36.4" y="0">Tư vấn gói </tspan><tspan x="-54.438" y="17">dịch vụ phù hợp</tspan></text><text transform="translate(780 1737)" fill="#272727" font-size="13" font-family="Montserrat-Bold, Montserrat" font-weight="700" letter-spacing="-0.01em"><tspan x="-51.103" y="0">Nhân viên thực</tspan><tspan x="-46.832" y="17">hiện liệu trình</tspan></text><text transform="translate(502 1737)" fill="#272727" font-size="13" font-family="Montserrat-Bold, Montserrat" font-weight="700" letter-spacing="-0.01em"><tspan x="-55.607" y="0">Chăm sóc khách</tspan><tspan x="-45.402" y="17">hàng sau bán</tspan></text><text transform="translate(703 1884)" fill="#272727" font-size="13" font-family="Montserrat-Bold, Montserrat" font-weight="700" letter-spacing="-0.01em"><tspan x="-73.983" y="0">Nhắc nhở khách hàng</tspan><tspan x="-82.179" y="17">đến lịch sử dụng dịch vụ</tspan></text><g transform="translate(462.824 1573.158)"><path d="M96.3,165.426V119.7a5.19,5.19,0,0,0-5.139-5.239H31.607a5.19,5.19,0,0,0-5.139,5.239v45.7Z" transform="translate(-22.629 -97.047)" fill="#8232b7"/><path d="M46.837,447.076H1.991a.761.761,0,0,0-.761.761v1.714a7.4,7.4,0,0,0,7.4,7.4h62.71a7.4,7.4,0,0,0,7.4-7.4v-1.714a.761.761,0,0,0-.761-.761Z" transform="translate(-1.23 -379.066)" fill="#454545"/><path d="M4,479.538a7.4,7.4,0,0,0,6.98,4.938H73.689a7.4,7.4,0,0,0,6.98-4.938H4Z" transform="translate(-3.579 -406.59)" fill="#313131"/><rect width="58.717" height="39.18" transform="translate(9.677 23.17)" fill="#fff"/><circle cx="11.241" cy="11.241" r="11.241" transform="translate(16.081 0.318)" fill="#f9b44d"/><path d="M154.071,303.382l-1.667-.39H125.856l-1.667.39a9.383,9.383,0,0,0-7.245,9.136v6.733h44.372v-6.733A9.383,9.383,0,0,0,154.071,303.382Z" transform="translate(-99.342 -256.901)" fill="#e6559e"/><path d="M188.8,245.944a14.889,14.889,0,0,0,13.274-8.142l-3.511-.821a5.141,5.141,0,0,1-3.969-5.005v-5.869H183.01v5.869a5.14,5.14,0,0,1-3.969,5.005l-3.511.821A14.89,14.89,0,0,0,188.8,245.944Z" transform="translate(-149.015 -191.711)" fill="#fad7a5"/><rect width="2.744" height="4.852" transform="translate(24.259 15.504)" fill="#cd905a"/><path d="M148.533,114.58h2.656v11.375h-2.656a2.288,2.288,0,0,1-2.288-2.288v-6.8A2.288,2.288,0,0,1,148.533,114.58Z" transform="translate(-124.185 -97.15)" fill="#a74ae5"/><rect width="2.278" height="11.376" transform="translate(25.044 17.43)" fill="#474756"/><path d="M236.134,231.974v-5.869H224.547v5.869a5.215,5.215,0,0,1-.028.529,12.488,12.488,0,0,0,5.582,1.31h0a12.487,12.487,0,0,0,6.042-1.55C236.138,232.167,236.134,232.071,236.134,231.974Z" transform="translate(-190.552 -191.71)" fill="#f0c891"/><path d="M346.341,125.955h-2.657V114.58h2.657a2.288,2.288,0,0,1,2.288,2.288v6.8A2.288,2.288,0,0,1,346.341,125.955Z" transform="translate(-291.59 -97.15)" fill="#a74ae5"/><rect width="2.367" height="11.376" transform="translate(51.838 17.43)" fill="#474756"/><path d="M191.291,61.186h0a12.545,12.545,0,0,1-12.545-12.545V38.384a12.545,12.545,0,0,1,12.545-12.545h0a12.545,12.545,0,0,1,12.545,12.545V48.641A12.545,12.545,0,0,1,191.291,61.186Z" transform="translate(-151.742 -21.908)" fill="#ffe1b3"/><path d="M236.433,192.377a5.8,5.8,0,0,1-4.112-1.7,1.141,1.141,0,0,1,1.614-1.613,3.537,3.537,0,0,0,5,0,1.141,1.141,0,1,1,1.614,1.613A5.8,5.8,0,0,1,236.433,192.377Z" transform="translate(-196.884 -160.02)" fill="#b28362"/><path d="M223.949,26.994a12.531,12.531,0,0,1,5.485,10.37V47.62a12.545,12.545,0,0,1-12.545,12.545h0a12.613,12.613,0,0,1-2.085-.176,12.485,12.485,0,0,0,7.06,2.175h0A12.545,12.545,0,0,0,234.409,49.62V39.363A12.546,12.546,0,0,0,223.949,26.994Z" transform="translate(-182.314 -22.888)" fill="#fad7a5"/><path d="M162.946,52.559a14.753,14.753,0,0,0-2.155,9.435,15.125,15.125,0,0,0,3.543-1.36,16.9,16.9,0,0,0,3.615-2.683h0Z" transform="translate(-136.444 -44.564)" fill="#f9b44d"/><path d="M204.482,15.094a22.6,22.6,0,0,0-5.728-10.517A15.34,15.34,0,0,0,189.1,0a15.768,15.768,0,0,0-10.115,3.708A16.8,16.8,0,0,0,175.45,8c4.363,6.242,10.907,10.211,18.225,10.211,1.8,0,5.567-.55,7.367-1.73Z" transform="translate(-148.948 0)" fill="#f9b44d"/><path d="M256.96,4.579A15.34,15.34,0,0,0,247.308.006a13.617,13.617,0,0,0-3.21.34,16.153,16.153,0,0,1,7.318,4.234A22.6,22.6,0,0,1,257.144,15.1l-3.44,1.381a13.266,13.266,0,0,1-4.8,1.506,20.048,20.048,0,0,0,2.976.224c1.8,0,5.568-.55,7.367-1.73l3.44-1.381A22.6,22.6,0,0,0,256.96,4.579Z" transform="translate(-207.153 -0.002)" fill="#f9b44d"/><path d="M276.177,183.59a.6.6,0,0,0-.6.6V185.4c0,.009,0,.017,0,.026a3.069,3.069,0,0,1-3.066,3.066H263.1a1.227,1.227,0,0,0-1.238,1.12,1.2,1.2,0,0,0,1.2,1.28h9.454a5.471,5.471,0,0,0,5.465-5.465h0v-1.234a.6.6,0,0,0-.6-.6h-1.2Z" transform="translate(-222.212 -155.662)" fill="#a74ae5"/><g transform="translate(33.183 19.981)"><circle cx="1.391" cy="1.391" r="1.391" fill="#53515e"/><circle cx="1.391" cy="1.391" r="1.391" transform="translate(9.456)" fill="#53515e"/></g><g transform="translate(17.603 51.016)"><path d="M119.853,335.366h-1.7a9.358,9.358,0,0,0-1.207,4.6V346.7h8.421v-5.822A5.513,5.513,0,0,0,119.853,335.366Z" transform="translate(-116.945 -335.366)" fill="#e6559e"/><path d="M358.787,335.366a5.513,5.513,0,0,0-5.513,5.513V346.7H361.7v-6.734a9.358,9.358,0,0,0-1.207-4.6Z" transform="translate(-317.323 -335.366)" fill="#e6559e"/></g></g><g transform="translate(877 1520.907) rotate(-90)"><g transform="translate(0 0)"><circle cx="18.265" cy="18.265" r="18.265" transform="translate(0 35.545) rotate(-76.662)" fill="#353535"/></g><g transform="translate(11.826 15.133)"><g transform="translate(0)"><path d="M18.842,11.279a5.024,5.024,0,0,1-4.157,1.76,4.857,4.857,0,0,1-2.54-.767,4,4,0,0,1-1.4-1.333,5.175,5.175,0,0,1-1.888,2,4.5,4.5,0,0,1-2.725.766A5.476,5.476,0,0,1,1.6,11.747,7.584,7.584,0,0,1,0,6.767,8.441,8.441,0,0,1,.965,2.936,5.766,5.766,0,0,1,3.662.468,5.111,5.111,0,0,1,5.731,0H6V3.078a4.923,4.923,0,0,0-1.347.312A2.81,2.81,0,0,0,3.348,4.6a4.679,4.679,0,0,0-.5,2.085A4.076,4.076,0,0,0,3.86,9.6a2.781,2.781,0,0,0,1.574.866A3.166,3.166,0,0,0,7.349,10.3,2.331,2.331,0,0,0,8.74,9.123a5.928,5.928,0,0,0,.553-2.781V5.789h2.554v.553a5.625,5.625,0,0,0,.142,1.446,2.792,2.792,0,0,0,.539,1.051,2.659,2.659,0,0,0,2.2,1.035,2.909,2.909,0,0,0,1.318-.3,2.227,2.227,0,0,0,.937-.738,3.219,3.219,0,0,0,.526-2.016,3,3,0,0,0-.526-1.929,2.472,2.472,0,0,0-1.972-1.135V.638l.312.041a5.636,5.636,0,0,1,2.014.582,5.514,5.514,0,0,1,2.2,2.243,6.318,6.318,0,0,1,.782,3.262A6.455,6.455,0,0,1,18.842,11.279Z" fill="#fff"/></g></g></g><text transform="translate(899 1537)" fill="#272727" font-size="12" font-family="Montserrat-Bold, Montserrat" font-weight="700" letter-spacing="-0.01em"><tspan x="-38.082" y="0">Bán dịch vụ,</tspan><tspan x="-40.854" y="15">gói liệu trình,</tspan><tspan x="-30.594" y="30">sản phẩm</tspan></text><g transform="translate(443.399 1317.428)"><path d="M351.294,0H331.511a6.087,6.087,0,0,0-6.087,6.087V21.3a6.087,6.087,0,0,0,6.087,6.087h4.565V35l7.609-7.609h7.609a6.087,6.087,0,0,0,6.087-6.087V6.087A6.088,6.088,0,0,0,351.294,0Z" transform="translate(-264.78)" fill="#a74ae5"/><path d="M364.294,5.016c-6.28,14.971-18.632,21.916-26.877,24.99a6.03,6.03,0,0,0,3.984,1.522h4.565v7.609l7.609-7.609h7.609a6.087,6.087,0,0,0,6.087-6.087V10.223A6.066,6.066,0,0,0,364.294,5.016Z" transform="translate(-274.67 -4.136)" fill="#a74ae5"/><path d="M66.731,290.157l15.217-28.913H69.774l-7.609,13.7V262.766a9.13,9.13,0,0,0-9.13-9.131H43.9a4.565,4.565,0,0,1-4.565-4.565v-6.087H27.165v6.087a4.565,4.565,0,0,1-4.565,4.565h-9.13a9.13,9.13,0,0,0-9.13,9.131v27.391Z" transform="translate(0 -200.374)" fill="#ffd4b4"/><g transform="translate(10.426 66.813)"><path d="M45.086,403.983H42.042v-4.046a15.168,15.168,0,0,1-.628-17.17l1.112-1.753,2.57,1.631L43.984,384.4a12.124,12.124,0,0,0,.768,14.07,1.521,1.521,0,0,1,.333.951v4.565Z" transform="translate(-39.052 -381.014)" fill="#f5b789"/><path d="M267.974,403.983h-3.043v-4.565a1.521,1.521,0,0,1,.333-.951,12.121,12.121,0,0,0,.768-14.069l-1.112-1.753,2.57-1.631,1.112,1.753a15.168,15.168,0,0,1-.628,17.17v4.046Z" transform="translate(-225.313 -381.014)" fill="#f5b789"/></g><path d="M90.338,36.522V21.3A21.3,21.3,0,0,0,69.033,0h0a21.3,21.3,0,0,0-21.3,21.3V36.522a9.13,9.13,0,0,0,9.13,9.13H81.207A9.13,9.13,0,0,0,90.338,36.522Z" transform="translate(-35.781)" fill="#f9b44d"/><path d="M391.187,304.181h-13.7a9.13,9.13,0,0,1,9.131-9.131h13.7A9.13,9.13,0,0,1,391.187,304.181Z" transform="translate(-307.717 -243.312)" fill="#ffd4b4"/><g transform="translate(66.73 6.087)"><rect width="10.652" height="3.043" fill="#fff"/><rect width="6.087" height="3.043" transform="translate(13.696)" fill="#fff"/><rect width="19.783" height="3.043" transform="translate(0 6.087)" fill="#fff"/><rect width="10.652" height="3.043" transform="translate(0 12.174)" fill="#fff"/></g><path d="M91.119,87.877V94.43a13.7,13.7,0,0,0,27.391,0V82.256a13.622,13.622,0,0,0-1.639-6.5Z" transform="translate(-71.563 -62.473)" fill="#ffd4b4"/><rect width="21.304" height="16.739" transform="translate(22.6 62.391)" fill="#e6559e"/><path d="M69.774,311.338l-7.609,13.7V312.86a9.13,9.13,0,0,0-9.13-9.131h-4.87L33.252,323.512,19.1,303.729h-5.63a9.13,9.13,0,0,0-9.13,9.131v27.391H66.731l15.217-28.913Z" transform="translate(0 -250.468)" fill="#a74ae5"/><path d="M189.713,311.61H177.539l-7.609,13.7V313.132a9.13,9.13,0,0,0-8.128-9.073c-2.739,21.257-15.508,31.53-26.783,36.464H174.5Z" transform="translate(-107.765 -250.74)" fill="#a74ae5"/><g transform="translate(10.426 66.813)"><path d="M45.086,403.983H42.042v-4.046a15.168,15.168,0,0,1-.628-17.17l1.112-1.753,2.57,1.631L43.984,384.4a12.124,12.124,0,0,0,.768,14.07,1.521,1.521,0,0,1,.333.951v4.565Z" transform="translate(-39.052 -381.014)" fill="#8e35c9"/><path d="M267.974,403.983h-3.043v-4.565a1.521,1.521,0,0,1,.333-.951,12.121,12.121,0,0,0,.768-14.069l-1.112-1.753,2.57-1.631,1.112,1.753a15.168,15.168,0,0,1-.628,17.17v4.046Z" transform="translate(-225.313 -381.014)" fill="#8e35c9"/></g></g><g transform="translate(-251.902 176.027)"><path d="M173.237,140.37h-35.1a2.633,2.633,0,0,1-2.633-2.633V100h40.37v37.737A2.633,2.633,0,0,1,173.237,140.37Z" transform="translate(832.101 1059.077)" fill="#f9b44d"/><path d="M221.881,140.37H194.5V100h30.014v37.737A2.633,2.633,0,0,1,221.881,140.37Z" transform="translate(783.457 1059.077)" fill="#f9b44d"/><path d="M156.526,296.346A16.7,16.7,0,0,0,167.668,282.6h10.7a16.7,16.7,0,0,0,11.142,13.742,43.149,43.149,0,0,1-32.989,0Z" transform="translate(814.766 908.524)" fill="#ffd4b4"/><path d="M175.345,96.262a42.846,42.846,0,0,1-17.754,3.824,43.308,43.308,0,0,1-7.244-.607A20.922,20.922,0,0,0,158.385,89.4a13.3,13.3,0,0,1-8.845-2.684c-6.987-5.308-11.727-15.613-11.727-25.305,0-13.083,8.636-20.461,19.777-21.981,11.141,1.519,19.777,8.9,19.777,21.981,0,9.693-4.74,20-11.727,25.305a13.311,13.311,0,0,1-1.119.764A17.324,17.324,0,0,0,175.345,96.262Z" transform="translate(830.195 1109.014)" fill="#ffd4b4"/><path d="M206.733,86.893l-.064.048a7.771,7.771,0,0,1-1.057.716,8.068,8.068,0,0,1-9.927-2.124,35.624,35.624,0,0,1-7.989-24.29c.5-10.541,4.526-17.774,11.251-21.6,11.013,1.6,19.513,8.964,19.513,21.944C218.46,71.28,213.72,81.585,206.733,86.893Z" transform="translate(789.101 1108.839)" fill="#ffd4b4"/><path d="M220.66,214.816a1.316,1.316,0,0,1,1.316-1.316h2.808a1.316,1.316,0,1,1,0,2.633h-2.808A1.316,1.316,0,0,1,220.66,214.816Zm7.875,5.917a1.317,1.317,0,0,0-1.8-.471,7.924,7.924,0,0,1-7.144,0,1.316,1.316,0,0,0-1.331,2.272,10.555,10.555,0,0,0,9.806,0A1.317,1.317,0,0,0,228.535,220.733Z" transform="translate(764.405 965.498)" fill="#eabe8d"/><path d="M192.016,172.633A2.633,2.633,0,1,1,189.383,170,2.633,2.633,0,0,1,192.016,172.633ZM206.057,170a2.633,2.633,0,1,0,2.633,2.633A2.633,2.633,0,0,0,206.057,170Z" transform="translate(789.847 1001.363)" fill="#7d402d"/><path d="M206.883,171.316A1.316,1.316,0,1,1,205.566,170,1.316,1.316,0,0,1,206.883,171.316ZM222.241,170a1.316,1.316,0,1,0,1.316,1.316A1.316,1.316,0,0,0,222.241,170Z" transform="translate(775.418 1001.363)" fill="#fff5f5"/><path d="M175.87,27.185v5.792a.351.351,0,0,1-.351.351h-.052c-.933,0-4.9-5.831-6.8-7.516l-.009-.008a1.536,1.536,0,0,0-1.785-.171c-2.565,1.477-6.621,2.43-11.187,2.43s-8.623-.953-11.187-2.43a1.539,1.539,0,0,0-1.789.171l-.009.008c-1.9,1.685-5.867,7.517-6.8,7.517h-.048a.351.351,0,0,1-.351-.351V27.185a20.185,20.185,0,1,1,40.37,0Z" transform="translate(832.101 1135.753)" fill="#f9b44d"/><path d="M217.549,26.287l-.009-.008a1.536,1.536,0,0,0-1.785-.171c-2.564,1.476-6.621,2.43-11.187,2.43a25.542,25.542,0,0,1-9.779-1.735c1.858-8.819,5.744-15.244,11.812-19.227A20.188,20.188,0,0,1,224.753,27.66v5.792a.351.351,0,0,1-.351.351h-.052c-.933,0-4.9-5.831-6.8-7.516Z" transform="translate(783.219 1135.278)" fill="#f9b44d"/><path d="M136.284,351.464v3a43,43,0,0,1-61.784,0v-3a7.684,7.684,0,0,1,7.987-7.4h.087a18.069,18.069,0,0,0,12.508-4.923l10.31,5.417,10.31-5.417a18.069,18.069,0,0,0,12.508,4.923h.087A7.684,7.684,0,0,1,136.284,351.464Z" transform="translate(882.5 861.914)" fill="#a74ae5"/><path d="M201.67,341.347l-7.728,10.819a.878.878,0,0,1-1.493-.105l-3.44-6.331a.527.527,0,0,0-.925,0l-3.44,6.331a.878.878,0,0,1-1.493.105l-7.728-10.819a.351.351,0,0,1,.1-.5l2.714-1.708,9.5,4.91a1.756,1.756,0,0,0,1.611,0l9.5-4.91,2.714,1.708A.351.351,0,0,1,201.67,341.347Z" transform="translate(799.239 861.913)" fill="#fff5f5"/><path d="M171,21.5V31.957a21.526,21.526,0,0,1-21.5,21.5h-.219V50.825h.219A18.89,18.89,0,0,0,168.37,31.957V21.5a18.869,18.869,0,1,0-37.737,0v5.792H128V21.5a21.5,21.5,0,0,1,43,0Z" transform="translate(838.285 1141.525)" fill="#a74ae5"/><path d="M108.641,166.646v3.487a1.744,1.744,0,0,1-1.744,1.744h-2.616a3.487,3.487,0,0,1,0-6.975H106.9A1.744,1.744,0,0,1,108.641,166.646Zm38.6,5.231h2.616a3.487,3.487,0,0,0,0-6.975h-2.616a1.744,1.744,0,0,0-1.744,1.744v3.487A1.744,1.744,0,0,0,147.244,171.877ZM127.071,185.1c-2.423,0-4.388,1.179-4.388,2.633s1.965,2.633,4.388,2.633,4.388-1.179,4.388-2.633S129.494,185.1,127.071,185.1Z" transform="translate(860.716 1005.566)" fill="#011b2c"/><path d="M116.832,151.745v8.719a1.744,1.744,0,0,1-1.744,1.744,4.359,4.359,0,0,1-4.359-4.359V154.36A4.359,4.359,0,0,1,115.088,150,1.743,1.743,0,0,1,116.832,151.745Zm38.6,10.462a4.359,4.359,0,0,0,4.359-4.359V154.36A4.359,4.359,0,0,0,155.435,150a1.744,1.744,0,0,0-1.744,1.744v8.719A1.744,1.744,0,0,0,155.435,162.207Z" transform="translate(852.524 1017.852)" fill="#a74ae5"/><path d="M143.219,175.018c.343-1.249,2.151-2.2,4.329-2.2s3.986.952,4.329,2.2a12.362,12.362,0,0,1-8.659,0Zm-14.1-14.557v-8.719A1.744,1.744,0,0,0,127.375,150a4.363,4.363,0,0,0-.947.1,4.339,4.339,0,0,0-.8,2.512v6.975a4.339,4.339,0,0,0,.8,2.512,4.377,4.377,0,0,0,.947.1A1.744,1.744,0,0,0,129.118,160.462ZM167.722,150a4.364,4.364,0,0,1,.947.1,4.339,4.339,0,0,1,.8,2.512v6.975a4.339,4.339,0,0,1-.8,2.512,4.375,4.375,0,0,1-.947.1,1.744,1.744,0,0,1-1.744-1.744v-8.719A1.744,1.744,0,0,1,167.722,150Z" transform="translate(840.238 1017.854)" fill="#011b2c"/><path d="M0,0,61.783,1.668V16.321L0,16.416Z" transform="translate(957 1214.767)" fill="#a74ae5"/></g><g transform="translate(932.767 1453.558) rotate(-7)"><path d="M74.305,30H60.871v3.253a1.134,1.134,0,0,1-1.134,1.13H22.854a5.881,5.881,0,0,1-2.334-.594l-5.944-3.24c-.246-.134-.387-.31-.387-.484A.365.365,0,0,1,14.2,30H.755A.757.757,0,0,0,0,30.755v62a.757.757,0,0,0,.755.755h73.55a.757.757,0,0,0,.755-.755v-62A.757.757,0,0,0,74.305,30Zm0,0" transform="translate(0 -25.602)" fill="#a74ae5"/><path d="M214.692,313.135a8.566,8.566,0,1,1-8.564-8.658A8.612,8.612,0,0,1,214.692,313.135Zm0,0" transform="translate(-168.599 -259.84)" fill="#ffc502"/><g transform="translate(32.782 50.019)"><path d="M224.712,344.282a1.1,1.1,0,0,1-1.1-1.1v-.892a1.1,1.1,0,1,1,2.2,0v.892A1.1,1.1,0,0,1,224.712,344.282Zm0,0" transform="translate(-223.613 -341.191)" fill="#775436"/><path d="M274.459,344.282a1.1,1.1,0,0,1-1.1-1.1v-.892a1.1,1.1,0,1,1,2.2,0v.892A1.1,1.1,0,0,1,274.459,344.282Zm0,0" transform="translate(-266.066 -341.191)" fill="#775436"/><path d="M237.48,377.414h-5.022a1.1,1.1,0,0,1,0-2.2h5.022a1.1,1.1,0,1,1,0,2.2Zm0,0" transform="translate(-230.224 -370.227)" fill="#775436"/></g><path d="M67.845,313.135a8.566,8.566,0,1,1-8.565-8.658A8.612,8.612,0,0,1,67.845,313.135Zm0,0" transform="translate(-43.279 -259.84)" fill="#89c947"/><path d="M77.869,344.282a1.1,1.1,0,0,1-1.1-1.1v-.892a1.1,1.1,0,1,1,2.2,0v.892A1.1,1.1,0,0,1,77.869,344.282Zm0,0" transform="translate(-65.515 -291.172)" fill="#368c0e"/><path d="M127.616,344.282a1.1,1.1,0,0,1-1.1-1.1v-.892a1.1,1.1,0,1,1,2.2,0v.892A1.1,1.1,0,0,1,127.616,344.282Zm0,0" transform="translate(-107.968 -291.172)" fill="#368c0e"/><path d="M86.867,374.811a3.7,3.7,0,0,1-3.827-3.556,1.1,1.1,0,0,1,2.2,0,1.655,1.655,0,0,0,3.256,0,1.1,1.1,0,0,1,2.2,0A3.7,3.7,0,0,1,86.867,374.811Zm0,0" transform="translate(-70.866 -315.891)" fill="#368c0e"/><path d="M361.563,313.135A8.566,8.566,0,1,1,353,304.476,8.612,8.612,0,0,1,361.563,313.135Zm0,0" transform="translate(-293.939 -259.84)" fill="#fb8276"/><path d="M371.584,344.282a1.1,1.1,0,0,1-1.1-1.1v-.892a1.1,1.1,0,1,1,2.2,0v.892A1.1,1.1,0,0,1,371.584,344.282Zm0,0" transform="translate(-316.17 -291.172)" fill="#c0272d"/><path d="M421.334,344.282a1.1,1.1,0,0,1-1.1-1.1v-.892a1.1,1.1,0,1,1,2.2,0v.892A1.1,1.1,0,0,1,421.334,344.282Zm0,0" transform="translate(-358.627 -291.172)" fill="#c0272d"/><path d="M383.312,371.51a1.1,1.1,0,0,1-1.1-1.1,1.655,1.655,0,0,0-3.256,0,1.1,1.1,0,1,1-2.2,0,3.837,3.837,0,0,1,7.654,0A1.1,1.1,0,0,1,383.312,371.51Zm0,0" transform="translate(-321.525 -313.074)" fill="#c0272d"/><path d="M56.293,108.708a1.4,1.4,0,0,1-1.992,0L52.9,107.3a.953.953,0,1,1,1.353-1.341L55.3,107l4.033-4.064a.451.451,0,0,0-.31-.125H51.168a.454.454,0,0,0-.453.453v7.889a.454.454,0,0,0,.453.453h7.853a.454.454,0,0,0,.453-.453V105.5Zm0,0" transform="translate(-43.28 -87.743)" fill="#fcdb67"/><path d="M65.572,106.078h0a1.535,1.535,0,0,1-1.1-.459l-1.4-1.411a1.1,1.1,0,0,1,1.562-1.548l.938.947,4.171-4.2a1.1,1.1,0,1,1,1.561,1.548l-4.633,4.669A1.538,1.538,0,0,1,65.572,106.078Zm0,0" transform="translate(-53.553 -84.553)" fill="#ef5050"/><path d="M149.564,114.855h-13.5a1.1,1.1,0,0,1,0-2.2h13.5a1.1,1.1,0,0,1,0,2.2Zm0,0" transform="translate(-115.182 -96.141)" fill="#fff"/><path d="M143.758,140.168h-7.685a1.1,1.1,0,0,1,0-2.2h7.685a1.1,1.1,0,1,1,0,2.2Zm0,0" transform="translate(-115.186 -117.743)" fill="#fff"/><path d="M59.474,209.335a.454.454,0,0,1-.453.454H51.168a.454.454,0,0,1-.453-.454v-7.888a.455.455,0,0,1,.453-.454h7.853a.455.455,0,0,1,.453.454Zm0,0" transform="translate(-43.28 -171.527)" fill="#fcdb67"/><path d="M149.564,213.035h-13.5a1.1,1.1,0,0,1,0-2.2h13.5a1.1,1.1,0,1,1,0,2.2Zm0,0" transform="translate(-115.182 -179.927)" fill="#fff"/><path d="M143.758,238.347h-7.685a1.1,1.1,0,0,1,0-2.2h7.685a1.1,1.1,0,0,1,0,2.2Zm0,0" transform="translate(-115.186 -201.528)" fill="#fff"/><path d="M286.228,111.159a.454.454,0,0,1-.453.453h-7.853a.454.454,0,0,1-.454-.453V103.27a.454.454,0,0,1,.454-.453h7.853a.454.454,0,0,1,.453.453Zm0,0" transform="translate(-236.791 -87.744)" fill="#fcdb67"/><path d="M376.321,114.855h-13.5a1.1,1.1,0,1,1,0-2.2h13.5a1.1,1.1,0,0,1,0,2.2Zm0,0" transform="translate(-308.697 -96.141)" fill="#fff"/><path d="M370.511,140.168h-7.685a1.1,1.1,0,0,1,0-2.2h7.685a1.1,1.1,0,1,1,0,2.2Zm0,0" transform="translate(-308.696 -117.743)" fill="#fff"/><path d="M141.479,0a1.282,1.282,0,0,1,1.28,1.277V7.651a1.283,1.283,0,0,1-1.28,1.277H104.6a5.969,5.969,0,0,1-2.4-.613L96.247,5.076c-.618-.337-.618-.888,0-1.225L102.191.613A5.969,5.969,0,0,1,104.6,0Zm0,0" transform="translate(-81.741 0)" fill="#ffc502"/><path d="M105.112,0H104.6a5.969,5.969,0,0,0-2.4.613L96.247,3.851c-.618.337-.618.888,0,1.225l5.944,3.239a5.969,5.969,0,0,0,2.4.613h.516Zm0,0" transform="translate(-81.742 0)" fill="#ffd5b3"/><path d="M100.242,11.422,96.247,13.6c-.618.337-.618.888,0,1.225L100.242,17Zm0,0" transform="translate(-81.742 -9.747)" fill="#775436"/></g><g transform="translate(709.52 1476.497)"><path d="M395.374,130.47l-6.836,3.761L381.7,130.47v-6.79l6.836,3.418,6.838-3.418v6.79Z" transform="translate(-282.146 -17.923)" fill="#8834bf"/><path d="M385.356,129.556v-4.049L381.7,123.68v6.79l6.838,3.761,2.658-1.462Z" transform="translate(-282.146 -17.923)" fill="#8834bf"/><path d="M236.467,108.387v.226l-8.218,4.519-8.218-4.519V100.45l8.218,4.11,8.218-4.11Z" transform="translate(-157.414 0)" fill="#a74ae5"/><path d="M223.686,107.7v-5.421l-3.656-1.828v8.163l8.218,4.519,2.659-1.462Z" transform="translate(-157.414 0)" fill="#a74ae5"/><path d="M182.132,185.892a2.315,2.315,0,0,0,2.628.455,2.283,2.283,0,0,0,1.081-1.069,1.8,1.8,0,0,1,1.394-1.1c3.228-.183,9.713-.51,15.057-6.854l.219.187c1.323,3.745,4.963,6.7,9.422,7.768h0l-.007,1.864a2.589,2.589,0,0,1,2.314,1.972,3.346,3.346,0,0,1,.1.82,3.444,3.444,0,0,1-2.845,3.388v.021a14.758,14.758,0,0,1-8.6,13.393,12.021,12.021,0,0,1-4.761.985H195.5a12.02,12.02,0,0,1-4.761-.985,13.6,13.6,0,0,1-4.718-3.407,15.039,15.039,0,0,1-3.884-9.987v-.021a3.444,3.444,0,0,1-2.746-4.209,2.594,2.594,0,0,1,2.317-1.972l-.039-1.714Z" transform="translate(-125.982 -59.307)" fill="#ffe3c7"/><path d="M376.084,152.025a12.583,12.583,0,0,1,5.531,10.512l-.016,4.113a10.79,10.79,0,0,1-7.837-6.461l-.183-.155c-4.448,5.278-9.843,5.55-12.525,5.7a1.5,1.5,0,0,0-1.161.921,1.884,1.884,0,0,1-.9.887,1.921,1.921,0,0,1-2.184-.377l-.388-.386-.011-4.318a12.594,12.594,0,0,1,5.778-10.6v.352l6.838,3.761,6.836-3.761v-.187Z" transform="translate(-262.634 -39.664)" fill="#f9b44d"/><path d="M359.443,166.869l-.043-4.318a12.574,12.574,0,0,1,4.253-9.533l-1.465-.806v-.352a12.594,12.594,0,0,0-5.778,10.6l.011,4.318.388.386a1.921,1.921,0,0,0,2.184.377,1.9,1.9,0,0,0,.634-.49Z" transform="translate(-262.634 -39.664)" fill="#f9b44d"/><path d="M350.175,194.761a1.921,1.921,0,0,0,2.184.377,1.884,1.884,0,0,0,.9-.886,1.5,1.5,0,0,1,1.161-.921c2.682-.151,8.077-.423,12.525-5.7l.183.155a10.79,10.79,0,0,0,7.837,6.461l0,1.551a2.154,2.154,0,0,1,1.928,1.64,2.929,2.929,0,0,1,.082.683,2.862,2.862,0,0,1-2.365,2.817v.018a12.281,12.281,0,0,1-7.158,11.143,10.02,10.02,0,0,1-3.96.818h-2.2a10.012,10.012,0,0,1-3.959-.818,11.346,11.346,0,0,1-3.928-2.835,12.516,12.516,0,0,1-3.231-8.307v-.018a2.863,2.863,0,0,1-2.365-2.817,2.928,2.928,0,0,1,.082-.683,2.154,2.154,0,0,1,1.926-1.64l-.032-1.423Z" transform="translate(-255.999 -67.261)" fill="#ffe3c7"/><path d="M338.422,316.63l6.08,15.045h-8.892v-2.3a7.242,7.242,0,0,0-4.918-6.859l-1.542-.523a6.02,6.02,0,0,1,3.656-3.461Z" transform="translate(-241.603 -166.788)" fill="#8834bf"/><path d="M334.119,322.518l-1.542-.523a6.02,6.02,0,0,1,3.656-3.461l2.6-.882-.413-1.022-5.616,1.9a6.02,6.02,0,0,0-3.656,3.461l1.542.523a7.241,7.241,0,0,1,4.917,6.859v2.3h3.427v-2.3a7.242,7.242,0,0,0-4.918-6.859Z" transform="translate(-241.603 -166.788)" fill="#8834bf"/><path d="M25.706,316.63l6.08,15.045H16v-7.437a6.024,6.024,0,0,1,4.089-5.7Z" transform="translate(0 -166.788)" fill="#8834bf"/><path d="M24.659,318.533l1.6-.541-.55-1.362-5.616,1.9A6.025,6.025,0,0,0,16,324.238v7.437h4.57v-7.437a6.024,6.024,0,0,1,4.089-5.7Z" transform="translate(0 -166.788)" fill="#8834bf"/><path d="M165.59,333.36l-6.094,2.065a7.241,7.241,0,0,0-4.917,6.859v8.94h18.973Z" transform="translate(-106.918 -179.696)" fill="#a74ae5"/><path d="M158.236,345.268v-2.3a7.242,7.242,0,0,1,4.918-6.859l1.542-.523,1.641-.556-.745-1.672-4.551,1.542-1.542.523a7.241,7.241,0,0,0-4.917,6.859v8.94h3.656Z" transform="translate(-106.918 -179.696)" fill="#a74ae5"/><path d="M84.124,130.47l-6.836,3.761L70.45,130.47v-6.79l6.836,3.418,6.838-3.418v6.79Z" transform="translate(-42.009 -17.923)" fill="#8834bf"/><path d="M73.42,128.871v-3.706l-2.97-1.485v6.79l6.838,3.761,2.939-1.617Z" transform="translate(-42.009 -17.923)" fill="#8834bf"/><path d="M55.878,187.785a10.79,10.79,0,0,0,7.837,6.461l0,1.551a2.154,2.154,0,0,1,1.928,1.64,2.928,2.928,0,0,1,.082.683,2.862,2.862,0,0,1-2.365,2.817v.018A12.282,12.282,0,0,1,56.2,212.1a10.013,10.013,0,0,1-3.959.818h-2.2a10.021,10.021,0,0,1-3.959-.818,11.317,11.317,0,0,1-3.925-2.835,12.5,12.5,0,0,1-3.233-8.307v-.018a2.863,2.863,0,0,1-2.365-2.817,2.928,2.928,0,0,1,.082-.683,2.154,2.154,0,0,1,1.926-1.64l-.032-1.423.388.386a1.921,1.921,0,0,0,2.184.377,1.884,1.884,0,0,0,.9-.886,1.5,1.5,0,0,1,1.161-.921c2.682-.151,8.077-.423,12.525-5.7Z" transform="translate(-15.863 -67.261)" fill="#ffe3c7"/><path d="M64.834,152.025a12.583,12.583,0,0,1,5.531,10.512l-.016,4.113a10.79,10.79,0,0,1-7.837-6.461l-.183-.155c-4.448,5.278-9.843,5.55-12.525,5.7a1.5,1.5,0,0,0-1.161.921,1.884,1.884,0,0,1-.9.886,1.921,1.921,0,0,1-2.184-.377l-.388-.386-.011-4.318a12.594,12.594,0,0,1,5.778-10.6v.352l6.838,3.761,6.836-3.761v-.187Z" transform="translate(-22.498 -39.664)" fill="#f9b44d"/><path d="M49.053,234.875a11.317,11.317,0,0,1-3.925-2.835,12.5,12.5,0,0,1-3.233-8.307v-.018A2.863,2.863,0,0,1,39.53,220.9a2.928,2.928,0,0,1,.082-.683,2.154,2.154,0,0,1,1.926-1.64l-.021-.928a1.9,1.9,0,0,1-2.593-.109l-.388-.386.032,1.423a2.154,2.154,0,0,0-1.926,1.64,2.928,2.928,0,0,0-.082.683,2.863,2.863,0,0,0,2.365,2.817v.018a12.5,12.5,0,0,0,3.233,8.307,11.317,11.317,0,0,0,3.925,2.835,10.022,10.022,0,0,0,3.959.818h2.2c.13,0,.259-.005.388-.01a10.038,10.038,0,0,1-3.573-.808Z" transform="translate(-15.863 -90.037)" fill="#ffe3c7"/><path d="M48.142,166.777l-.011-4.318a12.575,12.575,0,0,1,4.26-9.448l-1.452-.8v-.352a12.594,12.594,0,0,0-5.778,10.6l.011,4.318.388.386a1.913,1.913,0,0,0,2.836-.134Z" transform="translate(-22.498 -39.664)" fill="#f9b44d"/><path d="M438.613,318.533a6.024,6.024,0,0,1,4.09,5.705v7.437H426.92L433,316.63Z" transform="translate(-317.035 -166.788)" fill="#8834bf"/><path d="M379.3,321.051a12.548,12.548,0,0,0,9.571-4.421L382.8,331.675H375.81l-6.08-15.045A12.549,12.549,0,0,0,379.3,321.051Z" transform="translate(-272.911 -166.788)" fill="#e6559e"/><path d="M386.445,310.646l2.429.823a12.573,12.573,0,0,1-19.144,0l4.515-1.529a7.163,7.163,0,0,0,10.115,0Z" transform="translate(-272.911 -161.626)" fill="#fadf4a"/><path d="M389.49,294.73a10.013,10.013,0,0,0,3.959.818h2.2a10.021,10.021,0,0,0,3.959-.818v3.475a7.162,7.162,0,0,1-10.115,0Z" transform="translate(-288.156 -149.892)" fill="#f2d3bb"/><path d="M288.436,334.677l-6.751-2.287-7.3,18.086h18.973v-8.94a7.242,7.242,0,0,0-4.918-6.859Z" transform="translate(-199.346 -178.947)" fill="#a74ae5"/><path d="M217.154,331.491a15.073,15.073,0,0,1-11.5-5.312l5.424-1.839a8.609,8.609,0,0,0,12.16,0l2.509.85,2.915.989A15.073,15.073,0,0,1,217.154,331.491Z" transform="translate(-146.319 -172.736)" fill="#fadf4a"/><path d="M229.39,306.06a12.02,12.02,0,0,0,4.761.985h2.637a12.02,12.02,0,0,0,4.761-.985v4.177a8.609,8.609,0,0,1-12.16,0Z" transform="translate(-164.635 -158.633)" fill="#ffe3c7"/><path d="M196.576,134.33v.423l8.218,4.519,8.218-4.519v-.226h.267a15.125,15.125,0,0,1,6.649,12.635l-.016,4.947h0c-4.46-1.067-8.1-4.023-9.422-7.768l-.219-.187c-5.344,6.345-11.828,6.671-15.057,6.854a1.8,1.8,0,0,0-1.394,1.1,2.283,2.283,0,0,1-1.081,1.069,2.315,2.315,0,0,1-2.628-.455l-.466-.466-.014-5.191a15.141,15.141,0,0,1,6.946-12.738Z" transform="translate(-133.96 -26.139)" fill="#f9b44d"/><path d="M205.65,332.39a15.112,15.112,0,0,0,23.008,0l-7.3,18.086h-8.4l-6.934-17.168q-.024-.288-.075-.576l-.144.027Z" transform="translate(-146.319 -178.947)" fill="#e6559e"/><path d="M186.324,334.01l.219.548a7.3,7.3,0,0,1-6.03,7.869A7.3,7.3,0,0,1,186.324,334.01Z" transform="translate(-126.842 -180.197)" fill="#fadf4a"/><path d="M182.524,306.677c0,.094,0,.185,0,.279l-.6.2a7.3,7.3,0,0,1-6.155-7.759A7.305,7.305,0,0,1,182.524,306.677Z" transform="translate(-123.243 -153.495)" fill="#fadf4a"/><path d="M127.363,318.533a6.02,6.02,0,0,1,3.656,3.461l-1.542.523a7.241,7.241,0,0,0-4.917,6.859v2.3h-8.89l6.077-15.045Z" transform="translate(-76.898 -166.788)" fill="#8834bf"/><path d="M58.48,311.469l4.515-1.529a7.163,7.163,0,0,0,10.115,0l2.086.706,2.429.823a12.573,12.573,0,0,1-19.144,0Z" transform="translate(-32.774 -161.626)" fill="#fadf4a"/><path d="M58.48,316.63a12.573,12.573,0,0,0,19.144,0l-6.077,15.045H64.56Z" transform="translate(-32.774 -166.788)" fill="#e6559e"/><path d="M78.24,294.73a10.021,10.021,0,0,0,3.959.818h2.2a10.013,10.013,0,0,0,3.959-.818v3.475a7.162,7.162,0,0,1-10.115,0Z" transform="translate(-48.02 -149.892)" fill="#ffe3c7"/><path d="M193.3,152.259l-.014-5.191a15.114,15.114,0,0,1,5.088-11.326l-1.8-.989v-.423a15.141,15.141,0,0,0-6.946,12.738l.014,5.191.466.466a2.308,2.308,0,0,0,3.45-.206Z" transform="translate(-133.957 -26.139)" fill="#f9b44d"/></g><g transform="translate(500.596 1792.219)"><path d="M92.133,58H41.586A5.532,5.532,0,0,0,36,63.546v67.583a5.651,5.651,0,0,0,5.586,5.686H92.133a5.7,5.7,0,0,0,5.646-5.686V63.546A5.584,5.584,0,0,0,92.133,58ZM48.747,69a3.11,3.11,0,1,1,3.11-3.11A3.11,3.11,0,0,1,48.747,69Zm11.7,0a3.11,3.11,0,1,1,3.11-3.11A3.11,3.11,0,0,1,60.451,69Zm11.706,0a3.108,3.108,0,1,1,2.2-.91A3.11,3.11,0,0,1,72.158,69Zm11.7,0a3.11,3.11,0,1,1,3.11-3.11A3.11,3.11,0,0,1,83.862,69Z" transform="translate(0 -24.891)" fill="#a74ae5"/><path d="M79.98,162.9a6.5,6.5,0,1,1-6.5,6.5,6.5,6.5,0,0,1,6.5-6.5Z" transform="translate(-30.463 -110.153)" fill="#81c83d"/><path d="M79.98,262.9a6.5,6.5,0,1,1-6.5,6.5,6.5,6.5,0,0,1,6.5-6.5Z" transform="translate(-30.463 -191.432)" fill="#81c83d"/><path d="M79.98,362.9a6.5,6.5,0,1,1-6.5,6.5,6.5,6.5,0,0,1,6.5-6.5Z" transform="translate(-30.463 -272.711)" fill="#81c83d"/><path d="M41.616,131.129V63.546A5.532,5.532,0,0,1,47.2,58H41.586A5.532,5.532,0,0,0,36,63.546v67.583a5.651,5.651,0,0,0,5.586,5.686H47.2A5.651,5.651,0,0,1,41.616,131.129Z" transform="translate(0 -24.891)" fill="#a74ae5"/><g transform="translate(47.624 27.375)"><path d="M99.213,38.992a1.123,1.123,0,0,1-1.123-1.123V28.5a1.123,1.123,0,1,1,2.247,0v9.371A1.123,1.123,0,0,1,99.213,38.992Z" transform="translate(-98.09 -27.375)" fill="#6d7486"/><path d="M99.213,38.992a1.123,1.123,0,0,1-1.123-1.123V28.5a1.123,1.123,0,1,1,2.247,0v9.371A1.123,1.123,0,0,1,99.213,38.992Z" transform="translate(-98.09 -27.375)" fill="#6d7486"/><path d="M161.736,38.992a1.123,1.123,0,0,1-1.123-1.123V28.5a1.123,1.123,0,0,1,2.247,0v9.371A1.123,1.123,0,0,1,161.736,38.992Z" transform="translate(-148.908 -27.375)" fill="#6d7486"/><path d="M224.261,38.992a1.123,1.123,0,0,1-1.123-1.123V28.5a1.123,1.123,0,1,1,2.246,0v9.371A1.123,1.123,0,0,1,224.261,38.992Z" transform="translate(-199.728 -27.375)" fill="#6d7486"/><path d="M286.784,38.992a1.123,1.123,0,0,1-1.123-1.123V28.5a1.123,1.123,0,0,1,2.247,0v9.371A1.123,1.123,0,0,1,286.784,38.992Z" transform="translate(-250.546 -27.375)" fill="#6d7486"/></g><path d="M193.013,181.872H173c-.442,0-.8-.5-.8-1.123s.358-1.123.8-1.123h20.012c.442,0,.8.5.8,1.123S193.455,181.872,193.013,181.872Z" transform="translate(-110.702 -123.747)" fill="#8fb1b5"/><path d="M91.546,188.617a1.12,1.12,0,0,1-.794-.329L88.963,186.5a1.123,1.123,0,1,1,1.588-1.589l1.012,1.012,2.5-2.386a1.123,1.123,0,1,1,1.553,1.624l-3.289,3.145A1.12,1.12,0,0,1,91.546,188.617Z" transform="translate(-42.781 -126.674)" fill="#d8ff33"/><path d="M193.013,281.871H173c-.442,0-.8-.5-.8-1.123s.358-1.123.8-1.123h20.012c.442,0,.8.5.8,1.123S193.455,281.871,193.013,281.871Z" transform="translate(-110.702 -205.026)" fill="#8fb1b5"/><path d="M91.546,288.617a1.12,1.12,0,0,1-.794-.329L88.963,286.5a1.123,1.123,0,1,1,1.588-1.589l1.012,1.012,2.5-2.386a1.123,1.123,0,1,1,1.553,1.624l-3.289,3.145A1.12,1.12,0,0,1,91.546,288.617Z" transform="translate(-42.781 -207.953)" fill="#d8ff33"/><path d="M191.127,381.872h-17.8a1.123,1.123,0,0,1,0-2.247h17.8a1.123,1.123,0,1,1,0,2.247Z" transform="translate(-110.702 -286.305)" fill="#8fb1b5"/><path d="M91.546,388.617a1.12,1.12,0,0,1-.794-.329L88.963,386.5a1.123,1.123,0,1,1,1.588-1.589l1.012,1.012,2.5-2.386a1.123,1.123,0,0,1,1.553,1.624l-3.289,3.145A1.12,1.12,0,0,1,91.546,388.617Z" transform="translate(-42.781 -289.232)" fill="#d8ff33"/><path d="M188.3,201.872H173.323a1.123,1.123,0,1,1,0-2.247H188.3a1.123,1.123,0,1,1,0,2.247Z" transform="translate(-110.702 -140.003)" fill="#8fb1b5"/><path d="M188.3,301.872H173.323a1.123,1.123,0,1,1,0-2.247H188.3a1.123,1.123,0,1,1,0,2.247Z" transform="translate(-110.702 -221.282)" fill="#8fb1b5"/><path d="M188.3,401.872H173.323a1.123,1.123,0,1,1,0-2.247H188.3a1.123,1.123,0,1,1,0,2.247Z" transform="translate(-110.702 -302.561)" fill="#8fb1b5"/><path d="M317.826,299.66,287.65,319.476l2.593,3.945L320.417,303.6Z" transform="translate(-330.841 24.548) rotate(-39)" fill="#f9b44d"/><path d="M0,0H36.1V5.289H0Z" transform="matrix(0.309, -0.951, 0.951, 0.309, 89.192, 90.317)" fill="#f9b44d"/><path d="M255.1,384.43l-.12.225-4.188,7.915,9.493-.249Z" transform="translate(-350.918 -47.852) rotate(-39)" fill="#ffd5b3"/></g></g></svg>