<svg xmlns="http://www.w3.org/2000/svg" width="713.541" height="671.939" viewBox="0 0 713.541 671.939"><g transform="translate(-162.71 -233.739)"><g transform="translate(449.228 368.458) rotate(-90)"><g transform="translate(0 0)"><circle cx="18.265" cy="18.265" r="18.265" transform="matrix(0.155, -0.988, 0.988, 0.155, 0, 36.087)" fill="#353535"/></g><g transform="translate(10.897 14.537)"><g transform="translate(0)"><path d="M19.325,9.207a4.558,4.558,0,0,1-1.859,2.072A4.643,4.643,0,0,1,15.337,12a5.82,5.82,0,0,1-2.54-.242,6.952,6.952,0,0,1-2.5-1.333Q2.923,4.341,2.88,4.27v8.413H0V0H2.1l9.534,7.9a4.983,4.983,0,0,0,2.653,1.22,2.556,2.556,0,0,0,2.158-.683,2.92,2.92,0,0,0,.823-2.226,2.791,2.791,0,0,0-2.738-3.15V.155a6.513,6.513,0,0,1,1.844.312,4.839,4.839,0,0,1,2.61,2.085,6.717,6.717,0,0,1,.98,3.732A6.382,6.382,0,0,1,19.325,9.207Z" fill="#fff"/></g></g></g><g transform="translate(449.503 275.357)"><g transform="translate(38.889)"><path d="M375.718,224.212H142.381L165.9,244.82l-23.515,20.609H375.718l23.515-20.609Z" transform="translate(-142.381 -224.212)" fill="#d4e9ff"/></g><g transform="translate(0)"><path d="M329.116,224.212H305.6l23.515,20.609L305.6,265.429h23.515l23.515-20.609Z" transform="translate(-305.601 -224.212)" fill="#bbdaf9"/></g></g><g transform="translate(745.245 275.358)"><g transform="translate(32.472 4.546)"><path d="M130.907,463.053s.709-.894,1.914-2.657l4.808-7.918a106.99,106.99,0,0,0,10.855-31.119q.386-2.537.788-5.178c.12-.881.28-1.768.363-2.668q.078-1.353.157-2.731c.19-3.595.427-7.809.357-10.607V326.7l0-1.374-.072-1.694-.158-3.384c-.165-2.249-.13-4.5-.5-6.723a100.559,100.559,0,0,0-2.437-13.115c-.574-2.127-1.041-4.274-1.731-6.333q-1.115-3.067-2.214-6.086c-.385-1-.715-2.014-1.152-2.98q-.681-1.438-1.358-2.862-1.378-2.834-2.728-5.615c-1.032-1.78-2.1-3.515-3.139-5.236a51.756,51.756,0,0,0-3.259-4.978,94.185,94.185,0,0,0-7.09-8.928q-1.863-2.039-3.662-4.009c-1.207-1.3-2.558-2.415-3.8-3.587l-3.724-3.36c-1.253-1.048-2.56-1.973-3.8-2.92a69.977,69.977,0,0,0-7.268-5.038c-2.391-1.416-4.558-2.868-6.715-3.934l-5.956-2.877a42.708,42.708,0,0,0-4.925-2.036l-3.7-1.355-2.3-.826a6.722,6.722,0,0,0-.8-.258s.352.428.928,1.245c.561.8,1.364,1.946,2.325,3.32.931,1.368,1.978,2.955,3.032,4.635,1.067,1.655,2.027,3.671,2.981,5.519.94,1.88,1.812,3.735,2.575,5.448.716,1.8,1.3,3.5,1.786,4.917.96,2.845,1.48,4.667,1.48,4.667s-1.992.3-4.8.852c-1.406.285-3,.608-4.667,1.036-1.719.517-3.5,1.1-5.2,1.7a50.954,50.954,0,0,0-4.861,1.922c-1.533.734-2.9,1.437-4.041,2.046s-2.049,1.128-2.677,1.49-.984.594-.984.594a2.474,2.474,0,0,1,.475.157l1.364.517,2.206.809a18.227,18.227,0,0,1,2.941,1.207l3.563,1.71c1.3.613,2.565,1.55,4.009,2.37a34.422,34.422,0,0,1,4.353,3.022c.739.57,1.545,1.1,2.3,1.726l2.216,2.04c.741.71,1.591,1.338,2.3,2.136L93.44,284.7a53.684,53.684,0,0,1,4.262,5.35,23.322,23.322,0,0,1,1.941,2.988q.944,1.541,1.909,3.116.791,1.669,1.6,3.369l.838,1.7c.27.574.436,1.192.664,1.787q.663,1.8,1.338,3.622c.424,1.225.648,2.52,1.006,3.784a59.374,59.374,0,0,1,1.475,7.832,37.866,37.866,0,0,1,.276,4.046l.114,2.037.066,1.021,0,1.349v73.474c.067,3.471-.174,5.341-.248,7.636-.021.553-.043,1.1-.064,1.647-.046.541-.168,1.068-.242,1.6q-.242,1.577-.474,3.1a65.888,65.888,0,0,1-6.45,18.579c-1.274,2.024-2.232,3.636-2.883,4.739-.728,1.053-1.167,1.58-1.167,1.58s.395,1.6.882,4.2c.116.658.242,1.37.375,2.124.105.745.163,1.506.239,2.325.142,1.63.256,3.421.325,5.269a42.022,42.022,0,0,1-.1,5.4c-.113,1.731-.262,3.392-.418,4.84a30.171,30.171,0,0,1-.5,3.463c-.162.824-.254,1.3-.254,1.3s.5.032,1.364.085a31.114,31.114,0,0,0,3.579.046c1.477-.037,3.23-.105,5.156-.227a50.386,50.386,0,0,0,6.051-.643c2.045-.328,4.136-.713,6.13-1.122.992-.209,1.984-.4,2.888-.634l2.505-.728C128.751,463.8,130.907,463.053,130.907,463.053Z" transform="translate(-65.534 -227.195)" fill="#d4e9ff"/></g><g transform="translate(0)"><path d="M137.839,224.876a12.142,12.142,0,0,0-1.253-.154l-3.319-.187-4.695-.232c-.817-.029-1.842-.094-2.552-.091H112.07l11.757,10.3c1.515,1.318,3.031,2.636,4.451,3.873,1.46,1.278,2.76,2.473,3.838,3.5,1.048,1.021,1.921,1.871,2.534,2.465.591.61.914,1.01.914,1.01s-.4.239-1.088.753l-2.787,2.2c-1.121.911-2.391,1.976-3.685,3.116-1.333,1.181-2.755,2.44-4.178,3.7l-11.757,10.3h13.95c.738,0,1.132.061,1.693.084l2.827.149,2,.079a4.435,4.435,0,0,1,.75.1s1.2-1.1,3.215-2.75c1.007-.824,2.225-1.784,3.6-2.807,1.344-.9,2.839-1.83,4.407-2.76,1.562-.908,3.22-1.885,4.788-2.639,1.554-.71,3.066-1.358,4.395-1.9,2.659-1.085,4.565-1.758,4.565-1.758s-.856-1.684-2.336-4.283c-.742-1.3-1.646-2.831-2.68-4.489-1.045-1.614-2.273-3.2-3.547-4.876-1.278-1.658-2.629-3.336-3.957-4.9-1.352-1.437-2.677-2.785-3.849-3.944C139.542,226.42,137.839,224.876,137.839,224.876Z" transform="translate(-112.07 -224.212)" fill="#bbdaf9"/></g></g><g transform="translate(518.332 504.444)"><g transform="translate(0 11.96)"><path d="M143.769,424.762h211.8l6.295-.014c2.4-.114,4.6-.219,6.587-.312a71.247,71.247,0,0,0,9.19-1.041l3.24-.507s-2.083-.968-5.006-2.481c-1.461-.766-3.122-1.623-4.841-2.644-1.728-1.109-3.508-2.306-5.217-3.509-1.693-1.216-3.384-2.392-4.788-3.579-1.378-1.208-2.664-2.334-3.767-3.3-2.2-1.932-3.674-3.22-3.674-3.22l3.674-3.221c1.1-.965,2.389-2.092,3.767-3.3,1.352-1.228,2.593-2.624,3.835-3.966,1.227-1.352,2.382-2.7,3.407-3.944,1.015-1.336,1.889-2.654,2.61-3.732,1.435-2.177,2.258-3.588,2.258-3.588l-1.941.284a35.642,35.642,0,0,1-5.51.625l-3.968.219-6.152.015h-211.8l-23.515,20.609Z" transform="translate(-120.254 -382.402)" fill="#d4e9ff"/></g><g transform="translate(248.702)"><path d="M121.842,421.6l1.187-.442a29.952,29.952,0,0,0,3.048-1.347c1.245-.6,2.7-1.3,4.25-2.043l2.389-1.17c.8-.418,1.573-.92,2.366-1.384a91.911,91.911,0,0,0,8.5-5.458l3.678-2.75s-2.28.11-5.548.128a84.072,84.072,0,0,1-11.762-.856c-1.035-.14-2.031-.25-3.04-.44l-2.947-.638c-1.885-.43-3.589-.861-5.016-1.246a33.98,33.98,0,0,1-3.416-1.038l-1.286-.471s.224-.425.613-1.167a33.867,33.867,0,0,0,1.449-3.2c.558-1.341,1.17-2.889,1.768-4.515.285-.8.581-1.637.881-2.482.276-.855.5-1.79.733-2.674a61.38,61.38,0,0,0,1.829-9.585c.262-2.621.337-4.271.337-4.271s-.884.66-2.206,1.65a51.256,51.256,0,0,1-5.089,3.27c-.474.279-.923.6-1.406.849l-1.438.674-2.536,1.225a12.054,12.054,0,0,1-1.815.815l-.712.251s-.536,1.554-1.528,3.985a57.641,57.641,0,0,1-4.463,8.661,62.633,62.633,0,0,1-5.988,8.3L92.38,406.95l-.919.939,1.1.823,2.974,1.909a73.593,73.593,0,0,0,9.889,5.364,78.778,78.778,0,0,0,11.047,4.16C119.619,421.059,121.842,421.6,121.842,421.6Z" transform="translate(-91.461 -374.553)" fill="#bbdaf9"/></g></g><g transform="translate(253.243 517.547)"><g transform="translate(0)"><path d="M356.4,468.729a10.963,10.963,0,0,1,.559-1.874c.443-1.2,1.1-2.952,1.925-5.187a65.181,65.181,0,0,1,10.639-16.589,62.363,62.363,0,0,1,22.6-16.1c2.427-.788,4.785-1.934,7.38-2.427,1.277-.3,2.542-.705,3.843-.974q1.975-.295,3.969-.59c.664-.094,1.323-.241,2-.3l2.033-.081,4.081-.23H543.016L519.5,403.761l23.515-20.609H426.348q-5.472,0-10.929,0-3.394.158-6.775.318l-3.372.19c-1.118.108-2.229.306-3.34.46L395.3,385.15c-2.179.445-4.318,1.05-6.455,1.583-4.314.954-8.337,2.665-12.365,4.111a103.628,103.628,0,0,0-37.753,26.835,106.37,106.37,0,0,0-17.723,27.736c-1.49,3.7-2.505,6.682-3.243,8.69a18.623,18.623,0,0,0-.733,2.328l-.215.811s.759,2.164,1.976,5.214c.648,1.531,1.248,3.244,2.219,5.076.933,1.824,1.946,3.709,2.974,5.521a70.508,70.508,0,0,0,6.273,9.333l2.2,2.784c.524.654.85,1.018.85,1.018s.317-.372.92-1l2.467-2.537a60.531,60.531,0,0,1,7.7-6.75c1.472-1.093,2.929-2.114,4.277-3.013a43.865,43.865,0,0,1,3.922-2.255C354.911,469.412,356.4,468.729,356.4,468.729Z" transform="translate(-316.817 -383.152)" fill="#d4e9ff"/></g><g transform="translate(218.059)"><path d="M314.81,424.369h23.515L314.81,403.761l23.515-20.609H314.81L291.3,403.761Z" transform="translate(-291.295 -383.152)" fill="#bbdaf9"/></g></g><g transform="translate(249.118 620.585)"><g transform="translate(0 38.89)"><path d="M507.219,585.846H453.1l-2.327-.008-1.8-.111-3.666-.174a36.007,36.007,0,0,1-3.7-.5c-1.233-.227-2.516-.286-3.75-.62-9.915-2.278-20.14-7-28.153-14.526A61.647,61.647,0,0,1,392.4,543.334a37.145,37.145,0,0,1-1-3.66c-.271-1.222-.724-2.394-.875-3.619q-.272-1.826-.539-3.613-.146-.891-.293-1.771-.036-.894-.072-1.778c-.347-4.038-.235-10.863-.253-16.141V476.294l-20.608,23.513-20.609-23.513v36.458c.059,5.658-.192,10.691.363,19.163q.087,1.463.175,2.945.215,1.474.431,2.968.461,2.981.933,6.034c.308,2.036.945,4.03,1.428,6.077.567,2.023.969,4.119,1.72,6.126a102.968,102.968,0,0,0,28.865,44.41c13.388,12.425,30.431,20.541,47.118,24.247,2.077.515,4.195.727,6.264,1.08,2.08.273,4.129.715,6.18.8l6.081.32,2.988.129,2.4.009h54.119l23.515-20.609Z" transform="translate(-348.142 -476.294)" fill="#d4e9ff"/></g><g transform="translate(0.007)"><path d="M482.134,474.286V450.772l-20.609,23.515-20.609-23.515v23.515L461.525,497.8Z" transform="translate(-440.917 -450.772)" fill="#d4e9ff"/></g></g><g transform="translate(431.71 769.027)"><g transform="translate(38.889)"><path d="M387.4,548.189H154.058L177.573,568.8l-23.515,20.609H387.4L410.91,568.8Z" transform="translate(-154.058 -548.189)" fill="#d4e9ff"/></g><g transform="translate(0)"><path d="M340.793,548.189H317.279L340.793,568.8l-23.515,20.609h23.515L364.308,568.8Z" transform="translate(-317.279 -548.189)" fill="#bbdaf9"/></g></g><g transform="translate(162.71 275.027)"><g transform="translate(38.889)"><path d="M387.4,548.189H154.058L177.573,568.8l-23.515,20.609H387.4L410.91,568.8Z" transform="translate(-154.058 -548.189)" fill="#d4e9ff"/></g><g transform="translate(0)"><path d="M340.793,548.189H317.279L340.793,568.8l-23.515,20.609h23.515L364.308,568.8Z" transform="translate(-317.279 -548.189)" fill="#bbdaf9"/></g></g><g transform="translate(727.451 769.027)"><g transform="translate(0 0)"><path d="M146.764,548.189H123.251L146.764,568.8l-23.513,20.609h23.513l3.675-3.221,3.765-3.3c.71-.609,1.4-1.23,1.984-1.815.64-.6,1.291-1.208,1.94-1.818,1.335-1.219,2.74-2.441,4.117-3.584a45.037,45.037,0,0,1,3.881-2.833c2.357-1.594,4.067-2.636,4.067-2.636s-1.195-1.486-3.2-3.744a51.673,51.673,0,0,0-3.582-3.776c-1.376-1.283-2.906-2.653-4.507-4.021-.818-.683-1.635-1.367-2.441-2.039-.862-.686-1.592-1.312-2.261-1.911l-3.765-3.3Z" transform="translate(-123.251 -548.189)" fill="#bbdaf9"/></g></g><g transform="translate(418.197 558.909) rotate(-101)"><g transform="translate(0 0)"><g transform="translate(4.604 9.212)"><rect width="69.609" height="49.321" rx="1.565" fill="#e63417"/></g><g transform="translate(8.158 12.701)"><rect width="59.989" height="42.343" fill="#fff"/></g><g transform="translate(68.15 22.464)"><g transform="translate(0 0)"><g transform="translate(0)"><path d="M2.79,19.654V14.881H6.277a3.487,3.487,0,0,0,0-6.975H2.79V3.067A3.44,3.44,0,0,0,.908,0L0,.011v22.7l.908.011A3.44,3.44,0,0,0,2.79,19.654Zm6.24-8.246a.885.885,0,1,1-.884-.884A.885.885,0,0,1,9.03,11.408Z" fill="#d5d5d5"/></g></g></g><g transform="translate(68.15 22.475)"><rect width="0.908" height="22.711" fill="#b8b9ba"/></g><g transform="translate(76.616 0.121)"><g transform="translate(0 0)"><path d="M1.628,4.509H0V0H1.628A2.025,2.025,0,0,1,3.653,2.025v.457A2.026,2.026,0,0,1,1.628,4.509Z" fill="#d84a4e"/></g></g><g transform="translate(6.143 0.15)"><rect width="64.296" height="1.461" fill="#feb358"/></g><g transform="translate(6.143 1.611)"><rect width="64.296" height="1.461" fill="#ec9e35"/></g><g transform="translate(6.143 3.072)"><rect width="64.296" height="1.461" fill="#cc7e22"/></g><g transform="translate(67.782 0)"><rect width="9.1" height="4.749" rx="0.195" fill="#b8b8b8"/></g><g transform="translate(68.638 0)"><rect width="0.722" height="4.749" fill="#999"/></g><g transform="translate(69.958 0)"><rect width="0.722" height="4.749" fill="#999"/></g><g transform="translate(71.278 0)"><rect width="0.722" height="4.749" fill="#999"/></g><g transform="translate(72.598 0)"><rect width="0.722" height="4.749" fill="#999"/></g><g transform="translate(0 0.15)"><g transform="translate(0 0)"><path d="M6.143,0,0,2.192,6.143,4.384Z" fill="#fcc075"/></g></g><g transform="translate(0 1.417)"><g transform="translate(0 0)"><path d="M2.591,0,0,.924l2.591.924V0Z" fill="#414141"/></g></g><g transform="translate(67.783 0)" opacity="0.33"><g transform="translate(0 0)"><path d="M0,1.611H9.1V.218A.218.218,0,0,0,8.882,0H.214A.214.214,0,0,0,0,.216Z" fill="#fff"/></g></g><g transform="translate(17.589 16.708)"><g transform="translate(36.239 10.697)"><rect width="1.528" height="22.488" fill="#767676"/></g><g transform="translate(25.28 10.697)"><rect width="1.528" height="22.488" fill="#767676"/></g><g transform="translate(14.32 10.697)"><rect width="1.528" height="22.488" fill="#767676"/></g><g transform="translate(3.361 10.697)"><rect width="1.528" height="22.488" fill="#767676"/></g><g transform="translate(32.879 0)"><g transform="translate(0 0)"><path d="M0,8.25V0H8.248V8.25ZM1.469,1.47V6.779h5.31V1.47Z" fill="#767676"/></g></g><g transform="translate(21.92 0)"><g transform="translate(0 0)"><path d="M0,8.25V0H8.248V8.25ZM1.469,1.47V6.779h5.31V1.47Z" fill="#767676"/></g></g><g transform="translate(10.959 0)"><g transform="translate(0 0)"><path d="M0,8.25V0H8.25V8.25ZM1.47,1.47V6.779h5.31V1.47Z" fill="#767676"/></g></g><g transform="translate(0 0)"><path d="M0,8.25V0H8.25V8.25ZM1.47,1.47V6.779H6.779V1.47Z" fill="#767676"/></g></g></g><g transform="translate(71.219 27.475)"><g transform="translate(0 9.871)"><g transform="translate(0 0)"><path d="M2.668,1.148V0H0V1.148a.286.286,0,0,0,.286.285h2.1A.285.285,0,0,0,2.668,1.148Z" fill="#d5d5d5"/></g><g transform="translate(0.001 0)"><rect width="2.667" height="0.237" fill="#acacac"/></g><g transform="translate(0.303 1.434)"><g transform="translate(0 0)"><path d="M2.062.427V0H0V.427a1.031,1.031,0,0,0,2.062,0ZM.655.468a.376.376,0,1,1,.377.376A.376.376,0,0,1,.655.468Z" fill="#d5d5d5"/></g></g></g><g transform="translate(0 0)"><g transform="translate(0 1.458)"><g transform="translate(0 0)"><path d="M2.668.285V1.434H0V.285A.286.286,0,0,1,.286,0h2.1A.285.285,0,0,1,2.668.285Z" fill="#d5d5d5"/></g></g><g transform="translate(0.001 2.655)"><rect width="2.667" height="0.237" fill="#acacac"/></g><g transform="translate(0.303 0)"><g transform="translate(0)"><g transform="translate(0)"><path d="M1.031,0A1.031,1.031,0,0,0,0,1.031v.427H2.062V1.031A1.031,1.031,0,0,0,1.031,0Zm0,.614A.376.376,0,1,1,.655.991.376.376,0,0,1,1.031.614Z" fill="#d5d5d5"/></g></g></g></g></g></g><g transform="translate(279.587 372.207) rotate(-90)"><g transform="translate(0 0)"><g transform="translate(0)"><circle cx="18.265" cy="18.265" r="18.265" transform="matrix(0.925, -0.38, 0.38, 0.925, 0, 13.898)" fill="#353535"/></g></g><g transform="translate(14.037 19.869)"><path d="M19.608,7.943H0V4.652H15.267a4.269,4.269,0,0,1-2.144-1.787A6.92,6.92,0,0,1,12.5,0h2.738a4.582,4.582,0,0,0,1.32,3.206,6.818,6.818,0,0,0,3.051,2.043Z" fill="#fff"/></g></g><g transform="translate(774.789 366.493) rotate(-90)"><g transform="translate(0)"><circle cx="18.265" cy="18.265" r="18.265" fill="#353535"/></g><g transform="translate(8.462 11.157)"><path d="M19.608,11.661H7.179v2.554H4.526V11.661H0V8.512H4.526V0H6.554L19.608,9.15ZM7.179,3.617V8.512H13.9Z" fill="#fff"/></g></g><g transform="translate(817.545 610.08) rotate(-90)"><g transform="translate(0 0)"><circle cx="18.265" cy="18.265" r="18.265" fill="#353535"/></g><g transform="translate(8.284 11.404)"><g transform="translate(0)"><path d="M19.962,12.428H17.2V4.78L11.875,3.773A4.893,4.893,0,0,1,13.72,7.945a5.652,5.652,0,0,1-2.328,4.369,6.772,6.772,0,0,1-5.263,1.335,6.9,6.9,0,0,1-4.5-2.3A6.723,6.723,0,0,1,0,6.753,6.832,6.832,0,0,1,1.8,2.014,7.034,7.034,0,0,1,3.305.738,5.263,5.263,0,0,1,5.263,0V3.092A3.849,3.849,0,0,0,3.631,4.526a4.156,4.156,0,0,0-.6,2.2A3.723,3.723,0,0,0,4.213,9.463a3.847,3.847,0,0,0,2.767,1.106A4.022,4.022,0,0,0,9.888,9.42a3.453,3.453,0,0,0,1.135-2.836,3.363,3.363,0,0,0-.6-1.888A7.27,7.27,0,0,0,8.8,3.121q.171-.51.468-1.4a9.87,9.87,0,0,0,.469-1.4q8.329,1.534,10.229,1.915Z" fill="#fff"/></g></g></g><g transform="translate(605.961 615.37) rotate(-90)"><g transform="translate(0 0)"><g transform="translate(0)"><circle cx="18.265" cy="18.265" r="18.265" transform="translate(0 15.066) rotate(-24.358)" fill="#353535"/></g></g><g transform="translate(14.019 17.125)"><g transform="translate(0 0)"><path d="M20.064,9.037a5.813,5.813,0,0,1-.823,1.789,5.354,5.354,0,0,1-1.7,1.716,8.207,8.207,0,0,1-2.667,1.219v-2.95a3.59,3.59,0,0,0,2.609-3.633,3.179,3.179,0,0,0-1.062-2.27,5.813,5.813,0,0,0-2.286-1.3,10.492,10.492,0,0,0-2.595-.44A3.9,3.9,0,0,1,13,4.824a5.41,5.41,0,0,1,.654,2.95,6.1,6.1,0,0,1-2.113,4.71,6.6,6.6,0,0,1-5.181,1.577A7.359,7.359,0,0,1,4,13.45,7.823,7.823,0,0,1,1.89,12.032,6.229,6.229,0,0,1,.4,9.648,8.189,8.189,0,0,1,.031,6.327,6.148,6.148,0,0,1,1.548,2.781,7.4,7.4,0,0,1,4.756.681,16.582,16.582,0,0,1,11.084.058a13.916,13.916,0,0,1,5.943,1.588,6.075,6.075,0,0,1,3.279,5.618A5.894,5.894,0,0,1,20.064,9.037ZM9.992,4.369A4.619,4.619,0,0,0,6.926,3.262,4.788,4.788,0,0,0,3.819,4.369,3.668,3.668,0,0,0,2.627,7.095,3.491,3.491,0,0,0,3.848,9.8,4.44,4.44,0,0,0,6.926,10.91,4.429,4.429,0,0,0,10.019,9.8a3.331,3.331,0,0,0,1.205-2.709A3.607,3.607,0,0,0,9.992,4.369Z" fill="#fff"/></g></g></g><g transform="translate(420.238 610.08) rotate(-90)"><g transform="translate(0 0)"><circle cx="18.265" cy="18.265" r="18.265" fill="#353535"/></g><g transform="translate(8.461 11.427)"><g transform="translate(0 0)"><path d="M19.608,13.676h-2.1a39.623,39.623,0,0,0-7.66-4.794A39.732,39.732,0,0,0,0,5.987V2.694A35.837,35.837,0,0,1,9.633,5.476a34.4,34.4,0,0,1,7.236,4.681V0h2.738Z" fill="#fff"/></g></g></g><g transform="translate(252.824 610.08) rotate(-90)"><g transform="translate(0 0)"><circle cx="18.265" cy="18.265" r="18.265" fill="#353535"/></g><g transform="translate(8.107 11.477)"><g transform="translate(0 0)"><path d="M15,12.889a4.7,4.7,0,0,1-2.3-.61,5.681,5.681,0,0,1-1.845-1.7A5.415,5.415,0,0,1,6.2,13.57a5.61,5.61,0,0,1-4.37-1.717A6.841,6.841,0,0,1,0,6.789,6.959,6.959,0,0,1,1.83,1.738,5.591,5.591,0,0,1,6.2.007a5.4,5.4,0,0,1,4.652,3.08A6.586,6.586,0,0,1,12.7,1.341,4.313,4.313,0,0,1,15,.659a4.985,4.985,0,0,1,3.79,1.618,6.394,6.394,0,0,1,1.531,4.512A6.126,6.126,0,0,1,18.8,11.272,5.03,5.03,0,0,1,15,12.889Zm-8.824-9.7a3.281,3.281,0,0,0-2.356,1.05,3.64,3.64,0,0,0-.978,2.554,3.525,3.525,0,0,0,.951,2.554,3.1,3.1,0,0,0,2.383,1.05,3.081,3.081,0,0,0,2.412-1.05,3.618,3.618,0,0,0,.994-2.554A3.609,3.609,0,0,0,8.6,4.263,3.209,3.209,0,0,0,6.171,3.185ZM16.926,9.058a3.191,3.191,0,0,0,.879-2.269,3.05,3.05,0,0,0-.852-2.27,2.827,2.827,0,0,0-2.142-.937,2.873,2.873,0,0,0-2.156.937,3.265,3.265,0,0,0-.894,2.27,3.151,3.151,0,0,0,.894,2.255,2.664,2.664,0,0,0,2.156.949A2.468,2.468,0,0,0,16.926,9.058Z" fill="#fff"/></g></g></g><g transform="translate(365.827 862.367) rotate(-90)"><g transform="translate(0 0)"><circle cx="18.265" cy="18.265" r="18.265" fill="#353535"/></g><g transform="translate(8.112 11.217)"><g transform="translate(0 0)"><path d="M.243,5.058a5.8,5.8,0,0,1,.823-1.789,5.339,5.339,0,0,1,1.7-1.716A8.24,8.24,0,0,1,5.434.333V3.285a3.592,3.592,0,0,0-2.61,3.633A3.181,3.181,0,0,0,3.888,9.186a5.78,5.78,0,0,0,2.284,1.3,10.5,10.5,0,0,0,2.6.44A3.9,3.9,0,0,1,7.307,9.271,5.415,5.415,0,0,1,6.655,6.32,6.1,6.1,0,0,1,8.768,1.61,6.592,6.592,0,0,1,13.948.034,7.343,7.343,0,0,1,16.3.645a7.827,7.827,0,0,1,2.115,1.419,6.226,6.226,0,0,1,1.489,2.383,8.154,8.154,0,0,1,.369,3.32,6.133,6.133,0,0,1-1.518,3.547,7.425,7.425,0,0,1-3.206,2.1,16.583,16.583,0,0,1-6.328.623,13.906,13.906,0,0,1-5.944-1.589A6.075,6.075,0,0,1,0,6.83,5.89,5.89,0,0,1,.243,5.058ZM10.315,9.726a4.6,4.6,0,0,0,3.064,1.106,4.769,4.769,0,0,0,3.107-1.106A3.657,3.657,0,0,0,17.678,7a3.487,3.487,0,0,0-1.219-2.709,4.444,4.444,0,0,0-3.08-1.106,4.427,4.427,0,0,0-3.092,1.106A3.33,3.33,0,0,0,9.081,7,3.6,3.6,0,0,0,10.315,9.726Z" fill="#fff"/></g></g></g><g transform="translate(576.325 862.367) rotate(-90)"><g transform="translate(0 0)"><circle cx="18.265" cy="18.265" r="18.265" fill="#353535"/></g><g transform="translate(8.093 5.851)"><g transform="translate(0.354 0)"><path d="M19.608,7.943H0V4.652H15.267a4.257,4.257,0,0,1-2.142-1.787A6.949,6.949,0,0,1,12.5,0h2.738a4.584,4.584,0,0,0,1.32,3.2,6.812,6.812,0,0,0,3.051,2.045Z" transform="translate(0)" fill="#fff"/></g><g transform="translate(0 10.357)"><path d="M17.891,12.343q-2.667,2.128-7.733,2.129-5.022,0-7.7-2.129A6.383,6.383,0,0,1,0,7.235,6.406,6.406,0,0,1,2.453,2.156Q5.15.028,10.158,0q5.065.027,7.733,2.156a6.2,6.2,0,0,1,2.455,5.079A6.175,6.175,0,0,1,17.891,12.343Zm-.283-5.108a3.122,3.122,0,0,0-1.816-2.752,11.27,11.27,0,0,0-5.633-1.137,11.4,11.4,0,0,0-5.6,1.137A3.122,3.122,0,0,0,2.737,7.235,3.09,3.09,0,0,0,4.553,10a11.267,11.267,0,0,0,5.6,1.149A11.143,11.143,0,0,0,15.791,10,3.09,3.09,0,0,0,17.607,7.235Z" transform="translate(0 0)" fill="#fff"/></g></g></g><g transform="translate(249.118 245.115)"><g transform="translate(13.825 25.85)"><rect width="4.041" height="10.687" fill="#2d2c2c"/><rect width="5.869" height="3.749" transform="translate(4.041 4.386)" fill="#2d2c2c"/><rect width="4.041" height="10.687" transform="translate(59.676)" fill="#2d2c2c"/><rect width="6.159" height="3.749" transform="translate(53.517 4.386)" fill="#2d2c2c"/></g><g transform="translate(0)"><rect width="8.933" height="63.974" transform="translate(4.892)" fill="#e63417"/><path d="M-275.039,303.145h8.721v8.933h-13.825Z" transform="translate(280.143 -248.103)" fill="#e63417"/><path d="M-268.3,309.849a1.17,1.17,0,0,1-2.34,0V306.02a1.17,1.17,0,0,1,2.34,0Z" transform="translate(278.936 -248.321)" fill="#e63417"/></g><g transform="translate(77.541)"><rect width="8.933" height="63.974" fill="#e63417"/><path d="M-182.6,303.145h-8.72v8.933H-177.5Z" transform="translate(191.32 -248.103)" fill="#e63417"/><path d="M-187.666,309.849a1.123,1.123,0,0,0,.365.874,1.186,1.186,0,0,0,1.975-.874V306.02a1.17,1.17,0,0,0-2.34,0Z" transform="translate(190.856 -248.321)" fill="#e63417"/></g><g transform="translate(20.697 9.383)"><g transform="translate(2.308 22.203)"><rect width="8.577" height="6.83" fill="#2d2d2d"/><rect width="8.577" height="6.83" transform="translate(36.777)" fill="#2d2d2d"/></g><path d="M-230.255,252.17c-11.438-.02-12.111.643-16.018,6.587h32.036C-218.144,252.813-218.816,252.15-230.255,252.17Z" transform="translate(255.144 -251.012)" fill="#2d2d2d"/><path d="M-227.6,251.3l-5.261,7.349h-5.535l5.257-7.349Z" transform="translate(254.143 -250.901)" fill="#7c7b7c"/><path d="M-220.644,251.3l-5.26,7.349h-2.768l5.258-7.349Z" transform="translate(252.908 -250.901)" fill="#7c7b7c"/><path d="M-216.648,252.372l-4.585,6.409H-224l4.584-6.409Z" transform="translate(252.315 -251.038)" fill="#7c7b7c"/><path d="M-231.259,250.844c-14.2,0-12.873.394-18.19,7.744l-2.375,2.54-2.351,2.516v9.4l2.35,3.368h20.564l20.564-.1,2.352-3.367v-9.4l-4.725-4.952C-218.386,251.238-217.06,250.844-231.259,250.844Zm0,1.158c11.439-.02,12.111.643,16.018,6.587h-32.035C-243.37,252.644-242.7,251.982-231.259,252Z" transform="translate(256.147 -250.844)" fill="#e63417"/><g transform="translate(0 3.731)"><path d="M-250.32,255.118h-5.55a.564.564,0,0,0-.565.564v1.976a.564.564,0,0,0,.565.565h4.075l1.958,1.152H-248S-250.254,255.118-250.32,255.118Z" transform="translate(256.434 -255.118)" fill="#c12107"/><path d="M-206.536,255.118h5.55a.564.564,0,0,1,.565.564v1.976a.565.565,0,0,1-.565.565h-4.075l-1.958,1.152h-1.839S-206.6,255.118-206.536,255.118Z" transform="translate(250.392 -255.118)" fill="#c12107"/></g><g transform="translate(5.59 22.203)"><rect width="7.443" height="1.425" fill="#2d2d2d"/><rect width="7.442" height="1.425" transform="translate(31.348)" fill="#2d2d2d"/></g><path d="M-215.007,268.225h-32.5c-5.284,0-6.451-1.249-6.663-2.026v6.233h45.831V266.2C-208.556,266.976-209.722,268.225-215.007,268.225Z" transform="translate(256.147 -252.794)" fill="#c12107"/><path d="M-219.759,277.721v-4.613a.923.923,0,0,0-.923-.923h-17.006a.922.922,0,0,0-.922.923v4.613Z" transform="translate(254.17 -253.554)" fill="#d6d8d7"/><g transform="translate(6.008 14.441)"><path d="M-243.78,269.819a2.688,2.688,0,0,1-2.886,2.434,2.689,2.689,0,0,1-2.886-2.434,2.689,2.689,0,0,1,2.886-2.433A2.688,2.688,0,0,1-243.78,269.819Z" transform="translate(249.552 -267.386)" fill="#d6d8d7"/><path d="M-206.915,269.819a2.69,2.69,0,0,1-2.888,2.434,2.689,2.689,0,0,1-2.886-2.434,2.689,2.689,0,0,1,2.886-2.433A2.69,2.69,0,0,1-206.915,269.819Z" transform="translate(244.87 -267.386)" fill="#d6d8d7"/></g></g></g><text transform="translate(263.31 389.678)" fill="#272727" font-size="13" font-family="Montserrat-Bold, Montserrat" font-weight="700" letter-spacing="-0.01em"><tspan x="0" y="0">Tiếp đón xe</tspan></text><text transform="translate(433.31 389.678)" fill="#272727" font-size="13" font-family="Montserrat-Bold, Montserrat" font-weight="700" letter-spacing="-0.01em"><tspan x="0" y="0">Đánh giá </tspan><tspan x="0" y="17">tình trạng xe</tspan></text><text transform="translate(742.31 389.678)" fill="#272727" font-size="13" font-family="Montserrat-Bold, Montserrat" font-weight="700" letter-spacing="-0.01em"><tspan x="0" y="0">Lên hợp đồng,</tspan><tspan x="0" y="17">lệnh sửa chữa</tspan></text><text transform="translate(804.31 633.678)" fill="#272727" font-size="13" font-family="Montserrat-Bold, Montserrat" font-weight="700" letter-spacing="-0.01em"><tspan x="0" y="0">Tiến hành</tspan><tspan x="0" y="17">sửa chữa</tspan></text><text transform="translate(593.31 633.678)" fill="#272727" font-size="13" font-family="Montserrat-Bold, Montserrat" font-weight="700" letter-spacing="-0.01em"><tspan x="0" y="0">Nghiệm thu,</tspan><tspan x="0" y="17">thanh lý, bàn giao</tspan></text><text transform="translate(390.31 633.678)" fill="#272727" font-size="13" font-family="Montserrat-Bold, Montserrat" font-weight="700" letter-spacing="-0.01em"><tspan x="0" y="0">Lập phiếu cho</tspan><tspan x="0" y="17">xe xuất xưởng</tspan></text><text transform="translate(345.31 885.678)" fill="#272727" font-size="14" font-family="Montserrat-Bold, Montserrat" font-weight="700" letter-spacing="-0.01em"><tspan x="0" y="0">Theo dõi công nợ</tspan></text><text transform="translate(563.31 885.678)" fill="#272727" font-size="14" font-family="Montserrat-Bold, Montserrat" font-weight="700" letter-spacing="-0.01em"><tspan x="0" y="0">Báo cáo kết quả</tspan><tspan x="0" y="16">kinh doanh</tspan></text><text transform="translate(223.31 632.678)" fill="#272727" font-size="12" font-family="Montserrat-Bold, Montserrat" font-weight="700" letter-spacing="-0.01em"><tspan x="0" y="0">Chăm sóc khách</tspan><tspan x="0" y="15">hàng, nhắc nhở</tspan><tspan x="0" y="30">bảo dưỡng</tspan></text><g transform="translate(423.13 233.739)"><rect width="6.825" height="5.93" transform="translate(48.141 0)" fill="#393f3f"/><path d="M-520.927,256.146c0,10.548-9.112,19.1-20.351,19.1s-20.352-8.552-20.352-19.1,9.112-19.1,20.352-19.1S-520.927,245.6-520.927,256.146Z" transform="translate(592.832 -234.81)" fill="#353535"/><path d="M0,0H20.212V30.038H0Z" transform="matrix(0.707, -0.707, 0.707, 0.707, 16.965, 14.292)" fill="#e63417"/><g transform="translate(50.14 0)"><rect width="30.702" height="20.211" transform="translate(0 21.71) rotate(-45.001)" fill="#e63417"/></g><path d="M-541.712,255.923v21.755a21.361,21.361,0,0,0-1.733-1.964,20.851,20.851,0,0,0-22.526-4.6V259.624a3.7,3.7,0,0,1,3.7-3.7Z" transform="translate(592.992 -235.503)" fill="#e63417"/><path d="M-516.528,259.624V288.61a3.7,3.7,0,0,1-3.7,3.7H-536.5q.084-.925.084-1.856a20.764,20.764,0,0,0-4.369-12.775V255.923h20.558A3.7,3.7,0,0,1-516.528,259.624Z" transform="translate(592.066 -235.503)" fill="#e63417"/><path d="M-544.657,241.023v19.835c0,5.024,8,4.861,8,0V241.023Z" transform="translate(592.209 -234.956)" fill="#353535"/><rect width="5.196" height="6.19" transform="translate(11.776 73.606) rotate(-45.006)" fill="#222324"/><path d="M-556.549,265.755c-3.255,1.426-15.025,7.272-17.691,8.724v15.254a4.871,4.871,0,0,0,4.87,4.871h27.063V275.343A27.369,27.369,0,0,0-556.549,265.755Z" transform="translate(593.296 -235.865)" fill="#e63417"/><path d="M-535.446,294.97h-5.642V275.709A27.37,27.37,0,0,1-535.446,294.97Z" transform="translate(592.077 -236.231)" fill="#e63417"/><g transform="translate(0 72.618)"><path d="M-580.058,313.288l-12.493,12.493a4.156,4.156,0,0,1-.195-6.155l9.514-9.513Z" transform="translate(594.023 -310.113)" fill="#272727"/><path d="M-576.827,316.584l-9.513,9.513a4.235,4.235,0,0,1-6.155-.195L-580,313.409Z" transform="translate(593.967 -310.234)" fill="#272727"/></g><g transform="translate(23.983 38.519)"><path d="M-566.375,280.9a13.031,13.031,0,0,1,16.151,0,1.688,1.688,0,0,0,2.088-2.654,16.4,16.4,0,0,0-20.327,0A1.688,1.688,0,0,0-566.375,280.9Z" transform="translate(569.125 -274.713)" fill="#fdfdfd"/></g><path d="M-540.745,272.674a25.625,25.625,0,0,0-36.239,0,25.624,25.624,0,0,0,0,36.238,25.623,25.623,0,0,0,36.239,0A25.624,25.624,0,0,0-540.745,272.674Zm-3.382,32.857a20.843,20.843,0,0,1-29.474,0,20.782,20.782,0,0,1-6.106-14.739,20.779,20.779,0,0,1,6.1-14.737,20.844,20.844,0,0,1,29.478,0,20.762,20.762,0,0,1,6.1,14.737A20.774,20.774,0,0,1-544.127,305.531Z" transform="translate(593.673 -235.843)" fill="#353535"/><path d="M-549.029,295.754l2.242-1.23c-.4-1.229-.246-.749-.633-1.952l-2.539.32a9.655,9.655,0,0,0-1.792-2.468l1.088-2.312-1.661-1.208-1.864,1.753a9.56,9.56,0,0,0-2.9-.946l-.48-2.511h-2.054l-.48,2.511a9.662,9.662,0,0,0-2.9.942l-1.863-1.749c-1.047.762-.638.464-1.666,1.208l1.09,2.312a9.653,9.653,0,0,0-1.791,2.468l-2.536-.323c-.383,1.174-.2.6-.637,1.955l2.24,1.23a9.751,9.751,0,0,0,0,3.049l-2.24,1.232c.378,1.167.221.686.637,1.954l2.534-.321a9.766,9.766,0,0,0,1.793,2.466l-1.09,2.315c1.031.745.619.446,1.662,1.207L-563,305.9a9.633,9.633,0,0,0,2.9.945l.48,2.509h2.054l.48-2.509a9.629,9.629,0,0,0,2.9-.945l1.864,1.751c1.047-.759.637-.461,1.661-1.207l-1.088-2.315a9.663,9.663,0,0,0,1.792-2.466l2.539.321c.4-1.229.238-.746.633-1.953l-2.242-1.234A9.414,9.414,0,0,0-549.029,295.754Zm-9.565,7.288a5.761,5.761,0,0,1-5.762-5.763,5.763,5.763,0,0,1,5.762-5.763,5.764,5.764,0,0,1,5.764,5.763A5.762,5.762,0,0,1-558.595,303.042Z" transform="translate(593.155 -236.58)" fill="#353535"/></g><g transform="translate(764.334 251.678)"><g transform="translate(8.317 0)"><path d="M1.8,0H15.3a1.8,1.8,0,0,1,1.8,1.8V45.595a1.8,1.8,0,0,1-1.8,1.8H1.8a1.8,1.8,0,0,1-1.8-1.8V1.8A1.8,1.8,0,0,1,1.8,0Z" fill="#474747"/><path d="M1.8,0H15.3a1.8,1.8,0,0,1,1.8,1.8V45.594a1.8,1.8,0,0,1-1.8,1.8H1.8A1.8,1.8,0,0,1,0,45.6V1.8A1.8,1.8,0,0,1,1.8,0Z" transform="translate(61.666)" fill="#2d2d2d"/><rect width="61.666" height="39.31" transform="translate(8.553 4.043)" fill="#cc985d"/><g transform="translate(16.467 9.034)"><g transform="translate(24.406 0)"><rect width="7.22" height="3.662" fill="#e63417"/><rect width="7.221" height="3.662" transform="translate(10.6)" fill="#e63417"/><rect width="7.22" height="3.662" transform="translate(0 6.491)" fill="#e63417"/></g><path d="M0,0H3.61V13.982H0Z" transform="translate(35.006 12.318)" fill="#e63417"/><rect width="3.61" height="6.991" transform="translate(42.227 19.309)" fill="#e63417"/><rect width="22.638" height="3.496" transform="translate(0 22.803)" fill="#e63417"/><path d="M-225.992.459a8.324,8.324,0,0,1-8.322,8.323A8.323,8.323,0,0,1-242.635.459a8.324,8.324,0,0,1,8.321-8.323A8.324,8.324,0,0,1-225.992.459Z" transform="translate(242.635 7.864)" fill="#c12107"/><path d="M-234.9-1.322A1.192,1.192,0,0,1-236.1-.132a1.19,1.19,0,0,1-1.189-1.19A1.19,1.19,0,0,1-236.1-2.514,1.192,1.192,0,0,1-234.9-1.322Z" transform="translate(244.417 9.646)" fill="#474747"/><g transform="translate(7.654)"><path d="M-235.561-7.837v2.345h-1.332V-7.837c.22-.017.443-.027.667-.027S-235.781-7.855-235.561-7.837Z" transform="translate(236.893 7.864)" fill="#474747"/><path d="M-235.561,2.845V5.19c-.22.017-.441.027-.665.027s-.447-.009-.667-.027V2.845Z" transform="translate(236.893 11.43)" fill="#474747"/></g><g transform="translate(0 7.657)"><path d="M-229.559-1.453c0,.224-.008.447-.025.665h-2.342V-2.12h2.342C-229.567-1.9-229.559-1.679-229.559-1.453Z" transform="translate(246.201 2.12)" fill="#474747"/><path d="M-240.266-2.12V-.788h-2.342c-.017-.219-.027-.441-.027-.665s.009-.447.027-.667Z" transform="translate(242.635 2.12)" fill="#474747"/></g><rect width="1.142" height="5.199" transform="translate(7.751 3.468)" fill="#474747"/></g></g><g transform="translate(60.364 30.887)"><path d="M-184.9,14.646a.339.339,0,0,0,.039-.08l6.405,9.046c2.783,3.534,2.27,5.564,1.784,9.236l6.235,9.424-11.9,7.352L-190.2,39.616c-4.558,3.117-13.95-1.485-19.746-4.73l-4.139-1.293a1.376,1.376,0,0,1-.78-1.984c1.729-2.973,6.008-1.838,9.3-.832l4.475,1.165-5.288-7.561-8.993-11.877a2.421,2.421,0,0,1,3.76-3.05l7.48,9.764c-.933-2.494,2.665-4.8,4.484-2.315l.223.305c-.749-2.438,2.737-4.607,4.523-2.187.047-1.85,2.767-4,4.959-.994C-189.3,12.692-187.352,11.3-184.9,14.646Z" transform="translate(215.944 -8.53)" fill="#fcb160"/><g transform="translate(0.823 0.765)"><path d="M-214.544,9.357c.986-.758,2.287.228,3.4,2.363l-2.355,1.83C-215.521,11.71-215.857,10.368-214.544,9.357Z" transform="translate(215.326 -9.104)" fill="#f5802e"/></g><path d="M-214.2,25.985l2.565.957a2.246,2.246,0,0,1,1.461,2.179l-4.139-1.293a1.376,1.376,0,0,1-.78-1.984A2.239,2.239,0,0,1-214.2,25.985Z" transform="translate(216.169 -2.764)" fill="#f5802e"/></g><path d="M-260.182,43.014l.408-6.76c-2.971-15.978-1.718-23.694,6.864-34.784v17.5s2.386,2.658,5.221-6.614c.934-3.063,1.69-6.176,2.538-9.263a2.612,2.612,0,0,1,2.745-1.99,2.6,2.6,0,0,1,2.379,2.873l-1.525,13.941c2.307,5.6.605,16.169-4.8,19.449l-.435,7.714Z" transform="translate(261.227 19.881)" fill="#fcb160"/><g transform="translate(16.563 22.03)"><path d="M-248.8,5.809l3.165.535c.888-2.43.722-4.18-.6-4.414-1.754-.305-2.574.938-2.567,3.879Z" transform="translate(248.802 -1.885)" fill="#f5802e"/></g></g><g transform="translate(803.88 458.645)"><g transform="translate(62.969 53.431)"><path d="M-519.122-6.462h-3.358a1.161,1.161,0,0,0,0,2.322h3.358Z" transform="translate(524.17 9.561)" fill="#c6580c"/><path d="M-524.208-3.252l2.522.184,2.8.893.163-2.407-5.045-.275Z" transform="translate(524.208 9.457)" fill="#543309"/><path d="M-524.208-7.333l2.522-.184,2.8-.893L-518.724-6l-5.045.275Z" transform="translate(524.208 9.688)" fill="#543309"/><rect width="1.233" height="8.52" transform="translate(8.168 0)" fill="#543309"/><path d="M-515.743-1.258V-9.777C-520.94-9.777-520.962-1.258-515.743-1.258Z" transform="translate(523.911 9.777)" fill="#353535"/><g transform="translate(0.704 2.981)"><g transform="translate(0 1.944)"><path d="M-523.147-4.51a.307.307,0,0,1,.308.307.307.307,0,0,1-.308.308.307.307,0,0,1-.308-.308A.307.307,0,0,1-523.147-4.51Z" transform="translate(523.455 4.51)" fill="#262220"/><path d="M-522.144-4.51a.308.308,0,0,1,.308.307.308.308,0,0,1-.308.308.307.307,0,0,1-.308-.308A.307.307,0,0,1-522.144-4.51Z" transform="translate(523.39 4.51)" fill="#262220"/><path d="M-521.136-4.51a.308.308,0,0,1,.308.307.308.308,0,0,1-.308.308.308.308,0,0,1-.308-.308A.308.308,0,0,1-521.136-4.51Z" transform="translate(523.324 4.51)" fill="#262220"/><path d="M-520.134-4.51a.308.308,0,0,1,.307.307.308.308,0,0,1-.307.308.307.307,0,0,1-.308-.308A.307.307,0,0,1-520.134-4.51Z" transform="translate(523.259 4.51)" fill="#262220"/></g><path d="M-523.147-6.589a.308.308,0,0,1,.308.308.308.308,0,0,1-.308.309.308.308,0,0,1-.308-.309A.308.308,0,0,1-523.147-6.589Z" transform="translate(523.455 6.589)" fill="#262220"/><path d="M-522.144-6.589a.308.308,0,0,1,.308.308.309.309,0,0,1-.308.309.308.308,0,0,1-.308-.309A.308.308,0,0,1-522.144-6.589Z" transform="translate(523.39 6.589)" fill="#262220"/><path d="M-521.136-6.589a.308.308,0,0,1,.308.308.309.309,0,0,1-.308.309.309.309,0,0,1-.308-.309A.308.308,0,0,1-521.136-6.589Z" transform="translate(523.324 6.589)" fill="#262220"/><path d="M-520.134-6.583a.308.308,0,0,1,.307.308.308.308,0,0,1-.307.308.308.308,0,0,1-.308-.308A.307.307,0,0,1-520.134-6.583Z" transform="translate(523.259 6.589)" fill="#262220"/></g><g transform="translate(0.83 3.243)"><path d="M-522.957-6.127V-4.5a.181.181,0,1,1-.363,0V-6.127A.181.181,0,1,1-522.957-6.127Z" transform="translate(523.32 6.309)" fill="#dddcdb"/><path d="M-521.952-6.127V-4.5a.182.182,0,0,1-.365,0V-6.127A.182.182,0,0,1-521.952-6.127Z" transform="translate(523.255 6.309)" fill="#dddcdb"/><path d="M-520.948-6.127V-4.5a.182.182,0,1,1-.364,0V-6.127A.182.182,0,1,1-520.948-6.127Z" transform="translate(523.189 6.309)" fill="#dddcdb"/><path d="M-519.944-6.127V-4.5a.182.182,0,1,1-.364,0V-6.127A.182.182,0,1,1-519.944-6.127Z" transform="translate(523.124 6.309)" fill="#dddcdb"/></g></g><g transform="translate(62.969 43.66)"><path d="M-519.122-16.913h-3.358a1.161,1.161,0,0,0,0,2.322h3.358Z" transform="translate(524.17 20.012)" fill="#c6580c"/><path d="M-524.208-13.7l2.522.184,2.8.893.163-2.406-5.045-.276Z" transform="translate(524.208 19.908)" fill="#543309"/><path d="M-524.208-17.784l2.522-.184,2.8-.893.163,2.407-5.045.275Z" transform="translate(524.208 20.139)" fill="#543309"/><rect width="1.233" height="8.52" transform="translate(8.168 0)" fill="#543309"/><path d="M-515.743-11.708v-8.52C-520.94-20.228-520.962-11.708-515.743-11.708Z" transform="translate(523.911 20.228)" fill="#353535"/><g transform="translate(0.704 2.981)"><g transform="translate(0 1.943)"><path d="M-523.147-14.961a.307.307,0,0,1,.308.307.308.308,0,0,1-.308.309.308.308,0,0,1-.308-.309A.307.307,0,0,1-523.147-14.961Z" transform="translate(523.455 14.961)" fill="#262220"/><path d="M-522.144-14.961a.308.308,0,0,1,.308.307.309.309,0,0,1-.308.309.308.308,0,0,1-.308-.309A.307.307,0,0,1-522.144-14.961Z" transform="translate(523.39 14.961)" fill="#262220"/><path d="M-521.136-14.961a.308.308,0,0,1,.308.307.309.309,0,0,1-.308.309.309.309,0,0,1-.308-.309A.308.308,0,0,1-521.136-14.961Z" transform="translate(523.324 14.961)" fill="#262220"/><path d="M-520.134-14.961a.308.308,0,0,1,.307.307.309.309,0,0,1-.307.309.308.308,0,0,1-.308-.309A.307.307,0,0,1-520.134-14.961Z" transform="translate(523.259 14.961)" fill="#262220"/></g><g transform="translate(0)"><circle cx="0.307" cy="0.307" r="0.307" fill="#262220"/><path d="M-522.144-17.039a.308.308,0,0,1,.308.308.307.307,0,0,1-.308.307.306.306,0,0,1-.308-.307A.307.307,0,0,1-522.144-17.039Z" transform="translate(523.39 17.039)" fill="#262220"/><path d="M-521.136-17.039a.308.308,0,0,1,.308.308.307.307,0,0,1-.308.307.307.307,0,0,1-.308-.307A.308.308,0,0,1-521.136-17.039Z" transform="translate(523.324 17.039)" fill="#262220"/><path d="M-520.134-17.034a.308.308,0,0,1,.307.308.308.308,0,0,1-.307.308.307.307,0,0,1-.308-.308A.307.307,0,0,1-520.134-17.034Z" transform="translate(523.259 17.039)" fill="#262220"/></g></g><g transform="translate(0.83 3.243)"><path d="M-522.957-16.578v1.624a.181.181,0,1,1-.363,0v-1.624A.181.181,0,1,1-522.957-16.578Z" transform="translate(523.32 16.759)" fill="#dddcdb"/><path d="M-521.952-16.578v1.624a.182.182,0,0,1-.365,0v-1.624A.182.182,0,0,1-521.952-16.578Z" transform="translate(523.255 16.759)" fill="#dddcdb"/><path d="M-520.948-16.578v1.624a.182.182,0,0,1-.364,0v-1.624A.182.182,0,0,1-520.948-16.578Z" transform="translate(523.189 16.759)" fill="#dddcdb"/><path d="M-519.944-16.578v1.624a.182.182,0,0,1-.364,0v-1.624A.182.182,0,0,1-519.944-16.578Z" transform="translate(523.124 16.759)" fill="#dddcdb"/></g></g><rect width="21.318" height="8.52" transform="translate(42.405 53.431)" fill="#e63417"/><rect width="21.318" height="8.52" transform="translate(42.405 43.66)" fill="#e63417"/><path d="M-535.762-14.606a1.366,1.366,0,0,1-1.366,1.366h0a1.367,1.367,0,0,1-1.366-1.366V-16.2a1.366,1.366,0,0,1,1.366-1.366h0a1.366,1.366,0,0,1,1.366,1.366Z" transform="translate(588.106 63.715)" fill="#c12107"/><path d="M-535.762-4.574a1.366,1.366,0,0,1-1.366,1.365h0a1.366,1.366,0,0,1-1.366-1.365V-6.167a1.366,1.366,0,0,1,1.366-1.366h0a1.366,1.366,0,0,1,1.366,1.366Z" transform="translate(588.106 63.062)" fill="#c12107"/><g transform="translate(3.452 0)"><path d="M-565.556-66.925V24.124c-5.815,0-11.629-.611-15.515-1.835a5.557,5.557,0,0,1-3.818-4.469L-587.551.251a4.583,4.583,0,0,1,1.052-3.67l.228-28.226-1.594-5.463V-51.331a15.588,15.588,0,0,1,3.286-9.576,15.593,15.593,0,0,1,12.308-6.018Z" transform="translate(587.865 66.925)" fill="#e63417"/><g transform="translate(22.309)"><path d="M-564-66.925V24.124c5.815,0,11.629-.611,15.515-1.835a5.554,5.554,0,0,0,3.817-4.469L-542.009.251a4.586,4.586,0,0,0-1.052-3.67l-.228-28.226,1.594-5.463V-51.331a15.6,15.6,0,0,0-3.286-9.576,15.593,15.593,0,0,0-12.309-6.018Z" transform="translate(564.004 66.925)" fill="#c12107"/></g></g><g transform="translate(0 28.25)"><path d="M-580.659-34.471a2.155,2.155,0,0,1-.507,2.939l-6.985,3.563a2.155,2.155,0,0,1-2.677-1.315l-.395-.774A2.153,2.153,0,0,1-590.716-33l6.985-3.563a2.155,2.155,0,0,1,2.677,1.315Z" transform="translate(591.557 36.709)" fill="#971803"/><path d="M-548.13-34.471a2.155,2.155,0,0,0,.506,2.939l6.986,3.563a2.155,2.155,0,0,0,2.677-1.315l.395-.774A2.153,2.153,0,0,0-538.074-33l-6.985-3.563a2.155,2.155,0,0,0-2.677,1.315Z" transform="translate(588.754 36.709)" fill="#971803"/></g><g transform="translate(10.283 23.128)"><path d="M-580.559-41.277l3.186,16.666a50.572,50.572,0,0,1,12.292-1.611V-42.188S-576.007-42.188-580.559-41.277Z" transform="translate(580.559 42.188)" fill="#474646"/><path d="M-548.526-41.277l-3.186,16.666A50.579,50.579,0,0,0-564-26.223V-42.188S-553.078-42.188-548.526-41.277Z" transform="translate(579.482 42.188)" fill="#353535"/></g><g transform="translate(7.628 4.483)"><path d="M-575.627-61.656c1.026,1.05.217,3.5-1.806,5.48s-4.5,2.727-5.521,1.677-.217-3.5,1.806-5.481S-576.652-62.706-575.627-61.656Z" transform="translate(583.399 62.131)" fill="#fff"/><path d="M-552.953-61.656c-1.026,1.05-.217,3.5,1.806,5.48s4.5,2.727,5.521,1.677.217-3.5-1.806-5.481S-551.927-62.706-552.953-61.656Z" transform="translate(581.447 62.131)" fill="#fff"/></g><g transform="translate(7.052 30.615)"><path d="M-584.014-34.18l1.121,33.688s3.157-1.593,2.987-9.1V-21.226l-2.9-12.954Z" transform="translate(584.014 34.18)" fill="#474646"/><path d="M-544.28-34.18-545.4-.492s-3.157-1.593-2.987-9.1V-21.226l2.9-12.954Z" transform="translate(581.698 34.18)" fill="#353535"/></g><g transform="translate(12.11 59.978)"><path d="M-576.79-2.774-578.6,8.248h13.651V-2.774Z" transform="translate(578.605 2.774)" fill="#474646"/><path d="M-552.168-2.774l1.815,11.022H-564V-2.774Z" transform="translate(577.655 2.774)" fill="#353535"/></g><g transform="translate(53.084 22.015)"><rect width="14.505" height="18.097" fill="#353535"/><rect width="14.505" height="2.591" fill="#445164"/><rect width="14.505" height="2.59" transform="translate(0 15.506)" fill="#445164"/><rect width="2.59" height="16.783" transform="translate(11.915)" fill="#445164"/><rect width="2.59" height="16.783" fill="#445164"/></g><g transform="translate(56.895 25.988)"><g transform="translate(0 0.71)"><path d="M-529.084-33.329h-1.346l-.275-5.04h1.9Z" transform="translate(530.704 38.37)" fill="#445164"/><rect width="0.857" height="5.133" transform="translate(0.519 4.308)" fill="#445164"/></g><g transform="translate(2.832)"><path d="M-526.518-39.129a1.809,1.809,0,0,0,.869,3.485v-1.311l-.869-.431Z" transform="translate(527.675 39.129)" fill="#445164"/><path d="M-524.64-39.129a1.809,1.809,0,0,1-.868,3.485v-1.311l.868-.431Z" transform="translate(527.534 39.129)" fill="#445164"/><path d="M-524.774-28.855h-1.578l.278-6.6h1.021Z" transform="translate(527.589 38.89)" fill="#445164"/></g></g></g><g transform="translate(605.961 462.994)"><g transform="translate(6.989 85.836)"><g transform="translate(11.087)"><path d="M-561.292,168.283v-3.947a1.365,1.365,0,0,1,2.73,0v3.947Z" transform="translate(564.934 -162.349)" fill="#c6580c"/><path d="M-557.565,162.322l.216,2.964,1.05,3.29-2.829.191-.324-5.929Z" transform="translate(564.858 -162.322)" fill="#543309"/><path d="M-562.258,162.322l-.215,2.964-1.05,3.29,2.829.191.323-5.929Z" transform="translate(565.026 -162.322)" fill="#543309"/><rect width="10.014" height="1.45" transform="translate(0 9.6)" fill="#543309"/><path d="M-555.076,172.137H-565.09C-565.09,166.028-555.076,166-555.076,172.137Z" transform="translate(565.09 -162.537)" fill="#75440e"/><g transform="translate(3.504 0.826)"><g transform="translate(2.283)"><path d="M-559.055,163.546a.361.361,0,0,0,.361.361.36.36,0,0,0,.361-.361.361.361,0,0,0-.361-.362A.362.362,0,0,0-559.055,163.546Z" transform="translate(559.055 -163.184)" fill="#262220"/><path d="M-559.055,164.7a.361.361,0,0,0,.361.361.36.36,0,0,0,.361-.361.361.361,0,0,0-.361-.361A.362.362,0,0,0-559.055,164.7Z" transform="translate(559.055 -163.231)" fill="#262220"/><path d="M-559.055,165.851a.362.362,0,0,0,.361.361.361.361,0,0,0,.361-.361.361.361,0,0,0-.361-.362A.362.362,0,0,0-559.055,165.851Z" transform="translate(559.055 -163.279)" fill="#262220"/><path d="M-559.055,167a.362.362,0,0,0,.361.362.361.361,0,0,0,.361-.362.361.361,0,0,0-.361-.361A.362.362,0,0,0-559.055,167Z" transform="translate(559.055 -163.326)" fill="#262220"/></g><path d="M-561.436,163.546a.36.36,0,0,0,.361.361.36.36,0,0,0,.361-.361.361.361,0,0,0-.361-.362A.361.361,0,0,0-561.436,163.546Z" transform="translate(561.436 -163.184)" fill="#262220"/><path d="M-561.436,164.7a.36.36,0,0,0,.361.361.36.36,0,0,0,.361-.361.361.361,0,0,0-.361-.361A.361.361,0,0,0-561.436,164.7Z" transform="translate(561.436 -163.231)" fill="#262220"/><path d="M-561.436,165.851a.361.361,0,0,0,.361.361.361.361,0,0,0,.361-.361.361.361,0,0,0-.361-.362A.361.361,0,0,0-561.436,165.851Z" transform="translate(561.436 -163.279)" fill="#262220"/><path d="M-561.43,167a.361.361,0,0,0,.362.362.362.362,0,0,0,.361-.362.361.361,0,0,0-.361-.361A.361.361,0,0,0-561.43,167Z" transform="translate(561.436 -163.326)" fill="#262220"/></g><g transform="translate(3.811 0.975)"><path d="M-560.9,163.766h1.909a.213.213,0,1,0,0-.427H-560.9A.213.213,0,0,0-560.9,163.766Z" transform="translate(561.115 -163.339)" fill="#dddcdb"/><path d="M-560.9,164.918h1.909a.214.214,0,0,0,0-.429H-560.9A.214.214,0,0,0-560.9,164.918Z" transform="translate(561.115 -163.386)" fill="#dddcdb"/><path d="M-560.9,166.068h1.909a.214.214,0,1,0,0-.428H-560.9A.214.214,0,0,0-560.9,166.068Z" transform="translate(561.115 -163.434)" fill="#dddcdb"/><path d="M-560.9,167.219h1.909a.213.213,0,1,0,0-.427H-560.9A.213.213,0,0,0-560.9,167.219Z" transform="translate(561.115 -163.481)" fill="#dddcdb"/></g></g><path d="M-570.124,168.283v-3.947a1.365,1.365,0,0,0-2.73,0v3.947Z" transform="translate(576.497 -162.349)" fill="#c6580c"/><path d="M-573.87,162.322l-.216,2.964-1.05,3.29,2.829.191.323-5.929Z" transform="translate(576.591 -162.322)" fill="#543309"/><path d="M-569.176,162.322l.216,2.964,1.05,3.29-2.83.191-.323-5.929Z" transform="translate(576.423 -162.322)" fill="#543309"/><rect width="10.014" height="1.45" transform="translate(0 9.6)" fill="#543309"/><path d="M-576.653,172.137h10.014C-566.639,166.028-576.653,166-576.653,172.137Z" transform="translate(576.653 -162.537)" fill="#75440e"/><g transform="translate(3.504 0.826)"><path d="M-572.276,163.546a.36.36,0,0,1-.362.361.361.361,0,0,1-.361-.361.362.362,0,0,1,.361-.362A.361.361,0,0,1-572.276,163.546Z" transform="translate(572.999 -163.184)" fill="#262220"/><path d="M-572.276,164.7a.361.361,0,0,1-.362.361A.361.361,0,0,1-573,164.7a.362.362,0,0,1,.361-.361A.361.361,0,0,1-572.276,164.7Z" transform="translate(572.999 -163.231)" fill="#262220"/><path d="M-572.276,165.851a.361.361,0,0,1-.362.361.362.362,0,0,1-.361-.361.362.362,0,0,1,.361-.362A.361.361,0,0,1-572.276,165.851Z" transform="translate(572.999 -163.279)" fill="#262220"/><path d="M-572.276,167a.361.361,0,0,1-.362.362A.362.362,0,0,1-573,167a.362.362,0,0,1,.361-.361A.361.361,0,0,1-572.276,167Z" transform="translate(572.999 -163.326)" fill="#262220"/><g transform="translate(2.278)"><path d="M-569.894,163.546a.361.361,0,0,1-.361.361.361.361,0,0,1-.361-.361.362.362,0,0,1,.361-.362A.362.362,0,0,1-569.894,163.546Z" transform="translate(570.623 -163.184)" fill="#262220"/><path d="M-569.894,164.7a.361.361,0,0,1-.361.361.361.361,0,0,1-.361-.361.362.362,0,0,1,.361-.361A.362.362,0,0,1-569.894,164.7Z" transform="translate(570.623 -163.231)" fill="#262220"/><path d="M-569.894,165.851a.362.362,0,0,1-.361.361.362.362,0,0,1-.361-.361.362.362,0,0,1,.361-.362A.362.362,0,0,1-569.894,165.851Z" transform="translate(570.623 -163.279)" fill="#262220"/><path d="M-569.9,167a.361.361,0,0,1-.361.362.361.361,0,0,1-.362-.362.361.361,0,0,1,.362-.361A.361.361,0,0,1-569.9,167Z" transform="translate(570.623 -163.326)" fill="#262220"/></g></g><g transform="translate(3.867 0.975)"><path d="M-570.5,163.766h-1.909a.213.213,0,0,1,0-.427h1.909A.213.213,0,1,1-570.5,163.766Z" transform="translate(572.62 -163.339)" fill="#dddcdb"/><path d="M-570.5,164.918h-1.909a.214.214,0,0,1,0-.429h1.909A.214.214,0,0,1-570.5,164.918Z" transform="translate(572.62 -163.386)" fill="#dddcdb"/><path d="M-570.5,166.068h-1.909a.214.214,0,0,1,0-.428h1.909A.214.214,0,0,1-570.5,166.068Z" transform="translate(572.62 -163.434)" fill="#dddcdb"/><path d="M-570.5,167.219h-1.909a.213.213,0,0,1,0-.427h1.909A.213.213,0,1,1-570.5,167.219Z" transform="translate(572.62 -163.481)" fill="#dddcdb"/></g></g><path d="M-566.09,113.179l-10.273,2.236.691,17.886h19.164l.691-17.886Z" transform="translate(583.63 -74.464)" fill="#ff7208"/><path d="M-558.158,97.339a8.354,8.354,0,0,1-3.2-1.022c0,5.79-10.083,5.79-10.083,0a8.344,8.344,0,0,1-3.2,1.022c-9.712-.485-9.293,5.425-9.293,10.154l7.429,1.311-.165,5.916h20.546l-.165-5.916,7.428-1.311C-548.866,102.764-548.447,96.854-558.158,97.339Z" transform="translate(583.942 -73.77)" fill="#fff"/><g transform="translate(9.643 5.57)"><path d="M-557.753,84.2a50.7,50.7,0,0,1-1.156,6.383l-1.535,1.076h-5.206V78.612l6.166,2.249Z" transform="translate(573.546 -78.612)" fill="#313c3b"/><path d="M-573.885,84.2a50.518,50.518,0,0,0,1.156,6.383l1.534,1.076h5.206V78.612l-6.165,2.249Z" transform="translate(573.885 -78.612)" fill="#313c3b"/></g><path d="M-562.184,92.239h-7.366c-.118.827-.573,3.245-1.359,3.91.059,7.888,10.2,7.854,10.083,0C-561.611,95.484-562.065,93.066-562.184,92.239Z" transform="translate(583.406 -73.603)" fill="#f49d56"/><path d="M-565.968,79.286l-7.407,2.557,1.574,10.03s2.425,3.39,5.834,3.39,5.835-3.39,5.835-3.39l1.573-10.03Z" transform="translate(583.507 -73.07)" fill="#fcb87a"/><path d="M-557.366,118.309l-.177-12.4h-17.185l-.177,12.4L-577.44,133l1.723,30.182h7.666l1.916-24.752,1.916,24.752h7.665L-554.829,133Z" transform="translate(583.674 -74.165)" fill="#e63417"/><g transform="translate(9.577 12.281)"><path d="M-572.4,86.016c-1.334-1.143-2.312.257-.753,2.653,0,0-.119.789,1,.789Z" transform="translate(573.954 -85.611)" fill="#fcb87a"/><path d="M-558.975,86.016c1.334-1.143,2.312.257.753,2.653,0,0,.118.789-1,.789Z" transform="translate(573.347 -85.611)" fill="#fcb87a"/></g><path d="M-573.379,84.346s11.574-.021,14.015-3.031l-8.843-.908-5.172,1.482A8.47,8.47,0,0,0-573.379,84.346Z" transform="translate(583.511 -73.116)" fill="#313c3b"/><path d="M-564.67,89.623a1.577,1.577,0,0,1-2.083,0h-.381l.49.451a1.057,1.057,0,0,0,1.865,0l.489-.451Z" transform="translate(583.25 -73.495)" fill="#f49d56"/><g transform="translate(15.655 18.403)"><path d="M-564.016,92.557a1.922,1.922,0,0,1-1.708.968,1.923,1.923,0,0,1-1.708-.968Z" transform="translate(567.608 -92.019)" fill="#c41902"/><path d="M-563.847,92a1.567,1.567,0,0,1-.176.538h-3.416a1.607,1.607,0,0,1-.176-.538Z" transform="translate(567.615 -91.996)" fill="#fff"/></g><path d="M-562.705,81.407a9.055,9.055,0,0,0,4.409,3.3l.175-3.3Z" transform="translate(583.068 -73.157)" fill="#313c3b"/><path d="M-557.9,82.68A8.92,8.92,0,0,0-566,81.122v0a8.918,8.918,0,0,0-8.092,1.558C-574.055,87.393-557.522,87.507-557.9,82.68Z" transform="translate(583.536 -73.13)" fill="#313c3b"/><path d="M-566.012,72.8v8.782c-3.082,0-6.163.793-7.9,2.378C-575.765,75.849-573.076,72.8-566.012,72.8Z" transform="translate(583.553 -72.803)" fill="#e63417"/><path d="M-565.649,72.8v8.782c3.082,0,6.162.793,7.9,2.378C-555.9,75.849-558.585,72.8-565.649,72.8Z" transform="translate(583.189 -72.803)" fill="#e63417"/><path d="M-571.5,122.173a5.784,5.784,0,0,0-.144,1.277A5.749,5.749,0,0,0-565.9,129.2a5.749,5.749,0,0,0,5.749-5.749,5.788,5.788,0,0,0-.144-1.277Z" transform="translate(583.436 -74.834)" fill="#971803"/><path d="M-562.386,78.82h-6.919a1.118,1.118,0,0,1,0-2.235h6.919A1.118,1.118,0,0,1-562.386,78.82Z" transform="translate(583.386 -72.959)" fill="#d6d8d7"/><g transform="translate(13.159 13.573)"><path d="M-568.531,87.8a.844.844,0,0,1-.844.843.844.844,0,0,1-.844-.843.844.844,0,0,1,.844-.844A.844.844,0,0,1-568.531,87.8Z" transform="translate(570.218 -86.958)" fill="#313c3b"/><path d="M-568.742,87.731a.323.323,0,0,1-.321.322.321.321,0,0,1-.321-.322.321.321,0,0,1,.321-.321A.322.322,0,0,1-568.742,87.731Z" transform="translate(570.184 -86.977)" fill="#fff"/></g><g transform="translate(20.144 13.573)"><path d="M-561.246,87.8a.844.844,0,0,1-.844.843.844.844,0,0,1-.844-.843.844.844,0,0,1,.844-.844A.844.844,0,0,1-561.246,87.8Z" transform="translate(562.933 -86.958)" fill="#313c3b"/><path d="M-561.458,87.731a.321.321,0,0,1-.32.322.323.323,0,0,1-.322-.322.322.322,0,0,1,.322-.321A.32.32,0,0,1-561.458,87.731Z" transform="translate(562.899 -86.977)" fill="#fff"/></g><path d="M-576.426,109.3l-5.478-.967,1.532,15.787h3.946Z" transform="translate(583.858 -74.265)" fill="#fcb87a"/><path d="M-580.826,120.039a28.861,28.861,0,0,0,1.013,13.544h2.82s1.786-7.187.6-13.056Z" transform="translate(583.829 -74.746)" fill="#fcb87a"/><path d="M-577.169,137c.21.748.4,1.52.4,1.52h.681l.161-1.919c.151-2.078-1-2.435-1-2.435h-2.82V137.6s.483,2.755,4.448,2.515v-.838C-576.444,139.32-577.53,138.995-577.169,137Z" transform="translate(583.77 -75.328)" fill="#fcb87a"/><path d="M-555.108,109.3l5.478-.967-1.532,15.787h-3.946Z" transform="translate(582.756 -74.265)" fill="#fcb87a"/><path d="M-550.7,120.039a32.783,32.783,0,0,1-.876,14.682l-3.374.409s-1.37-8.734-.179-14.6Z" transform="translate(582.777 -74.746)" fill="#fcb87a"/><g transform="translate(8.616 23.086)"><g transform="translate(12.587)"><path d="M-561.829,109.477l2.7.565,2.655-12.7c-.221,0-.448.011-.68.022a8.571,8.571,0,0,1-2.042-.482Z" transform="translate(561.829 -96.88)" fill="#971803"/><path d="M-560.744,108.495a.654.654,0,0,0,.507.775.656.656,0,0,0,.775-.507.655.655,0,0,0-.507-.775A.654.654,0,0,0-560.744,108.495Z" transform="translate(561.785 -97.336)" fill="#971803"/></g><path d="M-569.6,109.477l-2.7.565-2.655-12.7c.221,0,.448.011.68.022a8.55,8.55,0,0,0,2.042-.482Z" transform="translate(574.956 -96.88)" fill="#971803"/><path d="M-570.511,108.495a.656.656,0,0,1-.507.775.657.657,0,0,1-.776-.507.657.657,0,0,1,.507-.775A.655.655,0,0,1-570.511,108.495Z" transform="translate(574.827 -97.336)" fill="#971803"/></g><path d="M-532.4,150.2h-18.1v7.257h2.63v-4.627h12.843v4.627h2.63Z" transform="translate(582.566 -75.987)" fill="#4b4d4c"/><g transform="translate(41.475 69.066)"><path d="M-538.482,162.628l-2.2-.641,3.615-10.979,1.426.415Z" transform="translate(540.687 -145.087)" fill="#353535"/><path d="M-533.373,145.539l-.851,2.928-1.424.372-1-1.077.851-2.929c-2.572.316-4.08,5.166-.489,6.21S-531.373,147.185-533.373,145.539Z" transform="translate(540.593 -144.833)" fill="#353535"/></g><g transform="translate(36.168 69.574)"><rect width="1.248" height="8.986" transform="translate(0.755 7.541)" fill="#445164"/><path d="M-543.864,154.186h-1.957l-.4-8.824h2.758Z" transform="translate(546.222 -145.362)" fill="#971803"/></g><rect width="21.165" height="15.42" transform="translate(30.536 81.465)" fill="#6c6d6f"/><g transform="translate(32.724 82.703)"><path d="M-547.184,160.37a1.315,1.315,0,0,1-1.315,1.315,1.315,1.315,0,0,1-1.316-1.315,1.315,1.315,0,0,1,1.316-1.315A1.315,1.315,0,0,1-547.184,160.37Z" transform="translate(549.814 -159.055)" fill="#4b4d4c"/><path d="M-547.184,171.128a1.315,1.315,0,0,1-1.315,1.315,1.315,1.315,0,0,1-1.316-1.315,1.315,1.315,0,0,1,1.316-1.315A1.315,1.315,0,0,1-547.184,171.128Z" transform="translate(549.814 -159.498)" fill="#4b4d4c"/><path d="M-532.419,160.37a1.314,1.314,0,0,1-1.314,1.315,1.314,1.314,0,0,1-1.315-1.315,1.314,1.314,0,0,1,1.315-1.315A1.314,1.314,0,0,1-532.419,160.37Z" transform="translate(549.206 -159.055)" fill="#4b4d4c"/><path d="M-532.419,171.128a1.314,1.314,0,0,1-1.314,1.315,1.314,1.314,0,0,1-1.315-1.315,1.314,1.314,0,0,1,1.315-1.315A1.314,1.314,0,0,1-532.419,171.128Z" transform="translate(549.206 -159.498)" fill="#4b4d4c"/></g><g transform="translate(18.944 58.987)"><rect width="10.42" height="1.557" transform="matrix(0.997, -0.073, 0.073, 0.997, 4.648, 3.047)" fill="#353535"/><path d="M-558.01,138.078c-.27-3.729-5.327-3.267-6.175-.818l3.043-.221.844,1.205-.661,1.316-3.043.221C-562.81,142.08-557.74,141.808-558.01,138.078Z" transform="translate(564.185 -134.364)" fill="#353535"/><path d="M-546.841,138.534l-.844-1.206.662-1.314,3.042-.222c-1.192-2.3-6.262-2.028-5.992,1.7s5.327,3.267,6.175.818Z" transform="translate(563.601 -134.321)" fill="#353535"/></g><g transform="translate(26.478 57.102)"><path d="M-554.248,132.355v2.671c-2.294-.6-2.074,1.64-2.074,2.049,0,0,1.021.793,1.021.105l.987.357,2.71.041v-5.224Z" transform="translate(556.328 -132.355)" fill="#fcb87a"/><g transform="translate(0.684 4.516)"><path d="M-554.285,138.826v-1.1a.665.665,0,1,0-1.33,0v1.1A.665.665,0,1,0-554.285,138.826Z" transform="translate(555.615 -137.065)" fill="#fcb87a"/><path d="M-553.343,138.826v-1.1a.665.665,0,1,0-1.33,0v1.1A.665.665,0,1,0-553.343,138.826Z" transform="translate(555.576 -137.065)" fill="#fcb87a"/><path d="M-552.4,138.826v-1.1a.665.665,0,1,0-1.331,0v1.1A.665.665,0,1,0-552.4,138.826Z" transform="translate(555.538 -137.065)" fill="#fcb87a"/><path d="M-551.459,138.826v-1.1a.665.665,0,1,0-1.331,0v1.1A.665.665,0,1,0-551.459,138.826Z" transform="translate(555.499 -137.065)" fill="#fcb87a"/></g></g></g><g transform="translate(249.636 479.345)"><path d="M93.6,163.451V119.5a4.989,4.989,0,0,0-4.94-5.036H31.408a4.989,4.989,0,0,0-4.94,5.036v43.926Z" transform="translate(-22.778 -97.722)" fill="#971803"/><path d="M45.07,447.076H1.961a.731.731,0,0,0-.731.731v1.648a7.114,7.114,0,0,0,7.114,7.114h60.28a7.114,7.114,0,0,0,7.114-7.114v-1.648a.731.731,0,0,0-.731-.731Z" transform="translate(-1.23 -381.702)" fill="#454545"/><path d="M4,479.538a7.116,7.116,0,0,0,6.709,4.747H70.989a7.116,7.116,0,0,0,6.709-4.747H4Z" transform="translate(-3.595 -409.417)" fill="#313131"/><rect width="56.442" height="37.662" transform="translate(9.302 22.272)" fill="#fff"/><circle cx="10.805" cy="10.805" r="10.805" transform="translate(15.458 0.306)" fill="#deaf73"/><path d="M152.632,303.367l-1.6-.375H125.511l-1.6.375a9.019,9.019,0,0,0-6.965,8.782v6.472H159.6v-6.473A9.019,9.019,0,0,0,152.632,303.367Z" transform="translate(-100.024 -258.687)" fill="#e63417"/><path d="M188.29,245.175a14.312,14.312,0,0,0,12.76-7.826l-3.375-.79a4.941,4.941,0,0,1-3.816-4.811v-5.642H182.72v5.642a4.941,4.941,0,0,1-3.816,4.811l-3.375.79A14.313,14.313,0,0,0,188.29,245.175Z" transform="translate(-150.043 -193.043)" fill="#fad7a5"/><rect width="2.638" height="4.664" transform="translate(23.319 14.903)" fill="#cd905a"/><path d="M148.444,114.58H151v10.934h-2.553a2.2,2.2,0,0,1-2.2-2.2v-6.537A2.2,2.2,0,0,1,148.444,114.58Z" transform="translate(-125.04 -97.825)" fill="#e63417"/><rect width="2.189" height="10.935" transform="translate(24.073 16.755)" fill="#474756"/><path d="M235.684,231.747v-5.642H224.546v5.642a5.013,5.013,0,0,1-.027.508,12,12,0,0,0,5.366,1.26h0a12,12,0,0,0,5.808-1.49C235.688,231.932,235.684,231.84,235.684,231.747Z" transform="translate(-191.868 -193.043)" fill="#f0c891"/><path d="M346.238,125.515h-2.554V114.58h2.554a2.2,2.2,0,0,1,2.2,2.2v6.537A2.2,2.2,0,0,1,346.238,125.515Z" transform="translate(-293.608 -97.825)" fill="#e63417"/><rect width="2.276" height="10.935" transform="translate(49.83 16.755)" fill="#474756"/><path d="M190.805,59.816h0a12.059,12.059,0,0,1-12.059-12.059V37.9a12.059,12.059,0,0,1,12.059-12.059h0A12.059,12.059,0,0,1,202.864,37.9v9.859A12.059,12.059,0,0,1,190.805,59.816Z" transform="translate(-152.789 -22.061)" fill="#ffe1b3"/><path d="M236.261,192.236a5.572,5.572,0,0,1-3.953-1.635,1.1,1.1,0,0,1,1.551-1.551,3.4,3.4,0,0,0,4.8,0,1.1,1.1,0,0,1,1.551,1.551A5.572,5.572,0,0,1,236.261,192.236Z" transform="translate(-198.245 -161.132)" fill="#b28362"/><path d="M223.594,26.994a12.045,12.045,0,0,1,5.273,9.968v9.859A12.059,12.059,0,0,1,216.808,58.88h0a12.125,12.125,0,0,1-2-.169A12,12,0,0,0,221.59,60.8h0a12.059,12.059,0,0,0,12.059-12.059V38.884A12.06,12.06,0,0,0,223.594,26.994Z" transform="translate(-183.573 -23.047)" fill="#fad7a5"/><path d="M162.859,52.559a14.181,14.181,0,0,0-2.072,9.069,14.539,14.539,0,0,0,3.405-1.307,16.245,16.245,0,0,0,3.475-2.579h0Z" transform="translate(-137.384 -44.874)" fill="#cd905a"/><path d="M203.357,14.51A21.723,21.723,0,0,0,197.852,4.4,14.745,14.745,0,0,0,188.574,0a15.157,15.157,0,0,0-9.723,3.564,16.152,16.152,0,0,0-3.4,4.117c4.193,6,10.485,9.815,17.519,9.815,1.732,0,5.352-.528,7.081-1.663Z" transform="translate(-149.975 0)" fill="#d59f63"/><path d="M256.462,4.4a14.746,14.746,0,0,0-9.278-4.4A13.09,13.09,0,0,0,244.1.332,15.527,15.527,0,0,1,251.132,4.4a21.722,21.722,0,0,1,5.506,10.109l-3.307,1.328a12.752,12.752,0,0,1-4.613,1.448,19.271,19.271,0,0,0,2.86.215c1.732,0,5.352-.528,7.081-1.663l3.307-1.328A21.724,21.724,0,0,0,256.462,4.4Z" transform="translate(-208.584 -0.002)" fill="#cd905a"/><path d="M275.623,183.59a.574.574,0,0,0-.574.574v1.161c0,.008,0,.017,0,.025A2.95,2.95,0,0,1,272.1,188.3h-9.048a1.18,1.18,0,0,0-1.19,1.076,1.153,1.153,0,0,0,1.151,1.23H272.1a5.259,5.259,0,0,0,5.253-5.253h0v-1.186a.574.574,0,0,0-.574-.574h-1.157Z" transform="translate(-223.748 -156.744)" fill="#e63417"/><g transform="translate(31.898 19.207)"><circle cx="1.337" cy="1.337" r="1.337" fill="#53515e"/><circle cx="1.337" cy="1.337" r="1.337" transform="translate(9.09)" fill="#53515e"/></g><g transform="translate(16.921 49.039)"><path d="M119.741,335.366H118.1a9,9,0,0,0-1.16,4.423v6.472h8.1v-5.6A5.3,5.3,0,0,0,119.741,335.366Z" transform="translate(-116.945 -335.366)" fill="#e63417"/><path d="M358.574,335.366a5.3,5.3,0,0,0-5.3,5.3v5.6h8.1v-6.473a9,9,0,0,0-1.16-4.423Z" transform="translate(-318.717 -335.366)" fill="#e63417"/></g></g><g transform="translate(343.314 719.348) rotate(-14)"><g transform="translate(0 0)"><path d="M8.851,0H0V81.624H59.939V0H51.088" transform="translate(0 5.442)" fill="#fff" stroke="#e63417" stroke-linecap="round" stroke-miterlimit="10" stroke-width="5"/><path d="M36.169,5.442a5.441,5.441,0,0,1-5.441,5.442H5.442A5.442,5.442,0,0,1,0,5.442H0A5.442,5.442,0,0,1,5.442,0H30.727a5.442,5.442,0,0,1,5.441,5.442Z" transform="translate(11.885 0)" fill="#e63417"/><line x1="19.725" transform="translate(25.871 25.623)" fill="none" stroke="#333" stroke-miterlimit="10" stroke-width="2"/><line x1="19.725" transform="translate(25.871 47.533)" fill="none" stroke="#333" stroke-miterlimit="10" stroke-width="2"/><line x1="19.725" transform="translate(25.871 68.212)" fill="none" stroke="#333" stroke-miterlimit="10" stroke-width="2"/><g transform="translate(6.873 18.854)"><g transform="translate(0 6.198)"><path d="M8.1,4.051A4.051,4.051,0,1,1,4.051,0,4.051,4.051,0,0,1,8.1,4.051Z" transform="translate(0 0)" fill="#333"/><path d="M4.226,2.113A2.113,2.113,0,1,1,2.113,0,2.113,2.113,0,0,1,4.226,2.113Z" transform="translate(1.938 1.938)" fill="#fff"/><path d="M7.967,3.984A3.984,3.984,0,1,1,3.983,0,3.983,3.983,0,0,1,7.967,3.984Z" transform="translate(0.067 0.067)" fill="none" stroke="#333" stroke-miterlimit="10" stroke-width="3.458" stroke-dasharray="3.121 3.121"/></g><g transform="translate(5.925 0)"><path d="M6.572,2.872A3.3,3.3,0,1,1,2.872.028,3.3,3.3,0,0,1,6.572,2.872Z" transform="translate(0)" fill="#333"/><path d="M3.427,1.5A1.721,1.721,0,1,1,1.5.015,1.721,1.721,0,0,1,3.427,1.5Z" transform="translate(1.579 1.579)" fill="#fff"/><path d="M6.462,2.825A3.244,3.244,0,1,1,2.824.028,3.244,3.244,0,0,1,6.462,2.825Z" transform="translate(0.055 0.055)" fill="none" stroke="#333" stroke-miterlimit="10" stroke-width="2.816" stroke-dasharray="2.541 2.541"/></g><g transform="translate(9.466 7.168)"><path d="M6.571,3.731A3.3,3.3,0,1,1,3.731.029,3.3,3.3,0,0,1,6.571,3.731Z" transform="translate(0 0)" fill="#333"/><path d="M3.427,1.946A1.721,1.721,0,1,1,1.946.015,1.721,1.721,0,0,1,3.427,1.946Z" transform="translate(1.579 1.579)" fill="#fff"/><path d="M6.462,3.669A3.245,3.245,0,1,1,3.669.028,3.245,3.245,0,0,1,6.462,3.669Z" transform="translate(0.055 0.055)" fill="none" stroke="#333" stroke-miterlimit="10" stroke-width="2.816" stroke-dasharray="2.541 2.541"/></g></g><g transform="translate(6.866 39.448)"><path d="M16.17,8.085A8.085,8.085,0,1,1,8.085,0,8.086,8.086,0,0,1,16.17,8.085Z" transform="translate(0 0)" fill="#333"/><path d="M9.318,4.659A4.659,4.659,0,1,1,4.66,0,4.658,4.658,0,0,1,9.318,4.659Z" transform="translate(3.426 3.426)" fill="#fff"/><path d="M8,4A4,4,0,1,1,4,0,4,4,0,0,1,8,4Z" transform="translate(4.086 4.085)" fill="none" stroke="#333" stroke-miterlimit="10" stroke-width="0.736"/><line y1="7.998" transform="translate(8.085 4.085)" fill="none" stroke="#333" stroke-miterlimit="10" stroke-width="0.736"/><line x2="7.998" transform="translate(4.086 8.085)" fill="none" stroke="#333" stroke-miterlimit="10" stroke-width="0.736"/><line y1="5.655" x2="5.655" transform="translate(5.257 5.257)" fill="none" stroke="#333" stroke-miterlimit="10" stroke-width="0.736"/><line x2="5.656" y2="5.655" transform="translate(5.257 5.257)" fill="none" stroke="#333" stroke-miterlimit="10" stroke-width="0.736"/></g><g transform="translate(6.288 59.278)"><path d="M5.8,3.716A2.95,2.95,0,1,1,3.715.1,2.951,2.951,0,0,1,5.8,3.716Z" transform="translate(10.307 0)" fill="#333"/><path d="M3.51,2.249A1.785,1.785,0,1,1,2.249.061,1.785,1.785,0,0,1,3.51,2.249Z" transform="translate(11.472 1.164)" fill="#fff"/><path d="M10.149,6.5A5.162,5.162,0,1,1,6.5.178,5.163,5.163,0,0,1,10.149,6.5Z" transform="translate(0 8.023)" fill="#333"/><path d="M6.144,3.937A3.125,3.125,0,1,1,3.936.108,3.125,3.125,0,0,1,6.144,3.937Z" transform="translate(2.038 10.061)" fill="#fff"/><line y1="9.006" x2="10.125" transform="translate(1.628 0.698)" fill="none" stroke="#333" stroke-miterlimit="10" stroke-width="0.74"/><line y1="11.412" x2="6.429" transform="translate(9.21 4.382)" fill="none" stroke="#333" stroke-miterlimit="10" stroke-width="0.74"/></g></g></g><g transform="translate(567.315 704.791)"><path d="M235.5,458.876v10.038c1.3.108,2.481-.173,3.808-.173,6.656,0,7.349.172,18.856,0v-9.865Z" transform="translate(-193.029 -366.848)" fill="#971803"/><path d="M239.31,458.883H235.5v10.038c1.2.077,2.563-.212,3.846-.209Z" transform="translate(-193.029 -366.854)" fill="#e63417"/><path d="M207.281,242.065V217.947a2.889,2.889,0,0,0-2.881-2.881h-1.152a2.887,2.887,0,0,0-2.593,1.637,2.887,2.887,0,0,0-2.593-1.637H196.91a2.887,2.887,0,0,0-2.593,1.637,2.887,2.887,0,0,0-2.593-1.637h-1.152a2.878,2.878,0,0,0-2.305,1.164V205.014a2.889,2.889,0,0,0-2.881-2.881h-1.152a2.889,2.889,0,0,0-2.881,2.881v23.617l-3.2-3.2a2.889,2.889,0,0,0-4.074,0l-1.2,1.2a2.89,2.89,0,0,0,0,4.074l11.366,11.366Z" transform="translate(-141.753 -159.418)" fill="#fcb160"/><path d="M188.053,336.519l-11.366-11.366a2.89,2.89,0,0,1,0-4.074l1.2-1.2c.042-.042.087-.08.132-.119a2.888,2.888,0,0,0-3.943.119l-1.2,1.2a2.89,2.89,0,0,0,0,4.074l11.366,11.366Z" transform="translate(-141.754 -253.871)" fill="#ffc987"/><g transform="translate(40.166 82.456)"><path d="M250.773,417.843a.963.963,0,0,1-.96.96H224.459a.963.963,0,0,1-.96-.96V410a.963.963,0,0,1,.96-.96h25.353a.963.963,0,0,1,.96.96Z" transform="translate(-223.499 -409.039)" fill="#e63417"/><path d="M227.31,417.843V410a.963.963,0,0,1,.96-.96h-3.811a.963.963,0,0,0-.96.96v7.844a.963.963,0,0,0,.96.96h3.811A.963.963,0,0,1,227.31,417.843Z" transform="translate(-223.499 -409.039)" fill="#e63417"/></g><g transform="translate(31.811 34.335)"><circle cx="2.113" cy="2.113" r="2.113" transform="translate(28.522 50.89)" fill="#fff"/><path d="M231.44,164.262a1.44,1.44,0,0,1-1.441-1.44v-2.881a1.441,1.441,0,1,1,2.881,0v2.881A1.44,1.44,0,0,1,231.44,164.262Z" transform="translate(-220.396 -158.5)" fill="#fcb160"/><path d="M256.188,178.063a1.441,1.441,0,0,1-1.019-2.459l2.037-2.037a1.441,1.441,0,0,1,2.037,2.037l-2.037,2.037A1.436,1.436,0,0,1,256.188,178.063Z" transform="translate(-240.391 -170.332)" fill="#fcb160"/><path d="M269.321,211.381h-2.881a1.441,1.441,0,1,1,0-2.881h2.881a1.441,1.441,0,0,1,0,2.881Z" transform="translate(-248.674 -198.897)" fill="#fcb160"/><path d="M184.32,211.381h-2.881a1.441,1.441,0,1,1,0-2.881h2.881a1.441,1.441,0,1,1,0,2.881Z" transform="translate(-179.999 -198.897)" fill="#fcb160"/><path d="M198.121,178.062a1.437,1.437,0,0,1-1.019-.422l-2.037-2.037a1.441,1.441,0,0,1,2.037-2.037l2.037,2.037a1.441,1.441,0,0,1-1.019,2.459Z" transform="translate(-191.831 -170.332)" fill="#fcb160"/></g><path d="M17.882,0A17.882,17.882,0,1,1,0,17.882,17.882,17.882,0,0,1,17.882,0Z" transform="translate(44.079)" fill="#e63417"/><path d="M389.791,54.159h-4.514V52.174h5.474a1.441,1.441,0,0,0,0-2.881h-2.017V48.045a1.44,1.44,0,1,0-2.881,0v1.248H384.8a2.4,2.4,0,0,0-2.4,2.4v2.945a2.4,2.4,0,0,0,2.4,2.4h4.514v1.985h-5.474a1.441,1.441,0,1,0,0,2.881h2.017v1.12a1.44,1.44,0,1,0,2.881,0v-1.12h1.056a2.4,2.4,0,0,0,2.4-2.4V56.559A2.4,2.4,0,0,0,389.791,54.159Z" transform="translate(-325.334 -37.653)" fill="#fff"/><path d="M15.577,0A15.577,15.577,0,1,1,0,15.577,15.577,15.577,0,0,1,15.577,0Z" transform="translate(0 33.05)" fill="#e63417"/><path d="M75.552,387.145H71.806v-1.357h4.583a1.441,1.441,0,0,0,0-2.881H74.817V382a1.441,1.441,0,1,0-2.881,0v.9H71.2a2.28,2.28,0,0,0-2.277,2.277v2.565a2.28,2.28,0,0,0,2.277,2.277h3.746v1.357H70.366a1.441,1.441,0,1,0,0,2.881h1.571v.79a1.441,1.441,0,1,0,2.881,0v-.79h.734a2.28,2.28,0,0,0,2.277-2.277v-2.565A2.28,2.28,0,0,0,75.552,387.145Z" transform="translate(-57.799 -339.904)" fill="#fff"/></g><g transform="translate(592.836 369.586) rotate(-90)"><g transform="translate(0 0)"><circle cx="18.265" cy="18.265" r="18.265" transform="translate(0 35.545) rotate(-76.662)" fill="#353535"/></g><g transform="translate(11.826 15.133)"><g transform="translate(0)"><path d="M18.842,11.279a5.024,5.024,0,0,1-4.157,1.76,4.857,4.857,0,0,1-2.54-.767,4,4,0,0,1-1.4-1.333,5.175,5.175,0,0,1-1.888,2,4.5,4.5,0,0,1-2.725.766A5.476,5.476,0,0,1,1.6,11.747,7.584,7.584,0,0,1,0,6.767,8.441,8.441,0,0,1,.965,2.936,5.766,5.766,0,0,1,3.662.468,5.111,5.111,0,0,1,5.731,0H6V3.078a4.923,4.923,0,0,0-1.347.312A2.81,2.81,0,0,0,3.348,4.6a4.679,4.679,0,0,0-.5,2.085A4.076,4.076,0,0,0,3.86,9.6a2.781,2.781,0,0,0,1.574.866A3.166,3.166,0,0,0,7.349,10.3,2.331,2.331,0,0,0,8.74,9.123a5.928,5.928,0,0,0,.553-2.781V5.789h2.554v.553a5.625,5.625,0,0,0,.142,1.446,2.792,2.792,0,0,0,.539,1.051,2.659,2.659,0,0,0,2.2,1.035,2.909,2.909,0,0,0,1.318-.3,2.227,2.227,0,0,0,.937-.738,3.219,3.219,0,0,0,.526-2.016,3,3,0,0,0-.526-1.929,2.472,2.472,0,0,0-1.972-1.135V.638l.312.041a5.636,5.636,0,0,1,2.014.582,5.514,5.514,0,0,1,2.2,2.243,6.318,6.318,0,0,1,.782,3.262A6.455,6.455,0,0,1,18.842,11.279Z" fill="#fff"/></g></g></g><text transform="translate(578.31 388.678)" fill="#272727" font-size="12" font-family="Montserrat-Bold, Montserrat" font-weight="700" letter-spacing="-0.01em"><tspan x="0" y="0">Lập báo giá,</tspan><tspan x="0" y="15">lên phương</tspan><tspan x="0" y="30">án sửa chữa</tspan></text><g transform="translate(569.887 256.722)"><path d="M-332.463,157.811a2.113,2.113,0,0,1,.829,2.18v1.047h-7.848a1.317,1.317,0,0,1,1-2.006l2.79-1.221Z" transform="translate(439.07 -112.24)" fill="#17161a"/><path d="M-345.4,132.969a3.382,3.382,0,0,0-1.737.756l.692,1.675a6.4,6.4,0,0,0,2.863-1.132Z" transform="translate(440.488 -107.52)" fill="#f79a3e"/><path d="M-347.138,118.215v1.778l-.886.439-.885-.439v-1.778a1.822,1.822,0,0,0,.364,3.507l-.283,6.731h1.609l-.284-6.732A1.822,1.822,0,0,0-347.138,118.215Z" transform="translate(441.049 -104.717)" fill="#555456"/><path d="M-381.824,122.621h-34.961l-2.709-12.287C-405.47,109.628-392.922,113.822-381.824,122.621Z" transform="translate(454.237 -103.205)" fill="#555456"/><path d="M-408.685,127.451c0,5.041,7.544,4.952,7.544,0v-9.514c0-5-7.544-4.983-7.544,0Z" transform="translate(452.183 -103.952)" fill="#474646"/><path d="M-441.6,113.741c1.573,5.284,4.205,8.956,9.9,8.956h7.424l-2.65-12.038A74.888,74.888,0,0,0-441.6,113.741Z" transform="translate(458.436 -103.281)" fill="#555456"/><path d="M-460.46,134.227h-1.926v2.741a4.749,4.749,0,0,0,4.748,4.748H-371l3.638-4.494v-5.975c0-4.943-5.123-6.8-19.535-11.3-18.568-15.952-60.783-24.474-73.561,1.655Zm32.816-24.912a54,54,0,0,1,32.347,8.491,61.888,61.888,0,0,1,5.323,3.8h-34.961Zm-17.9,3.331a74.566,74.566,0,0,1,14.669-3.082l2.654,12.038h-7.426C-441.339,121.6-443.973,117.928-445.545,112.645Z" transform="translate(462.386 -102.185)" fill="#e63417"/><path d="M-456.524,149.3v2.568h78.083c10.566,0,11.372-.872,12.19-7.062-5.228,3.531-8.512,4.493-12.6,4.493Z" transform="translate(461.272 -109.769)" fill="#17161a"/><path d="M-350.087,137.36c.088-1.388,1.669-5.917-9.532-6.387C-359.619,130.973-358.165,134.411-350.087,137.36Z" transform="translate(442.86 -107.141)" fill="#fff"/><path d="M-383.484,123.2h4.36c2.964,0,2.743-4.28,0-4.28h-4.36C-386.229,118.915-386.446,123.2-383.484,123.2Z" transform="translate(447.801 -104.85)" fill="#353535"/><path d="M-435.27,112.546l7.65,10.379h3.634l-8.161-11.069Q-433.7,112.163-435.27,112.546Z" transform="translate(457.234 -103.508)" fill="#7c7b7c"/><path d="M-403.456,133.27h6.18a1.149,1.149,0,0,0,0-2.3h-6.18A1.149,1.149,0,0,0-403.456,133.27Z" transform="translate(451.408 -107.141)" fill="#c12107"/><path d="M-431.823,133.27h6.179a1.149,1.149,0,0,0,0-2.3h-6.179A1.149,1.149,0,0,0-431.823,133.27Z" transform="translate(456.797 -107.141)" fill="#c12107"/><path d="M-385.9,150.042c0,.28.012.56.034.834h20.842c.023-.275.035-.554.035-.834a10.455,10.455,0,0,0-10.453-10.456A10.456,10.456,0,0,0-385.9,150.042Z" transform="translate(447.853 -108.777)" fill="#17161a"/><path d="M-450.843,150.042c0,.28.011.56.034.834h20.842c.022-.275.034-.554.034-.834a10.455,10.455,0,0,0-10.453-10.456A10.455,10.455,0,0,0-450.843,150.042Z" transform="translate(460.193 -108.777)" fill="#17161a"/><g transform="translate(63.899 32.21)"><path d="M-383.5,149.83a8.511,8.511,0,0,0,8.513,8.512,8.511,8.511,0,0,0,8.513-8.512,8.513,8.513,0,0,0-8.513-8.514A8.513,8.513,0,0,0-383.5,149.83Z" transform="translate(383.498 -141.316)" fill="#474747"/><path d="M-379.285,150.631a5.1,5.1,0,0,0,5.1,5.1,5.1,5.1,0,0,0,5.1-5.1,5.1,5.1,0,0,0-5.1-5.1A5.1,5.1,0,0,0-379.285,150.631Z" transform="translate(382.698 -142.117)" fill="#c12107"/><path d="M-376.265,151.174a2.655,2.655,0,0,0,2.625,2.683,2.654,2.654,0,0,0,2.682-2.624,2.653,2.653,0,0,0-2.623-2.684A2.654,2.654,0,0,0-376.265,151.174Z" transform="translate(382.124 -142.69)" fill="#17161a"/></g><g transform="translate(11.291 32.21)"><path d="M-448.446,149.83a8.511,8.511,0,0,0,8.513,8.512,8.512,8.512,0,0,0,8.514-8.512,8.514,8.514,0,0,0-8.514-8.514A8.513,8.513,0,0,0-448.446,149.83Z" transform="translate(448.446 -141.316)" fill="#474747"/><path d="M-444.233,150.631a5.1,5.1,0,0,0,5.1,5.1,5.1,5.1,0,0,0,5.1-5.1,5.1,5.1,0,0,0-5.1-5.1A5.1,5.1,0,0,0-444.233,150.631Z" transform="translate(447.646 -142.117)" fill="#c12107"/><path d="M-441.213,151.174a2.655,2.655,0,0,0,2.625,2.683,2.653,2.653,0,0,0,2.682-2.624,2.653,2.653,0,0,0-2.624-2.684A2.654,2.654,0,0,0-441.213,151.174Z" transform="translate(447.072 -142.69)" fill="#17161a"/></g><path d="M-460.008,135.656h3.722c2.831,0,3.058,4.416,0,4.416h-3.722Z" transform="translate(461.934 -108.03)" fill="#353535"/><path d="M-369.192,121.528s14.975-8.763,16.506-8.294a11.335,11.335,0,0,1,3.028,1.618s-2.645-.382-3.793.191l-14.736,8.14Z" transform="translate(444.679 -103.767)" fill="#e63417"/><path d="M-344.517,132.393a9.687,9.687,0,0,1-2.592-.339c-.356.26-.125.987,1.2,1.315.153.978,2.163.491,1.971.07Z" transform="translate(440.512 -107.346)" fill="#f79a3e"/><path d="M-338.957,126.681l.406-5.835a2.112,2.112,0,0,1,2.112-2.112,2.111,2.111,0,0,1,2.112,2.112v6a2.112,2.112,0,0,1-2.112,2.112l-7.106,2.961-.81-2.033Z" transform="translate(439.96 -104.815)" fill="#f79a3e"/><path d="M-332.319,138.364a61.811,61.811,0,0,1,.329,15.9l-3.413-.143c-.982-13.749-2.341-12.186-2.76-12.852Z" transform="translate(438.784 -108.545)" fill="#971803"/><path d="M-343.835,127.462h-1.9s.369-1.29-.8-1.474h-.4s-.826.723-.335.723l-.255.7-.214,1.932h3.908Z" transform="translate(440.604 -106.193)" fill="#ffb564"/><path d="M-348.553,127.528h.78a.474.474,0,1,0,0-.948h-.78A.474.474,0,1,0-348.553,127.528Z" transform="translate(440.848 -106.306)" fill="#ffb564"/><path d="M-348.553,128.323h.78a.474.474,0,1,0,0-.949h-.78A.474.474,0,1,0-348.553,128.323Z" transform="translate(440.848 -106.457)" fill="#ffb564"/><path d="M-348.553,129.118h.78a.474.474,0,1,0,0-.949h-.78A.474.474,0,1,0-348.553,129.118Z" transform="translate(440.848 -106.608)" fill="#ffb564"/><path d="M-348.553,129.913h.78a.474.474,0,1,0,0-.949h-.78A.474.474,0,1,0-348.553,129.913Z" transform="translate(440.848 -106.759)" fill="#ffb564"/><rect width="2.828" height="3.577" transform="translate(101.391 10.79) rotate(-15.649)" fill="#ffb564"/><path d="M-330.82,122.445l-.237,4.084-.288,4.988h-7.5s-.987-7.5-.8-9.52c-.023-1.747.527-4.244,2.6-4.608C-337.052,117.389-330.82,115.471-330.82,122.445Z" transform="translate(439.07 -104.514)" fill="#fff"/><path d="M-332.009,134.886s.918,4.385-3.48,5.107c0,0-1.127.24-3.2,13.462h-4.484s.087-14.817,3.661-18.569Z" transform="translate(439.735 -107.884)" fill="#c12107"/><path d="M-334.6,113.46c-.036.383-3.659,3.818-6.621,1.6.479-.215.971-.581.772-1.268a11.426,11.426,0,0,1-1.438.55c-.884-1.256-1.341-3.745-.07-4.529a1.868,1.868,0,0,1,.926-.257,20.9,20.9,0,0,1,5.267.053c1.03.233,1.195,1.983,1.195,1.983C-334.517,112.208-334.62,112.852-334.6,113.46Z" transform="translate(439.655 -103.044)" fill="#ffb564"/><path d="M-342.982,113.545a.524.524,0,0,0,.523.523.523.523,0,0,0,.522-.523.523.523,0,0,0-.522-.522A.523.523,0,0,0-342.982,113.545Z" transform="translate(439.699 -103.73)" fill="#ffb564"/><path d="M-341.107,111.9h0a.492.492,0,0,1,.381-.582.492.492,0,0,1,.582.38h0Z" transform="translate(439.345 -103.404)" fill="#2a293a"/><path d="M-340.878,157.811a2.114,2.114,0,0,1,.829,2.18v1.047H-347.9a1.318,1.318,0,0,1,1-2.006l2.79-1.221Z" transform="translate(440.669 -112.24)" fill="#474747"/><path d="M-344.685,159.3a.392.392,0,0,0,.785,0V158.2a.392.392,0,0,0-.785,0Z" transform="translate(440.023 -112.24)" fill="#bfab86"/><path d="M-346.084,159.646a.392.392,0,0,0,.785,0v-1.094a.392.392,0,0,0-.785,0Z" transform="translate(440.289 -112.307)" fill="#bfab86"/><path d="M-336.234,159.125a.392.392,0,0,0,.784,0v-1.1a.392.392,0,0,0-.784,0Z" transform="translate(438.417 -112.207)" fill="#bfab86"/><path d="M-337.634,159.472a.392.392,0,0,0,.785,0v-1.094a.392.392,0,0,0-.785,0Z" transform="translate(438.683 -112.274)" fill="#bfab86"/><path d="M-332.225,106.547s.6,6.527-3.291,7.39c1.171-3.707-2.078-5.821-2.522-3.7-.178.855-.441,1.57-1.458,1.777.425-.663-.292-2.056-1-2.253-.64-.177-1.308.22-1.943.391-.908.245-.594-3.022,2.159-3.609Z" transform="translate(439.684 -102.5)" fill="#ba5720"/><path d="M-331.056,126.614l-.288,4.988h-7.5c-.228-1.737-.993-7.93-.784-9.68a1.834,1.834,0,0,0,1.238-1.7c.323-3.165,6.391-4.409,6.422,1.7C-331.967,121.922-332.048,125.175-331.056,126.614Z" transform="translate(439.068 -104.598)" fill="#c12107"/><path d="M-332.964,120.844v2.588h-4.227v-2.588a2.112,2.112,0,0,1,2.114-2.108A2.111,2.111,0,0,1-332.964,120.844Z" transform="translate(438.599 -104.816)" fill="#fff"/><path d="M-334.591,124.534v3.41a2.112,2.112,0,0,1-2.112,2.113l-9.052-.987v-2.236l7.714.2v-2.5Z" transform="translate(440.226 -105.917)" fill="#ffb564"/><path d="M-344.213,105.584l-3.484,1.8s.788,3.242,8.963,1.685C-338.734,109.069-341.727,105.89-344.213,105.584Z" transform="translate(440.595 -102.317)" fill="#555456"/><path d="M-332.618,109.747c2.844-7.982-7.767-11.118-10.778-4.93C-342.015,107.319-334.518,109.653-332.618,109.747Z" transform="translate(439.778 -101.55)" fill="#c12107"/><path d="M-336.631,110.747a1.051,1.051,0,0,0,1.013,1.085,1.05,1.05,0,0,0,1.012-1.085,1.05,1.05,0,0,0-1.012-1.085A1.051,1.051,0,0,0-336.631,110.747Z" transform="translate(438.493 -103.092)" fill="#ffb564"/></g></g></svg>