<svg xmlns="http://www.w3.org/2000/svg" width="518.145" height="269.932" viewBox="0 0 518.145 269.932"><g transform="translate(-621.786 -215.567)"><g transform="translate(974.126 271.25)"><path d="M4308.879,2963.792a42.867,42.867,0,0,0,4.645,5.728c.141.133,1.083.436,1.233.57,1.322,4.181-.378,7.734-2.2,10.529-.3-2.265-.519-5.362-.867-5.745a45.73,45.73,0,0,0-6.274-6.446C4307.431,2967.294,4307.671,2965.753,4308.879,2963.792Z" transform="translate(-4278.626 -2799.306)" fill="#f7a491"/><path d="M4330.355,2983.171c1.495.089,4.317,1.021,4.3,1.319-.02.355-1.621,12.684-3.569,13.769-1.171.653-1.387-1.266-1.817-4.061C4331.093,2991.4,4331.277,2983.554,4330.355,2983.171Z" transform="translate(-4295.34 -2812.884)" fill="#f47458"/><path d="M4417.853,2944.541a56.358,56.358,0,0,0,6.609,3.409c.184.06,1.167-.067,1.359-.009,2.976,3.221,2.95,7.159,2.491,10.464-1.238-1.921-2.753-4.631-3.231-4.829a60.542,60.542,0,0,0-8.348-2.8C4418.077,2948.89,4417.6,2946.829,4417.853,2944.541Z" transform="translate(-4356.62 -2785.819)" fill="#f7a491"/><path d="M4275.423,2579.452s-4.725-8.891-5.425-12.076-3.121-19.222-2.917-20.254,4.034-3.518,3.562-4.4-4.121-.88-4.957-.8a7.56,7.56,0,0,0-3.233,1.154c-.719.593.809,19.812,1.265,23.95s7.384,17.692,7.384,17.692Z" transform="translate(-4248.392 -2503.707)" fill="#f7a491"/><path d="M4365.152,2710.287s9.632,15.422,11.313,18.453,7.951,10.751,8.267,11.124,6.945.036,6.756.8-3.235.009-3.293.911,5.242,6.632,4.711,6.864c-.994.432-3.375-3.385-3.8-3.1s2.851,3.756,2.317,4.5-2.8-3.57-3.224-3.519,1.595,4.334.667,4.377c-.5.023-1.7-3.853-2.182-3.511s-.018,3.446-.6,3.417-.04-2.651-.933-4.034-.834-2.841-2.893-4.628-10.036-7.235-12.927-12.048-9.308-15.431-9.308-15.431Z" transform="translate(-4316.886 -2621.691)" fill="#f7a491"/><path d="M4262.729,2786.92l16.726,5.388s-9.2,15.646-11.019,18.764-9.652,10.819-9.662,12.833c-.007,1.426,7.373,10.881,11.823,16.65a18.158,18.158,0,0,1-5.494,5.34c-7.411-7.026-18.22-18.1-18.419-21.734C4246.393,2818.858,4262.729,2786.92,4262.729,2786.92Z" transform="translate(-4237.475 -2675.383)" fill="#fff"/><path d="M4443.006,2954.269c1.39-.555,4.341-.913,4.453-.637.133.33,3.933,12.167,2.632,13.978-.782,1.089-1.794-.555-3.373-2.9C4447.178,2961.4,4444,2954.224,4443.006,2954.269Z" transform="translate(-4375.028 -2792.121)" fill="#f47458"/><path d="M4305.1,2788.294c-.213-1.031-1.592-4.057-2.3-6.467a13.225,13.225,0,0,1-.316-6.151h0l12.3-.573.471.914a7.415,7.415,0,0,0,2.11,2.527c1.843,1.392,5.076,4.449,4.978,8.7-.136,5.937-4.36,27.7-2.956,28.51,2.535,1.469,13.112,6.615,19.425,9.781a17.741,17.741,0,0,1-1.931,7.559c-5-1.915-22.6-9.7-25.869-11.613C4309.53,2820.622,4305.458,2790.045,4305.1,2788.294Z" transform="translate(-4276.413 -2667.104)" fill="#fff"/><path d="M4342.255,2568.29c-.977,2.578.567,4.5,1.639,7.038.722,1.7-.867,4.411-2.664,5.658-4.549,3.157-5.616,3.239-5.288,7.528.792,10.329-11.557,5.926-13.543,5.6s-3.486-.239-4.435-.9c-2.861-1.979-5.545-7.925-5.042-12.932s6.467-3.287,7.83-5.586-2.757-5.162.755-9c10.086-11.028,20.615-3.631,20.992.585A4.519,4.519,0,0,1,4342.255,2568.29Z" transform="translate(-4283.844 -2516.336)" fill="#413e3d"/><path d="M4285.974,2678.248s-3.433-8.156-3.982-9.51c0,0,4.793-4.269,7.655-3.937,0,0,3.708,5.824,5.894,6.035s9.875.537,11.223,1.339,7.066,9.417,7.066,9.417-5.139,5.149-7.207,5.137c0,0-1.405-3.477-1.886-2.843s-2.378,14.144-3.339,15.173c-.888.951-11.655,4.585-14.764,3.917,0,0-1.675-13.006-1.584-21.01A16.5,16.5,0,0,1,4285.974,2678.248Z" transform="translate(-4262.216 -2589.809)" fill="#ff7208"/><path d="M4327.965,2666.111a31.625,31.625,0,0,0-1.222,5.64c-.008,1.63-1.307,6.753-4.725,6.417s.035-6.68.52-8.228a60.88,60.88,0,0,0,1.066-6.436Z" transform="translate(-4289.214 -2588.913)" fill="#f7a491"/><path d="M4329.731,2665.952c.191-1.333.324-2.448.324-2.448l4.361,2.607s-.249.82-.521,1.869A4.022,4.022,0,0,1,4329.731,2665.952Z" transform="translate(-4295.664 -2588.913)" fill="#f47458"/><path d="M4334.15,2633.177a5.706,5.706,0,0,1,2.089,3.351c.426,2.189-.874,7.591-5.57,8.441s-6.225-3.691-4.935-6.984S4329.511,2630.608,4334.15,2633.177Z" transform="translate(-4292.555 -2567.098)" fill="#f7a491"/><path d="M4325.309,2642.657c0,.919.426,1.668.961,1.671s.975-.741.98-1.661-.426-1.668-.962-1.671S4325.313,2641.737,4325.309,2642.657Z" transform="translate(-4292.564 -2573.144)" fill="#f7a491"/><path d="M4353.785,2660.016c-.618.741-.713,1.68-.212,2.1s1.407.156,2.025-.585.712-1.679.212-2.1S4354.4,2659.276,4353.785,2660.016Z" transform="translate(-4312.142 -2585.921)" fill="#f7a491"/><path d="M4262.335,2439.538l-11.614,6.693a2.07,2.07,0,0,0-1.03,1.634l-1.06,13.394a2.071,2.071,0,0,1-3.458,1.373l-9.966-9.016a2.076,2.076,0,0,0-1.872-.481l-13.042,3.1a2.084,2.084,0,0,1-2.38-2.875l5.454-12.264a2.084,2.084,0,0,0-.126-1.932l-7-11.48a2.075,2.075,0,0,1,1.987-3.149l13.336,1.435a2.066,2.066,0,0,0,1.794-.712l8.715-10.194a2.077,2.077,0,0,1,3.608.928l2.79,13.152a2.084,2.084,0,0,0,1.234,1.491l12.387,5.179A2.083,2.083,0,0,1,4262.335,2439.538Z" transform="translate(-4215.931 -2414.338)" fill="#ffd40c"/><path d="M4276.511,2544.839a2.125,2.125,0,0,1,.285.212l.523.474h0a2.388,2.388,0,0,0-2.029.586S4275.437,2545.5,4276.511,2544.839Z" transform="translate(-4257.521 -2505.772)" fill="#f47257"/><path d="M4277.342,2546.588l.3-1.172a6.785,6.785,0,0,0,2.12-.336l.815-.356a.505.505,0,0,1,.669.272h0a.5.5,0,0,1-.154.584s-2.208,1.818-2.984,2.371c-.384.273-1.593,1.011-1.593,1.011l-.7-1.318Z" transform="translate(-4257.882 -2505.662)" fill="#f7a491"/></g><g transform="translate(621.786 266.629)"><path d="M3273.884,3076.72s1.7,1.678,1.735,2.294.15,7.213-.542,7.828-2.727,1.053-2.073,1.745c.495.524,4.3.412,6.818.271.736-.042,1.659-5.992,1.95-6.866.423-1.27,1.948-4.035,1.563-4.92a11.761,11.761,0,0,0-2.844-2.242,11.649,11.649,0,0,1-2.6-2.808Z" transform="translate(-3202.851 -2870.516)" fill="#f7a491"/><path d="M3185.482,3101.264s1.519,4.348,1.52,4.359c.113.689.557,2.391.557,3.017,0,2.352-10.466-2-8.12-3.04a2.516,2.516,0,0,0,.948-1.648,5.565,5.565,0,0,0-.881-2.781Z" transform="translate(-3137.146 -2890.938)" fill="#f7a491"/><g transform="translate(28.979 128.119)"><path d="M3137.648,2826.877s-.788,7.194-.788,7.309c0,12.608-1.472,37.235-1,39.606,1.144,5.781,13.636,37.249,13.636,37.249l6.473-.925-8.671-37.167,3.191-14.213,4.515-28.094Z" transform="translate(-3135.765 -2826.877)" fill="#b75742"/><path d="M3175.789,2834.369l1.262,7.388,3.416,30.4,16.721,30.852s-2.514,3.86-5.214,4.467l-23.733-31.18-12.862-39.036.451-8.672Z" transform="translate(-3149.508 -2828.076)" fill="#f47458"/></g><path d="M3116.9,2547.5a16,16,0,0,1-1.031,1.46s1.889,20.228,2.039,21.493l5.75,8.7-6.442,4.728s-6.562-10.509-6.622-11.021.21-15.658.21-15.658.481-7.86.481-8.251-1.156-2.925-1.385-3.945a33.157,33.157,0,0,1-.271-3.854l.482-.692,2.235-.489,1.58.18s3.65,1.475,3.793,1.942a24.414,24.414,0,0,1-.339,4A7.837,7.837,0,0,1,3116.9,2547.5Z" transform="translate(-3088.472 -2497.743)" fill="#ffb5ad"/><path d="M3121.931,2551.118a6.841,6.841,0,0,1-.918,1.52,1.487,1.487,0,0,1-2.3-.361,5.773,5.773,0,0,1-.888-1.716Z" transform="translate(-3094.215 -2505.16)" fill="#fe875e"/><path d="M3084.782,2427.222l-12.576,3.684a2.029,2.029,0,0,0-1.356,1.316l-4.094,12.487a2.025,2.025,0,0,1-3.6.508l-7.392-10.867a2.029,2.029,0,0,0-1.668-.889l-13.106-.061a2.038,2.038,0,0,1-1.6-3.281l8.009-10.4a2.041,2.041,0,0,0,.326-1.865l-4.006-12.525a2.029,2.029,0,0,1,2.614-2.535l12.34,4.439a2.022,2.022,0,0,0,1.869-.264l10.63-7.68a2.03,2.03,0,0,1,3.214,1.714l-.381,13.144a2.04,2.04,0,0,0,.829,1.7l10.576,7.779A2.037,2.037,0,0,1,3084.782,2427.222Z" transform="translate(-3038.964 -2398.902)" fill="#ffd40c"/><path d="M3129.938,2544.741c-.026-.441.045-1.366.045-1.366s-.936-1.831-.723-1.953c.745-.429,2.2,1.634,2.2,1.634S3130.023,2546.172,3129.938,2544.741Z" transform="translate(-3102.207 -2498.715)" fill="#f7a491"/><path d="M3109.094,2541.354s-1.012-3.8-.577-4.867c.28-.686,4.033-2.168,4.515-1.505.44.6-3.165,1.858-3.056,2,.181.241,2.725-1.491,3.191-1.159.524.371-2.454,2.183-2.318,2.469.086.181,1.752-1.552,1.927-.783S3109.094,2541.354,3109.094,2541.354Z" transform="translate(-3087.619 -2494.128)" fill="#f7a491"/><path d="M3130.426,2706.772l1.313-17.974h0c.422-4.438.586-7.981.227-9.26-.766-2.721-6.352-11.865-6.352-11.865s5.358-5.961,9.151-5.961c0,0,4.208,8.1,9.208,8.819s3.924.746,5.959.96a23.73,23.73,0,0,1,6.48,1.4c3.818,1.591.943,15.887.508,18.212-.659,3.516.575,33.128.575,33.128s-10.957,2.467-27.758-5.759Z" transform="translate(-3099.674 -2583.037)" fill="#fff"/><path d="M3186.824,2667.031l1.187,8.009s-4.393,9.331-7.028,8.514c-2.212-.685-.824-9.227-.824-9.227s1.178-4.276.817-6.517S3186.824,2667.031,3186.824,2667.031Z" transform="translate(-3137.589 -2586.434)" fill="#ffb5ad"/><path d="M3188.608,2669.454a17.584,17.584,0,0,1-5.117,1.539,11.363,11.363,0,0,0,.12-3.183c-.167-1.034,1.067-1.278,2.443-1.243,1.8.165,3.406.465,3.406.465l.228,1.539A3.759,3.759,0,0,1,3188.608,2669.454Z" transform="translate(-3140.225 -2586.436)" fill="#fb926e"/><path d="M3190.979,2627.193c.187,0-1.788,8.948-4.843,10.487s-7.61.737-8.465-1.673c-.945-2.666,2.5-11.793,6.8-12.953S3190.979,2627.193,3190.979,2627.193Z" transform="translate(-3136.037 -2555.836)" fill="#ffb5ad"/><g transform="translate(38.664 102.218)"><path d="M3214.071,2770.363l-12.979,1.814a2.027,2.027,0,0,0-1.533,1.1l-5.866,11.758a2.025,2.025,0,0,1-3.638-.021l-5.732-11.827a2.031,2.031,0,0,0-1.521-1.123l-12.957-1.968a2.037,2.037,0,0,1-1.1-3.478l9.436-9.124a2.04,2.04,0,0,0,.593-1.8l-2.141-12.974a2.029,2.029,0,0,1,2.954-2.129l11.564,6.189a2.022,2.022,0,0,0,1.887.011l11.634-6.051a2.03,2.03,0,0,1,2.931,2.163l-2.288,12.948a2.043,2.043,0,0,0,.573,1.806l9.332,9.234A2.037,2.037,0,0,1,3214.071,2770.363Z" transform="translate(-3168.117 -2740.354)" fill="#ffd40c"/></g><path d="M3248.407,2748.419s3.913,5.3,4.154,6.233-1.475,22.945-1.565,24.888c0,0,.722,2.349,1.128,3.839s.588,2.6.384,2.89-.835.091-1.084.655-.971.475-1.2.587-.892.948-1.14.926a1.617,1.617,0,0,0-.869.068,1.457,1.457,0,0,1-1.084.418,1.369,1.369,0,0,1-.759-.38s.4-4.047.1-4.036a1.9,1.9,0,0,0-1.14.6c-.1.248-.056.8-.158,1.05a.654.654,0,0,1-.745.383c-.3-.1-.26-1.49-.26-1.49a4.542,4.542,0,0,1,.451-1.8c1.408-2.308,1.715-1.986,1.9-2.281.09-.147-.023-5.849-.023-5.849s-.564-16.2-.624-17.07l-4.124-6.113Z" transform="translate(-3181.047 -2643.786)" fill="#ffb5ad"/><path d="M3231.424,2713.851l-8.248,6.2s-4.5-6.8-6.923-9.215c-3.029-3.03,1.229-12.653,3.055-11.789C3223.8,2701.179,3231.424,2713.851,3231.424,2713.851Z" transform="translate(-3162.438 -2609.159)" fill="#fff"/><path d="M3200.252,2608.932a10.1,10.1,0,0,1,3.937,4.642c1.145.58,2.531,1.834,3.2,5.215a7.331,7.331,0,0,1-5.173,8.324c-3.083.964-3.6,3.141-3.6,3.141l-.3-2.343a9.442,9.442,0,0,1,1.717-3.061c1.031-1.021-.489-2.509-.622-3.723-.1-.934.542-2.749.4-4.282l-.374-1.268a5.032,5.032,0,0,0-3.028-2.187C3194.593,2613.148,3197.121,2607.006,3200.252,2608.932Z" transform="translate(-3148.846 -2545.795)" fill="#413e3d"/><path d="M3205.833,2652.241c-.4,1.034-.236,2.06.365,2.291s1.412-.417,1.811-1.45.236-2.06-.365-2.291S3206.233,2651.208,3205.833,2652.241Z" transform="translate(-3155.725 -2575.352)" fill="#f7a491"/><path d="M3278.813,3081.264s-3.91,11.16-5.441,11.7c-.406.143-2.356.506-2.724,1.38a3.8,3.8,0,0,0,0,1.143h8.15s1.031-4.917,1.438-7.077c0,0,2.157-5.279,1.918-5.759S3278.813,3081.264,3278.813,3081.264Z" transform="translate(-3201.256 -2876.991)" fill="#9677ff"/><path d="M3169.173,3119.729l-1.2-3.837s-2.517,1.079-3.775.9a37.686,37.686,0,0,1-3.716-.9c-5.023,1.676-9.139,2.49-8.391,3.837h17.08Z" transform="translate(-3118.165 -2901.252)" fill="#9677ff"/></g><path d="M4226.942,2363.21a4.659,4.659,0,0,0-2.059-3.419,3.6,3.6,0,0,0-5.079,1c-1.3,1.9-1.165,5.279,1.827,10.188,5.659,1.009,8.86-.094,10.156-1.99a3.6,3.6,0,0,0-.913-5.094A4.661,4.661,0,0,0,4226.942,2363.21Z" transform="translate(-3243.973 -2104.415)" fill="#ffd40c"/><path d="M4145.321,2250.035a4.086,4.086,0,0,0-3.474-.417,3.157,3.157,0,0,0-2.045,4.049c.613,1.918,3.024,3.649,8.031,4.221,3.745-3.371,4.7-6.18,4.091-8.1a3.157,3.157,0,0,0-4.016-2.111A4.089,4.089,0,0,0,4145.321,2250.035Z" transform="translate(-3188.351 -2026.209)" fill="#ff7208"/><path d="M4133.195,2318.162a6.384,6.384,0,0,0-5.542-.84,5.165,5.165,0,0,0-3.218,6.673c1,3.226,4.861,6.213,12.848,7.377,5.934-5.472,7.435-10.119,6.436-13.345a5.164,5.164,0,0,0-6.424-3.688A6.384,6.384,0,0,0,4133.195,2318.162Z" transform="translate(-3177.51 -2072.866)" fill="#fff"/><path d="M3505.746,2325.79a2.674,2.674,0,1,1-3.864-1.5,2.265,2.265,0,0,1,1.058-.29l-2.548-4.159-5.274,5.556,4.356,7.112h0a.254.254,0,0,1,.015.025,2.669,2.669,0,1,1-3.829-1.427,2.265,2.265,0,0,1,1.056-.29l-4.666-7.618a.594.594,0,0,1,.039-.723l6.784-6.777a.53.53,0,0,1,.815.183l6.064,9.9Z" transform="translate(-2734.556 -2073.893)" fill="#ff7208"/><path d="M3421.769,2268.451c-.551,2.159-2.447,3.555-4.283,3.128-1.863-.434-2.956-2.583-2.44-4.8s2.446-3.661,4.311-3.227a3,3,0,0,1,1.284.663l1.24-6.305-10.07.682-2.121,10.782h0c0,.013,0,.025-.007.038-.516,2.217-2.446,3.661-4.31,3.226s-2.957-2.583-2.44-4.8,2.446-3.661,4.311-3.227a2.993,2.993,0,0,1,1.282.66l2.271-11.549a.782.782,0,0,1,.683-.666l12.624-.519a.7.7,0,0,1,.627.9l-2.952,15.009Z" transform="translate(-2672.098 -2029.726)" fill="#fff"/><g transform="translate(869.044 267.936)"><path d="M3982.146,2625.883s2.706-2.853,4.883.617a2.162,2.162,0,0,1,2.852.736s3.03-.911,3.765,3.617c0,0,1.559-.294,1.765,1.559a4.584,4.584,0,0,1-.735,3.088s.875.657.478,2.361a2.106,2.106,0,0,1-1.537,1.669s-.324,2.441-1.382,3.177a3.452,3.452,0,0,1-2.5.382,1.631,1.631,0,0,1-1.617,1.206c-1.236-.117-2.765-1.294-4.147-.764s-4.97-.03-4.97-.03-4.03-1.794-2.824-5.912a3.012,3.012,0,0,1-.265-4.206s-1.352-3.588,1.324-5.706A6.98,6.98,0,0,1,3982.146,2625.883Z" transform="translate(-3942.149 -2558.468)" fill="#413e3d"/><path d="M4088.931,2535.654l1.42,5.308.661,9.4-5.126,1.09s-.027-6.018-1.092-7.231a13.63,13.63,0,0,1-2.122-3.067C4082.057,2539.127,4088.931,2535.654,4088.931,2535.654Z" transform="translate(-4017.455 -2496.023)" fill="#f7a491"/><path d="M4083.515,2548.351l3.034,3.722a1.447,1.447,0,0,0,2.649-.626l.373-2.591S4085.247,2546.457,4083.515,2548.351Z" transform="translate(-4018.073 -2504.409)" fill="#f47458"/><path d="M4007.539,2440.492l13.166-1.3a2.047,2.047,0,0,1,1.761.7l8.477,9.935a2.063,2.063,0,0,0,3.567-.873l2.9-12.719a2.042,2.042,0,0,1,1.234-1.436l12.271-4.928a2,2,0,0,0,.282-3.6l-11.374-6.565a1.994,1.994,0,0,1-1-1.59l-.892-12.982a2.044,2.044,0,0,0-3.394-1.355l-9.929,8.662a2.078,2.078,0,0,1-1.851.453l-12.823-3.095a2.038,2.038,0,0,0-2.379,2.767l5.237,11.918a1.992,1.992,0,0,1-.146,1.871l-7.033,11.069A2.006,2.006,0,0,0,4007.539,2440.492Z" transform="translate(-3963.271 -2403.269)" fill="#ffd40c"/><path d="M4084.824,2547.56l.651-1.722s1.368-1.806.81-2.305c-.927-.83-2.981,2.055-2.981,2.055S4083.453,2547.77,4084.824,2547.56Z" transform="translate(-4017.926 -2501.438)" fill="#f7a491"/><path d="M4100.579,2542.21s-.288-3.732-.4-3.822c-.606-.507-2.336-1.2-2.854-.863s1.172,2.013,1.172,2.013a1.342,1.342,0,0,0-.8,1.083C4097.684,2541.372,4100.579,2542.21,4100.579,2542.21Z" transform="translate(-4027.683 -2497.27)" fill="#f7a491"/><path d="M3919.5,2550.461l-.339,5.485,1.218,9.341,5.24.051s-1.167-5.9-.365-7.3a13.626,13.626,0,0,0,1.471-3.427C3926.923,2552.5,3919.5,2550.461,3919.5,2550.461Z" transform="translate(-3902.919 -2506.397)" fill="#f7a491"/><path d="M3929.245,2559.626l-2.234,4.25a1.447,1.447,0,0,1-2.721-.088l-.879-2.466S3927.172,2558.114,3929.245,2559.626Z" transform="translate(-3905.898 -2512.535)" fill="#f47458"/><path d="M3904.282,2471.923l-11.193,1.142a1.742,1.742,0,0,0-1.35.883l-5.388,9.713a1.755,1.755,0,0,1-3.122-.125l-4.564-10.113a1.739,1.739,0,0,0-1.271-.989l-11.061-2.037a1.7,1.7,0,0,1-.844-2.957l8.373-7.393a1.7,1.7,0,0,0,.564-1.494l-1.448-10.972a1.738,1.738,0,0,1,2.6-1.7l9.738,5.544a1.77,1.77,0,0,0,1.62.065l10.166-4.745a1.734,1.734,0,0,1,2.45,1.905l-2.354,10.819a1.694,1.694,0,0,0,.438,1.534l7.731,8.04A1.707,1.707,0,0,1,3904.282,2471.923Z" transform="translate(-3864.911 -2432.96)" fill="#ffd40c"/><path d="M4050.726,3027.71a40.658,40.658,0,0,0,3.683,4.1c.734.449-.328,5.759-2.328,6.108-1.128.2-1.754-1.044-1.754-1.044l.323-1.53-4.211-4.34Z" transform="translate(-3992.096 -2840.776)" fill="#f7a491"/><path d="M3999.094,3030.725a40.655,40.655,0,0,0,3.128,4.541c.671.54-1.061,5.671-3.089,5.761-1.143.051-1.606-1.26-1.606-1.26l.516-1.475-3.623-4.842Z" transform="translate(-3955.65 -2842.888)" fill="#f7a491"/><path d="M4001.222,3045.37a31.218,31.218,0,0,1-2.181,2.516,25.978,25.978,0,0,1-2.267,1.828s-1.442,2.617-1.835,3.53c-.878,2.032-1.863,4.3-1.721,5.436.045.365.866.751,1.549.541,2.848-.875,10.129-7.535,11.048-9.323C4006.875,3047.836,4001.222,3045.37,4001.222,3045.37Z" transform="translate(-3954.798 -2853.15)" fill="#9677ff"/><path d="M3943.923,2836.94c.265-.74.519-1.424.764-2.068,3.028.661,6.449,1.387,9.969,2.138l.428,12.9c0-1-2.645,20.572-2.645,20.572s6.221,14.986,10.9,23.809a13.747,13.747,0,0,1-5.206,4.368c-7.26-8.7-16.537-24.042-16.931-26.69C3940.971,2870.443,3940.767,2845.822,3943.923,2836.94Z" transform="translate(-3918.281 -2705.666)" fill="#b75742"/><path d="M4002.716,2845.673c-.925,10.051-2.983,29.264-2.811,30.81.517,1.926,9.294,19.707,10.941,22.294a10.33,10.33,0,0,1-5.412,4.411c-.43.116-15.257-21.1-16.081-22.806-.931-1.928-2.481-12.448-2.509-25.472l-.428-12.9C3992.279,2843.263,3997.67,2844.489,4002.716,2845.673Z" transform="translate(-3950.042 -2710.669)" fill="#f47458"/><path d="M3953.486,2701.207l6.9.947s5.533.136,6.217.136,5.02,25.175,6.274,34.648.283,11.152.283,11.152-8.751,1.968-15.224,1.394c-6.732-.6-14.305-4.23-14.305-4.23s7.8-17.79,8.941-23.475S3953.486,2701.207,3953.486,2701.207Z" transform="translate(-3920.066 -2612.016)" fill="#fff"/><path d="M3920.33,2597.01s-.443,18.771.265,20.207c1.029,2.088,12.618,16.9,12.618,16.9s-5.536,23.167-7.863,31.167c-.234.806-1.272,6.01-1.272,6.518,0,1.125,4.9,2.553,5.479,2.468.521-.076,4.793-22.113,7.521-32.9a30.848,30.848,0,0,1,4.678-10.19l1.9-2.7-14.559-14.592s-1.794-16.242-1.794-17.588C3927.3,2595.95,3921.035,2595.686,3920.33,2597.01Z" transform="translate(-3903.644 -2538.315)" fill="#ffd40c"/><path d="M4007.2,2616.187l18.155-18.5s2.53-17.492,2.709-18.151,4.686-1,6.5-1.174c.583-.057-.305,18.631-1.174,21.763-1.026,3.7-14.749,20.562-14.749,20.562s-2.46,9.132-1.868,15.831c.984,11.126,3.637,26.431,3.161,26.912-2.95,1.858-14.274,2.057-14.99.9C3997.031,2651.588,4007.2,2616.187,4007.2,2616.187Z" transform="translate(-3960.912 -2525.946)" fill="#ffd40c"/><path d="M3997.948,2679.771l-.49,3.634s-1.1,5.236.315,6.245,6-6.395,6-6.395l-.485-9.208Z" transform="translate(-3957.495 -2592.986)" fill="#f7a491"/><path d="M4004.573,2677.031a10.448,10.448,0,0,1-5.915,5.821l.416-3.081,5.343-5.724Z" transform="translate(-3958.619 -2592.986)" fill="#f47458"/><path d="M4034.65,2647.2c0,1.4-.8,2.539-1.781,2.539s-1.781-1.137-1.781-2.539.8-2.54,1.781-2.54S4034.65,2645.8,4034.65,2647.2Z" transform="translate(-3981.341 -2572.396)" fill="#413e3d"/><path d="M4014.991,2631.494c0,.805-.97,1.459-2.167,1.459s-2.167-.654-2.167-1.459.97-1.459,2.167-1.459S4014.991,2630.687,4014.991,2631.494Z" transform="translate(-3967.026 -2562.149)" fill="#413e3d"/><path d="M3991.195,2641.117a4.857,4.857,0,0,0-6.356,3.87,36.67,36.67,0,0,0-.394,4.662c-.078,4.245,2.12,8.376,4.047,8.376s7.253-2.748,7.446-8.774C3996.058,2645.531,3994.2,2642.152,3991.195,2641.117Z" transform="translate(-3948.66 -2569.731)" fill="#f7a491"/><path d="M4018.1,2666.527a1.414,1.414,0,1,0,1.386-1.695A1.564,1.564,0,0,0,4018.1,2666.527Z" transform="translate(-3972.242 -2586.53)" fill="#f7a491"/><path d="M3974.19,2631.643c-1.991,1.577-2.688,3.974-1.558,5.353s3.66,1.219,5.651-.358,2.688-3.974,1.559-5.353S3976.181,2630.066,3974.19,2631.643Z" transform="translate(-3940.005 -2562.368)" fill="#413e3d"/><path d="M3996.49,2636.093c0,.685.828,1.241,1.849,1.241s1.848-.556,1.848-1.241-.828-1.241-1.848-1.241S3996.49,2635.408,3996.49,2636.093Z" transform="translate(-3957.101 -2565.525)" fill="#413e3d"/><path d="M3978.118,2652.881a1.578,1.578,0,1,0,1.578-1.6A1.587,1.587,0,0,0,3978.118,2652.881Z" transform="translate(-3944.228 -2577.039)" fill="#413e3d"/><path d="M3934.179,2559.554l-.98-1.558s-1.7-1.5-1.251-2.1c.744-1,3.33,1.422,3.33,1.422S3935.566,2559.488,3934.179,2559.554Z" transform="translate(-3911.827 -2510.037)" fill="#f7a491"/><path d="M3918.269,2556.448s-.458-3.714-.37-3.825c.493-.616,2.05-1.644,2.625-1.412s-.75,2.206-.75,2.206a1.341,1.341,0,0,1,1,.9C3920.939,2555.052,3918.269,2556.448,3918.269,2556.448Z" transform="translate(-3902.028 -2506.899)" fill="#f7a491"/><path d="M4057.745,3040.963a30.821,30.821,0,0,1-1.842,2.773,25.954,25.954,0,0,1-2.015,2.1s-1.1,2.779-1.37,3.735c-.61,2.128-1.3,4.7-1.013,5.807.092.356.876,1.037,1.523.616,2.5-1.626,9.167-9.241,9.851-11.131C4063.668,3042.687,4057.745,3040.963,4057.745,3040.963Z" transform="translate(-3995.6 -2850.062)" fill="#9677ff"/></g><g transform="translate(795.583 294.492)"><path d="M3705.967,2692.578c1.152-2.771,2.324-5.549,5.312-6.953a6.686,6.686,0,0,1,7.094.908c6.089,4.578.784,9.623,7.715,18.3,2.153,2.7,4.76,4.876,6.05,8.037,1.806,4.425-.345,6.55-3.792,8.669-16.5,10.14-25.146-10.68-24.834-15.442C3703.741,2702.559,3705.226,2694.362,3705.967,2692.578Z" transform="translate(-3678.361 -2627.207)" fill="#413e3d"/><path d="M3667.378,3018.752a46.635,46.635,0,0,0,2.267,7.275c.082.182.841.83.931,1.016-.238,4.53-3.024,7.312-5.659,9.317.507-2.3,1.721-4.956,1.536-5.456a64.71,64.71,0,0,0-3.852-8.993C3664.841,3021.58,3665.595,3020.186,3667.378,3018.752Z" transform="translate(-3649.704 -2861.056)" fill="#f7a491"/><path d="M3652.053,2839.043l14.044,10.667s-6.953,6.69-9.562,9.177-18.7,14.065-18.93,14.635c-.168.422,3.662,13.733,6.132,20.84a17.184,17.184,0,0,1-6.69,3.495c-4.869-9.292-10.852-25.147-10.852-27.3C3626.2,2867.049,3652.053,2839.043,3652.053,2839.043Z" transform="translate(-3624.197 -2735.145)" fill="#b75742"/><path d="M3822.426,2897.274a64.045,64.045,0,0,0-4.668,9.565c-1.7-1.069-2.725-2.343-4.623-3.062,1.5-2.167,4.416-7.378,4.656-8.619.569-2.943,1.238-3.377,1.238-3.377s9.866,3.338,10.524,4.273S3824.27,2895.476,3822.426,2897.274Z" transform="translate(-3755.173 -2772.095)" fill="#f7a491"/><path d="M3827.557,2892.479c-.765,0,.066-3.457.242-4.254a1.491,1.491,0,0,1,.845-1.2c.35-.086,11.316,3.624,13.168,4.956a2.181,2.181,0,0,1,.385.44c1.014,1.893-8.025,2.253-9.326,1.425C3831.715,2893.114,3831,2892.471,3827.557,2892.479Z" transform="translate(-3765.056 -2768.764)" fill="#f47458"/><path d="M3702.548,2837.97l12.259-4.954c-.048.022.074.5.084.536,1.151,4.476,7.285,2.75,9.817,10.524,1.788,5.493,4.408,26.039,4.408,26.039s1.857-3.532,7.624-10.03c.446-.5,6.129,3.4,6.129,3.4-4.226,11.2-14.6,20.306-16.007,19.662-9.493-4.356-20.894-38.717-20.879-38.715C3704.9,2842.329,3702.548,2837.97,3702.548,2837.97Z" transform="translate(-3677.692 -2730.922)" fill="#f47458"/><path d="M3670.1,2643.188s-5.749-9.1-6.749-12.13-.008-17.45.087-18.475,3.57-3.826,3.022-4.632-5.344-1.463-6.15-1.305-2.37.013-3.01.662c-.083.085,1.527,3.882,1.493,4.47-.229,4.019-2.511,16.813-1.763,20.274.859,3.979,9.4,16.692,9.4,16.692Z" transform="translate(-3645.693 -2572.301)" fill="#f7a491"/><path d="M3770.782,2734.822s15.38.382,18.757.66,15.63-.742,16.1-.8,3.613-5.37,4.135-4.8-1.747,2.636-1.046,3.172,8.238-.664,8.138-.107c-.187,1.042-4.584.91-4.58,1.413s4.6-.282,4.914.553-4.423.341-4.611.713,4.39,1.056,3.921,1.833c-.254.422-4.056-.7-4.039-.13s2.793,1.884,2.454,2.342-2.178-1.406-3.788-1.43-2.763-.863-5.333-.158-11.33,4.238-16.814,3.978-17.6-.8-17.6-.8Z" transform="translate(-3725.5 -2658.634)" fill="#f7a491"/><path d="M3684.6,2748.32c-.209-2.537-.564-9.382-.45-10.224-.768-2.635-3.567-6.541-4.154-7.646,0,0,3.8-4.3,6.615-4.267,0,0,3,3.784,5.219,4.944a5.531,5.531,0,0,0,1.119.333c2.146-.015,9.648-.243,11.05.176l-.794,11.592c-.4.665-.893,13.994-1.723,15.091s-12.906,6.091-14.906,4.8C3686.492,2763.071,3685.02,2753.448,3684.6,2748.32Z" transform="translate(-3661.889 -2656.07)" fill="#fff"/><path d="M3747.115,2743.8c1.384-.661,11.493-.64,11.493-.64s1.4,6.973.269,8.649c0,0-8.954,1.332-8.7,2.067Z" transform="translate(-3708.918 -2667.964)" fill="#fff"/><path d="M3725.017,2724.643a30.923,30.923,0,0,0-.622,5.608c.156,1.587-.593,6.7-3.95,6.716s-.637-6.5-.321-8.054a59.535,59.535,0,0,0,.391-6.366Z" transform="translate(-3689.068 -2653.523)" fill="#f7a491"/><path d="M3724.333,2724.96c.053-1.316.069-2.414.069-2.414l4.5,2.1s-.159.822-.319,1.87A3.934,3.934,0,0,1,3724.333,2724.96Z" transform="translate(-3692.956 -2653.523)" fill="#f47458"/><path d="M3726.555,2691.232a5.579,5.579,0,0,1,2.369,3.049c.635,2.086-.087,7.47-4.569,8.769s-6.423-2.964-5.5-6.3S3721.786,2689.2,3726.555,2691.232Z" transform="translate(-3688.96 -2631.21)" fill="#f7a491"/><path d="M3717.476,2702.587c.087.895.582,1.579,1.1,1.528s.873-.818.785-1.713-.582-1.579-1.1-1.528S3717.389,2701.692,3717.476,2702.587Z" transform="translate(-3688.142 -2638.336)" fill="#f7a491"/><path d="M3673.357,3043.079c.258-.72,3.193,1.446,3.882,1.883a1.487,1.487,0,0,1,.838,1.2c-.037.349-7,9.553-9.08,10.864a1.22,1.22,0,0,1-.745.1c-1.2-.414.473-7.806,1.973-9.306A9.411,9.411,0,0,0,3673.357,3043.079Z" transform="translate(-3653.378 -2877.998)" fill="#f47458"/><path d="M3665.034,2519.541l-12.348,4.389a2.03,2.03,0,0,0-1.28,1.39l-3.379,12.7a2.026,2.026,0,0,1-3.568.711l-8-10.427a2.026,2.026,0,0,0-1.715-.793l-13.088.682a2.037,2.037,0,0,1-1.782-3.184l7.406-10.833a2.037,2.037,0,0,0,.219-1.88l-4.708-12.273a2.029,2.029,0,0,1,2.466-2.679l12.573,3.731a2.023,2.023,0,0,0,1.851-.369l10.177-8.267a2.03,2.03,0,0,1,3.306,1.527l.364,13.14a2.041,2.041,0,0,0,.925,1.652l11,7.165A2.036,2.036,0,0,1,3665.034,2519.541Z" transform="translate(-3619.52 -2491.978)" fill="#ffd40c"/><path d="M3678.547,2611.138c.46.677-2.035,2.819-2.727,4l-1.568-2.134C3675.025,2612.856,3678.021,2610.365,3678.547,2611.138Z" transform="translate(-3657.867 -2575.362)" fill="#f7a491"/><path d="M3743.348,2691.568s.812,6.005,2.754,7.089,1.129,3.748,1.129,3.748,1.76-6.186.226-8.172A8.545,8.545,0,0,0,3743.348,2691.568Z" transform="translate(-3706.278 -2631.819)" fill="#413e3d"/><path d="M3747.785,2715.992c-.527.782-.525,1.705,0,2.061s1.384.01,1.91-.773.524-1.705,0-2.061S3748.312,2715.209,3747.785,2715.992Z" transform="translate(-3709.112 -2648.291)" fill="#f7a491"/><path d="M3672.759,2613.169c.012.014.025.026.036.042l.568.74a2.265,2.265,0,0,0-1.989.192A2.413,2.413,0,0,1,3672.759,2613.169Z" transform="translate(-3655.851 -2576.889)" fill="#f47257"/></g><g transform="translate(719.281 290.392)"><g transform="translate(23.564 114.483)"><path d="M3451.914,2860.7a25.917,25.917,0,0,0,4.31,5.047,18.85,18.85,0,0,1,4.021,7.754c.873,4.379.146,26.017.906,27.556,6.526,6.38,11.251,22.392,12.579,27.277a5.23,5.23,0,0,0,1.508,2.478h0l-.291,5.52-3.242,2.987s.721-4.5-.72-7.835c0,0-16.431-24.883-17.407-26.785-1.863-5.416-8.649-33.168-8.649-33.168l-1.575-6.379S3451.9,2860.711,3451.914,2860.7Z" transform="translate(-3443.354 -2860.705)" fill="#ffb5ad"/><path d="M3539.145,3096.474s-2.052,3.163-2.227,4.4-1.269,4.028-2.478,4.2c-.275.04-4.977.385-4.942-.2.026-.449,1.728-1.09,2.519-1.637,1.365-.942,3.486-8.627,3.486-8.627S3539.057,3095.489,3539.145,3096.474Z" transform="translate(-3503.709 -3024.586)" fill="#ff7208"/></g><path d="M3389.892,2881.506s-10.583,22.628-10.65,26.606c-.058,3.41,1.849,22.543,1.317,38.477-.02.575-.748,1.34-1.809,1.826-.6.274-3.479,1.561-3.479,1.561l-.4,1.031,9.925-.707.142-2.71s3.95-23.835,3.548-30.577c-.064-1.058-.578-7.4-.578-7.4l11.935-23.044-7.506-9.864Z" transform="translate(-3371.811 -2757.434)" fill="#ffb5ad"/><path d="M3397.481,2715.5c5.247,7.3,11.44,2.553,11.159,2.605a22.251,22.251,0,0,1,2.453.27,9.863,9.863,0,0,0,9.324-4.824c5.577.161,9.869-4.269,8.88-8.85,2.843-2.592,2.771-7.463.913-10.87.175-5.072-6.3-6.965-11.093-5.937a9.566,9.566,0,0,0-6,4.285,9.161,9.161,0,0,0-10.156,6.059C3395.89,2699.034,3392.127,2708.052,3397.481,2715.5Z" transform="translate(-3385.876 -2624.956)" fill="#413e3d"/><path d="M3420.161,2626.108a9.91,9.91,0,0,0-.953-1.746l-.414-.6c-.05-.107-.09-.2-.111-.257a9.638,9.638,0,0,1-.042-2.253l3.619.876.795,2.089c.806-.372,2.182-3.174,2.684-2.5.594.794-1.642,4.239-1.819,5.171s1.923,15.41,2.53,18.285,4.7,10.9,4.7,10.9l-3.747,4.754s-6.007-12.238-6.4-15.974c-.042-.393-.089-.981-.139-1.71Z" transform="translate(-3402.44 -2578.45)" fill="#ffb5ad"/><path d="M3507.2,2778.6l4.449-3.771s3.6,6.006,6.488,10.9c2.863-1.035,10.26-5.857,10.625-6.079s1.176-5.673,1.8-5.383-.482,2.877.278,3.07,6.456-3.612,6.573-3.1c.219.951-3.4,2.467-3.218,2.891s3.638-1.942,4.189-1.351-3.471,1.925-3.493,2.311,3.942-.733,3.838.1c-.056.451-3.547.906-3.327,1.387s2.94.559,2.826,1.073-2.27-.383-3.586.194-2.551.293-4.388,1.841-10.86,10.381-13.671,9.624C3514.131,2791.643,3507.2,2778.6,3507.2,2778.6Z" transform="translate(-3464.523 -2685.608)" fill="#ffb5ad"/><g transform="translate(5.129 76.539)"><path d="M3506.059,2983.533s0,0,0,0Z" transform="translate(-3468.849 -2908.818)" fill="#f47458"/><path d="M3447.539,2744.8c-.284-1.74-2.976-6.094-3.4-7.161,0,0,3.121-3.967,5.655-3.666,0,0,3.406,5.645,5.341,5.835s8.746.485,9.939,1.209,6.258,8.5,6.258,8.5-4.552,4.648-6.382,4.638a19.143,19.143,0,0,0-1.361-2.335c-.276.89-4.517,14.63-4.51,17.742l-.033.026a8.9,8.9,0,0,1-12.806-1.646h0a70.634,70.634,0,0,0,.156-8.233C3446.076,2753.521,3444.823,2750.232,3447.539,2744.8Z" transform="translate(-3425.468 -2733.955)" fill="#ff7208"/><path d="M3381.772,2877.494l20.772-30.009a20.423,20.423,0,0,0,3.862,1.234,40.048,40.048,0,0,0,8.977.385,2.344,2.344,0,0,0,.017.295c.347,2.474,3.629,6.3,4.305,13.812a183.851,183.851,0,0,1,.044,24.3C3405.938,2885.829,3385.69,2881.607,3381.772,2877.494Z" transform="translate(-3381.772 -2813.499)" fill="#fff"/></g><g transform="translate(2.812)"><path d="M3422.237,2629.708a3.59,3.59,0,0,0,2.414.592,4.525,4.525,0,0,0,1.618-.693,4.556,4.556,0,0,1-1.518,1.6C3423.191,2632.05,3422.237,2629.708,3422.237,2629.708Z" transform="translate(-3407.806 -2584.306)" fill="#ffd40c"/><path d="M3414.218,2517.494,3402.141,2515a1.855,1.855,0,0,0-1.7.528l-8.832,8.978a1.886,1.886,0,0,1-3.221-1.188l-1.441-12.767a1.988,1.988,0,0,0-1-1.525l-10.893-5.979a2.03,2.03,0,0,1,.093-3.568l11.187-5.4a1.984,1.984,0,0,0,1.081-1.471l2.1-12.674a1.886,1.886,0,0,1,3.279-1.017l8.356,9.43a1.856,1.856,0,0,0,1.672.616l12.19-1.854a1.974,1.974,0,0,1,1.933,2.939l-6.022,11.227a2.069,2.069,0,0,0-.048,1.851l5.435,11.528A1.973,1.973,0,0,1,3414.218,2517.494Z" transform="translate(-3374.031 -2478.282)" fill="#ffd40c"/></g><path d="M3478.865,2731.986a31.4,31.4,0,0,0-.584,5.487c.145,1.552-.557,6.553-3.712,6.57s-.6-6.359-.3-7.88a60.651,60.651,0,0,0,.367-6.229Z" transform="translate(-3440.566 -2654.599)" fill="#ffb5ad"/><path d="M3478.222,2732.3c.049-1.288.065-2.362.065-2.362l4.23,2.052s-.149.8-.3,1.829A3.626,3.626,0,0,1,3478.222,2732.3Z" transform="translate(-3444.219 -2654.599)" fill="#f47458"/><path d="M3480.309,2699.3a5.407,5.407,0,0,1,2.226,2.983c.6,2.041-.083,7.307-4.293,8.578s-6.035-2.9-5.168-6.16S3475.828,2697.312,3480.309,2699.3Z" transform="translate(-3440.465 -2632.771)" fill="#ffb5ad"/><path d="M3471.778,2710.408c.083.875.547,1.545,1.037,1.495s.821-.8.738-1.676-.546-1.545-1.036-1.5S3471.7,2709.533,3471.778,2710.408Z" transform="translate(-3439.696 -2639.742)" fill="#f7a491"/><path d="M3500.258,2723.522c-.495.766-.493,1.668,0,2.016s1.3.01,1.8-.755.493-1.668,0-2.017S3500.752,2722.757,3500.258,2723.522Z" transform="translate(-3459.399 -2649.481)" fill="#f7a491"/><path d="M3419.034,2613.879c.816-.158,4.273,2.554,4.242,2.96s-3.4-1.314-3.5-1.038c-.075.217,3.775,1.226,3.574,1.612-.138.265-3.592-.464-3.684-.295-.145.265,2.882.378,2.687.671-.227.338-3.108.2-3.108.2a6.5,6.5,0,0,1-.639-1.282,2.807,2.807,0,0,1-.014-.6c.011-.192-.074-.358-.047-.574C3418.654,2614.662,3418.582,2613.967,3419.034,2613.879Z" transform="translate(-3402.404 -2573.282)" fill="#f7a491"/><path d="M3435.575,2620.392l1.287,1.59.849-.633a.422.422,0,0,0-.029-.354C3437.583,2620.775,3435.6,2619.8,3435.575,2620.392Z" transform="translate(-3414.34 -2577.719)" fill="#f7a491"/><path d="M3377.662,3118.181h-12.538c-.464-.041-.577-.416-.416-.646.331-.476,1.793-.824,3.438-1.581,2.883.3,9.164-1.671,9.618-2.332C3378.027,3114.946,3377.92,3118.125,3377.662,3118.181Z" transform="translate(-3364.639 -2923.426)" fill="#ff7208"/><path d="M3432.871,2625.772a8.214,8.214,0,0,0-2.406,2.254,2.927,2.927,0,0,0-.379,2.222l2.916-3.588Z" transform="translate(-3410.441 -2581.619)" fill="#f7a491"/></g><g transform="translate(1018.907 252.77)"><path d="M4368.84,2371.824l19.305,4.2a4.222,4.222,0,0,0,5.022-3.226l2.367-10.872a4.22,4.22,0,0,0-3.227-5.021l-19.306-4.2a4.22,4.22,0,0,0-5.021,3.226l-2.368,10.872A4.221,4.221,0,0,0,4368.84,2371.824Z" transform="translate(-4365.517 -2352.608)" fill="#ff7208"/><path d="M4451.185,2400.982l6.317,10.21-9.693-4.172Z" transform="translate(-4423.173 -2386.5)" fill="#ff7208"/><g transform="translate(7.717 4.001)"><path d="M4404.455,2373.6,4402,2373s-2.586-3.025-2.5-3.867.992-2.465.559-2.792a1.658,1.658,0,0,0-2.307.212c-.647.683-.907,3.652-1.24,3.779a13.363,13.363,0,0,1-2.668-.467,1.877,1.877,0,0,0-1.847.606h0a1,1,0,0,0-.036,1.26l.447.584-.564.478a1,1,0,0,0-.119,1.4l.359.429-.374.272a1,1,0,0,0-.151,1.482l.325.358-.083.094a1,1,0,0,0,.031,1.351l.33.344,6.549,1.6a4.633,4.633,0,0,0,1.874.067l2.4.182a.522.522,0,0,0,.548-.4l1.313-5.752A.521.521,0,0,0,4404.455,2373.6Z" transform="translate(-4391.295 -2365.972)" fill="#fff"/></g></g><g transform="translate(855.586 217.653)"><path d="M3841.436,2235.972c-13.295,2.476-22.839,11.1-21.318,19.27.76,4.083,4.144,7.278,9,9.143l-3.153,13.046,9.611-11.475a37.294,37.294,0,0,0,11.37-.41c13.3-2.475,22.839-11.1,21.318-19.27S3854.73,2233.5,3841.436,2235.972Z" transform="translate(-3819.959 -2235.303)" fill="#ffd40c"/><g transform="translate(14.547 6.383)"><path d="M3869.4,2268.858a8.533,8.533,0,1,0,4-11.388A8.531,8.531,0,0,0,3869.4,2268.858Z" transform="translate(-3868.552 -2256.626)" fill="#ff7208"/><path d="M3893.5,2282.613a4.562,4.562,0,1,1-8.225,3.951Z" transform="translate(-3880.271 -2274.833)" fill="#efefef"/></g></g><g transform="translate(799.635 215.567)"><path d="M3640.809,2246.216l24.906,0a2.275,2.275,0,0,0,2.1-3.14l-5.477-13.327a2.276,2.276,0,0,0-2.1-1.41l-24.906,0a2.274,2.274,0,0,0-2.1,3.139l5.477,13.327A2.275,2.275,0,0,0,3640.809,2246.216Z" transform="translate(-3633.054 -2228.336)" fill="#f47458"/><g transform="translate(3.047 1.742)"><path d="M3657.378,2242.65l9.637-7a.826.826,0,1,0-.97-1.337l-8.869,6.44-12.783-5.646a.826.826,0,1,0-.667,1.511Z" transform="translate(-3643.231 -2234.156)" fill="#fff"/></g></g><g transform="translate(1070.386 285.371)"><path d="M7.846,0s1.568,7.376,1.4,9C9,11.338-2.091,6.1.351,5.313c.562-.182,2.342-.893,2.482-.993C3.586,3.78,3.375.3,3.375.3Z" transform="translate(56.692 165.703) rotate(-70)" fill="#f7a491"/><path d="M3.169,1.583,10.193,0a9.173,9.173,0,0,0,6.472,1.583,6.641,6.641,0,0,1,.758,4,67.691,67.691,0,0,1-9.516,0,19.589,19.589,0,0,1-6.792-1.5C-2.284,2.622,3.169,1.583,3.169,1.583Z" transform="translate(58.172 174.419) rotate(-70)" fill="#9677ff"/><path d="M4633.242,2565.322a5.389,5.389,0,0,1,1.773,1.716c.917,1.425,2.456,3.809,2.652,4.056,1.745,2.188,6.794,7.4,6.794,7.4l-4.874,1.5-9.516-10.681s-4.148-4.037-3.454-3.913c.3.053,4.045,2.812,4.112,2.642.018-.045-5.046-4.1-4.172-4.328.235-.06,4.423,3.086,4.636,3.01.1-.036-4.146-2.965-3.349-3.281.4-.157,3.759,2.2,4.011,2.137.281-.066-3.051-2.479-2.3-2.318A41.8,41.8,0,0,1,4633.242,2565.322Z" transform="translate(-4599.822 -2532.796)" fill="#f7a491"/><path d="M4583.407,2490.186l-12.68,3.3a2.035,2.035,0,0,0-1.4,1.274l-4.469,12.353a2.027,2.027,0,0,1-3.615.4l-7.06-11.083a2.034,2.034,0,0,0-1.643-.939l-13.09-.458a2.037,2.037,0,0,1-1.5-3.326l8.319-10.147a2.039,2.039,0,0,0,.383-1.855l-3.625-12.636a2.029,2.029,0,0,1,2.689-2.455l12.2,4.81a2.022,2.022,0,0,0,1.876-.207l10.857-7.351a2.031,2.031,0,0,1,3.162,1.81l-.78,13.122a2.04,2.04,0,0,0,.777,1.726l10.341,8.1A2.033,2.033,0,0,1,4583.407,2490.186Z" transform="translate(-4537.482 -2461.511)" fill="#ffd40c"/><path d="M4610.393,3057.2s1.568,7.376,1.4,9c-.246,2.339-11.335-2.9-8.894-3.687.562-.182,2.342-.893,2.482-.993.753-.54.542-4.019.542-4.019Z" transform="translate(-4583.069 -2878.874)" fill="#f7a491"/><path d="M4586.034,2862.859c-.393-2.255,6.88-28.735,10.929-36.876l10.2-1.522-1.057,16.408c-2.563.74-9.872,25.421-9.872,25.421l3.552,29.079-6.081.361S4586.938,2868.037,4586.034,2862.859Z" transform="translate(-4571.489 -2715.808)" fill="#b75742"/><path d="M4633.212,2831.447l12.028-.56,3.9,1.616c.542.241-2.258,33.774-1.565,34.738.385.536,9.7,6.156,15.51,9.731l-1.27,8.307c-9.061-3.853-22.729-11.355-24.625-13.854-.753-2.076-1.978-24.3-2.379-28.2-.178-1.74-4.395-11.74-4.395-11.74Z" transform="translate(-4602.595 -2720.309)" fill="#f47458"/><path d="M4613.427,2707.974l6.354-.3s5.017-.719,5.635-.821,7.689,18.427,10.009,25.457,1.731,9.879,1.731,9.879a25.492,25.492,0,0,1-10.878,4.254c-5.5.928-11.559-3.31-11.559-3.31s-1.52-13.877-1.2-18.376S4613.427,2707.974,4613.427,2707.974Z" transform="translate(-4590.692 -2633.404)" fill="#9677ff"/><path d="M4634.6,2682.8l.261,3.619s-.7,5.4.729,6.113,4.342-6.908,4.342-6.908l-1.5-9.163Z" transform="translate(-4605.525 -2612.112)" fill="#f7a491"/><path d="M4634.779,2685.414c1.921-1,4.055-4.135,3.651-8.807l-3.833,6.295Z" transform="translate(-4605.525 -2612.215)" fill="#f47458"/><path d="M4615.92,2654.788a3.291,3.291,0,0,0-2.192,3.1,28.865,28.865,0,0,0,.269,4.827c.508,3.518,3.381,5.967,5.107,5.682s5.3-2.637,4.655-7.643c-.277-2.146-.64-4.961-2.748-5.826A7.824,7.824,0,0,0,4615.92,2654.788Z" transform="translate(-4590.895 -2596.677)" fill="#f7a491"/><path d="M4654.028,2596.03a.742.742,0,0,0,.089.958c1.347,1.668,7.437,10.842,7.416,10.917-.094.323-.363,1.238-.531,1.646-2.046,4.941-8.585,17.079-8.585,17.079l.9,41.962a.411.411,0,0,0,.363.4,61.434,61.434,0,0,0,7.141.5c5.98-.221,10.646-4.685,10.521-6.411s-4.157-8.006-6.152-18.675c-1.252-6.7-2.2-14.152-2.2-14.152s1.083-3.272,1.445-4.29c2.228-6.259,6.051-17.835,5.754-18.77-1-3.182-10.084-13.33-11.394-14.722C4657.9,2591.516,4655.1,2594.719,4654.028,2596.03Z" transform="translate(-4618.011 -2553.144)" fill="#fff"/><path d="M4580.045,3073.387l7.023-1.583a9.173,9.173,0,0,0,6.472,1.583,6.641,6.641,0,0,1,.758,4,67.691,67.691,0,0,1-9.516,0,19.589,19.589,0,0,1-6.792-1.5C4574.592,3074.426,4580.045,3073.387,4580.045,3073.387Z" transform="translate(-4565.082 -2889.105)" fill="#9677ff"/><path d="M4618.537,2651.468s4.087-7.148,3.04-11.288-5.479-5.119-8.708-4.208a22.642,22.642,0,0,0-3.844,1.454c-3.071,1.43-4.688,3.518-3.116,5.915,2.111,3.219,7.8-1.889,9.508-1.227,1.41.546.291,3.3,1.646,3.786,1.272.453.767.394.9,1.987A33.642,33.642,0,0,0,4618.537,2651.468Z" transform="translate(-4584.997 -2583.525)" fill="#413e3d"/><path d="M4646.466,2666.134c.168,1.018-.2,1.927-.809,2.027s-1.25-.642-1.417-1.661.2-1.926.81-2.028S4646.3,2665.115,4646.466,2666.134Z" transform="translate(-4612.252 -2603.706)" fill="#f7a491"/><path d="M4628.006,2576.928a1.651,1.651,0,0,1,1.625.512l1.163,1.32a1.2,1.2,0,0,0,.846.406l2.412.111,2.338,5.215-2.559-2.508a2.815,2.815,0,0,0-1.787-.8l-1.276-.2a1.813,1.813,0,0,1-1.039-.666l-1.981-2.8A.4.4,0,0,1,4628.006,2576.928Z" transform="translate(-4600.69 -2542.344)" fill="#f7a491"/><path d="M4559.544,2567.825v3.313a20.014,20.014,0,0,1-1.394,3.012,8.619,8.619,0,0,1-1.08.921,1.184,1.184,0,0,0-.414.97l.3,5.007-4.606.835-.039-6.791-.674-2.7V2569.6l6.348.215Z" transform="translate(-4547.396 -2535.999)" fill="#f7a491"/><path d="M4566.35,2569.557l2.113,2.2,1.393-3.012a30.92,30.92,0,0,0,.45-4.233.954.954,0,0,0-1.184.3,12.725,12.725,0,0,0-.793,2.575l-1.978,1.272Z" transform="translate(-4557.708 -2533.609)" fill="#f7a491"/><path d="M4567.021,2574.335l-.919.575a3.274,3.274,0,0,0-1.309,1.645l-.164.455-.048-.718a3.031,3.031,0,0,1,.4-1.724l.171-.292Z" transform="translate(-4556.464 -2540.518)" fill="#f57258"/><path d="M4639.764,2582.858a2.33,2.33,0,0,0,.408.1,4.907,4.907,0,0,0,.866-.2,5.566,5.566,0,0,1-.629.465,1.12,1.12,0,0,1-.772-.015Z" transform="translate(-4609.056 -2546.463)" fill="#f57258"/><path d="M4556.565,2610.158c.384,1.193,3.432,17.489,3.432,17.489s15.5,11.666,15.449,11.794c-.036.083-.069.166-.1.248-.24.088-.823.416-1.617,1.647-1.108,1.718-2.917,4.16-3.09,10.862-.013.464.756,23.534.756,23.534l-.626,1.324-1.031,2.48c-.712.3-2.816.547-3.146.173-.677-.77-.7-6.326-.452-10.882.415-7.617,1.806-19.476,1.686-20.981-.3-.842-15.131-14.185-15.131-14.185a.785.785,0,0,1-.24-.457c-.2-1.347-1.1-7.318-1.155-7.633a109.232,109.232,0,0,1-1.535-14.208C4550.875,2609.074,4556.264,2609.225,4556.565,2610.158Z" transform="translate(-4546.086 -2565.211)" fill="#fff"/></g></g></svg>