<svg xmlns="http://www.w3.org/2000/svg" width="843.984" height="381.143" viewBox="0 0 843.984 381.143"><g transform="translate(-1182.028 -576.729)"><g transform="translate(1182.028 576.729)"><path d="M1198.965,1051.25s-50.779-125.556,23.508-200.526c95.818-96.7,219.639-15.87,266.1-18.227s49.078-95.138,187.9-106.221c107.336-8.568,283.613-9.244,246.006,142.343-28.592,115.25,130.487,55.554,99.513,182.873Z" transform="translate(-1182.028 -671.273)" fill="#dde8fd"/><g transform="translate(59.881 205.209)"><g transform="translate(92.317 68.948)"><path d="M1658.535,1378.927s-12.082-14.095-.745-23.048c0,0,8.281-5.014,15.033-4.606,0,0-9.568,16.044-6.473,17.639s9.372-18.646,9.372-18.646,18.845-1.828,24.907,1.087c0,0-16.109,13.183-12.716,13.967s20.793-12.154,20.793-12.154,17.539,2.985,16.6,13.684-6.979,14-9.635,13.719-18.194-6.215-18.532-4.039,9.014,9.289,15.564,9.622c0,0-12.365,13.637-20.583,9.7s-8.92-10.174-14.043-12.514-9.5-2.334-7.381.052,11.386,4.706,14.316,9.888,5.558,8.677-2.944,7.4-22.323-7.5-22.93-14.625Z" transform="translate(-1638.114 -1349.701)" fill="#3a49cd"/><g transform="translate(0 17.356)"><path d="M1707.586,1398.717s-47.636-1.836-58.156,11.788a34.45,34.45,0,0,1-9.486,13.313l-1.116,3.042s8.254-8.7,11.208-9.23C1650.036,1417.63,1645.417,1400.751,1707.586,1398.717Z" transform="translate(-1629.009 -1398.635)" fill="#3a49cd"/><path d="M1622.078,1467.457s-10.225,7.562-10.935,21.073l1.856.166s3.266-13.97,9.168-19.434S1622.078,1467.457,1622.078,1467.457Z" transform="translate(-1611.143 -1442.274)" fill="#3a49cd"/></g></g><g transform="translate(0 30.679)"><path d="M1421.356,1291.573s19.219-10.763,10.25-25.37c0,0-7.175-8.969-14.863-11.275,0,0,4.1,21.781,0,22.294s-2.818-24.6-2.818-24.6-20.245-9.738-28.188-8.969c0,0,12.557,21.269,8.456,20.757S1376,1242.372,1376,1242.372s-20.757-3.844-24.088,8.456,2.05,18.45,5.125,19.219,22.806.513,22.294,3.075-13.837,6.663-21.269,4.356c0,0,8.2,20.244,18.963,19.219s14.094-7.688,20.757-8.2,11.531,1.281,8.2,3.075-14.606.588-19.988,5.162-9.737,7.394.256,9.444,27.932.769,31.519-6.918Z" transform="translate(-1350.859 -1241.804)" fill="#93b3f4"/><g transform="translate(10.532 12.869)"><path d="M1380.555,1278.087s53.813,17.425,59.964,36.9a40.876,40.876,0,0,0,5.125,18.706v3.844s-5.638-13.069-8.713-14.863C1436.931,1322.675,1448.975,1305.762,1380.555,1278.087Z" transform="translate(-1380.555 -1278.087)" fill="#93b3f4"/><path d="M1559.391,1430.516s8.3,12.6,3.568,27.943l-2.135-.573s2.073-16.9-2.269-25.395S1559.391,1430.516,1559.391,1430.516Z" transform="translate(-1494.302 -1374.909)" fill="#93b3f4"/></g></g><g transform="translate(84.417)"><path d="M1605.524,1220.911s-25.334-14.187-13.512-33.441c0,0,9.458-11.823,19.592-14.863,0,0-5.4,28.712,0,29.388s3.715-32.428,3.715-32.428,26.685-12.836,37.157-11.823c0,0-16.552,28.036-11.147,27.361s23.983-29.05,23.983-29.05,27.361-5.067,31.752,11.147-2.7,24.321-6.756,25.334-30.063.676-29.387,4.053,18.241,8.783,28.037,5.743c0,0-10.81,26.686-25,25.334s-18.578-10.133-27.361-10.809-15.2,1.689-10.809,4.054,19.254.775,26.348,6.806,12.835,9.746-.338,12.449-36.819,1.013-41.548-9.12Z" transform="translate(-1588.869 -1155.306)" fill="#93b3f4"/><g transform="translate(3.274 16.963)"><path d="M1702.578,1203.133s-70.936,22.97-79.043,48.641c0,0,.338,11.485-6.756,24.659v5.067s7.432-17.228,11.485-19.592C1628.264,1261.909,1612.388,1239.615,1702.578,1203.133Z" transform="translate(-1610.154 -1203.133)" fill="#3a49cd"/><path d="M1604.726,1404.063s-10.94,16.612-4.7,36.834l2.814-.756s-2.732-22.273,2.991-33.475S1604.726,1404.063,1604.726,1404.063Z" transform="translate(-1598.101 -1330.762)" fill="#3a49cd"/></g></g><path d="M1543.128,1547a49.626,49.626,0,0,0,49.626-49.626H1493.5A49.626,49.626,0,0,0,1543.128,1547Z" transform="translate(-1442.91 -1376.048)" fill="#fa7269"/><path d="M1566.344,1546.617a49.657,49.657,0,0,1-55.789-49.247h12.329A49.634,49.634,0,0,0,1566.344,1546.617Z" transform="translate(-1453.915 -1376.047)" fill="#fc9290"/><path d="M1592.192,1633.269H1491.569a6.123,6.123,0,0,1,6.123-6.123h88.377a6.123,6.123,0,0,1,6.123,6.123Z" transform="translate(-1441.662 -1459.794)" fill="#fa7269"/><rect width="102.012" height="1.522" transform="translate(48.96 121.323)" fill="#e75755"/></g><g transform="translate(556.701 24.204)"><path d="M3017.52,1587.336s1.029,16.588,4.237,16.826c.427.032,16.278.032,16.278.032l20.233-.117s-.132-4.875-6.047-5.906-15.814-5.187-19.4-13C3029.056,1576.943,3017.52,1587.336,3017.52,1587.336Z" transform="translate(-2923.21 -1249.656)" fill="#060632"/><path d="M2980.565,1043.937s9.552,5.431,12.226,5.431,13.17-2.029,16.1-.534,8.222,7.511,9.216,9.475c1.786,3.534-7.194,1.973-11.438-1.037a2.676,2.676,0,0,0-2.12-.437c-2.2.479-6.766,1.31-8.971.493-2.966-1.1-18.586-2.317-18.586-2.317Z" transform="translate(-2897.053 -902.433)" fill="#fc9290"/><path d="M2782.171,817.487s9.9,70.379,26.3,76.682c8.091,3.111,43.847,10.161,54.423,10.869,0,0,2.591-2.1,1.96-10.658,0,0-37.461-13.753-42.783-21.232-7.92-11.132,4.917-45.475-5.022-55.93S2790.369,802.27,2782.171,817.487Z" transform="translate(-2771.334 -749.959)" fill="#ed6966"/><path d="M2768.576,1178.226a123.3,123.3,0,0,0,9.673,13.84c10.643,13.435,22.228,24.514,24.246,34.984a47.266,47.266,0,0,0,1.871,6.7c.843,2.4,1.884,4.92,3.087,7.528,4.516,9.81,11.269,20.8,18.012,30.794,11.657,17.273,22.619,31.686,22.619,31.686l20.1-.857c-.8-2.015-9.573-25.864-21.3-55.01-4.763-11.832-9.827-24.417-14.713-36.554q-.977-2.431-1.947-4.835c-1.494-3.714-2.964-7.371-4.4-10.931-11.012-27.367-19.784-49.16-19.784-49.16s-44.017-16.673-48.588-5.869C2753.685,1149.454,2756.755,1158.181,2768.576,1178.226Z" transform="translate(-2754.403 -962.425)" fill="#030231"/><path d="M2863.141,1463.435s-13.982,8.985-12.625,11.9c.181.388,7.908,14.227,7.908,14.227l9.966,17.61s4.192-2.493,2.209-8.159-3.18-16.336,1.9-23.275C2877.84,1468.441,2863.141,1463.435,2863.141,1463.435Z" transform="translate(-2815.378 -1173.144)" fill="#060632"/><path d="M2808.854,1272.315s-8.739-7.707-10.28-13.361c0,0,36.007-43.141,43.818-52.811.357-.443.267-.931-.207-1.465-5.9-6.649-71.411-20.165-79.973-33.487a41.259,41.259,0,0,1-5.532-12.754c-1.941-8.129-.407-13.743-.407-13.743l65.43-1.893s54.476,33.92,60.646,57.048S2808.854,1272.315,2808.854,1272.315Z" transform="translate(-2754.25 -966.232)" fill="#0b0754"/><path d="M2843.973,1210.1c-5.9-6.649-71.41-20.164-79.973-33.487a41.26,41.26,0,0,1-5.532-12.755v-8.28l27.809-4.374s7.886,24.265,31.241,33.365C2839.393,1193.1,2843.536,1208.22,2843.973,1210.1Z" transform="translate(-2756.038 -971.657)" fill="#010117"/><path d="M2827.31,767.294c-13.236,3.421-35.179-8.842-35.179-8.842s8.521-5.727,11.678-18.305c.16-.634.3-1.284.434-1.95,1.386-.294,4-.849,6.8-1.441l10.11,9.058a87.02,87.02,0,0,1-1.5,10.224c-.219,1.129-.47,2.339-.762,3.628A31.168,31.168,0,0,1,2827.31,767.294Z" transform="translate(-2777.762 -704.202)" fill="#fc9290"/><path d="M2751.973,852.1c1.9,25.5-.6,64.281,1.553,71,1.856,5.795,23.006,2.35,31.447.415,3.124-.715,6.909-1.739,10.818-2.948,10.9-3.377,22.784-8.2,24.058-11.776a2.975,2.975,0,0,0,.118-.412,3.26,3.26,0,0,0-.023-1.5c-.425-1.824-2.062-3.8-2.255-8.314-.216-5.043-.184-10.982-.373-17.368-.009-.719-.019-1.5-.1-2.219l0-.262c0-.137-.007-.271-.009-.408-.183-7.122-.556-14.609-.987-22.035-.274-4.664-.591-9.282-.958-13.707-.951-11.423-2.233-21.581-3.928-28-2.771-10.468-8.884-17.3-14.446-22.3l-4.023-3.452a23.265,23.265,0,0,1-14.6-1.944c-5.2-2.467-6.991-4.236-7.9-3.569C2758.365,792.556,2749.734,820.929,2751.973,852.1Z" transform="translate(-2751.618 -734.145)" fill="#fa7269"/><path d="M2819.712,991.516c10.9-3.377,22.783-8.2,24.058-11.776a2.913,2.913,0,0,0,.118-.412c-.007-.5-.013-1-.023-1.5-.424-1.824-2.062-3.8-2.254-8.314-.216-5.043-.183-10.982-.373-17.368-.009-.719-.019-1.5-.1-2.219l0-.262c0-.137-.007-.271-.01-.408L2797.047,893.1S2767.418,954.8,2819.712,991.516Z" transform="translate(-2775.539 -805.094)" fill="#ed6966"/><path d="M2842.4,745.813a87.02,87.02,0,0,1-1.5,10.224c-9.874-3.191-14.351-12.108-15.846-15.891.161-.634.3-1.284.434-1.95,1.387-.294,4-.849,6.8-1.441Z" transform="translate(-2799.009 -704.202)" fill="#ea8888"/><path d="M2842.615,708.705s-21.529-3.593-19.085-16.966,1.311-22.844,15.161-21.115,15.58,7.318,15.85,11.981S2848.279,709.3,2842.615,708.705Z" transform="translate(-2797.899 -661.394)" fill="#fc9290"/><g transform="translate(76.519 112.02)"><rect width="1.996" height="52.274" transform="translate(54.842 50.332) rotate(-161.999)" fill="#3a49cd"/><rect width="54.855" height="3.282" transform="matrix(-1, -0.021, 0.021, -1, 54.842, 50.332)" fill="#3a49cd"/></g><path d="M2970.457,1088.652s17.621,4.646,24.229,4.158,12.1-3.63,12.935-5.271,2.578-4.551-1.92-4.014-10.641,1.494-10.831.629,3.667-.782,3.667-.782,1.167-1.7-.3-1.757-5.751-1.224-7.343-.429-3.059,3.732-4.221,3.61-14.746-6.119-14.746-6.119Z" transform="translate(-2892.84 -924.852)" fill="#fc9290"/><path d="M2794.49,828.595s2.083,71.041,17.685,79.114c7.7,3.983,42.458,14.933,52.893,16.8,0,0,2.807-1.8,3.123-10.377,0,0-35.717-17.8-40.181-25.82-6.645-11.937,9.9-44.656,1.174-56.142S2804.317,814.375,2794.49,828.595Z" transform="translate(-2779.284 -758.179)" fill="#fa7269"/><path d="M2816.8,680.917s-.247-4.588,2.584-7.217c0,0-.985-4.6.834-5.359s2.2,3.109,3.033,2.5a18.592,18.592,0,0,0,6.143-7.735c1.592-4.246,16.166.9,17.865,1.662s7.159-2.041,8.221-4.316a31.961,31.961,0,0,1-4.4-4.246c-1.365-1.82-10.919-14.1-24.265-10.616s-15.166,9.858-14.408,15.318S2811.333,679.085,2816.8,680.917Z" transform="translate(-2790.752 -644.973)" fill="#120e59"/></g><g transform="translate(171.663)"><path d="M1680.492,821.2l11.487-1.1a2.109,2.109,0,0,1,2.148,1.29l8.673,20.875a2.109,2.109,0,0,1-1.747,2.908l-11.953,1.142a2.109,2.109,0,0,1-2.164-1.329l-8.207-20.92A2.109,2.109,0,0,1,1680.492,821.2Z" transform="translate(-1674.128 -733.774)" fill="#0d0d38"/><path d="M1945.772,1233.162l-6.1,3.235s-32.958-34.947-40.881-68.482a52.149,52.149,0,0,1-1.379-17.5s-.479-1.519-1.318-4.2c-.037-.117-.074-.238-.112-.358-.367-1.178-.807-2.564-1.3-4.133-1.591-5.068-3.777-12-6.268-19.9-5.736-18.168-18.857-59.143-24.463-76.187l40.3-14.579s4.577,10.437,11.154,38.8c1.012,3.7,2.028,7.8,2.975,12.258,1.075,5.053,2.077,10.578,2.912,16.547a254.154,254.154,0,0,1,2.416,33.966c.022,5.076-.1,10.34-.4,15.771a69.583,69.583,0,0,0,1.481,15.326C1929.867,1191.332,1945.772,1233.162,1945.772,1233.162Z" transform="translate(-1793.755 -869.919)" fill="#120e59"/><path d="M2096.929,1613.658h-32.578s-1.217-5.2.921-8.732c1.894-3.129,1.167-4.911-.234-7.5a12.654,12.654,0,0,0,5.486,1.033,11.479,11.479,0,0,0,4.845-1.7c1.4,1.6,7.406,8.4,9.282,9.751C2086.78,1608.036,2096.272,1607.491,2096.929,1613.658Z" transform="translate(-1922.849 -1234.974)" fill="#0d0d38"/><path d="M1921.3,1098.67l-25.31,47.187c-.367-1.178-.807-2.564-1.3-4.133-1.591-5.068-3.777-12-6.268-19.9-5.736-18.168-18.857-59.143-24.463-76.187l40.3-14.579s4.577,10.437,11.154,38.8c1.012,3.7,2.028,7.8,2.975,12.258C1919.458,1087.176,1920.461,1092.7,1921.3,1098.67Z" transform="translate(-1793.755 -869.919)" fill="#0d0d38"/><path d="M1688.981,894.979c-.2.174-9.858-9.7-15.014-15.166l5.165-3.144,28.2,17.7Z" transform="translate(-1671.149 -770.287)" fill="#fdb3b1"/><path d="M1861.871,1612.993a21.073,21.073,0,0,0,1.365,10.2h13.5s.1-4.03-3.337-9.085S1861.871,1612.993,1861.871,1612.993Z" transform="translate(-1792.323 -1244.507)" fill="#0d0d38"/><path d="M1889.991,585.121c.182-.863,2.483-10.1,16.821-8.112,0,0-7.154-.384-8.9,2.486,0,0,5.435-2.977,9.108-1.076s4.771,9.107,4.4,11.351-3.782,9.087-6.356,9.272a7.637,7.637,0,0,1-2.988-.516,34.02,34.02,0,0,1,1.32,3.751c3.656,12.664-4.2,23.053-8.791,20.955-2.947-1.346-4.738,3.772-4.738,3.772L1864.1,597.495S1879.084,576.612,1889.991,585.121Z" transform="translate(-1793.844 -576.729)" fill="#12123c"/><path d="M1862.735,750.438a36.807,36.807,0,0,0,12.871,5.478c19.839,4.583,27.441-12.184,30.3-23.694a17.05,17.05,0,0,0-6.721-2.065c-1.434-.169-2.942-.282-4.191-.344-2.228-1.706-5.547-8.69-6.281-19.532l-.933.25-15.635,4.279s.716,4.97,1.067,9.668c.271,3.676.314,7.189-.381,8.048-1.221.265-1.953.438-1.953.438a.044.044,0,0,1-.008.015A100.7,100.7,0,0,0,1862.735,750.438Z" transform="translate(-1792.965 -662.914)" fill="#fdb3b1"/><path d="M1889.252,715.276s.719,4.966,1.067,9.668c8.858-.887,12.969-9.321,14.57-13.947Z" transform="translate(-1810.077 -663.375)" fill="#fc9492"/><path d="M1865.862,670.531s21.025-1.16,20.1-14.243,1.168-22.042-12.3-21.855-15.716,5.363-16.47,9.805S1860.368,670.5,1865.862,670.531Z" transform="translate(-1789.332 -613.965)" fill="#fdb3b1"/><path d="M1854.338,632.017c2.964-4.168,5.479-3.481,6.938-2.4,11.026-7.134,19.092,1.666,19.092,1.666a25.051,25.051,0,0,0,9.232,14.177s-3.658,2.638-12.646,1a15.037,15.037,0,0,1-7.5-4.42,49.1,49.1,0,0,0,9.17,9.694c-10.89-4.116-16.174-18.472-16.708-19.993-1.2,1.243-3.547,3.926-4.141,6.432-.808,3.406-.787,10.3-2.8,10.208C1854.973,648.387,1849.893,638.266,1854.338,632.017Z" transform="translate(-1786.37 -609.061)" fill="#12123c"/><path d="M1826.2,766.264s34.252-8.316,49.146,3.968l-7.443,103.8-66.988-16.183s1.885-6.569,14.73-24.035S1822.9,790.732,1826.2,766.264Z" transform="translate(-1753.068 -697.265)" fill="#fdb3b1"/><path d="M1839.479,1027.076s-.04.352-.109,1.022c-.03.288-.07.637-.112,1.043-.288,2.691-.834,7.853-1.538,14.565-1.838,17.6-4.723,45.88-6.688,68.2-1.538,17.45-2.514,31.26-1.987,33.478,1.586,6.673,0,86.446,0,86.446-5.693,2.73-14.326,0-14.326,0s-15.166-71.886-13.042-81.878a34.407,34.407,0,0,0-1.42-18.52c-11.775-54.838-10.486-85.23-8.147-99.78a61.374,61.374,0,0,1,2.014-8.884,18.524,18.524,0,0,1,.807-2.183C1820.9,1013.593,1839.479,1027.076,1839.479,1027.076Z" transform="translate(-1746.385 -861.86)" fill="#120e59"/><path d="M1864.048,1041.94a66.089,66.089,0,0,1-23.5,5.077,78.718,78.718,0,0,1-19.333-1.835,89.016,89.016,0,0,1-26.277-10.222,61.338,61.338,0,0,1,2.014-8.884c7.907-5.63,27.459-.242,43.432,5.73q.855.322,1.7.646C1854.324,1037.129,1864.048,1041.94,1864.048,1041.94Z" transform="translate(-1749.218 -865.17)" fill="#0d0d38"/><path d="M1814.042,801.28c-1.652,12.488-8.269,27.769-10.631,36,0,0,3.949,28.558.179,36.4a3.468,3.468,0,0,1-1.608,1.8c-13.968,6.084-68.365.176-70.661-17.371-.834-6.375,20.72-28.8,21.975-31.524.522-1.125,1.077-4.774-1.45-12.336-3.582,11.044-10.2,23.8-16.852,25.97-7.313,2.393-36.229-19.155-36.229-19.155s-.167-2.617,3.489-5.093c2.35-1.592,7.749-2.129,7.749-2.129l18.491,8.274c2.32-3.971,8.1-31.439,14.556-43.839,4.853-9.321,17.81-10.671,17.81-10.671s5.393,8.554,18.436,7.34,15.428-9.2,15.428-9.2,11.568,1.538,15.132,4.413C1810.474,770.658,1816.211,784.919,1814.042,801.28Z" transform="translate(-1687.151 -698.706)" fill="#fa7269"/><path d="M1957.481,901.927s3.949,28.558.179,36.4c-10.176-5.108-23.441-16.134-19.4-33.362,5.863-25.03,29.855-39.032,29.855-39.032C1966.459,878.42,1959.843,893.7,1957.481,901.927Z" transform="translate(-1841.222 -763.358)" fill="#ed6966"/><path d="M1932.3,913.3s-14.486,2.1-15.642,3.18-5.153,7.365-4.66,9.55.441,4.438,1.328,4.283,3.78-5.709,4.873-5.965,1.995-1,2.128-.515-2.223,2.824-2.107,3.489,1.971-.114,2.8-1.4,2.913-1.928,3.225-2.731,1.748-3.463,3.7-3.34S1932.3,913.3,1932.3,913.3Z" transform="translate(-1824.731 -793.924)" fill="#fdb3b1"/><path d="M1974.64,911.689l-14.095.57-4.823,6.574,19.171.641Z" transform="translate(-1852.972 -792.886)" fill="#fdb3b1"/><path d="M1969.32,765.746s16.8,1.993,21.426,9.2c5.849,9.109,26.512,39.316,26.066,48.458,0,0-12.873,5.128-47.479,2.379,0,0-.629-5.235,6.65-9.434,0,0,18.578-2.544,20.625-4.348l-13.793-14.659Z" transform="translate(-1861.747 -698.706)" fill="#fa7269"/><path d="M1673.437,821.837l11.487-1.1a2.109,2.109,0,0,1,2.147,1.29l8.672,20.875a2.108,2.108,0,0,1-1.746,2.908l-11.953,1.142a2.109,2.109,0,0,1-2.163-1.329l-8.206-20.919A2.109,2.109,0,0,1,1673.437,821.837Z" transform="translate(-1669.575 -734.188)" fill="#120e59"/><path d="M1668.84,857.749s-3.033-5.232-2.805-6.521,3.366-7.267,4.979-7.861c2.881-1.062,6.926-1.719,5.814,1.314-.734,2-3.64,4.9-3.134,5.814s.312,4.11.312,4.11Z" transform="translate(-1666.023 -748.223)" fill="#fdb3b1"/></g><g transform="translate(295.505 78.26)"><path d="M2758.566,1306.526c-4.116,26.377-31.032,43.175-58.641,43.175h-54.682l4.276-153.741s52.175-16.746,65.277-.816c11.481,13.956,42.614,69.2,44.252,101.9A46.235,46.235,0,0,1,2758.566,1306.526Z" transform="translate(-2421.776 -1049.629)" fill="#dde8fd"/><path d="M2555.485,1216.928s73.766-37.652,87.739-13.056c7.419,13.059,27.835,65.159,29.342,97.856,1.465,31.77-26.06,52.66-54.373,52.66h-50.287Z" transform="translate(-2363.854 -1054.317)" fill="#3662c1"/><path d="M2304.722,1061.069c-.622,3.2-6.594,6.17-15.457,8.8q-2.343.7-4.941,1.359c-30.165,7.7-83.594,12.005-88.687,9.733-7.037-3.139-50.229-156.6-50.229-156.6s41.23-1.55,73.973-2.305c11.2-.255,21.409-.418,28.633-.4a17.813,17.813,0,0,1,2.485.173,11.793,11.793,0,0,1,7.285,3.728c5.272,5.666,6.579,16.855,11.459,29.225,4.826,12.23,10.75,27.493,16.367,42.641,1.447,3.9,2.875,7.8,4.259,11.636q.586,1.624,1.162,3.23C2299.333,1035.518,2305.727,1055.886,2304.722,1061.069Z" transform="translate(-2099.222 -877.576)" fill="#bed2fa"/><path d="M2809.256,1520.391c-4.116,26.377-31.033,43.175-58.641,43.175h-26.823C2741.679,1551.442,2757.853,1514.079,2809.256,1520.391Z" transform="translate(-2472.467 -1263.494)" fill="#bed2fa"/><path d="M2418.584,1012.6c-1.371-.224-3.14-.516-5.145-.855a4.688,4.688,0,0,1-.947-1.289c-.806-1.775-.255-6.873.671-12.721-5.618-15.148-11.542-30.411-16.367-42.641-4.88-12.369-6.187-23.559-11.459-29.225a11.793,11.793,0,0,0-7.285-3.728c-4.353.061-8.948.136-13.689.224-1.684,3.34-4.586,6.491-9.6,9.129-22.37,11.775-5.775,36.041-5.775,36.041.161.109,8.879,17.435,8.879,17.435-.031-1.21,1.143-3.376,3.154-6.133,1.484,10.358,3.9,20.934,6.782,28.506-1.58,8-5.635,19.912-7.808,29.025-1.738,7.267-2.275,12.745.595,13.015a6.553,6.553,0,0,0,1.064,0,14.808,14.808,0,0,0,1.747,7.968c5.606,10.838,32.574,12.788,53.418,12.828,8.864-2.627,14.836-5.6,15.457-8.8C2433.28,1056.2,2426.885,1035.835,2418.584,1012.6Z" transform="translate(-2226.775 -877.893)" fill="#93b3f4"/><path d="M2553.211,1362.835c-10.555,14.666-26.747,24.066-44.782,23.774l-77.534.04-37.148.018,41.794-137.65s105.786-10.525,118.829,3.51c6.057,6.516,9.457,36.022,11.362,65.766A68.711,68.711,0,0,1,2553.211,1362.835Z" transform="translate(-2259.481 -1086.385)" fill="#5076c9"/><path d="M2620.8,1568.472c-10.555,14.665-26.747,24.066-44.782,23.774l-77.534.04c9.124-7.659,37.817-29.392,68.541-28.364C2590.313,1564.7,2608.806,1564.368,2620.8,1568.472Z" transform="translate(-2327.069 -1292.023)" fill="#3662c1"/><g transform="translate(126.768)"><path d="M2552.532,984.276s6.442,9.533,10.116,29.573c3.218,17.551,6.04,24.031,10.687,27.63s30.538,14.226,30.538,14.226l-1.936,4.536s-37.95-5.169-42.213-11.511-20.514-43.816-19.253-52.447S2552.532,984.276,2552.532,984.276Z" transform="translate(-2480.889 -917.988)" fill="#fca09e"/><g transform="translate(162.53 249.414)"><path d="M2832.9,1526.815c-.342,3.7,4.812,4.6,10.779,4.9s4.165,1.52,12.343,3,11.457-.757,12.048-1.862c.527-.98-3.275-2.513-7.327-4.246-.51-.216-1.021-.439-1.531-.663-4.561-2.006-7.12-6.1-10.676-9.888-3.368-3.592-6.566-15.093-6.566-15.093l-11.114-2.373s3.121,10.351,4.2,14.77c.637,2.6-.3,5.505-1.138,7.717A14.541,14.541,0,0,0,2832.9,1526.815Z" transform="translate(-2830.851 -1500.589)" fill="#fdb3b1"/><path d="M2847.364,1572.627c5.968.3,4.165,1.52,12.343,3s11.456-.757,12.048-1.862c.527-.98-3.275-2.513-7.327-4.246l-.063.069a23.287,23.287,0,0,1-12.388.148c-5.41-1.469-10.641-4.7-14.369-5.747a14.531,14.531,0,0,0-1.022,3.739C2836.243,1571.43,2841.4,1572.33,2847.364,1572.627Z" transform="translate(-2834.541 -1541.502)" fill="#b15252"/></g><path d="M2498.206,1187.8s73.853-5.559,87.756,3.216,36.2,110.983,36.2,110.983a9.067,9.067,0,0,1-4.45,1.436c-2.858.309-9.154-1.371-9.154-1.371s-32.046-45.732-34.3-57.253-1.706-21.8-6.846-22.076-69.214,7.789-78.906-9.285-1.679-33.976-1.679-33.976Z" transform="translate(-2444.306 -1043.953)" fill="#060632"/><g transform="translate(134.27 261.275)"><path d="M2753.218,1560.259c-.342,3.7,4.812,4.6,10.779,4.9s4.163,1.519,12.343,3,11.455-.757,12.048-1.862c.527-.981-3.275-2.514-7.327-4.247-.51-.216-1.021-.44-1.531-.662-4.561-2.005-7.12-6.1-10.676-9.888-3.368-3.592-6.566-15.093-6.566-15.093l-11.114-2.373s3.121,10.351,4.2,14.77c.637,2.6-.3,5.505-1.138,7.716A14.547,14.547,0,0,0,2753.218,1560.259Z" transform="translate(-2751.174 -1534.033)" fill="#fdb3b1"/><path d="M2767.688,1606.07c5.969.3,4.164,1.519,12.343,3s11.455-.757,12.048-1.862c.528-.981-3.275-2.514-7.327-4.247l-.063.069a23.288,23.288,0,0,1-12.388.148c-5.411-1.469-10.642-4.7-14.369-5.747a14.526,14.526,0,0,0-1.022,3.739C2756.567,1604.873,2761.72,1605.773,2767.688,1606.07Z" transform="translate(-2754.865 -1574.946)" fill="#b15252"/></g><path d="M2445.8,1215.851s65.606,3.106,79.158,12.415,31.855,112.308,31.855,112.308a9.073,9.073,0,0,1-4.5,1.261c-2.868.2-9.094-1.727-9.094-1.727s-30.242-46.944-32.05-58.544-.856-21.851-5.981-22.327-69.464,5.09-78.484-12.349S2445.8,1215.851,2445.8,1215.851Z" transform="translate(-2406.36 -1067.428)" fill="#0b0754"/><path d="M2435.419,801.433a17.009,17.009,0,0,0-9.071-2.37,4.3,4.3,0,0,1,2-.791c-1.557-.339-5.172.987-5.172.987-21.315-9.888-26.9,22.1-26.941,29.611s-.561,16.132-11.93,22.116c-22.37,11.774-5.776,36.039-5.776,36.039.163.111,8.881,17.438,8.881,17.438-.149-6.085,29.883-36.14,45.079-44.728,3.892-4.982,5.766-14.115,5.908-14.834-1.1,7.267-2.622,11.283-3.893,13.517C2447.586,847.893,2443.135,806.525,2435.419,801.433Z" transform="translate(-2372.605 -797.38)" fill="#a83f3f"/><path d="M2475.838,953.317s5.793.251,11.9.831c4.152.394,8.581.852,10.921,1.829,5.782,2.417,5.176,12.654-6.957,10.759S2474.988,956.352,2475.838,953.317Z" transform="translate(-2439.16 -898.009)" fill="#fdb3b1"/><path d="M2499.355,932.974c.072.038,1.731,8.806-6.214,8.456-5.214-.23-16.462-6.541-15.469-11.006.473-2.123,4.413-7.63,5.206-20.2l.949.254,15.963,4.281s-.708,5.066-1.039,9.861C2498.473,928.647,2498.462,932.482,2499.355,932.974Z" transform="translate(-2440.367 -870.201)" fill="#fdb3b1"/><path d="M2511.1,915.222s-.708,5.066-1.038,9.861c-9.035-.859-13.269-9.435-14.925-14.142Z" transform="translate(-2451.679 -870.663)" fill="#fca09e"/><path d="M2481.66,846.258s-4.244-7.812-4.955-14.3c-.508-4.63,2.953-21.435,19.834-17.856a23.207,23.207,0,0,1,9.361,4.271c3.534,2.746,8.515,8.5,1.556,22.9l-1.884,4.9Z" transform="translate(-2439.753 -807.854)" fill="#a83f3f"/><path d="M2510.35,869.5s-21.44-1.074-20.565-14.416-1.3-22.466,12.422-22.343,16.049,5.387,16.841,9.911S2515.949,869.435,2510.35,869.5Z" transform="translate(-2448.207 -820.197)" fill="#fdb3b1"/><path d="M2499.733,828.035s-6.907,15.26-16.061,16.974-12.9-.957-12.9-.957a25.541,25.541,0,0,0,9.339-14.5S2495.806,820.29,2499.733,828.035Z" transform="translate(-2435.957 -815.169)" fill="#a83f3f"/><path d="M2548.083,832.765s4.146,3.786,4.988,7.255.854,10.494,2.908,10.392c0,0,5.127-10.344.563-16.692C2551.7,826.987,2548.083,832.765,2548.083,832.765Z" transform="translate(-2485.845 -818.726)" fill="#a83f3f"/><path d="M2484.4,1042.974c-1.735,2.074-7.153,2.711-12.943,3.664-4.556.752-9.342,1.7-12.745,3.695-7.729,4.537-32.98,19.873-40.381,19.175-2.87-.27-2.333-5.748-.595-13.015,2.736-11.478,8.463-27.417,8.463-34.348,0-3.783,1.259-12.734,2.939-22.968q.2-1.237.416-2.5c3.324-19.9,7.929-43.359,7.929-43.359s5.135,11.2,15.142,11.2,7.68-8.545,7.68-8.545,9.129,1.073,11.286,3.4,7.628,12.366,8.715,15.105c0,0,.222,3.485-8.407,5.144a113.265,113.265,0,0,1,2.35,15.766c.185,4.659-3.178,19.24-4.146,28.309-.344,3.212-.389,5.733.133,6.877.668,1.465,2.827,2.924,5.284,4.355C2480.4,1037.774,2486.463,1040.507,2484.4,1042.974Z" transform="translate(-2400.809 -898.012)" fill="#0b0754"/><path d="M2475.523,1102.8c5.539,9.443-15.021,12.281-18.423,14.281-7.729,4.537-31.364,20.989-38.764,20.292-2.87-.27-2.333-5.748-.595-13.015,2.736-11.478,8.463-27.417,8.463-34.348,0-3.783,1.259-12.734,2.939-22.968l8.908-8.553s9.545,24.671,18.645,28.715a76.506,76.506,0,0,0,13.41,4.365c-.344,3.212-.389,5.733.133,6.876C2470.907,1099.914,2473.066,1101.373,2475.523,1102.8Z" transform="translate(-2400.809 -965.882)" fill="#060632"/><path d="M2437.039,971.925s-7.617-4.626-14.981,4.149,5.234,71.5,16.147,74.722c12.12,3.579,47.136-.573,47.136-.573l-.674-5.472s-37.276-7.147-38.825-9.138S2440.911,972.937,2437.039,971.925Z" transform="translate(-2403.099 -909.231)" fill="#fdb3b1"/><path d="M2428.609,953.317s-15.642,1.411-20.185,6.556-5.871,19.087-5.871,19.087,13.776,11.12,30.373,6.8Z" transform="translate(-2391.931 -898.009)" fill="#0b0754"/><g transform="translate(85.898 115.716)"><rect width="20.661" height="2.441" transform="translate(0 28.209)" fill="#9e332e"/><path d="M2660.673,1153.95c.2-.807,18.994-30.315,18.994-30.315h41.812l-20.972,29.523Z" transform="translate(-2644.4 -1123.635)" fill="#9e332e"/><path d="M2665.632,1154.285c.2-.808,19.055-30.65,19.055-30.65h39.992l-19.952,30.65Z" transform="translate(-2647.6 -1123.635)" fill="#a83f3f"/><path d="M2756.926,1163.183a3.339,3.339,0,0,1-2.911,2.165,1.491,1.491,0,0,1-1.419-2.165,3.339,3.339,0,0,1,2.91-2.165A1.491,1.491,0,0,1,2756.926,1163.183Z" transform="translate(-2703.639 -1147.759)" fill="#9e332e"/></g><path d="M2594.006,1175.179s12.136-2.349,13.507-1.761,9,7.438,8.221,8.809-3.915,2.349-7.439,1.175-11.158-1.762-12.528-3.524A11.492,11.492,0,0,1,2594.006,1175.179Z" transform="translate(-2515.48 -1039.984)" fill="#fdb3b1"/></g><path d="M2472.977,1307.906c-4.434,25.583-28.766,41.795-53.708,41.795h-50.287l3.934-153.741s47.979-16.746,60.031-.816c10.558,13.956,39.189,69.2,40.7,101.9A49.753,49.753,0,0,1,2472.977,1307.906Z" transform="translate(-2243.499 -1049.629)" fill="#dde8fd"/><path d="M2491.253,1524.242c-4.434,25.583-28.766,41.795-53.708,41.795H2397.3C2416.14,1553.27,2441.5,1517.994,2491.253,1524.242Z" transform="translate(-2261.775 -1265.965)" fill="#bed2fa"/><path d="M2166.712,1176.628q-.564.042-1.129.073-1.191.063-2.393.082c-.264,0-.531.006-.8.006h-50.288l0-.024-2.9.036c-5.178.063-10.587.124-15.6.167q-1.262.014-2.484.022c-.3,0-.607,0-.9.006-4.956.033-9.339.049-12.467.027a83.043,83.043,0,0,1-12.436-.958,55.564,55.564,0,0,1-13.859-3.964,45.264,45.264,0,0,1-4.408-2.239,43.4,43.4,0,0,1-5.454-3.719,49.18,49.18,0,0,1-11.6-13.622,74.539,74.539,0,0,1-6.027-13.137,126.97,126.97,0,0,1-5.289-21.078,273.867,273.867,0,0,1-3.37-39.69q-.2-9.2-.031-19.4.268-16.316,1.456-35.334c1.1-17.826,2.794-37.49,5.026-59.135,2.035-19.771,4.383-33.589,7.8-36.738,5.038-4.644,15.545-6.512,22.855-7.261h.006c4.537-.464,7.834-.5,7.834-.5,8.93,0,16.868,6.412,19.734,15.939,5.835,19.4,16.255,54.085,27.1,90.365.055.182.109.364.164.546q.933,3.126,1.872,6.266c.094.319.191.637.288.956.61-.273,1.244-.558,1.9-.847a.463.463,0,0,1,.066-.03c2.6-1.152,5.542-2.414,8.718-3.7h0q2.47-1,5.111-2.017c4.962-1.9,10.319-3.782,15.749-5.4,2.409-.722,4.835-1.393,7.247-1.987,3.1-.768,6.169-1.417,9.163-1.9.1-.018.188-.031.261-.043.355-.058.707-.109,1.059-.161,12.912-1.9,24.116-.579,28.752,7.6,7.418,13.1,27.833,65.35,29.34,98.142C2218.161,1154.212,2193.435,1174.623,2166.712,1176.628Z" transform="translate(-2015.19 -876.669)" fill="#5076c9"/><path d="M2153.762,1040.465s-25.81-105.151-27.673-113.989a6.671,6.671,0,0,0-5.965-5.729c4.536-.464,7.837-.5,7.837-.5,8.93,0,16.866,6.392,19.733,15.891,6.251,20.72,17.761,58.93,29.421,97.848C2176.525,1033.973,2153.762,1040.465,2153.762,1040.465Z" transform="translate(-2082.906 -876.67)" fill="#dde8fd"/><path d="M2352.19,1269.311c-6.907-11.417-1.107-13.559-2.166-39.135s-12.967-23.462-17.908-28.406c-.9-.91-1.671-2.766-2.4-5.254-.352.052-.7.1-1.059.161-.072.012-.157.025-.261.043-2.994.482-6.066,1.131-9.163,1.9-2.412.594-4.838,1.265-7.247,1.987-5.429,1.62-10.786,3.5-15.748,5.4-1.759.674-3.464,1.35-5.111,2.017-4.274,26.829-10.886,147.059-10.886,147.059.054.058.106.112.16.167,5.4-.048,11.235-.112,16.786-.179.792-.012,1.577-.021,2.357-.03l0,.024H2337.5c.051-.027.1-.061.154-.091l.1-.064c10.191-6.321,7.916-19,5.517-26.953-.968-8.5-4.723-18.46-7.792-27.717.953-2.818,2.29-4.429,8.032-6.549,6.379-2.351,8.053-12.391,8.053-12.391,1.7,4.489-2.193,10.686-2.3,10.849C2349.494,1291.89,2359.021,1280.594,2352.19,1269.311Z" transform="translate(-2186.236 -1054.951)" fill="#3662c1"/></g><g transform="translate(272.966 178.733)"><path d="M2071.215,1255.631s-38.283,16.678-45.232,16.375-49.77-13.043-49.77-13.043l1.09,7.367s33.046,19.006,44.6,20.084c11.375,1.062,50.267-10.209,54.022-12.588S2082.127,1258.039,2071.215,1255.631Z" transform="translate(-1967.497 -1193.572)" fill="#fc9492"/><path d="M2222.812,1081.359s14.123-2.683,21.157,2.454c12.741,9.3,13.426,41.384,18.2,46.162s16.287,2.74,17.312,27.466-4.583,26.793,2.095,37.831-2.825,22.085-2.825,22.085,3.893-6.093,2.225-10.491c0,0-1.62,9.706-7.787,11.981s-7.078,3.943-8.062,7.28c0,0-52.6-26.955-52.662-46.074s-10.352-38.058-5.3-46.343a18.329,18.329,0,0,0-2.528,7.488,9.858,9.858,0,0,1,2.224-11.222c5.258-5.411-6.167-16.607-4.476-29.574C2203.55,1091.5,2209.8,1081.746,2222.812,1081.359Z" transform="translate(-2113.342 -1080.659)" fill="#0d0d38"/><path d="M2230.949,1233.927a36.828,36.828,0,0,0,12.871,5.477c19.839,4.583,27.441-12.184,30.3-23.693a17.037,17.037,0,0,0-6.721-2.065c-1.434-.169-2.943-.282-4.191-.343-2.227-1.706-5.547-8.689-6.281-19.532l-.934.25-15.635,4.28s.716,4.97,1.068,9.667c.272,3.676.314,7.189-.383,8.049-1.22.265-1.952.437-1.952.437a.048.048,0,0,1-.008.015A100.7,100.7,0,0,0,2230.949,1233.927Z" transform="translate(-2131.884 -1153.652)" fill="#fdb3b1"/><path d="M2257.465,1198.764s.719,4.966,1.067,9.667c8.858-.887,12.969-9.32,14.569-13.946Z" transform="translate(-2148.996 -1154.113)" fill="#fc9492"/><path d="M2234.076,1154.019s21.025-1.16,20.1-14.243,1.167-22.043-12.3-21.856-15.715,5.365-16.469,9.806S2228.583,1153.983,2234.076,1154.019Z" transform="translate(-2128.251 -1104.703)" fill="#fdb3b1"/><path d="M2220.154,1115.5c2.964-4.168,5.479-3.48,6.938-2.4,11.026-7.134,19.091,1.666,19.091,1.666a25.052,25.052,0,0,0,9.232,14.176s-3.658,2.639-12.645,1a15.035,15.035,0,0,1-7.5-4.42,49.136,49.136,0,0,0,9.17,9.694c-10.89-4.117-16.174-18.472-16.707-19.993-1.2,1.243-3.547,3.926-4.142,6.432-.808,3.407-4.294,8.731-6.309,8.642C2217.283,1130.309,2215.709,1121.754,2220.154,1115.5Z" transform="translate(-2122.891 -1099.799)" fill="#0d0d38"/><path d="M2256.757,1308.206c1.9-9.706,8.089-48.486,1.9-60.964-2.223-4.483-10.948-4.888-20.52-4.494-2.979,1.923-14.329,9.189-18.99,8.282-.05-.009-.141-.031-.261-.062-2.195-.549-3.024-2.091-1.193-3.421a41.81,41.81,0,0,0-10.629.651c-3.325.626-12.294,5.267-12.294,5.267s4.517,8.16,11.177,10.977c-1.133,10.131.551,14.6,11.061,38,8.881,19.78-1.2,37.588-1.2,37.588s52.28,42.034,52.572,20.632C2268.6,1344.549,2254.33,1320.611,2256.757,1308.206Z" transform="translate(-2108.536 -1185.183)" fill="#a83f3f"/><path d="M2157.8,1436.885a9.719,9.719,0,0,1-6.992-4.256q-.378-.567-.808-1.217c-5.951-9.009-8.266-36.6-21.652-65.989-3.261-7.155-14.964-8.443-18.155-16.532,0,0-7.855-26.218,15.034-26.991s61.3,72.95,61.905,80.682C2187.716,1410.071,2202.261,1441.9,2157.8,1436.885Z" transform="translate(-2053.115 -1236.332)" fill="#e75755"/><path d="M1990.291,1613.658h32.578s1.218-5.2-.92-8.732c-1.894-3.129-1.167-4.911.234-7.5a12.656,12.656,0,0,1-5.487,1.033,11.482,11.482,0,0,1-4.845-1.7c-1.4,1.6-7.406,8.4-9.281,9.751C2000.44,1608.036,1990.947,1607.491,1990.291,1613.658Z" transform="translate(-1976.583 -1413.707)" fill="#9e332e"/><path d="M2270.234,1284.288s4.24,38.576-23.258,46.66-35.3-35.494-13.1-38.629S2270.234,1284.288,2270.234,1284.288Z" transform="translate(-2125.448 -1212.065)" fill="#9e332e"/><path d="M2066.946,1327.593c-1.963,14.706-9.622,61.124-23.135,83.771-4.357,7.3,10.976,11.394,11.059,11.372,2.057-.538,5.483-3.817,7.062-5.24,10.971-9.887,33.242-37.884,33.242-60.329,0-10.945.192-31.846-7.767-37.159C2082.5,1316.736,2067.725,1321.752,2066.946,1327.593Z" transform="translate(-2010.617 -1234.447)" fill="#e75755"/><path d="M2212.622,1433.24s-1.207-1.68-3.312-4.871c-2.506-3.795-5.277-11.262-8.641-20.835-3.534-10.049-7.726-22.412-12.964-35.276-1.617-3.971-3.334-7.99-5.159-12-3.261-7.155-12.23-6.167-15.421-14.256,0,0-12.451-28.042,10.437-28.816s66.382,75.014,68.881,82.354C2249.179,1407.573,2262.528,1440.938,2212.622,1433.24Z" transform="translate(-2088.515 -1233.289)" fill="#fa7269"/><path d="M2057.717,1613.658h32.578s1.218-5.2-.921-8.732c-1.894-3.129-1.167-4.911.235-7.5a12.658,12.658,0,0,1-5.487,1.033,11.475,11.475,0,0,1-4.844-1.7c-1.4,1.6-7.407,8.4-9.282,9.751C2067.866,1608.036,2058.373,1607.491,2057.717,1613.658Z" transform="translate(-2020.094 -1413.707)" fill="#a83f3f"/><path d="M2244.263,1468.25c-3.533-10.049-7.725-22.412-12.964-35.276,1.368-9.746,4.32-18.272,9.282-21.709C2240.581,1411.265,2252.62,1448.562,2244.263,1468.25Z" transform="translate(-2132.11 -1294.006)" fill="#ed6966"/><path d="M2129.473,1327.611c-1.962,14.707-4.725,62.167-18.238,84.813-4.356,7.3,10.976,11.394,11.059,11.373,2.056-.538,5.482-3.817,7.061-5.24,10.971-9.887,33.241-37.884,33.241-60.329,0-10.945-12.844-30.969-20.8-36.281A8.005,8.005,0,0,0,2129.473,1327.611Z" transform="translate(-2054.128 -1235.509)" fill="#fa7269"/><g transform="translate(0 42.884)"><path d="M1961.738,1205.123l33.363-3.543a2.154,2.154,0,0,1,2.24,1.375l11.937,31.366a2.153,2.153,0,0,1-1.926,2.917l-33.1,1.336a2.153,2.153,0,0,1-2.073-1.321l-12.195-29.158A2.153,2.153,0,0,1,1961.738,1205.123Z" transform="translate(-1956.913 -1201.568)" fill="#9e332e"/><path d="M1953.568,1205.979l33.363-3.543a2.153,2.153,0,0,1,2.24,1.375l11.937,31.366a2.153,2.153,0,0,1-1.926,2.917l-33.1,1.335a2.152,2.152,0,0,1-2.073-1.32l-12.194-29.158A2.153,2.153,0,0,1,1953.568,1205.979Z" transform="translate(-1951.641 -1202.12)" fill="#a83f3f"/><path d="M2008.976,1250.051a1.371,1.371,0,0,1,1.289-2.027,3.208,3.208,0,0,1,2.766,2.027,1.372,1.372,0,0,1-1.29,2.028A3.207,3.207,0,0,1,2008.976,1250.051Z" transform="translate(-1988.556 -1231.547)" fill="#9e332e"/><path d="M1959.772,1218.992a.674.674,0,0,1,.634-1,1.575,1.575,0,0,1,1.358,1,.674.674,0,0,1-.634,1A1.576,1.576,0,0,1,1959.772,1218.992Z" transform="translate(-1956.847 -1212.17)" fill="#9e332e"/></g><path d="M2173.708,1255.631s-46.239,17.027-53.186,16.678c-4.49-.226-41.817-13.346-41.817-13.346l-3.351,6.339s36.33,23.35,46.317,23.235c19.719-.228,52.99-12.332,56.746-14.711S2184.62,1258.039,2173.708,1255.631Z" transform="translate(-2031.476 -1193.572)" fill="#fdb3b1"/><path d="M2041.174,1255.357s-3.35-5.157-6.687-5.308-9.1,2.274-11.071,2.654-7.583,2.2-5.915,4.929,9.4,3.337,12.739,2.73,7.583,1.334,7.583,1.334Z" transform="translate(-1993.944 -1189.966)" fill="#fdb3b1"/><path d="M2054.04,1244.948s-5.306-2.434-6.823-2.889-1.214.007-.759,1.444,3.185,2.809,3.185,3.261S2054.04,1244.948,2054.04,1244.948Z" transform="translate(-2012.59 -1184.705)" fill="#fdb3b1"/><path d="M1966.533,1247.188s3.346-5.292,4.441-5.508c3.337-.659,3.337,3.735,2.629,6.57-.759,3.041-3.329,5.911-4.041,5.66S1965.746,1249.984,1966.533,1247.188Z" transform="translate(-1961.17 -1184.526)" fill="#fdb3b1"/><path d="M1966.259,1260.323a8.858,8.858,0,0,0,4.568,9.035Z" transform="translate(-1961.022 -1196.6)" fill="#fdb3b1"/><path d="M2238.911,1197.629s1.987-.786,7.581-.333c0,0-.3,2.182-4.422,2.4A3.29,3.29,0,0,1,2238.911,1197.629Z" transform="translate(-2137.022 -1155.836)" fill="#fff"/><path d="M2285.491,1262.074s4.135,13.092,18.338,16.071c0,0,23.455-7.226,11.777-23.2C2315.606,1254.94,2304.059,1246.362,2285.491,1262.074Z" transform="translate(-2167.081 -1191.618)" fill="#a83f3f"/></g><path d="M2.492,0H825.983a2.493,2.493,0,0,1,2.493,2.493v0a2.492,2.492,0,0,1-2.492,2.492H2.492A2.492,2.492,0,0,1,0,2.493v0A2.492,2.492,0,0,1,2.492,0Z" transform="translate(15.508 376.158)" fill="#0d0d38"/></g></g></svg>