<svg xmlns="http://www.w3.org/2000/svg" xmlns:xlink="http://www.w3.org/1999/xlink" width="117.553" height="124.927" viewBox="0 0 117.553 124.927"><defs><linearGradient id="a" x1="-3.201" y1="1.085" x2="-1.844" y2="-1.271" gradientUnits="objectBoundingBox"><stop offset="0" stop-color="#53d8ff"/><stop offset="1" stop-color="#3840f7"/></linearGradient><linearGradient id="b" x1="-12.941" y1="-8.989" x2="-12.921" y2="1.086" gradientUnits="objectBoundingBox"><stop offset="0" stop-color="#8d55d1"/><stop offset="0.996" stop-color="#1c2873"/></linearGradient><linearGradient id="c" x1="1.164" y1="0.5" x2="0.164" y2="0.5" gradientUnits="objectBoundingBox"><stop offset="0" stop-color="#2b3582"/><stop offset="1" stop-color="#150e42"/></linearGradient><linearGradient id="d" x1="0.601" y1="0.082" x2="0.579" y2="1.353" gradientUnits="objectBoundingBox"><stop offset="0" stop-color="#fdf53f"/><stop offset="1" stop-color="#d93c65"/></linearGradient><linearGradient id="e" x1="3.137" y1="-0.081" x2="11.068" y2="2.542" xlink:href="#a"/><linearGradient id="f" x1="2.756" y1="1.204" x2="-0.297" y2="-1.117" xlink:href="#d"/><linearGradient id="g" x1="2.268" y1="0.5" x2="1.268" y2="0.5" xlink:href="#d"/><linearGradient id="h" x1="0.784" y1="1.438" x2="1.687" y2="0.081" xlink:href="#d"/><linearGradient id="i" x1="1.878" y1="1.535" x2="1.367" y2="0.25" xlink:href="#d"/><linearGradient id="j" x1="-0.413" y1="0.5" x2="0.587" y2="0.5" xlink:href="#c"/><linearGradient id="l" x1="-2.088" y1="-1.092" x2="-1.814" y2="0.898" gradientUnits="objectBoundingBox"><stop offset="0" stop-color="#f9b776"/><stop offset="1" stop-color="#f47960"/></linearGradient><linearGradient id="m" x1="-2.889" y1="0.231" x2="-2.47" y2="5.981" xlink:href="#l"/><linearGradient id="n" x1="-26.793" y1="2.541" x2="-25.777" y2="4.71" xlink:href="#a"/><linearGradient id="o" x1="3.055" y1="-1.787" x2="6.379" y2="2.879" xlink:href="#l"/><linearGradient id="p" x1="-2.886" y1="0.513" x2="-0.457" y2="0.498" xlink:href="#a"/><linearGradient id="q" x1="0.826" y1="0.307" x2="-0.512" y2="0.551" xlink:href="#a"/><linearGradient id="r" x1="-0.216" y1="0.818" x2="1.663" y2="5.572" xlink:href="#a"/><linearGradient id="s" x1="-1.425" y1="0.049" x2="1.274" y2="1.984" xlink:href="#a"/><linearGradient id="t" x1="-73.067" y1="-19.512" x2="-77.065" y2="-14.945" xlink:href="#l"/><linearGradient id="u" x1="-0.665" y1="-3.636" x2="-0.698" y2="1.067" gradientUnits="objectBoundingBox"><stop offset="0" stop-color="#cb236d"/><stop offset="1" stop-color="#4c246d"/></linearGradient><linearGradient id="v" x1="-2.744" y1="-15.933" x2="0.957" y2="5.976" xlink:href="#a"/><linearGradient id="w" x1="-2.835" y1="-1.913" x2="-2.339" y2="1.31" xlink:href="#l"/><linearGradient id="x" x1="-0.951" y1="-9.638" x2="1.564" y2="13.351" xlink:href="#a"/><linearGradient id="y" x1="-0.311" y1="-4.216" x2="-0.334" y2="1.125" xlink:href="#u"/><linearGradient id="z" x1="-2.82" y1="-1.086" x2="-2.317" y2="1.663" xlink:href="#l"/><linearGradient id="aa" x1="-212.866" y1="0.097" x2="-212.279" y2="2.171" gradientUnits="objectBoundingBox"><stop offset="0" stop-color="#fdf53f"/><stop offset="0.665" stop-color="#e57a58"/><stop offset="1" stop-color="#d93c65"/></linearGradient><linearGradient id="ab" x1="-15.08" y1="0.814" x2="-14.544" y2="1.864" xlink:href="#a"/><linearGradient id="ac" x1="-1.297" y1="-0.774" x2="-0.476" y2="2.397" xlink:href="#l"/><linearGradient id="ad" x1="-2.964" y1="0.904" x2="-3.424" y2="0.227" xlink:href="#l"/><linearGradient id="ae" x1="-2.247" y1="-1.149" x2="-2.058" y2="1.265" xlink:href="#u"/><linearGradient id="af" x1="5.623" y1="-93.464" x2="3.183" y2="-96.125" xlink:href="#l"/><linearGradient id="ag" x1="-10.668" y1="-1.332" x2="-3.002" y2="1.105" xlink:href="#a"/><linearGradient id="ah" x1="-16.536" y1="-11.888" x2="-8.383" y2="-0.744" xlink:href="#c"/><linearGradient id="ai" x1="-6.793" y1="-0.854" x2="-1.219" y2="9.012" xlink:href="#c"/><linearGradient id="aj" x1="-10.507" y1="-0.571" x2="-1.82" y2="9.1" xlink:href="#c"/><linearGradient id="ak" x1="-46.139" y1="-0.23" x2="-43.266" y2="3.588" xlink:href="#c"/><linearGradient id="al" x1="-45.635" y1="-6.715" x2="-46.686" y2="-6.715" xlink:href="#c"/></defs><g transform="translate(-974.914 -199.872)" opacity="0.4"><g transform="translate(974.914 199.872)"><path d="M-2205.967,565.169a4.339,4.339,0,0,1-4.42,4.176l-58.457.127a4.421,4.421,0,0,1-4.515-4.173l-2.724-108.881a4.525,4.525,0,0,1,4.566-4.67l62.052.3a4.63,4.63,0,0,1,4.6,4.694Z" transform="translate(2276.086 -451.749)" fill="#cad6f9"/><path d="M-2070.791,607.167a4.538,4.538,0,0,0-4.56-4.529l-49.25-.217a4.433,4.433,0,0,0-4.521,4.5l2.025,92.575a4.357,4.357,0,0,0,4.479,4.095l46.789-.074a4.275,4.275,0,0,0,4.391-4.1Z" transform="translate(2135.641 -595.893)" opacity="0.64" fill="url(#a)"/><path d="M-1612.315,505.4a.864.864,0,0,1-.867.87l-12.817-.058a.891.891,0,0,1-.882-.879h0a.857.857,0,0,1,.862-.872l12.832.06a.88.88,0,0,1,.873.879Z" transform="translate(1655.401 -502.178)" fill="url(#b)"/></g><g transform="translate(986.954 238.733)"><path d="M-1905.2,1349.462c0,.511-.607.925-1.355.925H-1948.9c-.749,0-1.356-.414-1.356-.925v-.005c0-.511.607-.925,1.356-.925h42.348c.749,0,1.355.414,1.355.925Z" transform="translate(1950.26 -1348.532)" fill="#fff"/><path d="M-1905.2,1465.678c0,.511-.607.925-1.355.925H-1948.9c-.749,0-1.356-.414-1.356-.925v-.005c0-.511.607-.925,1.356-.925h42.348c.749,0,1.355.414,1.355.925Z" transform="translate(1950.26 -1459.712)" fill="#fff"/><path d="M-1905.2,1581.9c0,.511-.607.925-1.355.925H-1948.9c-.749,0-1.356-.414-1.356-.925v-.005c0-.511.607-.925,1.356-.925h42.348c.749,0,1.355.414,1.355.925Z" transform="translate(1950.26 -1570.893)" fill="#fff"/></g><g transform="translate(987.463 261.116)"><path d="M-1916.94,1865.984c0,.511-.607.925-1.355.925h-42.348c-.749,0-1.356-.414-1.356-.925v-.005c0-.511.607-.925,1.356-.925h42.348c.749,0,1.355.414,1.355.925Z" transform="translate(1961.999 -1865.054)" fill="#fff"/><path d="M-1916.94,1982.2c0,.511-.607.925-1.355.925h-42.348c-.749,0-1.356-.414-1.356-.925v-.005c0-.511.607-.925,1.356-.925h42.348c.749,0,1.355.414,1.355.925Z" transform="translate(1961.999 -1976.234)" fill="#fff"/><path d="M-1916.94,2098.417c0,.511-.607.925-1.355.925h-42.348c-.749,0-1.356-.414-1.356-.925v-.005c0-.511.607-.925,1.356-.925h42.348c.749,0,1.355.414,1.355.925Z" transform="translate(1961.999 -2087.415)" fill="#fff"/></g><g transform="translate(981.619 281.001)"><path d="M-2528.384,2351.308l3,2.406a1.176,1.176,0,0,1-.646,2.092l-49.335-.291,13.356-7.975h23.065A16.862,16.862,0,0,1-2528.384,2351.308Z" transform="translate(2602.429 -2346.516)" fill="url(#c)"/><path d="M-2944.124,2350.192c.043-.4.087-.81.132-1.211a14.366,14.366,0,0,1,5.755-10.112l.248-.178a26.893,26.893,0,0,1,12.883-4.961l7.485-.792,49.335.291a1.176,1.176,0,0,0,.646-2.091l-3-2.406a16.862,16.862,0,0,0-10.559-3.769h-23.065l.173-.078a10.65,10.65,0,0,1,4.374-.945H-2878a12.335,12.335,0,0,1,3.893.633l16.337,6.523a4.48,4.48,0,0,1,2.08,1.468l3.375,4.226a5.077,5.077,0,0,1,1.089,3.163v6.886c0,1.823-5.974,8.05-5.974,8.05a4.36,4.36,0,0,1-2.1.544h-73.392l-7.795-.548A4.143,4.143,0,0,1-2944.124,2350.192Z" transform="translate(2944.688 -2323.941)" fill="url(#d)"/><path d="M-829.84,2864.115h.233a.857.857,0,0,0,.823-.887v-4.459a.857.857,0,0,0-.823-.887h0a.853.853,0,0,0-.821.838l-.233,4.459A.861.861,0,0,0-829.84,2864.115Z" transform="translate(830.663 -2834.744)" fill="url(#e)"/><path d="M-957.278,2660.045h-2.449a14.094,14.094,0,0,1,5.182-7.353l.248-.178q.383-.275.773-.536c-.5,1.881-1.116,4.461-1.522,6.193A2.34,2.34,0,0,1-957.278,2660.045Z" transform="translate(960.995 -2637.764)" fill="url(#f)"/><path d="M-2943.34,2494.166v-5.1a4.483,4.483,0,0,1,2.08,1.468l3.375,4.226a5.04,5.04,0,0,1,1.053,2.593l-4.607-.786A2.383,2.383,0,0,1-2943.34,2494.166Z" transform="translate(3030.259 -2481.911)" fill="url(#g)"/><path d="M-1824.107,2436.123l1.735-1.819a5.141,5.141,0,0,1,2.62-1.49l3.431-.746a1.655,1.655,0,0,1,1.946,1.537l.024.242a1.715,1.715,0,0,1-1.642,1.95l-4.42-.054a1.527,1.527,0,0,0-1.42,1l-.081.2a.685.685,0,0,1-.629.447h-1.087A.747.747,0,0,1-1824.107,2436.123Z" transform="translate(1859.278 -2427.349)" fill="url(#h)"/><path d="M-2020.373,2602.424h-7.565a.91.91,0,0,0-.8,1.23,3.413,3.413,0,0,0,3.13,2.449c1.762.135,3.983-.941,5.659-1.964A.931.931,0,0,0-2020.373,2602.424Z" transform="translate(2073.317 -2590.356)" fill="url(#i)"/><circle cx="9.986" cy="9.986" r="9.986" transform="translate(75.218 43.798) rotate(-135)" fill="url(#j)"/><circle cx="8.11" cy="8.11" r="8.11" transform="translate(75.218 41.145) rotate(-135)" fill="#deeafd"/><circle cx="9.986" cy="9.986" r="9.986" transform="translate(16.319 43.798) rotate(-135)" fill="url(#j)"/><circle cx="8.11" cy="8.11" r="8.11" transform="translate(16.319 41.145) rotate(-135)" fill="#deeafd"/><path d="M-1247.3,2850.106a.137.137,0,0,0,.054-.011.139.139,0,0,0,.074-.182,7,7,0,0,1-.553-2.741,7.049,7.049,0,0,1,7.041-7.041,7.045,7.045,0,0,1,3.438.895.139.139,0,0,0,.189-.054.138.138,0,0,0-.053-.189,7.323,7.323,0,0,0-3.573-.93,7.327,7.327,0,0,0-7.319,7.319,7.273,7.273,0,0,0,.575,2.849A.139.139,0,0,0-1247.3,2850.106Z" transform="translate(1257.008 -2817.497)" fill="#fff"/><path d="M-2601.983,2850.106a.136.136,0,0,0,.054-.011.139.139,0,0,0,.074-.182,6.992,6.992,0,0,1-.553-2.741,7.049,7.049,0,0,1,7.041-7.041,7.047,7.047,0,0,1,3.438.895.139.139,0,0,0,.189-.054.138.138,0,0,0-.053-.189,7.325,7.325,0,0,0-3.573-.93,7.328,7.328,0,0,0-7.319,7.319,7.272,7.272,0,0,0,.575,2.849A.138.138,0,0,0-2601.983,2850.106Z" transform="translate(2670.389 -2817.497)" fill="#fff"/><path d="M-2579.542,2722.494a.139.139,0,0,0,.136-.113c.887-4.666,3.546-7.635,7.9-8.826a16.551,16.551,0,0,1,6.334-.39.138.138,0,0,0,.16-.114.139.139,0,0,0-.114-.16,16.859,16.859,0,0,0-6.445.394c-3.075.838-6.978,3.088-8.111,9.044a.139.139,0,0,0,.11.162Z" transform="translate(2642.677 -2695.898)" fill="#fff"/><path d="M-1437.2,2713.377a.138.138,0,0,0,.139-.135c.115-3.68-.871-6.562-2.93-8.568-3.4-3.31-8.617-3.046-8.669-3.043a.139.139,0,0,0-.13.146.139.139,0,0,0,.147.131c.051,0,5.15-.258,8.461,2.966,2,1.948,2.958,4.76,2.845,8.358a.139.139,0,0,0,.135.144Z" transform="translate(1465.721 -2685.259)" fill="#fff"/><path d="M-2525.636,2382.01a.139.139,0,0,0,.121-.07.139.139,0,0,0-.052-.189l-6.689-3.806a13.158,13.158,0,0,0-6.254-1.715l-7.673-.138a.141.141,0,0,0-.141.136.139.139,0,0,0,.136.141l7.673.138a12.881,12.881,0,0,1,6.122,1.679l6.689,3.806A.139.139,0,0,0-2525.636,2382.01Z" transform="translate(2601.721 -2373.832)" fill="#fff"/></g><g transform="translate(1041.115 234.12)"><path d="M-3340.814,2153.135a7.87,7.87,0,0,0,.344-4.222,12.266,12.266,0,0,0,4.934-1.969,11.026,11.026,0,0,1-2.815,8.063h0a20.733,20.733,0,0,1-4.64,3.971l-.588,1.256-1.768-2.2A9.819,9.819,0,0,0-3340.814,2153.135Z" transform="translate(3386.863 -2107.733)" fill="url(#l)"/><g transform="translate(14.313 28.727)"><path d="M-2793.361,2027.042a9.026,9.026,0,0,0,4.8-.44,8.959,8.959,0,0,0,.162.939,18.221,18.221,0,0,0,1.319,3.943,11.623,11.623,0,0,1-7-1.326A6.638,6.638,0,0,1-2793.361,2027.042Z" transform="translate(2800.231 -2021.334)" fill="url(#m)"/><path d="M-3019.96,1910.292a21.324,21.324,0,0,0,5.692-3.729c3.171-2.495,5.578-1.207,5.578-1.207l-3.455,6.533a11.676,11.676,0,0,1-6.333,3.284,18.23,18.23,0,0,1-1.319-3.943A8.784,8.784,0,0,1-3019.96,1910.292Z" transform="translate(3031.629 -1905.024)" fill="url(#n)"/><path d="M-2649.054,1964.178l1.6.932a13.823,13.823,0,0,0,5.19,2.212,6.637,6.637,0,0,0-.714,3.116,14.9,14.9,0,0,1-3.288-2.271C-2649.884,1965.834-2649.054,1964.178-2649.054,1964.178Z" transform="translate(2649.136 -1961.615)" fill="url(#o)"/></g><path d="M-2905.522,1798.83l.36,1.862c.617,3.2-.63,6.124-2.785,6.54l-2.562.494c-2.155.416-4.4-1.838-5.019-5.034l-.359-1.862q-.036-.185-.063-.372l-8.272-55.673,5.581-1.077,13.04,54.753C-2905.573,1798.584-2905.546,1798.707-2905.522,1798.83Zm-2.622.354c-.464-2.406-2-4.133-3.429-3.857s-2.212,2.45-1.748,4.856,2,4.133,3.429,3.857S-2907.68,1801.591-2908.144,1799.185Z" transform="translate(2938.109 -1721.972)" fill="url(#p)"/><path d="M-2803.259,1244.414l2.086,10.807a2.525,2.525,0,0,1-.587,2.151l-2.66,3.01a2.525,2.525,0,0,1-3.027.584l-3.589-1.8a2.526,2.526,0,0,1-1.346-1.778l-2.085-10.807a1.941,1.941,0,0,0-3.43-.841,14.527,14.527,0,0,0-2.71,11.65c1.5,7.771,8.591,11.948,16.066,10.505s12.5-7.958,11-15.73a14.528,14.528,0,0,0-6.85-9.8A1.941,1.941,0,0,0-2803.259,1244.414Z" transform="translate(2821.898 -1242.089)" fill="url(#q)"/><path d="M-2779.757,1248.95l2.086,10.807a2.526,2.526,0,0,1-.588,2.151l-2.66,3.01a2.526,2.526,0,0,1-3.027.584l-3.589-1.8a2.527,2.527,0,0,1-1.346-1.778l-2.085-10.806a1.941,1.941,0,0,0-3.43-.841,14.526,14.526,0,0,0-2.71,11.649c1.5,7.771,8.591,11.948,16.066,10.505s12.5-7.958,11-15.73a14.528,14.528,0,0,0-6.85-9.8A1.941,1.941,0,0,0-2779.757,1248.95Z" transform="translate(2797.378 -1246.429)" fill="url(#r)"/><path d="M-2886.774,1802.449l.36,1.862c.617,3.2-.63,6.124-2.785,6.54l-2.562.494c-2.155.416-4.4-1.838-5.018-5.034l-.36-1.862q-.036-.185-.063-.371l-8.272-55.673,5.581-1.077,13.04,54.753C-2886.824,1802.2-2886.8,1802.326-2886.774,1802.449Zm-2.622.354c-.464-2.406-2-4.133-3.43-3.857s-2.212,2.45-1.748,4.856,2,4.133,3.429,3.857S-2888.932,1805.21-2889.4,1802.8Z" transform="translate(2918.548 -1725.434)" fill="url(#s)"/><path d="M-2543.366,1978.267a1.18,1.18,0,0,1,.274-.971c.449-.519,1.224-1.23,1.787-.751.837.714-.08,3.156-.08,3.156l-.929,1.418-.013.905A8.824,8.824,0,0,1-2543.366,1978.267Z" transform="translate(2557.553 -1944.567)" fill="url(#t)"/><path d="M-3102.1,3149.909a.443.443,0,0,1,.014-.118c.629-2.311,3.564-3.7,3.564-3.7l1.15.112a8,8,0,0,1,.4,3.87c0,.015-.008.03-.012.045A27.386,27.386,0,0,1-3102.1,3149.909Z" transform="translate(3137.696 -3063.582)" fill="url(#u)"/><path d="M-3094.615,3234.448a.5.5,0,0,1-.372.363,15.814,15.814,0,0,1-4.4-.146.42.42,0,0,1-.34-.425A27.318,27.318,0,0,0-3094.615,3234.448Z" transform="translate(3135.323 -3147.914)" fill="url(#v)"/><path d="M-3100.272,3108.607l-.532,2.339a.383.383,0,0,1-.334.31,3.214,3.214,0,0,1-.756-.026.482.482,0,0,1-.372-.574l.378-2.079Z" transform="translate(3141.092 -3027.696)" fill="url(#w)"/><path d="M-2913.838,3227.719a6.872,6.872,0,0,0,2.277-.282c0,.127,0,.255-.012.389a.251.251,0,0,1-.244.251l-6.985-.177a.319.319,0,0,1-.248-.469C-2918.135,3227.524-2915.805,3227.737-2913.838,3227.719Z" transform="translate(2944.442 -3141.399)" fill="url(#x)"/><path d="M-2919.1,3154.706a.377.377,0,0,1,.029-.052,8.9,8.9,0,0,1,5.356-3.223l1.491-.019a7.152,7.152,0,0,1,.613,3.3,6.882,6.882,0,0,1-2.276.281C-2915.861,3155.012-2918.19,3154.8-2919.1,3154.706Z" transform="translate(2944.497 -3068.675)" fill="url(#y)"/><path d="M-2910.308,3090.659c-.019.111-.255,1.794-.346,2.447a.324.324,0,0,1-.279.288,3.409,3.409,0,0,1-1.023-.035.441.441,0,0,1-.326-.448l.05-2.649Z" transform="translate(2942.894 -3010.174)" fill="url(#z)"/><path d="M-3165.817,2367.744a180.028,180.028,0,0,0-4.4,34.371c0,.313,2.391.59,2.446.3.56-2.945,4.248-22.124,5.946-24.794,0,0-.038,16.9-.53,24.586-.012.191,2.161.817,2.615.329,0,0,3.063-18.707,3.188-30.447a43.316,43.316,0,0,0-1.085-4.346Z" transform="translate(3200.315 -2318.965)" fill="#fcd5b4"/><path d="M-2888.026,1944.28c.256-.328-.067.667,0,0Z" transform="translate(2919.46 -1913.786)" fill="url(#aa)"/><path d="M-3343.275,1900.164c.006-.062.016-.138.03-.231,4.53-3.141,11.228-1.381,13.825-1a3.478,3.478,0,0,1,2.174,1.221,16.158,16.158,0,0,1,3.863,8.731,12.265,12.265,0,0,1-4.933,1.969,11.466,11.466,0,0,0-.86-2.7,6.479,6.479,0,0,1-.183.658c-1.951,5.8-2.969,9.108-2.986,10.227a69.084,69.084,0,0,1-7.355-.264c.661-.02-3.08-13.219-5.036-15.561C-3344.852,1903.072-3343.019,1899.836-3343.275,1900.164Z" transform="translate(3374.71 -1869.67)" fill="url(#ab)"/><path d="M-3115.28,1803.157l.377,4.78a5.969,5.969,0,0,1-4.625-.656l1.454-4.31Z" transform="translate(3156.47 -1778.665)" fill="url(#ac)"/><g transform="translate(34.485 17.581)"><path d="M-3119.466,1676.218c-.066.06-2.826,5.236-2.826,5.236l2.989,1.513,3.345-4.518S-3118.365,1675.22-3119.466,1676.218Z" transform="translate(3123.159 -1674.804)" fill="url(#ad)"/><path d="M-3158.257,1650.337c.671.1,1.025.839,1.167,1.225a.484.484,0,0,1-.044.422l-1.552,2.48a.467.467,0,0,1-.084.1.79.79,0,0,1-1.265-.032,4.247,4.247,0,0,0-1.164-1.307.48.48,0,0,0-.653.2,17.91,17.91,0,0,0-1.076,2.423.479.479,0,0,0,.268.593,13.33,13.33,0,0,0,2.873.9.481.481,0,0,0,.458-.185c.473-.623,1.805-2.363,2.257-2.8.419-.4,1.177-.234,1.517-.129a.484.484,0,0,0,.386-.043,1.06,1.06,0,0,0,.429-1.606.482.482,0,0,1,.161-.651,1.065,1.065,0,0,0,.437-1.5c-.488-.99-1.872-.9-2.649-1.625a3.709,3.709,0,0,0-1.257-.928.974.974,0,0,0-.331-.059,1.787,1.787,0,0,0-1.262,1.3C-3159.689,1649.812-3158.841,1650.252-3158.257,1650.337Z" transform="translate(3162.955 -1647.815)" fill="url(#ae)"/><path d="M-3129.447,1784.307s.611-1.683,1.351-1.606,1.309.825.375,1.638C-3128.883,1785.349-3129.447,1784.307-3129.447,1784.307Z" transform="translate(3134.746 -1776.853)" fill="url(#af)"/></g><path d="M-3234.444,1989.461a15.08,15.08,0,0,0,.731-5.92l-.27.025a14.8,14.8,0,0,1-.714,5.8Z" transform="translate(3280.23 -1951.411)" fill="url(#ag)"/><path d="M-3116.248,2527.435a.134.134,0,0,0,.133-.1c.32-1.143,2.574-2.364,2.6-2.376a.136.136,0,0,0,.055-.184.135.135,0,0,0-.184-.055c-.1.052-2.379,1.288-2.73,2.542a.135.135,0,0,0,.094.167A.131.131,0,0,0-3116.248,2527.435Z" transform="translate(3154.877 -2469.125)" fill="url(#ah)"/><path d="M-3188.484,2056.931l-3.333-5.022a.129.129,0,0,0-.107-.058h-6.1a.283.283,0,0,0-.244.139l-2.9,4.909a.41.41,0,0,0-.05.283c1.148,3.487,2.259,6.918,2.179,8.588,2.08,1.625,5.74,1.286,8.239.538.129-2.179,1.2-5.608,2.365-9.159A.293.293,0,0,0-3188.484,2056.931Z" transform="translate(3233.542 -2016.761)" fill="#fcd5b4"/><path d="M-3170.477,1905.223l-2.24,6.439h-1.349l1.993-6.7a.132.132,0,0,1,.154-.092l1.4.289A.053.053,0,0,1-3170.477,1905.223Z" transform="translate(3214.404 -1876.141)" fill="url(#ai)"/><path d="M-3007.835,1901.176l.55,6.714-1.245.153-1.059-6.693a.085.085,0,0,1,.076-.1l1.594-.146A.078.078,0,0,1-3007.835,1901.176Z" transform="translate(3044.088 -1872.548)" fill="url(#aj)"/><g transform="translate(34.187 17.122)"><path d="M-3167.653,1639.428c2.66-5.025,9.555-.46,6.346,3.773C-3163.693,1641.615-3166.389,1639.256-3167.653,1639.428Z" transform="translate(3169.937 -1637.223)" fill="url(#ak)"/><path d="M-3094.575,1675.028c-5.379-.274-.951,1.72,3.947,2.785A9.922,9.922,0,0,0-3094.575,1675.028Z" transform="translate(3097.032 -1673.365)" fill="url(#al)"/></g></g><rect width="16.99" height="18.924" rx="8.495" transform="translate(1015.018 211.87)" fill="#fff"/></g></svg>