<svg xmlns="http://www.w3.org/2000/svg" width="15.999" height="15.966" viewBox="0 0 15.999 15.966"><defs><style>.a{fill:#707070;}</style></defs><g transform="translate(0)"><path class="a" d="M267.26,61.415a.234.234,0,1,0-.331.332l3.432,3.429a.234.234,0,0,0,.166.068h.016a.235.235,0,0,0,.171-.092,6.3,6.3,0,0,0-4.461-10.064.234.234,0,1,0-.042.467,5.826,5.826,0,0,1,4.287,9.1Zm0,0" transform="translate(-257.686 -53.365)"/><path class="a" d="M135.091,55.3a.235.235,0,0,0-.254-.213,6.279,6.279,0,0,0-3.229,1.246.234.234,0,0,0-.024.353l4.293,4.289a.234.234,0,1,0,.331-.332l-4.1-4.094a5.808,5.808,0,0,1,2.769-1,.234.234,0,0,0,.213-.254Zm0,0" transform="translate(-127.405 -53.366)"/><path class="a" d="M55.789,131.948a.235.235,0,0,0-.171.093,6.239,6.239,0,0,0-1.259,3.776,6.3,6.3,0,0,0,10.08,5.038.234.234,0,0,0,.025-.353l-8.493-8.486a.235.235,0,0,0-.182-.068Zm4.871,9.7a5.836,5.836,0,0,1-5.832-5.827,5.771,5.771,0,0,1,1.007-3.274l8.1,8.1a5.782,5.782,0,0,1-3.277,1.006Zm0,0" transform="translate(-52.661 -127.824)"/><path class="a" d="M13.656,2.341a8,8,0,0,0-11.313,0A7.993,7.993,0,0,0,7.436,15.966a.234.234,0,0,0,.032-.468,7.535,7.535,0,1,1,1.061,0,.234.234,0,0,0,.016.468h.016A7.991,7.991,0,0,0,13.656,2.341Zm0,0" transform="translate(0)"/></g></svg>