<svg xmlns="http://www.w3.org/2000/svg" width="16" height="13.319" viewBox="0 0 16 13.319"><defs><style>.a{fill:#707070;}</style></defs><g transform="translate(0.027 -2)"><g transform="translate(-0.009 3.998)"><path class="a" d="M14.317,16.321H1.665A1.649,1.649,0,0,1,0,14.656V6.665A1.649,1.649,0,0,1,1.665,5H14.317a1.649,1.649,0,0,1,1.665,1.665v7.991A1.649,1.649,0,0,1,14.317,16.321ZM1.665,5.666a1.024,1.024,0,0,0-1,1v7.991a1.024,1.024,0,0,0,1,1H14.317a1.024,1.024,0,0,0,1-1V6.665a1.024,1.024,0,0,0-1-1Z" transform="translate(0 -5)"/></g><g transform="translate(5.319 2)"><path class="a" d="M12.994,4.664a.315.315,0,0,1-.333-.333V3a.315.315,0,0,0-.333-.333H9A.315.315,0,0,0,8.666,3V4.331a.333.333,0,0,1-.666,0V3A1.024,1.024,0,0,1,9,2h3.33a1.024,1.024,0,0,1,1,1V4.331A.315.315,0,0,1,12.994,4.664Z" transform="translate(-8 -2)"/></g><g transform="translate(-0.027 6.637)"><path class="a" d="M7.982,12.317H7.849L.191,9.653a.406.406,0,0,1-.2-.466.406.406,0,0,1,.466-.2l7.525,2.664,7.525-2.664a.316.316,0,1,1,.2.6L8.049,12.251c0,.067,0,.067-.067.067Z" transform="translate(0.027 -8.962)"/></g></g></svg>