<svg xmlns="http://www.w3.org/2000/svg" width="31.705" height="32.803" viewBox="0 0 31.705 32.803"><defs><style>.a{fill:#707070;}</style></defs><g transform="translate(-3.17 -2)"><path class="a" d="M3.639,43.429a.469.469,0,0,1-.469-.469V41.569a.469.469,0,0,1,.937,0V42.96A.469.469,0,0,1,3.639,43.429Z" transform="translate(0 -20.777)"/><path class="a" d="M27.266,44.15H3.639a.469.469,0,0,1-.469-.469V39.45a.469.469,0,1,1,.937,0v3.763H26.8V20.059a.469.469,0,0,1,.937,0V43.681A.469.469,0,0,1,27.266,44.15Z" transform="translate(0 -9.347)"/><path class="a" d="M3.639,53.366A.469.469,0,0,1,3.17,52.9V51.539a.469.469,0,0,1,.937,0V52.9A.469.469,0,0,1,3.639,53.366Z" transform="translate(0 -26.075)"/><path class="a" d="M3.639,17.98a.469.469,0,0,1-.469-.469V7.412A5.419,5.419,0,0,1,8.582,2H30.837a.469.469,0,1,1,0,.937H8.582A4.48,4.48,0,0,0,4.107,7.412v10.1a.469.469,0,0,1-.469.469Z" transform="translate(0)"/><path class="a" d="M61.2,11.178H54.055a.469.469,0,0,1-.469-.469V6.04a4.04,4.04,0,1,1,8.08,0v4.67A.469.469,0,0,1,61.2,11.178Zm-6.674-.937h6.205V6.04a3.1,3.1,0,1,0-6.205,0Z" transform="translate(-26.791 0)"/><path class="a" d="M27.1,39.937H10.469a.469.469,0,0,1,0-.937H27.1a.469.469,0,1,1,0,.937Z" transform="translate(-3.629 -19.661)"/><path class="a" d="M27.1,50.437H10.469a.469.469,0,1,1,0-.937H27.1a.469.469,0,1,1,0,.937Z" transform="translate(-3.629 -25.241)"/><path class="a" d="M27.1,60.937H10.469a.469.469,0,1,1,0-.937H27.1a.469.469,0,1,1,0,.937Z" transform="translate(-3.629 -30.821)"/><path class="a" d="M25.966,15.85a2.6,2.6,0,0,1-2.675-2.5,2.681,2.681,0,0,1,5.351,0,.469.469,0,1,1-.937,0,1.748,1.748,0,0,0-3.476,0,1.659,1.659,0,0,0,1.738,1.562.469.469,0,1,1,0,.937Z" transform="translate(-10.692 -4.703)"/><path class="a" d="M25.966,24.518a2.6,2.6,0,0,1-2.675-2.5.469.469,0,1,1,.937,0,1.748,1.748,0,1,0,1.738-1.562.469.469,0,0,1,0-.937,2.505,2.505,0,1,1,0,5Z" transform="translate(-10.692 -9.308)"/><path class="a" d="M28.469,29.974A.469.469,0,0,1,28,29.505v-.85a.469.469,0,1,1,.937,0v.85A.469.469,0,0,1,28.469,29.974Z" transform="translate(-13.194 -13.915)"/><path class="a" d="M28.469,10.827A.469.469,0,0,1,28,10.359v-.85a.469.469,0,1,1,.937,0v.85A.469.469,0,0,1,28.469,10.827Z" transform="translate(-13.194 -3.741)"/></g></svg>