<svg xmlns="http://www.w3.org/2000/svg" width="263.927" height="101.841" viewBox="0 0 263.927 101.841"><g opacity="0.4"><path d="M136.57,549.534a24.523,24.523,0,0,0,3.115,3.856c.26.259.519.494.779.729a13.234,13.234,0,0,0,4.82,2.781l9.7.049,13.238.062,8.85.037,6.291.025h.284l4.153.025h2.225l52.011-.136h.42l13.373-.037,35.757-.087,14.585-.037h.346l56.769-.136s17.391-9.517,16.97-26.1c-.272-10.6-3.869-32.977-41.542-38.217-13.4-1.854-20.369-7.5-26.685-13.62-1.335-1.285-2.633-2.583-3.955-3.881-9.01-8.813-19.2-17.205-47.4-15.537-1.693.1-3.3.272-4.845.507a64.242,64.242,0,0,0-13.373,3.634c-9.579,3.621-17.032,7.947-27.34,5.871-19.838-3.992-35.1-4.351-46.894-2.175a55.767,55.767,0,0,0-13.238,4.079c-17.712,8.108-23.879,24.189-26.809,39.984C126.768,518.794,129.29,538.459,136.57,549.534Z" transform="translate(-116.34 -459.092)" fill="#ebf3fa"/><g transform="translate(127.484 0.714)" opacity="0.5"><path d="M1520.537,470.805v93.877h13.233V467.164A62.654,62.654,0,0,0,1520.537,470.805Z" transform="translate(-1520.537 -467.164)" fill="#afcdfb"/><g transform="translate(0 3.488)"><path d="M1520.537,511.419l13.233-4.825v5.771l-13.233,4.825Z" transform="translate(-1520.537 -506.594)" fill="#f99746"/><g transform="translate(0 12.072)"><path d="M1520.537,647.884v5.771l13.233-4.825v-5.771Z" transform="translate(-1520.537 -643.059)" fill="#f99746"/><path d="M1520.537,787.654v5.771l13.233-4.825v-5.771Z" transform="translate(-1520.537 -770.464)" fill="#f99746"/><path d="M1520.537,927.435v5.77l13.233-4.825v-5.77Z" transform="translate(-1520.537 -897.879)" fill="#f99746"/><path d="M1520.537,1067.2v5.771l13.233-4.825v-5.771Z" transform="translate(-1520.537 -1025.284)" fill="#f99746"/></g></g></g><g transform="translate(38.648 8.056)" opacity="0.5"><path d="M2537.958,550.154a56.132,56.132,0,0,0-13.233,4.07V640.33h13.233Z" transform="translate(-2524.725 -550.154)" fill="#afcdfb"/><path d="M2524.725,554.224V556.9l13.233-4.825v-1.918A56.132,56.132,0,0,0,2524.725,554.224Z" transform="translate(-2524.725 -550.154)" fill="#f99746"/><g transform="translate(0 8.219)"><path d="M2524.725,647.884v5.771l13.233-4.825v-5.771Z" transform="translate(-2524.725 -643.059)" fill="#f99746"/><path d="M2524.725,787.654v5.771l13.233-4.825v-5.771Z" transform="translate(-2524.725 -770.464)" fill="#f99746"/><path d="M2524.725,927.435v5.77l13.233-4.825v-5.77Z" transform="translate(-2524.725 -897.879)" fill="#f99746"/><path d="M2524.725,1067.2v5.771l13.233-4.825v-5.771Z" transform="translate(-2524.725 -1025.284)" fill="#f99746"/></g></g><g transform="translate(0 9.575)"><path d="M1213.231,1198.611H1091.743l-41.03-3.7s7.342-18.293,9.344-18.568,149.326,0,149.326,0Z" transform="translate(-1030.95 -1122.359)" fill="#1d2949"/><path d="M885.489,875.9c3.023,1.237,21.3,1.512,21.3,1.512s-.412-22.4,18.413-19.787,15.534,21.2,15.534,21.2l90.5,1.615s-1.47-23.612,18.512-21.128c16.6,2.063,12.337,21.039,12.337,21.039,16.55.856,18.261-4.764,18.261-4.764v-2.321h-1.038v-6.108h1.038v-4.55l-3.481-7.97h0c-5.865-10.076-51.851-12.824-51.851-12.824-6.984-4.015-12.775-7-17.3-9.167-7.226-3.457-15.464-6.829-23.436-7.617a180.753,180.753,0,0,0-43.686.989c-5.083.824-30.642,11.954-32.566,12.916s-17.614,2.266-19.629,2.511a2.2,2.2,0,0,0-1.955,2.259l-.277,1.788-1.054,6.81-.257,1.662c-1.466.733-1.468,2.833-1.468,2.833S882.467,874.668,885.489,875.9Z" transform="translate(-883.254 -801.453)" fill="#f99746"/><g transform="translate(144.112 52.848)"><circle cx="13.937" cy="13.937" r="13.937" transform="translate(19.709 39.418) rotate(-135)" fill="#2c3a64"/><g transform="translate(8.81 8.81)"><path d="M1147.074,1286.089a10.9,10.9,0,1,0-10.9-10.9A10.911,10.911,0,0,0,1147.074,1286.089Zm0-20.79a9.891,9.891,0,1,1-9.891,9.891A9.9,9.9,0,0,1,1147.074,1265.3Z" transform="translate(-1136.175 -1264.291)" fill="#afcdfb"/></g><g transform="translate(9.697 9.248)"><g transform="translate(7.773)"><path d="M1234.622,1290.1h3.905l-1.253-10.7,1.432-10.165-4.463.275,1.488,9.89Z" transform="translate(-1234.243 -1269.236)" fill="#afcdfb"/></g><g transform="translate(0.091 3.285)"><path d="M1163.746,1320.341l1.952-3.382-9.9-4.265-8.088-6.322-1.992,4,9.309,3.656Z" transform="translate(-1145.722 -1306.372)" fill="#afcdfb"/></g><g transform="translate(0 3.166)"><path d="M1169.772,1308.283l-2.145-3.263-8.254,6.927-9.281,4.388,2.682,3.578,7.446-6.677Z" transform="translate(-1150.092 -1305.021)" fill="#afcdfb"/></g><circle cx="3.636" cy="3.636" r="3.636" transform="translate(6.397 6.806)" fill="#afcdfb"/></g></g><g transform="translate(20.537 52.848)"><circle cx="13.937" cy="13.937" r="13.937" transform="translate(19.709 39.418) rotate(-135)" fill="#2c3a64"/><g transform="translate(8.81 8.81)"><path d="M2543.947,1286.089a10.9,10.9,0,1,0-10.9-10.9A10.911,10.911,0,0,0,2543.947,1286.089Zm0-20.79a9.891,9.891,0,1,1-9.891,9.891A9.9,9.9,0,0,1,2543.947,1265.3Z" transform="translate(-2533.048 -1264.291)" fill="#afcdfb"/></g><g transform="translate(9.697 9.248)"><g transform="translate(7.773)"><path d="M2631.495,1290.1h3.905l-1.253-10.7,1.432-10.165-4.463.275,1.488,9.89Z" transform="translate(-2631.116 -1269.236)" fill="#afcdfb"/></g><g transform="translate(0.091 3.285)"><path d="M2560.619,1320.341l1.952-3.382-9.9-4.265-8.088-6.322-1.992,4,9.309,3.656Z" transform="translate(-2542.595 -1306.372)" fill="#afcdfb"/></g><g transform="translate(0 3.166)"><path d="M2566.645,1308.283l-2.145-3.263-8.254,6.927-9.281,4.388,2.682,3.578,7.446-6.677Z" transform="translate(-2546.965 -1305.021)" fill="#afcdfb"/></g><circle cx="3.636" cy="3.636" r="3.636" transform="translate(6.397 6.806)" fill="#afcdfb"/></g></g><path d="M911.4,1168.073h9.117a8.328,8.328,0,0,1,7.27,4.265l.313.56a.847.847,0,0,1-.74,1.261H916.39a2.712,2.712,0,0,1-1.994-.873l-3.578-3.878A.8.8,0,0,1,911.4,1168.073Z" transform="translate(-733.535 -1114.927)" fill="#f9ddbf"/><path d="M910.878,1387.492h3.112a2.842,2.842,0,0,1,2.481,1.455l.107.191a.289.289,0,0,1-.253.43H912.58a.926.926,0,0,1-.68-.3l-1.221-1.324A.271.271,0,0,1,910.878,1387.492Z" transform="translate(-721.938 -1314.935)" fill="#1d2949"/><path d="M2135.025,877.336l46.522,1.1a1.624,1.624,0,0,0,1.663-1.623V866.1a1.512,1.512,0,0,0-1.533-1.512c-19.838.276-26.637.829-30.714,2.235-3.6,1.241-12.006,6.342-16.353,8.931A.851.851,0,0,0,2135.025,877.336Z" transform="translate(-2096.78 -838.29)" fill="#afcdfb"/><path d="M1601.583,863.765l-2.216.027v13.98l44.881,1.065a.586.586,0,0,0,.342-1.071C1639.346,874.231,1621.781,863.536,1601.583,863.765Z" transform="translate(-1511.105 -837.537)" fill="#afcdfb"/><path d="M2677.665,988.726h.025v-1.943l-.463.276A.9.9,0,0,0,2677.665,988.726Z" transform="translate(-2639.261 -949.676)" fill="#afcdfb"/><path d="M2072.06,869.964l5.5-.436-.366-14.951h-5.13Z" transform="translate(-1985.63 -829.166)" fill="#f99746"/><path d="M2498.714,890.165h2.565V876.74l-2.565,1.539Z" transform="translate(-2447.097 -849.367)" fill="#f99746"/><path d="M1596.52,981.059l-1.368,4.533,7.486.178a.444.444,0,0,0,.271-.8C1601.219,983.749,1598.086,981.583,1596.52,981.059Z" transform="translate(-1468.978 -944.458)" fill="#2c3a64"/><g transform="translate(91.194 25.878)"><path d="M1631.456,875.658a.7.7,0,0,0,.4-1.282l-.156-.107c-.162-.112-.344-.236-.543-.371q-.246-.166-.528-.352l-.283-.186q-.322-.211-.684-.441l-.534-.339-.03-.019-.079-.049c-.155-.1-.319-.2-.488-.3l-.037-.023-.169-.1-.26-.159-.376-.226c-.359-.216-.746-.444-1.149-.677l-.38-.219q-.38-.219-.783-.443h0l-.188-.106c-.541-.3-1.089-.6-1.629-.885l-.178-.094-.247-.131c-1.029-.539-2.087-1.068-3.145-1.573l-.329-.156q-.495-.234-1.005-.467c-.112-.052-.227-.1-.343-.156-.226-.1-.458-.206-.692-.31l-.351-.154c-.349-.154-.722-.314-1.138-.489l-.65-.27c-1.467-.6-2.962-1.173-4.444-1.689l-.325-.113-.367-.125-.462-.155-.375-.123-.014,0-.394-.127c-.238-.076-.478-.152-.719-.227l-.5-.152c-.254-.077-.509-.153-.765-.228l-.426-.123q-.4-.115-.808-.226c-.536-.147-1.081-.29-1.622-.425l-.032-.008-.144-.036c-.23-.057-.465-.114-.7-.17-.139-.034-.281-.067-.424-.1l-.107-.024-.318-.072-.426-.095-.428-.092-.432-.089q-.213-.045-.432-.088l-.023,0-.41-.08-.41-.078-.463-.084-.3-.053-.14-.024q-.439-.075-.878-.145l-.442-.069-.023,0q-.389-.058-.779-.113c-.484-.067-.972-.129-1.448-.184l-.031,0c-.134-.016-.267-.031-.4-.045l-.289-.03c-.095-.011-.2-.022-.3-.031l-.338-.033-.456-.042-.439-.036-.341-.027-.651-.044-.386-.023-.056,0c-.141-.008-.285-.016-.429-.022l-.344-.016h-.011l-.309-.012-.255-.009-.3-.009a1.46,1.46,0,0,0-1.5,1.459V872.9a1.8,1.8,0,0,0,1.746,1.788l41.028.974Zm-6.776-4.85.254.142q.444.247.863.488l.377.217c.4.231.783.457,1.139.672l.374.225.258.158.165.1.039.024q.252.154.488.3l.1.065.53.336q.358.228.675.435l.282.185q.278.184.522.348.294.2.536.366l.074.051-7.708-.183-33.226-.789a1.062,1.062,0,0,1-1.03-1.055V861.311a.728.728,0,0,1,.748-.727l.3.009.255.009.3.012h.012l.341.016q.212.01.423.022l.057,0,.378.023.646.044.33.026.439.036.451.041.335.033c.1.009.2.019.3.031l.288.03c.136.014.266.029.4.044l.031,0c.471.055.953.116,1.432.182.257.036.514.073.769.111l.021,0,.438.068c.291.046.58.094.868.143l.14.024.293.052.459.083.406.077.407.079.023,0c.142.028.284.056.425.086l.429.089.423.091.423.094.313.071.108.025q.21.048.417.1c.235.055.467.112.7.169l.136.034.035.009c.536.134,1.076.275,1.607.421.269.073.535.148.8.224l.423.122.757.226.491.151c.24.074.477.15.714.226l.387.125.016.005.371.122.46.154.362.123.323.112c1.47.512,2.952,1.075,4.406,1.675l.646.269c.412.173.781.332,1.127.485l.35.154q.347.153.686.307c.115.052.227.1.339.154.339.155.671.309,1,.464l.328.155c1.048.5,2.1,1.025,3.116,1.559l.248.131.176.093C1623.7,870.272,1624.194,870.539,1624.68,870.808Z" transform="translate(-1588.664 -859.851)" fill="#1d2949"/></g><g transform="translate(37.089 29.405)"><path d="M2537.8,910.037a1.051,1.051,0,0,0,.737-.3,1.2,1.2,0,0,0,.355-.859v-7.823c0-.445-.066-1.013-.426-1.238a1.423,1.423,0,0,0-1.219.114c-.383.188-.65.323-.794.4l-.058.031-.156.085c-1.949,1.065-4.725,2.741-8.25,4.982l-.447.285c-.356.227-.7.448-1.034.662l-1.236.8-.617.4-.088.057-.027.017a1.135,1.135,0,0,0-.455,1.272,1.041,1.041,0,0,0,.975.789l.135,0,12.579.327Zm-.069-9.576a.461.461,0,0,1,.241.072.6.6,0,0,1,.27.518v7.823a.549.549,0,0,1-.159.394.41.41,0,0,1-.294.12l-12.713-.33a.406.406,0,0,1-.367-.317.487.487,0,0,1,.184-.551l.027-.017.085-.055.62-.4,1.234-.8c.333-.214.678-.435,1.033-.661l.446-.283c3.514-2.234,6.277-3.9,8.213-4.96l.158-.086.048-.026c.14-.076.407-.21.777-.392A.448.448,0,0,1,2537.733,900.462Z" transform="translate(-2524.04 -899.715)" fill="#1d2949"/></g><path d="M1596.52,981.059l-1.368,4.533,7.486.178a.444.444,0,0,0,.271-.8C1601.219,983.749,1598.086,981.583,1596.52,981.059Z" transform="translate(-1468.978 -944.458)" fill="#2c3a64"/><g transform="translate(53.816 25.931)"><path d="M2161.041,875.034a1.99,1.99,0,0,0,1.988-1.99V862.326a1.879,1.879,0,0,0-1.905-1.877c-20.477.285-26.817.749-30.839,2.259l-.238.089v11.5l30.943.734Zm.109-13.853a1.146,1.146,0,0,1,1.146,1.145v10.719a1.257,1.257,0,0,1-1.287,1.256l-30.228-.717V863.307c3.913-1.389,10.624-1.851,30.354-2.125Z" transform="translate(-2130.047 -860.448)" fill="#1d2949"/></g><path d="M2914.51,1072.037h8.759a4.251,4.251,0,0,0,3.34-1.622l3.313-4.21a.6.6,0,0,0-.475-.979h-13.883Z" transform="translate(-2912.654 -1021.18)" fill="#a9453d"/><path d="M922.615,1023.618l.357.6a8.249,8.249,0,0,0,6.5,4c7.248.511,21.876,1.542,29.6,2.079,10.453.727,15.314,6.069,15.39,6.152C968.6,1026.366,922.615,1023.618,922.615,1023.618Z" transform="translate(-780.852 -983.252)" fill="#1d2949"/><g transform="translate(88.261 26.114)"><rect width="46.94" height="0.366" transform="translate(0.553 46.941) rotate(-90.675)" fill="#1d2949"/></g><g transform="translate(57.611 72.376)"><rect width="90.567" height="0.367" transform="matrix(-1, -0.02, 0.02, -1, 90.549, 2.148)" fill="#1d2949"/></g><path d="M1936.509,1122.787c0,.5,2.215.9,4.947.9s4.947-.4,4.947-.9-2.215-.9-4.947-.9S1936.509,1122.29,1936.509,1122.787Z" transform="translate(-1842.484 -1072.828)" fill="#ed823a"/><path d="M2457.295,1122.787c0,.5,2.214.9,4.947.9s4.947-.4,4.947-.9-2.215-.9-4.947-.9S2457.295,1122.29,2457.295,1122.787Z" transform="translate(-2409.342 -1072.828)" fill="#ed823a"/><g transform="translate(38.062 39.046)"><path d="M2438.947,1042.216l.366-.02a20,20,0,0,0-4.111-11.689,19.414,19.414,0,0,0-7.957-5.761,30.134,30.134,0,0,0-11.016-2.093V1008.7h-.366v14.336l.191-.008a29.61,29.61,0,0,1,11.063,2.066,19.047,19.047,0,0,1,7.8,5.652A19.639,19.639,0,0,1,2438.947,1042.216Z" transform="translate(-2415.864 -1008.696)" fill="#1d2949"/></g><g transform="translate(134.318 40.927)"><path d="M1563.719,1063.156a195.792,195.792,0,0,0-1.123-25.378,59.471,59.471,0,0,0-1.333-7.818l-.353.1c.027.1,2.713,9.981,2.442,33.094Z" transform="translate(-1560.911 -1029.96)" fill="#1d2949"/></g><g transform="translate(84.896 26.114)"><rect width="7.168" height="0.366" transform="translate(0)" fill="#1d2949"/></g><g transform="translate(147.54 31.094)"><g transform="translate(0)"><rect width="14.077" height="0.47" transform="matrix(-0.371, -0.929, 0.929, -0.371, 5.225, 13.245)" fill="#2b478b"/></g><path d="M1375.815,1065.964c0-.193-.293-.349-.656-.349s-.656.156-.656.349.294.349.656.349S1375.815,1066.156,1375.815,1065.964Z" transform="translate(-1369.718 -1052.627)" fill="#2b478b"/></g><g transform="translate(141.076)"><path d="M1091.34,609.175a.762.762,0,0,0,.527-.381,155.824,155.824,0,0,1,10.642-16.148c5.951-7.931,15.155-18.513,25.213-23.883a.763.763,0,0,0-.719-1.347,62.5,62.5,0,0,0-14.148,10.875,122.334,122.334,0,0,0-11.581,13.456,157.426,157.426,0,0,0-10.745,16.309.763.763,0,0,0,.809,1.119Z" transform="translate(-1090.436 -567.326)" fill="#f99746"/></g></g><g transform="translate(24.124 95.027)"><path d="M952.484,1533.258a13.235,13.235,0,0,0,4.82,2.781l9.7.049,13.238.062,8.85.037,6.291.025h.284l6.378.025h7.688l8.331-.012h6.539l8.528-.012h6.539l8.331-.012h6.551l10.049-.012h1.125l6.526-.012h8.355l6.526-.012,8.528-.012h6.526l8.343-.012h8.8l-.791-.136-.346-.062-1.916-.334-8.862-1.557h-.012l-4.536-.791Z" transform="translate(-952.484 -1533.258)" fill="#afcdfb"/></g><path d="M1.939,0H35.953a1.939,1.939,0,0,1,1.939,1.939v0a1.939,1.939,0,0,1-1.939,1.939H1.939A1.939,1.939,0,0,1,0,1.939v0A1.939,1.939,0,0,1,1.939,0Z" transform="translate(72.383 15.755)" fill="#f9ddbf"/><g transform="translate(224.656 56.988)"><g transform="translate(31.103 3.811)"><path d="M186.529,1146.372l-2.007-.03a.527.527,0,0,0-.535.519l-.149,10a.527.527,0,0,0,.519.535l2.007.03a.527.527,0,0,0,.535-.519l.149-10A.527.527,0,0,0,186.529,1146.372Z" transform="translate(-183.837 -1146.342)" fill="#d2e4ff"/><g transform="translate(0.668 5.863)"><path d="M191.81,1213.523a.918.918,0,1,0,.932-.9A.918.918,0,0,0,191.81,1213.523Z" transform="translate(-191.81 -1212.618)" fill="#aed3ff"/><path d="M204.838,1220.978a.189.189,0,1,0,.192-.186A.189.189,0,0,0,204.838,1220.978Z" transform="translate(-204.532 -1220.069)" fill="#d2e4ff"/><path d="M194.966,1221.126a.189.189,0,1,0,.192-.186A.189.189,0,0,0,194.966,1221.126Z" transform="translate(-193.786 -1220.203)" fill="#d2e4ff"/></g><g transform="translate(0.708 3.182)"><path d="M191.358,1183.217a.918.918,0,1,0,.932-.9A.918.918,0,0,0,191.358,1183.217Z" transform="translate(-191.358 -1182.313)" fill="#aed3ff"/><path d="M204.386,1190.672a.189.189,0,1,0,.192-.186A.189.189,0,0,0,204.386,1190.672Z" transform="translate(-204.08 -1189.763)" fill="#d2e4ff"/><path d="M194.514,1190.819a.189.189,0,1,0,.192-.186A.189.189,0,0,0,194.514,1190.819Z" transform="translate(-193.334 -1189.897)" fill="#d2e4ff"/></g><g transform="translate(0.748 0.501)"><path d="M190.9,1152.911a.918.918,0,1,0,.932-.9A.919.919,0,0,0,190.9,1152.911Z" transform="translate(-190.905 -1152.007)" fill="#aed3ff"/><path d="M203.934,1160.366a.189.189,0,1,0,.192-.186A.189.189,0,0,0,203.934,1160.366Z" transform="translate(-203.628 -1159.457)" fill="#d2e4ff"/><path d="M194.062,1160.513a.189.189,0,1,0,.192-.186A.189.189,0,0,0,194.062,1160.513Z" transform="translate(-192.882 -1159.591)" fill="#d2e4ff"/></g><g transform="translate(0.628 8.544)"><path d="M192.263,1243.83a.918.918,0,1,0,.932-.9A.919.919,0,0,0,192.263,1243.83Z" transform="translate(-192.263 -1242.925)" fill="#aed3ff"/><path d="M205.291,1251.284a.189.189,0,1,0,.192-.186A.189.189,0,0,0,205.291,1251.284Z" transform="translate(-204.985 -1250.375)" fill="#d2e4ff"/><path d="M195.419,1251.431a.189.189,0,1,0,.192-.186A.189.189,0,0,0,195.419,1251.431Z" transform="translate(-194.239 -1250.509)" fill="#d2e4ff"/></g></g><circle cx="1.095" cy="1.095" r="1.095" transform="translate(31.789 6.764)" fill="#2a4e96"/><g transform="translate(26.554 8.191)"><path d="M203.582,1208.51c2.338-.432,2.237-4.484,2.155-7.74a24.916,24.916,0,0,1,.018-2.7,1.92,1.92,0,0,1,.761-1.428,4.405,4.405,0,0,1,2.978-.41l.057-.269a4.6,4.6,0,0,0-3.2.457,2.182,2.182,0,0,0-.872,1.622,25,25,0,0,0-.019,2.739c.079,3.151.177,7.073-1.93,7.463Z" transform="translate(-203.532 -1195.855)" fill="#2a4e96"/></g><g transform="translate(0)"><rect width="23.049" height="23.049" transform="translate(0 14.23)" fill="#cde0fb"/><rect width="0.885" height="1.718" transform="translate(19.973 37.279)" fill="#afcdfb"/><rect width="0.885" height="1.718" transform="translate(1.197 37.279)" fill="#afcdfb"/><rect width="0.885" height="1.718" transform="translate(24.075 37.279)" fill="#afcdfb"/><g transform="translate(0)"><path d="M273.915,1117.5h23.049l3.3-14.071-23.133-.158Z" transform="translate(-273.915 -1103.269)" fill="#afcdfb"/><path d="M304.85,1130.326l11.7.08,1.667-7.119-11.7-.08Z" transform="translate(-294.611 -1121.444)" fill="#cde0fb"/><g transform="translate(4.344 1.498)"><path d="M468.758,1122.588a1.9,1.9,0,0,0-1.915-2.381,3.038,3.038,0,0,0-2.847,2.381,1.9,1.9,0,0,0,1.915,2.381A3.038,3.038,0,0,0,468.758,1122.588Z" transform="translate(-463.614 -1120.207)" fill="#f99746"/><path d="M472.554,1122.588a1.9,1.9,0,0,0-1.915-2.381,3.038,3.038,0,0,0-2.847,2.381,1.9,1.9,0,0,0,1.915,2.381A3.038,3.038,0,0,0,472.554,1122.588Z" transform="translate(-467.746 -1120.207)" fill="#7c9af2"/><path d="M474.917,1125.152a1.7,1.7,0,0,0-1.715-2.132,2.72,2.72,0,0,0-2.55,2.132,1.7,1.7,0,0,0,1.715,2.132A2.72,2.72,0,0,0,474.917,1125.152Z" transform="translate(-470.358 -1122.771)" fill="#afcdfb"/></g><g transform="translate(3.17 7.497)"><path d="M482.03,1190.392a1.9,1.9,0,0,0-1.915-2.381,3.038,3.038,0,0,0-2.847,2.381,1.9,1.9,0,0,0,1.915,2.381A3.038,3.038,0,0,0,482.03,1190.392Z" transform="translate(-476.886 -1188.011)" fill="#f99746"/><path d="M485.826,1190.392a1.9,1.9,0,0,0-1.915-2.381,3.038,3.038,0,0,0-2.847,2.381,1.9,1.9,0,0,0,1.915,2.381A3.038,3.038,0,0,0,485.826,1190.392Z" transform="translate(-481.018 -1188.011)" fill="#7c9af2"/><path d="M488.483,1193.273a1.679,1.679,0,0,0-1.69-2.1,2.681,2.681,0,0,0-2.513,2.1,1.679,1.679,0,0,0,1.69,2.1A2.681,2.681,0,0,0,488.483,1193.273Z" transform="translate(-483.956 -1190.892)" fill="#afcdfb"/></g><g transform="translate(18.715 10.032)"><path d="M334.985,1217.78a.89.89,0,0,0-.9-1.113,1.421,1.421,0,0,0-1.331,1.113.89.89,0,0,0,.9,1.114A1.421,1.421,0,0,0,334.985,1217.78Z" transform="translate(-332.579 -1216.667)" fill="#f99746"/><path d="M336.76,1217.78a.89.89,0,0,0-.9-1.113,1.421,1.421,0,0,0-1.331,1.113.89.89,0,0,0,.9,1.114A1.421,1.421,0,0,0,336.76,1217.78Z" transform="translate(-334.512 -1216.667)" fill="#7c9af2"/><path d="M338,1219.129a.785.785,0,0,0-.79-.983,1.253,1.253,0,0,0-1.175.983.785.785,0,0,0,.79.983A1.254,1.254,0,0,0,338,1219.129Z" transform="translate(-335.886 -1218.015)" fill="#afcdfb"/></g><g transform="translate(15.571 10.032)"><path d="M370.526,1217.78a.89.89,0,0,0-.9-1.113,1.42,1.42,0,0,0-1.331,1.113.89.89,0,0,0,.9,1.114A1.421,1.421,0,0,0,370.526,1217.78Z" transform="translate(-368.121 -1216.667)" fill="#f99746"/><path d="M372.3,1217.78a.89.89,0,0,0-.9-1.113,1.42,1.42,0,0,0-1.331,1.113.89.89,0,0,0,.9,1.114A1.421,1.421,0,0,0,372.3,1217.78Z" transform="translate(-370.053 -1216.667)" fill="#7c9af2"/><path d="M373.543,1219.129a.785.785,0,0,0-.79-.983,1.254,1.254,0,0,0-1.175.983.785.785,0,0,0,.79.983A1.254,1.254,0,0,0,373.543,1219.129Z" transform="translate(-371.426 -1218.015)" fill="#afcdfb"/></g><g transform="translate(11.917 10.032)"><path d="M411.822,1217.78a.89.89,0,0,0-.9-1.113,1.421,1.421,0,0,0-1.331,1.113.89.89,0,0,0,.9,1.114A1.42,1.42,0,0,0,411.822,1217.78Z" transform="translate(-409.417 -1216.667)" fill="#f99746"/><path d="M413.6,1217.78a.89.89,0,0,0-.9-1.113,1.421,1.421,0,0,0-1.331,1.113.89.89,0,0,0,.9,1.114A1.421,1.421,0,0,0,413.6,1217.78Z" transform="translate(-411.348 -1216.667)" fill="#7c9af2"/><path d="M414.839,1219.129a.785.785,0,0,0-.79-.983,1.254,1.254,0,0,0-1.175.983.785.785,0,0,0,.79.983A1.254,1.254,0,0,0,414.839,1219.129Z" transform="translate(-412.722 -1218.015)" fill="#afcdfb"/></g></g><path d="M277.21,1105.059v37.121h-3.3V1119.13Z" transform="translate(-250.865 -1104.9)" fill="#7c9af2"/><path d="M331.27,1539.009a1.04,1.04,0,1,0-1.039,1.039A1.039,1.039,0,0,0,331.27,1539.009Z" transform="translate(-309.815 -1499.513)" fill="#afcdfb"/><path d="M336.3,1544.581a.5.5,0,1,0-.5.5A.5.5,0,0,0,336.3,1544.581Z" transform="translate(-315.388 -1505.085)" fill="#f99746"/><path d="M543.51,1539.009a1.039,1.039,0,1,0-1.04,1.039A1.039,1.039,0,0,0,543.51,1539.009Z" transform="translate(-540.831 -1499.513)" fill="#afcdfb"/><path d="M548.541,1544.581a.5.5,0,1,0-.5.5A.5.5,0,0,0,548.541,1544.581Z" transform="translate(-546.403 -1505.085)" fill="#f99746"/><path d="M284.9,1539.009a1.039,1.039,0,1,0-1.039,1.039A1.039,1.039,0,0,0,284.9,1539.009Z" transform="translate(-259.348 -1499.513)" fill="#afcdfb"/><path d="M289.936,1544.581a.5.5,0,1,0-.5.5A.5.5,0,0,0,289.936,1544.581Z" transform="translate(-264.92 -1505.085)" fill="#f99746"/><rect width="6.842" height="5.071" transform="translate(13.131 16.359)" fill="#dde7fe"/><rect width="10.134" height="5.071" transform="translate(1.64 16.359)" fill="#7c9af2"/><path d="M326.385,1458.084h7.235a.207.207,0,0,0,.206-.206h0a.207.207,0,0,0-.206-.206h-7.235a.207.207,0,0,0-.206.206h0A.207.207,0,0,0,326.385,1458.084Z" transform="translate(-312.104 -1426.319)" fill="#7c9af2"/><path d="M333.62,1471.56h-7.235a.207.207,0,0,0-.206.206h0a.207.207,0,0,0,.206.206h7.235a.207.207,0,0,0,.206-.206h0A.207.207,0,0,0,333.62,1471.56Z" transform="translate(-312.104 -1438.979)" fill="#7c9af2"/><path d="M333.62,1485.449h-7.235a.207.207,0,0,0-.206.206h0a.207.207,0,0,0,.206.206h7.235a.207.207,0,0,0,.206-.206h0A.207.207,0,0,0,333.62,1485.449Z" transform="translate(-312.104 -1451.639)" fill="#7c9af2"/></g></g><g transform="translate(178.622 23.874)"><path d="M1024.056,1076.447a18.719,18.719,0,0,0-2.821.172c-.968.192-2.624.785-2.09.929s2.661.354,3.238.45,1.07.737,1.673.641a3.83,3.83,0,0,0,1.446-.93Z" transform="translate(-1019.041 -1045.705)" fill="#ffb27d"/><path d="M1035.391,1094.517l2.154-.321s-.4-.881-.751-.641a5.7,5.7,0,0,1-1.234.5C1035.351,1094.13,1035.391,1094.517,1035.391,1094.517Z" transform="translate(-1032.53 -1061.263)" fill="#ffb27d"/><path d="M866.937,884.92c-.574-.682-.568-.831-.568-.831s5.391-6.674,5.869-7.322,4.476-11.312,4.476-11.312h0a4.081,4.081,0,0,1,4.033,6.12c-2.059,3.493-4.228,7.112-4.836,7.9-2.056,2.675-7.946,6.163-7.946,6.163A2.483,2.483,0,0,1,866.937,884.92Z" transform="translate(-861.354 -853.347)" fill="#233862"/><g transform="translate(8.676 28.567)"><rect width="1.054" height="4.514" transform="translate(5.126 5.099) rotate(140.67)" fill="#aed3ff"/><path d="M966.42,1053.146l.009.01a.8.8,0,0,0,1.223-1.025l0-.006a.155.155,0,0,1,.173-.247,1.243,1.243,0,1,1-1.68,1.4A.16.16,0,0,1,966.42,1053.146Z" transform="translate(-966.137 -1051.866)" fill="#aed3ff"/><path d="M923.921,1106.056l-.008-.01a.8.8,0,0,1,1.246-1l0,.006a.155.155,0,0,0,.276-.121,1.244,1.244,0,1,0-1.7,1.372A.159.159,0,0,0,923.921,1106.056Z" transform="translate(-919.159 -1099.311)" fill="#aed3ff"/></g><path d="M922.527,1082.713a22.282,22.282,0,0,0-2.4-.023,4.277,4.277,0,0,0-1.3.637c0,.1.009.393.214.371s.387-.168.359-.08-.8.165-.754.555.558,1.51,1.454,1.4,2.458-1.445,2.606-1.484C923.958,1083.757,922.527,1082.713,922.527,1082.713Z" transform="translate(-907.879 -1051.368)" fill="#ffb27d"/><g transform="translate(19.651 24.499)"><path d="M598.958,1488.1s1.285,1.191,1.034,2.037-1.41,1.411-1.567,2.445-.784,1.6-1.348,1.6h-2.69s-.415-.728.588-.947,1.381-1.435,1.318-2.563a20.2,20.2,0,0,1,.094-2.633l2.131-.5Z" transform="translate(-575.64 -1444.929)" fill="#2c3a64"/><path d="M791.132,1519.813s.313,2.508-.251,2.79-7.3.188-7.3.188,0-.846,1.159-1.034,3.2-.877,3.542-2.413S791.132,1519.813,791.132,1519.813Z" transform="translate(-783.579 -1473.391)" fill="#2c3a64"/><path d="M733.192,1091.054s.381,4.751.828,10.462c.608,7.758,1.34,17.287,1.412,19.093.125,3.135.627,8.149.627,8.149a3.942,3.942,0,0,0,3.573.689,82.029,82.029,0,0,0,2.73-14.732q.014-.186.028-.374c.564-7.71,1.441-23.945,1.441-23.945Z" transform="translate(-731.734 -1082.92)" fill="#f99746"/><path d="M733.192,1094.853l6.116,19.862q.014-.186.028-.374c.564-7.71,1.441-23.945,1.441-23.945Z" transform="translate(-728.68 -1082.92)" fill="#ed823a"/><path d="M606.359,1014.585s6.864,17.206,11.377,25.292,5.924,10.343,5.924,10.343,2.586-1.034,2.821-1.739c0,0-1.726-15.61-4.748-19.416-1.708-2.15-1.764-6.384-2.533-10.75a90.953,90.953,0,0,0-3.332-12.428Z" transform="translate(-603.162 -1005.886)" fill="#f99746"/></g><path d="M875.835,794.324s-2.86,4.893-5.6,5.5a8.219,8.219,0,0,1,.561-2.285.929.929,0,0,0-.119-.952q-.181-.228-.337-.432a16.538,16.538,0,0,1-1-1.436l.959-2.486.651-1.687a8.155,8.155,0,0,0,.968,1.431A6.7,6.7,0,0,0,875.835,794.324Z" transform="translate(-856.131 -785.101)" fill="#ffb27d"/><path d="M916.039,806.714a5.2,5.2,0,0,1-1.578,4.177,16.49,16.49,0,0,1-1-1.436l.959-2.486A5.3,5.3,0,0,1,916.039,806.714Z" transform="translate(-900.256 -799.834)" fill="#ed975d"/><path d="M916.918,758.629s4.2-1.581,3.179-4.183-1.172-4.56-3.9-3.661-2.855,2.1-2.724,3.048S915.8,758.974,916.918,758.629Z" transform="translate(-904.455 -748.652)" fill="#ffb27d"/><path d="M725.981,842.342q-.186-.372-.388-.75a25.436,25.436,0,0,1-1.7-3.953,19.424,19.424,0,0,1-.752-2.974,9.38,9.38,0,0,1,.044-3.56c0-.008.426-1.674.429-1.681a6.515,6.515,0,0,0,3.31-4.246s8.98,1.724,13.876,13.78c0,0,.316.893.724,2.206.088.285.181.59.275.911C742.444,844.252,727.64,845.648,725.981,842.342Z" transform="translate(-709.167 -816.666)" fill="#2a4e96"/><path d="M791.944,923.125s2.554,4.472.994,7.886-5.32-1.827-5.32-1.827Z" transform="translate(-766.509 -905.948)" fill="#233862"/><path d="M910.606,729.946c.03-.058.116-.118.324-.18a.871.871,0,0,0-.421-.021,1.107,1.107,0,0,0-.929-.79.66.66,0,0,1,.416.393c-.728-.474-2.087-.626-5.5.464-4.494,1.437-2.289,4.062-1.613,4.278s1.941-1.105,3.066-1.274,1.714,1.4,2.141,1.538.187-.224.64-.575.7.491.683,1.08.851,1.158.851,1.158l.524-.934c.524-.934.426-4.351-.057-4.971Z" transform="translate(-894.306 -728.956)" fill="#2b478b"/><path d="M715.75,929.951c-.16-5.065-2.8-5.65-4.455-8.956q-.186-.372-.388-.75a25.431,25.431,0,0,1-1.7-3.953,19.42,19.42,0,0,1-.752-2.974l4.561-1.733a1.857,1.857,0,0,1,2.3.866c1.129,2.124,3.552,5.875,6.884,6.576a45.006,45.006,0,0,0,4.639.79c.088.285.181.59.275.911.646,2.176,1.54,4.9,1.251,6.927C728.14,929.217,715.763,930.358,715.75,929.951Z" transform="translate(-694.481 -895.319)" fill="#f99746"/><path d="M877.607,827.1a8.214,8.214,0,0,0-1.25,3.96,13.219,13.219,0,0,0,.169,4.325l.781-.246a11.961,11.961,0,0,1,.993-7.8S878.252,827.275,877.607,827.1Z" transform="translate(-859.207 -818.422)" fill="#f99746"/><path d="M801.668,889.36a2.057,2.057,0,0,1,0-1.539s4.919-4.5,5.214-5.3-.963-10.163-.963-10.163,3.316-3.443,5.347-3.034c.914.184,2.143,2.192,2.134,2.278-.406,3.826-1.144,10.267-1.728,11.769-1.3,3.343-8.709,6.759-8.709,6.759S801.934,890.087,801.668,889.36Z" transform="translate(-787.696 -856.875)" fill="#2a4e96"/><path d="M887.665,927.251a.393.393,0,1,1,.283.478A.393.393,0,0,1,887.665,927.251Z" transform="translate(-870.354 -909.44)" fill="#ed823a"/></g><g transform="translate(132.99 95.027)"><path d="M1316.439,1533.258l4.363,2.917,6.526-.012-4.338-2.9Z" transform="translate(-1301.545 -1533.258)" fill="#f99746"/><path d="M1484.656,1533.258l4.375,2.929,6.526-.012-4.351-2.917Z" transform="translate(-1484.656 -1533.258)" fill="#f99746"/><path d="M978.051,1542.2l3.115,2.089H987.7l-.791-.531Z" transform="translate(-931.985 -1541.407)" fill="#f99746"/><path d="M1146.266,1533.258l4.326,2.892h6.526l-4.314-2.892Z" transform="translate(-1116.281 -1533.258)" fill="#f99746"/></g><g transform="translate(70.387 95.027)"><path d="M2023.254,1533.258l4.425,2.966h6.539l-4.425-2.966Z" transform="translate(-2008.36 -1533.258)" fill="#f99746"/><path d="M2191.331,1533.258l4.449,2.979h6.539l-4.45-2.979Z" transform="translate(-2191.331 -1533.258)" fill="#f99746"/><path d="M1684.727,1533.258l4.388,2.941h6.551l-4.4-2.941Z" transform="translate(-1639.86 -1533.258)" fill="#f99746"/><path d="M1859.482,1533.256l4.412,2.954h-6.538l-4.412-2.954Z" transform="translate(-1822.97 -1533.256)" fill="#f99746"/></g><g transform="translate(26.386 95.027)"><path d="M2690.951,1533.258l4.215,2.83h.012l6.563.025-4.252-2.855Z" transform="translate(-2690.951 -1533.258)" fill="#f99746"/><path d="M2350.327,1533.258l4.375,2.929,6.291.025h.284l-4.412-2.954Z" transform="translate(-2320.354 -1533.258)" fill="#f99746"/><path d="M2519.521,1533.258l4.3,2.88,6.118.025h.457l-4.338-2.9Z" transform="translate(-2504.441 -1533.258)" fill="#f99746"/></g><path d="M.263,0H244.878a.264.264,0,0,1,.264.264v0a.263.263,0,0,1-.263.263H.263A.263.263,0,0,1,0,.264v0A.263.263,0,0,1,.263,0Z" transform="translate(15.963 97.523)" fill="#2e3552"/></g></svg>