<svg xmlns="http://www.w3.org/2000/svg" width="25.345" height="32.333" viewBox="0 0 25.345 32.333"><defs><style>.a,.b{fill:#707070;}.b{stroke:#707070;stroke-linecap:round;stroke-width:0.8px;}</style></defs><g transform="translate(-430.591 -160.791)"><path class="a" d="M35.448,27.9c-3.917,0-8.1-1.115-9.247-3.442-2.245-4.558,5.376-13.367,5.7-13.74a.485.485,0,0,1,.365-.166h5.695a.485.485,0,0,1,.362.161c.31.347,7.575,8.557,5.727,13.7-.7,1.942-3.491,3.235-7.474,3.459C36.205,27.888,35.83,27.9,35.448,27.9ZM32.491,11.521c-1.025,1.22-7.23,8.833-5.42,12.509.928,1.886,4.991,3.119,9.454,2.869,3.527-.2,6.062-1.278,6.616-2.819,1.524-4.239-4.4-11.393-5.4-12.56Z" transform="translate(407.744 154.076)"/><path class="a" d="M43.086,7.443H37.393a.485.485,0,0,1-.455-.319L35.762,3.9a.485.485,0,0,1,.322-.63,13.962,13.962,0,0,1,8.324,0,.485.485,0,0,1,.308.63L43.542,7.129a.485.485,0,0,1-.455.315Zm-5.354-.97h5.014L43.63,4.05a12.727,12.727,0,0,0-6.776.012Z" transform="translate(402.62 158.154)"/><path class="a" d="M42.695,25.852a2.043,2.043,0,0,1-2.1-1.973,2.107,2.107,0,0,1,4.205,0,.485.485,0,1,1-.97,0,1.141,1.141,0,0,0-2.266,0,1.076,1.076,0,0,0,1.133,1,.485.485,0,1,1,0,.97Z" transform="translate(400.117 148.226)"/><path class="a" d="M42.695,31.987a2.043,2.043,0,0,1-2.1-1.974.485.485,0,1,1,.97,0,1.141,1.141,0,1,0,1.133-1,.485.485,0,1,1,0-.97,1.977,1.977,0,1,1,0,3.947Z" transform="translate(400.117 145.068)"/><path class="a" d="M44.414,35.778a.485.485,0,0,1-.485-.485v-.622a.485.485,0,1,1,.97,0v.622A.485.485,0,0,1,44.414,35.778Z" transform="translate(398.398 141.899)"/><path class="a" d="M44.414,22.209a.485.485,0,0,1-.485-.485V21.1a.485.485,0,1,1,.97,0v.622A.485.485,0,0,1,44.414,22.209Z" transform="translate(398.398 148.89)"/><g transform="translate(8.591 2.421)"><path class="a" d="M22.635,66.318a4.757,4.757,0,0,1-1.488-.24L16.054,64.39a3.711,3.711,0,0,0-1.857-.159,2.814,2.814,0,0,0-.661.211.362.362,0,1,1-.308-.655,3.534,3.534,0,0,1,.833-.267,4.442,4.442,0,0,1,2.221.181l5.094,1.687a4.028,4.028,0,0,0,1.451.2.367.367,0,0,1,.379.344.362.362,0,0,1-.344.379c-.077.005-.152.007-.227.007Z" transform="translate(412.97 124.37)"/><g transform="translate(422 180.596)"><path class="a" d="M6.008,53.009h-3.3A.708.708,0,0,1,2,52.3V44.2a.708.708,0,0,1,.707-.707h3.3a.708.708,0,0,1,.707.707v8.1A.708.708,0,0,1,6.008,53.009ZM2.724,44.215V52.3l3.284-.017L5.991,44.2Z" transform="translate(-2 -43.491)"/><path class="a" d="M27.155,50.759H21.132a.362.362,0,1,1,0-.724h5.639a2.421,2.421,0,0,0-2.4-2.093H22.382A6.527,6.527,0,0,1,19,47.326a5.513,5.513,0,0,0-5.452-.148.362.362,0,1,1-.333-.643,6.231,6.231,0,0,1,6.172.179,6.223,6.223,0,0,0,2.993.505h1.991a3.145,3.145,0,0,1,3.142,3.141V50.4a.362.362,0,0,1-.363.362Z" transform="translate(-9.032 -44.966)"/><path class="a" d="M55.461,52.177a.362.362,0,0,1-.2-.665l2.114-1.378a2.3,2.3,0,0,0-2.415-.253l-3.856,1.847a.373.373,0,0,1-.521-.326.362.362,0,0,1,.233-.339l3.831-1.834a3.017,3.017,0,0,1,3.378.507l.19.169a.362.362,0,0,1-.043.574l-2.516,1.64a.362.362,0,0,1-.2.059Z" transform="translate(-32.994 -46.957)"/><path class="b" d="M111.113,11134.115s-7.746,4.92-8.81,4.83" transform="translate(-88.661 -11129.239)"/></g></g></g></svg>