<svg xmlns="http://www.w3.org/2000/svg" width="116.973" height="127.769" viewBox="0 0 116.973 127.769"><g transform="translate(-94.076 -59.053)" opacity="0.4"><g transform="translate(94.076 59.053)"><rect width="86.099" height="117.513" transform="translate(2.844 2.327)" fill="#a3a3a3" style="mix-blend-mode:multiply;isolation:isolate"/><rect width="86.099" height="117.513" transform="translate(0 0)" fill="#fff"/><g transform="translate(6.074 9.887)"><rect width="73.951" height="1.809" fill="#bababa"/><rect width="73.951" height="1.809" transform="translate(0 4.525)" fill="#bababa"/><rect width="73.951" height="1.809" transform="translate(0 23.161)" fill="#bababa"/><rect width="73.951" height="1.81" transform="translate(0 27.685)" fill="#bababa"/><rect width="31.439" height="1.809" transform="translate(0 33.096)" fill="#bababa"/><rect width="31.439" height="1.811" transform="translate(0 37.62)" fill="#bababa"/><rect width="15.766" height="1.81" transform="translate(58.185 32.773)" fill="#bababa"/><rect width="15.766" height="1.81" transform="translate(58.185 37.298)" fill="#bababa"/><rect width="31.439" height="1.809" transform="translate(0 42.879)" fill="#bababa"/><rect width="31.439" height="1.811" transform="translate(0 47.403)" fill="#bababa"/><rect width="15.766" height="1.81" transform="translate(58.185 42.556)" fill="#bababa"/><rect width="15.766" height="1.809" transform="translate(58.185 47.081)" fill="#bababa"/><rect width="31.439" height="1.809" transform="translate(0 52.662)" fill="#bababa"/><rect width="31.439" height="1.809" transform="translate(0 57.187)" fill="#bababa"/><rect width="15.766" height="1.811" transform="translate(58.185 52.339)" fill="#bababa"/><rect width="15.766" height="1.81" transform="translate(58.185 56.863)" fill="#bababa"/><rect width="31.439" height="1.811" transform="translate(0 62.444)" fill="#bababa"/><rect width="31.439" height="1.81" transform="translate(0 66.969)" fill="#bababa"/><rect width="15.766" height="1.81" transform="translate(58.185 62.122)" fill="#bababa"/><rect width="15.766" height="1.81" transform="translate(58.185 66.646)" fill="#bababa"/><rect width="31.439" height="1.811" transform="translate(0 72.227)" fill="#bababa"/><rect width="31.439" height="1.811" transform="translate(0 76.752)" fill="#bababa"/><rect width="15.766" height="1.809" transform="translate(58.185 71.905)" fill="#bababa"/><rect width="15.766" height="1.81" transform="translate(58.185 76.428)" fill="#bababa"/><rect width="31.439" height="1.809" transform="translate(0 82.011)" fill="#bababa"/><rect width="31.439" height="1.81" transform="translate(0 86.534)" fill="#bababa"/><rect width="15.766" height="1.81" transform="translate(58.185 81.687)" fill="#bababa"/><rect width="15.766" height="1.81" transform="translate(58.185 86.211)" fill="#bababa"/><rect width="30.618" height="1.811" transform="translate(43.333 95.929)" fill="#bababa"/></g></g><g transform="translate(129.088 114.697)"><rect width="74.403" height="36.427" transform="matrix(0.825, -0.566, 0.566, 0.825, 0, 42.084)" fill="#4c773f"/><path d="M274.044,198.34l-40.753,72.124,61.357-42.084" transform="translate(-212.687 -198.34)" fill="#4c773f" opacity="0.4" style="mix-blend-mode:multiply;isolation:isolate"/><path d="M270.363,241.4a3.021,3.021,0,0,1,.56-4.426l-12.41-18.093c-.053.041-.1.083-.161.122a3,3,0,0,1-4.3-.841l-48.686,33.393a3,3,0,0,1-.763,4.315c-.058.04-.118.073-.176.109l12.5,18.225a3.208,3.208,0,0,1,4.205.952l.006.008Z" transform="translate(-195.353 -210.244)" fill="#757474" style="mix-blend-mode:multiply;isolation:isolate"/><path d="M266.678,240.715a3.021,3.021,0,0,1,.56-4.426L254.828,218.2c-.054.041-.1.083-.16.123a3,3,0,0,1-4.3-.841L201.681,250.87a3,3,0,0,1-.764,4.315c-.059.04-.118.072-.177.109l12.5,18.225a3.206,3.206,0,0,1,4.205.951l.006.008Z" transform="translate(-193.14 -209.832)" fill="#b2d092"/><g transform="translate(27.072 22.211)"><path d="M274.731,259.948a13.837,13.837,0,1,1-19.238-3.584A13.837,13.837,0,0,1,274.731,259.948Z" transform="translate(-249.482 -253.937)" fill="#4c773f"/><path d="M275.617,262.654a12.529,12.529,0,1,1-17.419-3.245A12.529,12.529,0,0,1,275.617,262.654Z" transform="translate(-251.447 -255.902)" fill="#3f6335"/><g transform="translate(6.142 3.369)" style="mix-blend-mode:multiply;isolation:isolate"><path d="M277.13,278.881l-4.765,3.268-1.526-2.224,4.764-3.268-1.971-2.874-.507.349-.455.312a11.934,11.934,0,0,1-1.929,1.093,4,4,0,0,1-1.85.271,3.376,3.376,0,0,1-1.7-.676,5.978,5.978,0,0,1-1.373-1.438,5.562,5.562,0,0,1-.856-2.035,3.171,3.171,0,0,1,.038-1.8,6.138,6.138,0,0,1,.519-1.046,5.436,5.436,0,0,1,.733-.848,10.733,10.733,0,0,1,1.4-1.1l.455-.312.385-.264-.77-1.121.981-.673.769,1.121,4.73-3.244,1.55,2.26-4.73,3.244,2.067,3.013.735-.5q.6-.409,1.1-.727t1.1-.636a4.054,4.054,0,0,1,1.5-.409,2.936,2.936,0,0,1,1.761.389,5.408,5.408,0,0,1,1.7,1.707,6.221,6.221,0,0,1,.674,1.3,4.373,4.373,0,0,1,.3,1.431,3.857,3.857,0,0,1-.213,1.381,4.706,4.706,0,0,1-.965,1.409,13.547,13.547,0,0,1-1.539,1.21l-.509.349-.613.421.841,1.226-.981.672Zm-5.548-6.962.526-.36-2.067-3.013a6.442,6.442,0,0,0-1.691,1.572,1.488,1.488,0,0,0,.162,1.795,1.416,1.416,0,0,0,1.351.787A4.279,4.279,0,0,0,271.581,271.919Zm3.033,1.192,1.97,2.873.4-.276a5.179,5.179,0,0,0,1.58-1.509,1.509,1.509,0,0,0-.255-1.667,1.363,1.363,0,0,0-1.191-.742,3.112,3.112,0,0,0-1.474.611l-.473.325-.316.216Z" transform="translate(-264.855 -262.369)" fill="#757474"/></g><g transform="translate(5.269 3.968)"><path d="M274.945,280.38l-4.765,3.268-1.526-2.224,4.765-3.268-1.97-2.874-.509.349-.456.312a11.9,11.9,0,0,1-1.929,1.094,3.993,3.993,0,0,1-1.849.27,3.377,3.377,0,0,1-1.7-.676,5.992,5.992,0,0,1-1.373-1.438,5.553,5.553,0,0,1-.855-2.035,3.169,3.169,0,0,1,.038-1.8,6.157,6.157,0,0,1,.519-1.046,5.317,5.317,0,0,1,.732-.848,10.8,10.8,0,0,1,1.4-1.1l.456-.312.385-.264-.769-1.121.982-.672.769,1.121,4.729-3.244,1.55,2.26-4.73,3.244,2.066,3.013.736-.5q.6-.409,1.1-.727t1.1-.636a4.05,4.05,0,0,1,1.5-.409,2.933,2.933,0,0,1,1.761.389,5.406,5.406,0,0,1,1.7,1.707,6.239,6.239,0,0,1,.674,1.3,4.342,4.342,0,0,1,.3,1.431,3.873,3.873,0,0,1-.212,1.381,4.7,4.7,0,0,1-.966,1.409,13.611,13.611,0,0,1-1.54,1.211l-.508.348-.613.421.841,1.226-.981.673Zm-5.547-6.962.525-.36-2.066-3.013a6.456,6.456,0,0,0-1.691,1.572,1.489,1.489,0,0,0,.162,1.8,1.419,1.419,0,0,0,1.351.787A4.284,4.284,0,0,0,269.4,273.418Zm3.032,1.192,1.971,2.873.4-.276a5.183,5.183,0,0,0,1.58-1.509,1.508,1.508,0,0,0-.255-1.667,1.362,1.362,0,0,0-1.19-.741,3.107,3.107,0,0,0-1.475.611l-.473.324-.315.216Z" transform="translate(-262.67 -263.868)" fill="#b2d092"/></g></g><g transform="translate(15.004 42.152)"><path d="M231.9,306.86a6.919,6.919,0,1,1-9.619-1.793A6.919,6.919,0,0,1,231.9,306.86Z" transform="translate(-219.273 -303.853)" fill="#4c773f"/><path d="M232.342,308.213a6.265,6.265,0,1,1-8.71-1.623A6.264,6.264,0,0,1,232.342,308.213Z" transform="translate(-220.257 -304.837)" fill="#3f6335"/><g transform="translate(3.071 1.685)" style="mix-blend-mode:multiply;isolation:isolate"><path d="M233.1,316.326l-2.383,1.634-.763-1.113,2.383-1.634-.986-1.437-.254.175-.227.156a5.957,5.957,0,0,1-.965.547,2,2,0,0,1-.925.136,1.7,1.7,0,0,1-.85-.338,3,3,0,0,1-.686-.719,2.788,2.788,0,0,1-.428-1.018,1.585,1.585,0,0,1,.02-.9,3.088,3.088,0,0,1,.259-.523,2.627,2.627,0,0,1,.366-.423,5.358,5.358,0,0,1,.7-.55l.228-.156.193-.133-.384-.56.49-.336.385.56,2.365-1.622.775,1.13-2.365,1.622,1.034,1.507.368-.252q.3-.2.549-.364c.168-.106.35-.212.548-.318a2.03,2.03,0,0,1,.749-.2,1.472,1.472,0,0,1,.88.195,2.706,2.706,0,0,1,.85.854,3.108,3.108,0,0,1,.336.651,2.137,2.137,0,0,1,.15.716,1.936,1.936,0,0,1-.105.69,2.37,2.37,0,0,1-.483.7,6.807,6.807,0,0,1-.77.606l-.254.174-.306.21.421.613-.49.336Zm-2.774-3.481.262-.18-1.033-1.507a3.216,3.216,0,0,0-.846.786.744.744,0,0,0,.081.9.709.709,0,0,0,.676.393A2.154,2.154,0,0,0,230.325,312.845Zm1.516.6.986,1.437.2-.138a2.591,2.591,0,0,0,.791-.754.757.757,0,0,0-.127-.834.684.684,0,0,0-.6-.371,1.551,1.551,0,0,0-.737.306l-.237.162-.158.108Z" transform="translate(-226.961 -308.07)" fill="#757474"/></g><g transform="translate(2.635 1.984)"><path d="M232.006,317.076l-2.381,1.634-.763-1.113,2.382-1.634-.985-1.437L230,314.7l-.228.156a5.986,5.986,0,0,1-.964.547,2.005,2.005,0,0,1-.924.135,1.684,1.684,0,0,1-.851-.338,3,3,0,0,1-.686-.719,2.769,2.769,0,0,1-.427-1.018,1.582,1.582,0,0,1,.018-.9,3.063,3.063,0,0,1,.26-.523,2.653,2.653,0,0,1,.366-.423,5.4,5.4,0,0,1,.7-.55l.228-.156.193-.132-.385-.561.491-.336.384.56,2.365-1.622.775,1.13-2.365,1.622,1.033,1.507.368-.252c.2-.136.382-.258.549-.364s.35-.213.548-.318a2.035,2.035,0,0,1,.749-.2,1.467,1.467,0,0,1,.88.195,2.713,2.713,0,0,1,.85.853,3.14,3.14,0,0,1,.336.651,2.167,2.167,0,0,1,.15.716,1.917,1.917,0,0,1-.106.69,2.344,2.344,0,0,1-.483.705,6.789,6.789,0,0,1-.769.606l-.254.174-.307.211.42.613-.491.336Zm-2.773-3.482.262-.18-1.033-1.506a3.211,3.211,0,0,0-.845.786.745.745,0,0,0,.081.9.708.708,0,0,0,.676.393A2.144,2.144,0,0,0,229.232,313.594Zm1.516.6.986,1.437.2-.138a2.6,2.6,0,0,0,.79-.755.755.755,0,0,0-.127-.834.682.682,0,0,0-.6-.371,1.558,1.558,0,0,0-.737.306l-.236.162-.157.108Z" transform="translate(-225.869 -308.819)" fill="#b2d092"/></g></g><g transform="translate(52.582 16.379)"><path d="M325.96,242.344a6.918,6.918,0,1,1-9.619-1.793A6.918,6.918,0,0,1,325.96,242.344Z" transform="translate(-313.336 -239.338)" fill="#4c773f"/><path d="M326.4,243.7a6.265,6.265,0,1,1-8.709-1.623A6.265,6.265,0,0,1,326.4,243.7Z" transform="translate(-314.319 -240.321)" fill="#3f6335"/><g transform="translate(3.071 1.685)" style="mix-blend-mode:multiply;isolation:isolate"><path d="M327.161,251.812l-2.382,1.634-.763-1.113L326.4,250.7l-.986-1.437-.254.174-.228.156a5.981,5.981,0,0,1-.964.547,2,2,0,0,1-.925.135,1.687,1.687,0,0,1-.851-.338,3.023,3.023,0,0,1-.686-.719,2.786,2.786,0,0,1-.427-1.018,1.589,1.589,0,0,1,.019-.9,3.139,3.139,0,0,1,.259-.523,2.671,2.671,0,0,1,.366-.423,5.421,5.421,0,0,1,.7-.55l.228-.157.193-.132-.385-.56.491-.337.384.56,2.365-1.622.775,1.13-2.365,1.622,1.033,1.507.368-.252q.3-.2.55-.364c.168-.107.35-.213.548-.319a2.02,2.02,0,0,1,.749-.2,1.459,1.459,0,0,1,.88.195,2.7,2.7,0,0,1,.851.853,3.17,3.17,0,0,1,.336.651,2.172,2.172,0,0,1,.15.716,1.9,1.9,0,0,1-.106.69,2.352,2.352,0,0,1-.482.7,6.8,6.8,0,0,1-.769.606l-.254.174-.307.211.421.613-.49.337Zm-2.774-3.482.262-.18-1.033-1.507a3.226,3.226,0,0,0-.845.786.745.745,0,0,0,.081.9.71.71,0,0,0,.676.393A2.147,2.147,0,0,0,324.387,248.33Zm1.516.6.986,1.437.2-.139a2.593,2.593,0,0,0,.79-.754.755.755,0,0,0-.128-.834.68.68,0,0,0-.6-.37,1.565,1.565,0,0,0-.738.305l-.236.163-.158.107Z" transform="translate(-321.023 -243.555)" fill="#757474"/></g><g transform="translate(2.634 1.984)"><path d="M326.068,252.561l-2.383,1.634-.763-1.112,2.383-1.634-.986-1.437-.255.174-.228.157a5.974,5.974,0,0,1-.964.547,2,2,0,0,1-.924.135,1.683,1.683,0,0,1-.85-.338,3,3,0,0,1-.687-.719,2.774,2.774,0,0,1-.427-1.018,1.584,1.584,0,0,1,.019-.9,3.136,3.136,0,0,1,.26-.523,2.632,2.632,0,0,1,.366-.423,5.3,5.3,0,0,1,.7-.55l.228-.156.193-.132-.384-.56.49-.336.384.56L324.6,244.3l.775,1.13-2.365,1.622,1.034,1.507.368-.253q.3-.2.549-.364c.168-.106.35-.213.548-.318a2.015,2.015,0,0,1,.749-.2,1.467,1.467,0,0,1,.88.195,2.7,2.7,0,0,1,.849.853,3.139,3.139,0,0,1,.337.651,2.156,2.156,0,0,1,.149.716,1.911,1.911,0,0,1-.105.69,2.376,2.376,0,0,1-.483.7,6.823,6.823,0,0,1-.77.606l-.254.174-.306.21.42.613-.49.337Zm-2.775-3.481.263-.181-1.033-1.507a3.225,3.225,0,0,0-.846.786.744.744,0,0,0,.082.9.709.709,0,0,0,.675.394A2.144,2.144,0,0,0,323.293,249.08Zm1.517.6.986,1.437.2-.138a2.585,2.585,0,0,0,.791-.755.756.756,0,0,0-.127-.834.682.682,0,0,0-.6-.37,1.555,1.555,0,0,0-.737.305l-.236.163-.159.108Z" transform="translate(-319.93 -244.304)" fill="#b2d092"/></g></g></g><g transform="translate(156.296 67.367)"><path d="M286.187,88.523a19.929,19.929,0,1,1-27.708-5.163A19.93,19.93,0,0,1,286.187,88.523Z" transform="translate(-249.821 -79.864)" fill="#f4af23"/><g transform="translate(2.378 2.378)"><path d="M287.8,93.441a17.552,17.552,0,1,1-24.4-4.547A17.552,17.552,0,0,1,287.8,93.441Z" transform="translate(-255.773 -85.815)" fill="#d86e19"/><path d="M288.926,96.873a15.893,15.893,0,1,1-22.1-4.116A15.894,15.894,0,0,1,288.926,96.873Z" transform="translate(-258.266 -88.309)" fill="#f4af23"/><path d="M288.926,96.873a15.893,15.893,0,1,1-22.1-4.116A15.894,15.894,0,0,1,288.926,96.873Z" transform="translate(-258.266 -88.309)" fill="#f4af23"/><path d="M285.953,112.828a11.476,11.476,0,1,1,2.973-15.955,15.893,15.893,0,1,0-4.116,22.1,15.894,15.894,0,0,0,4.116-22.1A11.477,11.477,0,0,1,285.953,112.828Z" transform="translate(-258.266 -88.309)" fill="#ffd058" style="mix-blend-mode:multiply;isolation:isolate"/><path d="M285.474,115.4a13.327,13.327,0,1,1,3.049-19.085,15.891,15.891,0,1,0,.776,1.131A13.329,13.329,0,0,1,285.474,115.4Z" transform="translate(-258.266 -88.31)" fill="#ffd058" style="mix-blend-mode:multiply;isolation:isolate"/><path d="M311.252,105.111a6.6,6.6,0,1,1-9.176-1.709A6.6,6.6,0,0,1,311.252,105.111Z" transform="translate(-281.856 -95.68)" fill="#fff" style="mix-blend-mode:soft-light;isolation:isolate"/><path d="M312.72,111.506a2.657,2.657,0,1,1-3.694-.688A2.657,2.657,0,0,1,312.72,111.506Z" transform="translate(-287.059 -100.55)" fill="#fff" style="mix-blend-mode:soft-light;isolation:isolate"/><g transform="translate(8.387 7.201)"><g transform="translate(0.888)" style="mix-blend-mode:multiply;isolation:isolate"><path d="M291.484,120.649l-4.85,3.327-1.553-2.264,4.851-3.327-2.006-2.924-.518.355-.463.318a12.062,12.062,0,0,1-1.964,1.113,4.064,4.064,0,0,1-1.882.275,3.435,3.435,0,0,1-1.731-.688,6.124,6.124,0,0,1-1.4-1.464,5.653,5.653,0,0,1-.87-2.071,3.224,3.224,0,0,1,.038-1.836,6.285,6.285,0,0,1,.528-1.065,5.477,5.477,0,0,1,.746-.863,11.031,11.031,0,0,1,1.421-1.119l.464-.318.393-.269-.783-1.141,1-.685.783,1.141,4.814-3.3,1.578,2.3-4.814,3.3,2.1,3.067.749-.514q.606-.416,1.118-.74t1.116-.648a4.114,4.114,0,0,1,1.523-.416,2.99,2.99,0,0,1,1.793.4,5.5,5.5,0,0,1,1.729,1.738,6.349,6.349,0,0,1,.686,1.325,4.424,4.424,0,0,1,.3,1.457,3.928,3.928,0,0,1-.215,1.406,4.792,4.792,0,0,1-.983,1.435,13.812,13.812,0,0,1-1.568,1.232l-.517.355-.624.428.856,1.249-1,.685Zm-5.647-7.086.535-.367-2.1-3.067a6.578,6.578,0,0,0-1.721,1.6,1.515,1.515,0,0,0,.166,1.827,1.441,1.441,0,0,0,1.374.8A4.369,4.369,0,0,0,285.837,113.562Zm3.087,1.213,2.006,2.924.41-.281a5.271,5.271,0,0,0,1.608-1.536,1.536,1.536,0,0,0-.26-1.7,1.384,1.384,0,0,0-1.211-.754,3.157,3.157,0,0,0-1.5.622l-.481.33-.321.22Z" transform="translate(-278.99 -103.841)" fill="#757474"/></g><g transform="translate(0 0.609)"><path d="M289.26,122.174l-4.85,3.327-1.553-2.264,4.85-3.327-2.006-2.924-.517.354-.464.318a12.03,12.03,0,0,1-1.964,1.113,4.061,4.061,0,0,1-1.882.275,3.43,3.43,0,0,1-1.73-.687,6.124,6.124,0,0,1-1.4-1.464,5.646,5.646,0,0,1-.871-2.072,3.23,3.23,0,0,1,.039-1.836,6.329,6.329,0,0,1,.529-1.065,5.47,5.47,0,0,1,.745-.863,11,11,0,0,1,1.423-1.119l.463-.318.392-.269-.783-1.142,1-.685.783,1.141,4.815-3.3,1.578,2.3-4.815,3.3,2.1,3.067.749-.514q.606-.415,1.118-.74t1.116-.648a4.118,4.118,0,0,1,1.524-.416,2.981,2.981,0,0,1,1.793.4,5.5,5.5,0,0,1,1.729,1.737,6.425,6.425,0,0,1,.686,1.326,4.459,4.459,0,0,1,.3,1.457,3.922,3.922,0,0,1-.215,1.406,4.811,4.811,0,0,1-.983,1.435,13.827,13.827,0,0,1-1.568,1.231l-.517.355-.624.428.857,1.249-1,.684Zm-5.647-7.086.534-.367-2.1-3.067a6.549,6.549,0,0,0-1.72,1.6,1.513,1.513,0,0,0,.164,1.827,1.441,1.441,0,0,0,1.375.8A4.356,4.356,0,0,0,283.613,115.087ZM286.7,116.3l2.006,2.925.41-.281a5.277,5.277,0,0,0,1.608-1.536,1.538,1.538,0,0,0-.259-1.7,1.389,1.389,0,0,0-1.213-.755,3.161,3.161,0,0,0-1.5.623l-.481.33-.321.221Z" transform="translate(-276.766 -105.366)" fill="#ffd400"/></g></g></g></g></g></svg>