<svg xmlns="http://www.w3.org/2000/svg" width="15.655" height="13.471" viewBox="0 0 15.655 13.471"><defs><style>.a{fill:none;stroke:#707070;stroke-width:0.5px;}</style></defs><g transform="translate(0.25 -31.454)"><ellipse class="a" cx="2.342" cy="2.576" rx="2.342" ry="2.576" transform="translate(5.121 31.704)"/><ellipse class="a" cx="1.405" cy="1.639" rx="1.405" ry="1.639" transform="translate(11.533 33.577)"/><circle class="a" cx="1.639" cy="1.639" r="1.639" transform="translate(0.596 33.577)"/><path class="a" d="M3.806,240.968a2.522,2.522,0,0,0-1.88-.437A1.922,1.922,0,0,0,0,242.445v3.1a.833.833,0,0,0,.834.831c1.986,0,1.747.036,1.747-.086C2.581,244.093,2.321,242.484,3.806,240.968Z" transform="translate(0 -202.62)"/><path class="a" d="M125.085,239.883a4.848,4.848,0,0,0-3.515.769c-1.684,1.246-1.36,2.924-1.36,4.977a1.038,1.038,0,0,0,1.075.993c6.48,0,6.738.193,7.122-.593.126-.266.091-.181.091-2.725A3.573,3.573,0,0,0,125.085,239.883Z" transform="translate(-116.776 -201.962)"/><path class="a" d="M379.69,240.532a2.521,2.521,0,0,0-1.88.437c1.474,1.5,1.225,3,1.225,5.32,0,.122-.2.086,1.717.086a.863.863,0,0,0,.864-.861v-3.068A1.922,1.922,0,0,0,379.69,240.532Z" transform="translate(-366.461 -202.622)"/></g></svg>