<svg xmlns="http://www.w3.org/2000/svg" width="16" height="16" viewBox="0 0 16 16"><defs><style>.a{fill:#707070;}</style></defs><g transform="translate(-2)"><path class="a" d="M17.714,1.067h-2v-.8A.276.276,0,0,0,15.429,0h-2a.276.276,0,0,0-.286.267v.8H6.857v-.8A.276.276,0,0,0,6.571,0h-2a.276.276,0,0,0-.286.267v.8h-2A.276.276,0,0,0,2,1.333v14.4A.276.276,0,0,0,2.286,16H17.714A.276.276,0,0,0,18,15.733V1.333A.276.276,0,0,0,17.714,1.067Zm-4-.533h1.429v1.6H13.714V.533Zm-8.857,0H6.286v1.6H4.857V.533ZM2.571,1.6H4.286v.8a.276.276,0,0,0,.286.267h2A.276.276,0,0,0,6.857,2.4V1.6h6.286v.8a.276.276,0,0,0,.286.267h2a.276.276,0,0,0,.286-.267V1.6h1.714V4H2.571Zm0,13.867V4.533H17.429V15.467Z"/><path class="a" d="M18.714,23H11v8.286H21.857V23H18.714Zm-2,.571h2v2h-2Zm2,4.571h-2v-2h2Zm-4.571-2h2v2h-2Zm0-2.571h2v2h-2Zm-2.571,0h2v2h-2Zm0,2.571h2v2h-2Zm2,4.571h-2v-2h2Zm2.571,0h-2v-2h2Zm2.571,0h-2v-2h2Zm2.571,0h-2v-2h2Zm0-2.571h-2v-2h2Zm0-4.571v2h-2v-2Z" transform="translate(-6.429 -17.571)"/></g></svg>