<svg xmlns="http://www.w3.org/2000/svg" width="16" height="16.309" viewBox="0 0 16 16.309"><defs><style>.a{fill:#707070;}</style></defs><g transform="translate(-0.45 0)"><path class="a" d="M56.875,84.394a.308.308,0,0,0,.422-.111,5.457,5.457,0,0,1,.58-.811.308.308,0,1,0-.467-.4,6.046,6.046,0,0,0-.645.9.308.308,0,0,0,.111.422Zm0,0" transform="translate(-53.729 -79.213)"/><path class="a" d="M118.276,99.779a.307.307,0,0,1-.218-.091L115.78,97.41a.309.309,0,0,1-.09-.218V93.938a.308.308,0,0,1,.617,0v3.127l2.188,2.188a.309.309,0,0,1-.218.527Zm0,0" transform="translate(-108.079 -89.398)"/><path class="a" d="M15.332,11.034a7.719,7.719,0,0,0,.706-3.239,7.793,7.793,0,1,0-4.964,7.262,2.959,2.959,0,1,0,4.258-4.023ZM8.244,14.971a7.177,7.177,0,1,1,7.177-7.177,7.107,7.107,0,0,1-.615,2.9,2.936,2.936,0,0,0-1.131-.3A6.025,6.025,0,0,0,5.124,2.637a.309.309,0,0,0,.32.528,5.412,5.412,0,0,1,7.546,7.23.294.294,0,0,0-.012.038,2.966,2.966,0,0,0-2.368,2.225A5.409,5.409,0,0,1,2.87,7.166a.308.308,0,0,0-.613-.072,6.028,6.028,0,0,0,5.286,6.687,6.1,6.1,0,0,0,.707.041,5.994,5.994,0,0,0,2.278-.452,2.946,2.946,0,0,0,.237,1.139,7.143,7.143,0,0,1-2.521.462Zm5.244.72a2.345,2.345,0,1,1,2.345-2.345A2.347,2.347,0,0,1,13.488,15.692Zm0,0"/><path class="a" d="M265.142,269.784a.308.308,0,0,0-.436,0l-.684.684-.684-.684a.308.308,0,1,0-.436.436l.684.684-.684.684a.308.308,0,1,0,.436.436l.684-.684.684.684a.308.308,0,0,0,.436-.436l-.684-.684.684-.684A.308.308,0,0,0,265.142,269.784Zm0,0" transform="translate(-250.505 -257.507)"/></g></svg>