<svg xmlns="http://www.w3.org/2000/svg" width="16" height="16.308" viewBox="0 0 16 16.308"><defs><style>.a{fill:#707070;}</style></defs><g transform="translate(-0.45 0)"><path class="a" d="M56.877,84.4a.309.309,0,0,0,.422-.111,5.453,5.453,0,0,1,.58-.811.308.308,0,1,0-.467-.4,6.06,6.06,0,0,0-.645.9.308.308,0,0,0,.111.422Zm0,0" transform="translate(-53.731 -79.214)"/><path class="a" d="M116,99.779a.308.308,0,0,0,.218-.09L118.5,97.41a.308.308,0,0,0,.091-.218V93.938a.309.309,0,0,0-.617,0v3.127l-2.188,2.188a.308.308,0,0,0,.218.527Zm0,0" transform="translate(-110.033 -89.398)"/><path class="a" d="M15.332,11.034a7.721,7.721,0,0,0,.706-3.239,7.794,7.794,0,1,0-4.964,7.262,2.959,2.959,0,1,0,4.258-4.023ZM8.244,14.972a7.177,7.177,0,1,1,7.177-7.177,7.11,7.11,0,0,1-.615,2.9,2.938,2.938,0,0,0-1.13-.3A6.025,6.025,0,0,0,5.124,2.637a.309.309,0,0,0,.32.528A5.413,5.413,0,0,1,13,10.372a.3.3,0,0,0-.018.06,2.966,2.966,0,0,0-2.379,2.247.307.307,0,0,0-.069.017A5.411,5.411,0,0,1,2.87,7.166a.308.308,0,1,0-.613-.072,6.028,6.028,0,0,0,5.286,6.687,6.017,6.017,0,0,0,2.985-.408,2.942,2.942,0,0,0,.237,1.136,7.138,7.138,0,0,1-2.52.463Zm5.244.72a2.345,2.345,0,1,1,2.344-2.345A2.347,2.347,0,0,1,13.488,15.692Zm0,0" transform="translate(0 0)"/><path class="a" d="M282.464,254.4a.309.309,0,0,0-.309.309v1.851a.308.308,0,0,0,.617,0v-1.851A.308.308,0,0,0,282.464,254.4Zm0,0" transform="translate(-268.976 -242.902)"/><path class="a" d="M282.774,316.148a.308.308,0,1,1-.308-.308A.308.308,0,0,1,282.774,316.148Zm0,0" transform="translate(-268.977 -301.567)"/></g></svg>