<svg xmlns="http://www.w3.org/2000/svg" width="16" height="16.259" viewBox="0 0 16 16.259"><defs><style>.a{fill:#707070;}</style></defs><g transform="translate(-0.392 0)"><path class="a" d="M16.392,134.989v-2.4a1.335,1.335,0,0,0-1.333-1.333H13.992v-2.667a.267.267,0,0,0-.267-.267h-1.6a.267.267,0,0,0-.267.267v2.667h-2.4v-3.2a.267.267,0,0,0-.267-.267h-1.6a.267.267,0,0,0-.267.267v3.2h-2.4v-2.667a.267.267,0,0,0-.267-.267h-1.6a.267.267,0,0,0-.267.267v2.667H1.726a1.335,1.335,0,0,0-1.333,1.333v2.4a1.547,1.547,0,0,0,.8,1.379v2.887H.659a.267.267,0,1,0,0,.533H16.125a.267.267,0,1,0,0-.533h-.533v-2.883A1.6,1.6,0,0,0,16.392,134.989Zm-4-6.133h1.067v2.4H12.392Zm-4.533-.533H8.926v2.933H7.859Zm-4.533.533H4.392v2.4H3.326Zm-2.4,3.733a.8.8,0,0,1,.8-.8H15.059a.8.8,0,0,1,.8.8v2.4a1.073,1.073,0,0,1-.638.979,1.091,1.091,0,0,1-1.183-.222,1.071,1.071,0,0,1-.312-.757v-1.067a1.064,1.064,0,0,0-.59-.949l-.016-.009a1.01,1.01,0,0,0-.132-.051c-.027-.009-.051-.018-.077-.024a1,1,0,0,0-.1-.018c-.023,0-.046-.01-.07-.012H12.7c-.013,0-.026,0-.04,0-.03,0-.058.006-.087.008s-.061,0-.09.009a1.069,1.069,0,0,0-.136.035c-.024.007-.049.013-.072.022a1.03,1.03,0,0,0-.144.072c-.017.01-.035.017-.051.027a1.075,1.075,0,0,0-.173.139,1.06,1.06,0,0,0-.313.754v.533a1.067,1.067,0,1,1-2.133,0v-.533a1.064,1.064,0,0,0-.59-.949l-.016-.009a1.01,1.01,0,0,0-.132-.051c-.027-.009-.051-.018-.077-.024a1,1,0,0,0-.1-.018c-.023,0-.046-.01-.07-.012H8.433c-.013,0-.026,0-.04,0-.03,0-.058.006-.087.008s-.061,0-.09.009a1.071,1.071,0,0,0-.136.035c-.024.007-.049.013-.072.022a1.033,1.033,0,0,0-.143.072c-.017.01-.035.017-.052.027a1.061,1.061,0,0,0-.486.894v1.6a1.067,1.067,0,0,1-2.133,0v-1.6a1.064,1.064,0,0,0-.59-.949l-.016-.009a1.019,1.019,0,0,0-.132-.051c-.027-.009-.051-.018-.077-.024a1,1,0,0,0-.1-.018c-.023,0-.046-.01-.07-.012s-.051,0-.078,0a1.067,1.067,0,0,0-1.067,1.067v1.067a1.068,1.068,0,0,1-.31.754,1.1,1.1,0,0,1-1,.283,1.064,1.064,0,0,1-.187-.058,1.1,1.1,0,0,1-.328-.223,1.071,1.071,0,0,1-.312-.757Zm.8,6.667v-2.689c.027,0,.053.006.08.009l.02,0a1.584,1.584,0,0,0,.889-.165l.041-.021a1.616,1.616,0,0,0,.15-.093l.046-.032a1.555,1.555,0,0,0,.64-1.278v-1.067a.529.529,0,0,1,.157-.377.539.539,0,0,1,.087-.071l.017-.009a.528.528,0,0,1,.082-.041l.025-.008a.505.505,0,0,1,.08-.02l.039,0a.6.6,0,0,1,.067,0l.05.005a.454.454,0,0,1,.06.011l.019.006a.583.583,0,0,1,.383.554v1.555a1.6,1.6,0,0,0,3.2,0v-1.6a.532.532,0,0,1,.245-.448l.014-.008a.532.532,0,0,1,.085-.042l.023-.007a.574.574,0,0,1,.08-.021l.038,0a.547.547,0,0,1,.068,0l.05.005a.458.458,0,0,1,.06.011l.019.006a.583.583,0,0,1,.385.554v.488a1.6,1.6,0,1,0,3.2,0v-.533a.53.53,0,0,1,.157-.377.542.542,0,0,1,.087-.07l.018-.009a.548.548,0,0,1,.082-.04l.027-.008a.494.494,0,0,1,.079-.02l.039,0a.6.6,0,0,1,.067,0l.05.005a.462.462,0,0,1,.06.011l.019.006a.583.583,0,0,1,.383.554v1.022a1.6,1.6,0,0,0,.469,1.134,1.622,1.622,0,0,0,.169.143l.053.036c.045.031.09.059.137.085l.056.029a1.629,1.629,0,0,0,.165.071l.034.013a1.62,1.62,0,0,0,.453.085h0a1.6,1.6,0,0,0,.223-.007l.027,0c.027,0,.053,0,.08-.008v2.689Zm0,0" transform="translate(0 -123.529)"/><path class="a" d="M201.731,3.726a1.335,1.335,0,0,0,1.333-1.333A6.557,6.557,0,0,0,201.951.108a.277.277,0,0,0-.439,0A6.555,6.555,0,0,0,200.4,2.393,1.335,1.335,0,0,0,201.731,3.726Zm0-2.985a5.19,5.19,0,0,1,.8,1.651.8.8,0,1,1-1.6,0A5.189,5.189,0,0,1,201.731.742Zm0,0" transform="translate(-193.339 0)"/><path class="a" d="M337.731,19.726a1.335,1.335,0,0,0,1.333-1.333,6.556,6.556,0,0,0-1.114-2.285.277.277,0,0,0-.439,0,6.556,6.556,0,0,0-1.114,2.285A1.335,1.335,0,0,0,337.731,19.726Zm0-2.985a5.19,5.19,0,0,1,.8,1.651.8.8,0,1,1-1.6,0A5.19,5.19,0,0,1,337.731,16.742Zm0,0" transform="translate(-324.806 -15.467)"/><path class="a" d="M65.731,19.726a1.335,1.335,0,0,0,1.333-1.333,6.557,6.557,0,0,0-1.114-2.285.277.277,0,0,0-.439,0A6.555,6.555,0,0,0,64.4,18.393,1.335,1.335,0,0,0,65.731,19.726Zm0-2.985a5.189,5.189,0,0,1,.8,1.651.8.8,0,1,1-1.6,0A5.188,5.188,0,0,1,65.731,16.742Zm0,0" transform="translate(-61.872 -15.467)"/></g></svg>