<svg xmlns="http://www.w3.org/2000/svg" width="32.018" height="32.018" viewBox="0 0 32.018 32.018"><defs><style>.a{fill:#707070;}.b{fill:none;stroke:#707070;stroke-linecap:round;stroke-width:1.5px;}</style></defs><g transform="translate(-721.645 -316.337)"><g transform="translate(-17.355 -10.663)"><path class="a" d="M16.009,32.018A16.017,16.017,0,0,0,30.786,9.841a.633.633,0,1,0-1.168.489,14.726,14.726,0,1,1-8.756-8.246.633.633,0,1,0,.417-1.2,16.011,16.011,0,1,0-5.27,31.13Zm0,0" transform="translate(739 327)"/><path class="a" d="M137.04,78.1a2.711,2.711,0,0,1,2.707,2.707.633.633,0,0,0,1.266,0,3.98,3.98,0,0,0-3.341-3.923V75.633a.633.633,0,1,0-1.266,0v1.253a3.974,3.974,0,0,0,.633,7.9,2.707,2.707,0,0,1,.031,5.414l-.031,0-.031,0a2.71,2.71,0,0,1-2.676-2.707.633.633,0,0,0-1.266,0,3.979,3.979,0,0,0,3.341,3.923v1.405a.633.633,0,0,0,1.266,0V91.413a3.973,3.973,0,0,0-.633-7.9,2.707,2.707,0,1,1,0-5.415Zm0,0" transform="translate(617.969 258.784)"/></g><g transform="translate(-2)"><line class="b" x2="8" transform="translate(745.5 321.5)"/><line class="b" y1="8" transform="translate(749.5 317.5)"/></g></g></svg>