<svg xmlns="http://www.w3.org/2000/svg" width="25" height="25" viewBox="0 0 25 25"><path d="M21.339,3.661A12.5,12.5,0,1,0,3.661,21.339,12.5,12.5,0,1,0,21.339,3.661Zm-2.7,17.992-.613-1.062-1.279.738.614,1.064A10.941,10.941,0,0,1,13.238,23.5v-1.23H11.762V23.5a10.94,10.94,0,0,1-4.121-1.105l.614-1.064-1.279-.738-.613,1.062a11.114,11.114,0,0,1-3.016-3.016l1.062-.613-.738-1.279-1.064.614A10.94,10.94,0,0,1,1.5,13.238h1.23V11.762H1.5A10.94,10.94,0,0,1,2.607,7.641l1.064.614.738-1.279L3.347,6.363A11.114,11.114,0,0,1,6.363,3.347l.613,1.062,1.279-.738L7.641,2.607A10.941,10.941,0,0,1,11.762,1.5v1.23h1.476V1.5a10.94,10.94,0,0,1,4.121,1.105l-.614,1.064,1.279.738.613-1.062a11.114,11.114,0,0,1,3.016,3.016l-1.062.613.738,1.279,1.064-.614A10.942,10.942,0,0,1,23.5,11.762h-1.23v1.476H23.5a10.94,10.94,0,0,1-1.105,4.121l-1.064-.614-.738,1.279,1.062.613a11.113,11.113,0,0,1-3.016,3.016Z" transform="translate(0 0)" fill="#fff"/><path d="M110.9,102a8.9,8.9,0,1,0,8.9,8.9A8.911,8.911,0,0,0,110.9,102Zm0,9.716a.815.815,0,1,1,.815-.815A.816.816,0,0,1,110.9,111.716Zm1.088-3.145c-.068-.032-.138-.061-.209-.087v-4.673a7.11,7.11,0,0,1,3.512,1.458Zm-1.966-.087c-.071.026-.141.055-.209.087l-3.3-3.3a7.109,7.109,0,0,1,3.512-1.458Zm-1.451,1.33c-.032.068-.061.138-.087.209h-4.673a7.11,7.11,0,0,1,1.458-3.512Zm-.087,1.966c.026.071.055.141.087.209l-3.3,3.3a7.109,7.109,0,0,1-1.458-3.512Zm1.33,1.451c.068.032.138.061.209.087v4.673a7.11,7.11,0,0,1-3.512-1.458Zm1.966.087c.071-.026.141-.055.209-.087l3.3,3.3a7.11,7.11,0,0,1-3.512,1.458Zm1.451-1.33c.032-.068.061-.138.087-.209h4.673a7.11,7.11,0,0,1-1.458,3.512Zm.087-1.966c-.026-.071-.055-.141-.087-.209l3.3-3.3a7.11,7.11,0,0,1,1.458,3.512Z" transform="translate(-98.401 -98.401)" fill="#fff"/></svg>