<svg xmlns="http://www.w3.org/2000/svg" width="16" height="6.4" viewBox="0 0 16 6.4"><defs><style>.a{fill:#707070;}</style></defs><g transform="translate(-15.999 -159.999)"><path class="a" d="M16.543,165.139a.267.267,0,0,0,.256.193h1.158a1.6,1.6,0,0,0,3.017,0h6.583a1.6,1.6,0,0,0,3.1-.414l1.2-.688A.267.267,0,0,0,32,164v-2.4a.267.267,0,0,0-.187-.255l-2.889-.9a9.724,9.724,0,0,0-7.8.882l-.93.542a8.313,8.313,0,0,0-4.045,1.093l-.014.008a.267.267,0,0,0-.124.3Zm2.923.727a1.067,1.067,0,1,1,1.067-1.067A1.067,1.067,0,0,1,19.466,165.866Zm9.6,0a1.067,1.067,0,1,1,1.067-1.067A1.067,1.067,0,0,1,29.066,165.866Zm2.4-3.224a1.446,1.446,0,0,1-.862-.509h.862Zm-11.2-.243a.266.266,0,0,0,.134-.036l.992-.578a9.191,9.191,0,0,1,7.372-.834l2.075.648h-.706a.267.267,0,0,0-.239.386l.056.113a1.98,1.98,0,0,0,1.516,1.084v.663l-.867.5a1.6,1.6,0,0,0-3.133.459h-6.4a1.6,1.6,0,0,0-3.2,0H17l-.152-.533h.218a.267.267,0,0,0,.222-.119l.992-1.488A7.768,7.768,0,0,1,20.266,162.4Zm-2.8.524-.54.809H16.7l-.115-.4A7.754,7.754,0,0,1,17.463,162.923Z" transform="translate(0 0)"/><path class="a" d="M176.644,193.64a8.132,8.132,0,0,1,4.093-1.107c.074,0,.169,0,.282.009a.662.662,0,0,1-.035,1.324h-.827l.345-.345-.377-.377-.8.8a.267.267,0,0,0,0,.377l.8.8.377-.377-.345-.345h.827a1.2,1.2,0,0,0,.064-2.39c-.123-.007-.228-.01-.312-.01a8.666,8.666,0,0,0-4.362,1.179l-.326.19.269.461Z" transform="translate(-154.715 -30.934)"/><ellipse class="a" cy="0.5" ry="0.5" transform="translate(19.999 163.599)"/><circle class="a" cx="0.5" cy="0.5" r="0.5" transform="translate(27.999 163.599)"/></g></svg>