<svg xmlns="http://www.w3.org/2000/svg" width="16" height="14.596" viewBox="0 0 16 14.596"><defs><style>.a{fill:#707070;}</style></defs><g transform="translate(0 -20.652)"><path class="a" d="M14.471,28.144l.817-.1a.809.809,0,0,0-.1-1.612h-.569a.81.81,0,0,0-.759.529l-.8-1.743a2.314,2.314,0,0,0-1.579-1.287l-.1-.022a3.386,3.386,0,0,0-6.767,0l-.1.022a2.314,2.314,0,0,0-1.579,1.287l-.8,1.742a.81.81,0,0,0-.759-.529H.809a.809.809,0,0,0-.1,1.612l.817.1-.782.782a1.727,1.727,0,0,0-.486,1.456l.267,1.885a1.908,1.908,0,0,0,.677,1.2v.856a.924.924,0,0,0,.923.923H3.66a.924.924,0,0,0,.923-.923v-.416h6.834v.416a.924.924,0,0,0,.923.923h1.531a.924.924,0,0,0,.923-.923v-.856a1.908,1.908,0,0,0,.677-1.2l.267-1.885a1.726,1.726,0,0,0-.486-1.456ZM13.58,33.3H2.42a1.305,1.305,0,0,1-1.273-1.045H14.853A1.305,1.305,0,0,1,13.58,33.3ZM11.6,30.645l.311,1h-.424l-.311-1Zm-1.065,0,.311,1h-5.7l.311-1Zm-6.032,1H4.084l.311-1h.424Zm-1.065,0H1.058l-.141-1H3.754Zm9.114,0-.311-1h2.838l-.141,1Zm1.868-4.4a.2.2,0,0,1,.2-.2h.569a.2.2,0,0,1,.024.392l-.79.1v-.291Zm-2.366-2.358c-.189-.033-.443-.062-.759-.087q.03-.132.05-.268h0A1.689,1.689,0,0,1,12.059,24.884ZM8,21.264a2.774,2.774,0,1,1-2.774,2.774A2.777,2.777,0,0,1,8,21.264ZM4.649,24.53h0q.02.136.05.268c-.317.025-.571.054-.759.087A1.69,1.69,0,0,1,4.649,24.53ZM3.386,25.7A2.313,2.313,0,0,1,4,25.5a8.493,8.493,0,0,1,.9-.1,3.385,3.385,0,0,0,6.2,0,8.458,8.458,0,0,1,.9.1,2.312,2.312,0,0,1,.61.207l.946,2.07H2.44ZM.612,27.242a.2.2,0,0,1,.2-.2h.569a.2.2,0,0,1,.2.2v.291l-.79-.1A.2.2,0,0,1,.612,27.242Zm1.542,1.142H13.846l.974.974a1.112,1.112,0,0,1,.318.674H.862a1.112,1.112,0,0,1,.318-.674Zm1.818,5.94a.312.312,0,0,1-.311.311H2.129a.312.312,0,0,1-.311-.311V33.81a1.888,1.888,0,0,0,.6.1H3.971Zm10.211,0a.312.312,0,0,1-.311.311H12.34a.312.312,0,0,1-.311-.311v-.416H13.58a1.888,1.888,0,0,0,.6-.1v.515Z"/><path class="a" d="M193.022,62.986a.306.306,0,0,0,.267.156h.03a.306.306,0,0,0,.261-.209l1.122-3.416a.306.306,0,0,0-.581-.191l-.905,2.756-.577-1.026a.306.306,0,1,0-.533.3Z" transform="translate(-185.535 -37.154)"/></g></svg>