<svg xmlns="http://www.w3.org/2000/svg" width="176.103" height="177.355" viewBox="0 0 176.103 177.355"><g transform="translate(-129 -449.5)"><path d="M467.224,39.806h-23.56a1.385,1.385,0,0,1-1.386-1.385V14.86a6.93,6.93,0,0,0-13.859,0V38.421a1.386,1.386,0,0,1-1.386,1.385h-23.56a6.93,6.93,0,1,0,0,13.859h23.56a1.387,1.387,0,0,1,1.386,1.386v23.56a6.93,6.93,0,1,0,13.859,0V55.051a1.386,1.386,0,0,1,1.386-1.386h23.56a6.93,6.93,0,0,0,0-13.859Z" transform="translate(-169.55 442.069)" fill="#fff" stroke="rgba(0,0,0,0)" stroke-width="1"/><path d="M453.55,104.786h0a75,75,0,0,1-75,75h0a75,75,0,0,1-75-75h0a75,75,0,0,1,75-75h0" transform="translate(-169.55 442.069)" fill="rgba(0,0,0,0)" stroke="#fff" stroke-miterlimit="10" stroke-width="10"/><path d="M394.7,99.475a139.868,139.868,0,0,0-14.2-6.426,31.892,31.892,0,0,1-7.793-4.364c-4.628-3.693-3.741-9.687,1.679-12.061a13.664,13.664,0,0,1,4.771-.983,36.22,36.22,0,0,1,17.936,3.548c2.83,1.367,3.765.936,4.724-2.014,1.007-3.117,1.846-6.282,2.782-9.423.623-2.11-.144-3.5-2.135-4.388a45.548,45.548,0,0,0-11.317-3.381c-5.132-.792-5.132-.816-5.156-5.971-.024-7.265-.024-7.265-7.313-7.265-1.055,0-2.11-.024-3.165,0-3.4.095-3.981.695-4.077,4.124-.048,1.534,0,3.069-.024,4.628-.024,4.556-.048,4.484-4.412,6.066-10.55,3.837-17.072,11.03-17.768,22.54-.623,10.191,4.7,17.073,13.068,22.084,5.156,3.093,10.863,4.916,16.33,7.338a24.23,24.23,0,0,1,5.946,3.5c5.252,4.34,4.293,11.557-1.942,14.291a19.558,19.558,0,0,1-10.478,1.366,46.773,46.773,0,0,1-15.97-4.771c-2.949-1.535-3.813-1.127-4.82,2.062-.863,2.757-1.63,5.539-2.4,8.32-1.031,3.741-.647,4.628,2.926,6.379a50.977,50.977,0,0,0,14.387,4.124c3.884.623,4,.791,4.052,4.82.024,1.822.024,3.668.048,5.491.024,2.3,1.127,3.645,3.5,3.692,2.686.048,5.4.048,8.081-.023,2.206-.048,3.333-1.247,3.333-3.477,0-2.494.12-5.012.024-7.506-.12-2.541.983-3.836,3.429-4.508a27.1,27.1,0,0,0,14.123-9.063C413.136,125.756,409.227,107.508,394.7,99.475Z" transform="translate(-169.55 442.069)" fill="#fff" stroke="rgba(0,0,0,0)" stroke-width="1"/></g></svg>