<svg xmlns="http://www.w3.org/2000/svg" width="176.817" height="162.9" viewBox="0 0 176.817 162.9"><g transform="translate(-13.566 -18.55)"><path d="M171.466,100h0a76.45,76.45,0,0,1-76.45,76.45h0A76.45,76.45,0,0,1,18.566,100h0a76.45,76.45,0,0,1,76.45-76.45h0" fill="rgba(0,0,0,0)" stroke="#fff" stroke-miterlimit="10" stroke-width="10"/><path d="M111.475,94.587A142.471,142.471,0,0,0,97,88.036a32.513,32.513,0,0,1-7.944-4.448c-4.717-3.764-3.813-9.875,1.711-12.295a13.962,13.962,0,0,1,4.864-1,36.916,36.916,0,0,1,18.283,3.618c2.884,1.393,3.837.953,4.815-2.054,1.027-3.177,1.882-6.4,2.835-9.605.636-2.151-.146-3.569-2.175-4.473a46.477,46.477,0,0,0-11.537-3.447c-5.23-.806-5.23-.831-5.255-6.086-.024-7.406-.024-7.406-7.455-7.406-1.075,0-2.151-.024-3.226,0-3.471.1-4.057.709-4.155,4.2-.049,1.565,0,3.129-.025,4.718-.024,4.644-.048,4.57-4.5,6.184-10.754,3.91-17.4,11.243-18.112,22.975-.635,10.388,4.791,17.4,13.321,22.511,5.255,3.154,11.073,5.011,16.645,7.48a24.723,24.723,0,0,1,6.062,3.568c5.353,4.424,4.375,11.781-1.98,14.568A19.937,19.937,0,0,1,88.5,128.439a47.674,47.674,0,0,1-16.278-4.864c-3.007-1.564-3.887-1.149-4.913,2.1-.88,2.811-1.662,5.646-2.444,8.481-1.051,3.813-.66,4.718,2.982,6.5a51.94,51.94,0,0,0,14.665,4.2c3.959.636,4.082.807,4.131,4.913.024,1.858.024,3.74.048,5.6.025,2.347,1.149,3.715,3.569,3.764,2.737.049,5.5.049,8.237-.024,2.249-.049,3.4-1.271,3.4-3.544,0-2.542.123-5.109.025-7.651-.122-2.59,1-3.91,3.5-4.6a27.62,27.62,0,0,0,14.4-9.239C130.271,121.375,126.287,102.775,111.475,94.587Z" fill="#fff" stroke="rgba(0,0,0,0)" stroke-width="1"/><path d="M151.814,41.95" stroke="rgba(0,0,0,0)" stroke-width="1"/><path d="M159.972,48.748h23.113a6.8,6.8,0,0,0,0-13.6H120.544a6.8,6.8,0,1,0,0,13.6h39.428Z" fill="#fff" stroke="rgba(0,0,0,0)" stroke-width="1"/></g></svg>